<?xml version="1.0" encoding="UTF-8" standalone="no"?>
<!-- Created with Inkscape (http://www.inkscape.org/) -->

<svg
   width="1316.604"
   height="283.96677"
   viewBox="0 0 1316.604 283.96679"
   version="1.1"
   id="svg1"
   inkscape:version="1.3.2 (091e20e, 2023-11-25, custom)"
   sodipodi:docname="1-grass.svg"
   inkscape:export-filename="1-grass.svg"
   inkscape:export-xdpi="96"
   inkscape:export-ydpi="96"
   xmlns:inkscape="http://www.inkscape.org/namespaces/inkscape"
   xmlns:sodipodi="http://sodipodi.sourceforge.net/DTD/sodipodi-0.dtd"
   xmlns="http://www.w3.org/2000/svg"
   xmlns:svg="http://www.w3.org/2000/svg">
  <sodipodi:namedview
     id="namedview1"
     pagecolor="#ffffff"
     bordercolor="#000000"
     borderopacity="0.25"
     inkscape:showpageshadow="2"
     inkscape:pageopacity="0.0"
     inkscape:pagecheckerboard="false"
     inkscape:deskcolor="#3d3d3d"
     inkscape:document-units="px"
     inkscape:zoom="0.540625"
     inkscape:cx="635.37572"
     inkscape:cy="4.6242775"
     inkscape:window-width="1366"
     inkscape:window-height="715"
     inkscape:window-x="1358"
     inkscape:window-y="-8"
     inkscape:window-maximized="1"
     inkscape:current-layer="layer1" />
  <defs
     id="defs1">
    <clipPath
       clipPathUnits="userSpaceOnUse"
       id="clipPath45">
      <path
         id="path46"
         style="fill:#ff0000;fill-opacity:1;fill-rule:nonzero;stroke:none"
         d="m 382.78805,1790.7221 v 46.6093 c 0.67482,-0.3018 1.3492,-0.5879 1.73437,-0.75 1.22095,-0.5138 2.72085,-1.1022 3.95313,-1.5918 2.08652,-0.8015 4.2088,-1.4939 6.34179,-2.1562 0.11632,-0.06 0.23355,-0.1178 0.34961,-0.1778 0.2127,-0.1231 0.43001,-0.2376 0.64453,-0.3574 0.0942,-0.077 0.18784,-0.1483 0.26758,-0.1484 0.18223,-0.1 0.36086,-0.2061 0.54492,-0.3027 0.0708,0.1234 0.15699,0.2406 0.23438,0.3613 1.53853,-0.4681 3.07814,-0.9338 4.60937,-1.4238 3.71198,-1.1788 7.2844,-2.7294 10.81055,-4.3711 0.98404,-0.4628 1.9664,-0.9322 2.95703,-1.3809 0.039,-0.018 0.93793,-0.4303 1.07422,-0.4512 0.39643,-0.061 0.80093,-0.051 1.20117,-0.076 6.7e-4,0 9e-4,0.01 0.002,0.012 0.0185,-0.01 0.10657,-0.066 0.11524,-0.068 0.29782,-0.079 0.6043,-0.115 0.91211,-0.1406 0.0725,-0.5741 0.15924,-1.1445 0.29687,-1.7539 0.36001,-1.5942 0.9633,-3.4328 2.73633,-3.9883 0.14001,-0.044 0.28422,-0.064 0.42969,-0.072 0.4364,-0.025 0.89185,0.071 1.33203,0.07 0.39936,0.2024 0.82565,0.3578 1.19727,0.6075 0.6276,0.4217 1.35702,1.2771 1.84375,1.8281 1.14622,1.2974 2.24843,2.6328 3.35156,3.9668 1.27564,1.6273 2.63297,3.2609 3.48828,5.1601 1.66153,3.6894 -2.16392,5.3285 -3.75781,1.6094 -0.0503,-0.1175 -0.10045,-0.209 -0.14453,-0.3027 -0.13979,0.2191 -0.30396,0.4229 -0.51368,0.7109 -0.13302,0.1285 -0.26213,0.2615 -0.39453,0.3907 -0.098,0.3089 -0.21065,0.6091 -0.46484,0.7812 -0.96511,0.6534 -1.47416,0.8688 -1.91211,0.8164 -0.91411,0.5385 -1.84068,1.0574 -2.76953,1.5703 -0.594,0.3233 -1.19219,0.6386 -1.78906,0.9571 -0.0699,0.3193 -0.13559,0.6392 -0.20313,0.9589 -0.21517,0.6482 -0.3986,1.3081 -0.64453,1.9453 -0.53162,1.3774 -1.16956,2.6082 -1.85938,3.9102 -0.2735,0.5162 -1.50214,2.7544 -1.85546,3.3164 -0.26628,0.4235 -0.57286,0.8204 -0.85938,1.2305 -0.43613,0.2951 -0.81316,1.0652 -1.30859,0.8867 -1.17565,-0.4236 -2.28706,-1.2991 -2.88477,-2.3965 -0.34391,-0.6315 0.23454,-1.4207 0.42774,-2.1133 0.20847,-0.7474 0.49755,-1.4708 0.77539,-2.1953 0.29324,-0.7647 0.56019,-1.4047 0.83007,-2.0293 -0.33469,0.1312 -0.59099,0.2325 -1.02148,0.4024 -3.8071,1.3536 -7.62173,2.6955 -11.47852,3.9023 -1.91987,0.6007 -3.05933,0.9082 -4.3125,1.2637 -0.37075,0.2049 -0.71437,0.403 -2.14257,1.209 -1.32828,0.7497 -2.44057,0.7094 -3.12305,0.2636 -3.00559,0.8139 -6.01098,1.6283 -9.02148,2.4239 v 13.8496 h 759.6503 v -72.7656 z m 35.25781,39.8613 c -1.01786,0.6483 -2.15724,1.1074 -3.26563,1.5683 -1.21511,0.4943 -2.43832,0.9702 -3.66015,1.4473 -1.41927,0.9496 -2.8558,1.8724 -4.35743,2.6914 -0.76276,0.416 -1.54435,0.7967 -2.3164,1.1953 -3.27011,1.5713 -6.62723,2.9498 -9.98242,4.3262 -1.51344,0.6208 -2.65821,0.3656 -3.25,-0.252 -1.18566,0.5286 -2.37272,1.0632 -3.59571,1.4942 -0.42002,0.1481 -0.84848,0.2652 -1.27343,0.3984 -0.21877,-0.1125 -0.46042,-0.2007 -0.70704,-0.2832 -0.96151,0.618 -1.91,1.256 -2.8496,1.9063 v 0.33 c 3.59042,-0.9517 7.17825,-1.9133 10.76171,-2.8906 0.87933,-0.2489 1.36207,-0.4052 1.96094,-0.5742 0.38838,-0.2114 0.77905,-0.4176 2.33594,-1.252 2.33829,-1.1581 3.1415,-1.5949 5.52539,-2.625 2.80377,-1.2115 5.70527,-2.1681 8.5293,-3.3281 1.20525,-0.528 2.3855,-1.0635 3.51953,-1.7344 0.2704,-0.16 0.53432,-0.3274 0.79687,-0.5 0.17958,-0.118 0.34331,-0.2633 0.5293,-0.371 0.0181,-0.01 0.002,0.041 0.004,0.061 0.0421,0.5395 0.18566,0.9277 0.39257,1.207 0.27411,-0.5183 0.54449,-1.0385 0.82227,-1.5547 0.0271,-0.4198 0.0591,-0.8393 0.0801,-1.2597 z m 5.17383,0.057 c -0.0914,0.1865 -0.18698,0.3834 -0.27344,0.5508 0.1227,-0.07 0.24678,-0.1368 0.36914,-0.207 -0.0333,-0.1142 -0.0664,-0.2283 -0.0957,-0.3438 z m 662.82231,11.1406 c 0.01,0 0.019,0.01 0.037,0.035 0.012,0.019 0.025,0.039 0.037,0.059 0.013,0.022 0.027,0.041 0.041,0.062 0,-0.017 -0.01,-0.037 0,-0.051 0.07,-0.1005 0.081,-0.1072 0.125,-0.08 0.025,-0.01 0.05,-0.01 0.074,0 0.03,0.01 0.044,0.046 0.061,0.072 0.017,0.025 0.027,0.053 0.039,0.08 0.018,0.039 0.034,0.078 0.049,0.1191 0.021,-7e-4 0.041,8e-4 0.062,0 -0.01,-0.017 -0.014,-0.035 -0.01,-0.053 0.015,-0.1165 0.047,-0.1222 0.1816,-0.062 0.014,0.01 0.074,0.1377 0.074,0.1406 0.034,0.077 0.067,0.1565 0.1,0.2344 0,-0.014 -0.01,-0.027 -0.012,-0.041 0,-0.024 -0.019,-0.1026 0.014,-0.1172 0.046,-0.02 0.1033,-0.018 0.1523,-0.01 0.022,0.01 0.03,0.036 0.043,0.055 0.023,0.034 0.048,0.084 0.068,0.1231 0.02,-0.014 0.039,-0.026 0.062,-0.027 0.017,0 0.033,0.01 0.047,0.018 0.014,-0.011 0.031,-0.019 0.049,-0.02 0.039,0 0.068,0.032 0.1035,0.049 0.015,0.021 0.03,0.041 0.043,0.062 0.027,0.042 0.057,0.1056 0.078,0.1504 0.01,0.021 0.018,0.043 0.027,0.064 0.022,-2e-4 0.045,0 0.066,0 0.042,0.011 0.065,0.068 0.076,0.1055 0.01,0.027 0.015,0.055 0.025,0.082 0.01,0.02 0.01,0.041 0.02,0.061 0.01,0.022 0.017,0.043 0.027,0.064 0.013,0.029 0.023,0.058 0.033,0.088 0.011,0.032 0.022,0.064 0.033,0.096 0.011,0.032 0.021,0.064 0.033,0.096 0.026,0.068 0.013,0.1192 -0.016,0.1445 -2e-4,0.01 -2e-4,0.016 0,0.024 -0.05,0.016 -0.097,0.045 -0.1504,0.049 -0.016,10e-4 -0.019,-0.024 -0.029,-0.037 -0.01,-0.01 -0.01,-0.02 -0.02,-0.031 0,-0.01 -0.01,-0.01 -0.01,-0.016 -0.018,0.013 -0.038,0.026 -0.057,0.037 0,0.01 0.01,0.014 0,0.018 0,0 -0.01,0 -0.01,0 0,0.01 0.01,0.017 0,0.02 -0.033,0.01 -0.067,0.02 -0.1016,0.025 0.026,0.097 0.036,0.075 -0.1523,0.1152 -0.01,0 -0.01,-0.015 -0.016,-0.023 -0.013,-0.021 -0.013,-0.022 -0.017,-0.029 0.013,0.021 0.023,0.036 -0.039,-0.062 -0.01,-0.01 -0.012,-0.02 -0.018,-0.029 -0.052,0.029 -0.096,0.087 -0.1562,0.088 -0.031,6e-4 -0.03,-0.056 -0.043,-0.084 -0.015,-0.032 -0.027,-0.063 -0.041,-0.096 0,0 0,-0.01 0,-0.01 -0.02,-0.036 -0.04,-0.072 -0.061,-0.1074 -0.029,-0.053 -0.059,-0.105 -0.088,-0.1582 0,0.01 0.01,0.022 0.01,0.031 0,0.02 0.014,0.039 0.014,0.059 -0.057,0.02 -0.1129,0.049 -0.1719,0.061 -0.011,0 -0.01,-0.017 -0.01,-0.025 0,0 0,0 0,-0.01 0,2e-4 0,-3e-4 0,0 0,-0.011 0,-0.022 -0.01,-0.033 0,0 0,-0.011 -0.01,-0.016 -0.033,-0.09 -0.067,-0.1791 -0.1,-0.2695 -0.01,-0.027 -0.019,-0.055 -0.029,-0.082 -0.062,-0.079 -0.1219,-0.1584 -0.1796,-0.2403 -0.035,0.015 -0.07,0.031 -0.1075,0.031 -0.015,4e-4 -0.015,-0.032 -0.025,-0.049 -0.01,-0.025 -0.031,-0.1011 -0.031,-0.125 -0.01,-0.046 -0.014,-0.078 -0.02,-0.1133 0,-0.01 -0.01,-0.012 -0.014,-0.018 -0.028,-0.039 -0.055,-0.079 -0.086,-0.1172 -0.02,-0.024 -0.037,-0.051 -0.055,-0.076 -0.014,-0.019 -0.025,-0.038 -0.037,-0.059 -0.013,-0.022 -0.031,-0.043 -0.043,-0.066 0,-0.01 -0.01,-0.013 -0.01,-0.02 0.061,0.033 0.045,-0.1569 0.078,-0.168 z m 0.3359,0.125 c -10e-4,0 0,0.01 0,0.01 v 0 0 z m -0.4434,0.02 h 0.01 c 0,0 0.01,0.01 0.01,0.014 0,0 0.01,0.01 0.01,0.01 -0.01,0 -0.017,-0.011 -0.027,-0.023 z" />
    </clipPath>
    <clipPath
       clipPathUnits="userSpaceOnUse"
       id="clipPath74">
      <path
         id="path75"
         style="fill:#ff0000;fill-opacity:1;fill-rule:nonzero;stroke:none"
         d="m -39.9647,1805.4849 c -0.1045,0.2146 -0.18776,0.4387 -0.29883,0.6504 -0.83275,1.5871 -3.48836,4.502 -5.87305,7.0214 -0.38163,0.8058 -0.85156,1.5587 -1.46093,2.625 -1.55149,1.9122 -3.47988,3.2448 -5.56055,4.3379 -3.65395,3.4339 -7.39689,6.7649 -11.20117,10.043 -7.59044,6.5416 -15.48141,12.6994 -23.76563,18.334 -5.48599,3.5332 -10.90226,7.1773 -16.39062,10.7051 -1.85521,1.1772 -3.65596,2.4327 -5.44727,3.7011 -0.30103,0.3576 -0.5688,0.7419 -0.89453,1.0762 -1.06042,1.0886 -0.27509,0.2794 -1.50195,1.5508 -0.90292,1.0065 -1.3765,1.4805 -2.18164,2.6348 -2.17035,3.1114 -3.67275,6.6257 -5.1836,10.0859 h 554.43555 v -72.7656 z" />
    </clipPath>
  </defs>
  <g
     inkscape:label="Layer 1"
     inkscape:groupmode="layer"
     id="layer1"
     transform="translate(138.18433,-1779.4775)">
    <g
       id="g64"
       style="display:inline"
       inkscape:export-filename="..\..\FlapDolly\assets\images\game_over_screen\grass\3-grass.svg"
       inkscape:export-xdpi="96"
       inkscape:export-ydpi="96"
       transform="translate(-4.9392927,-11.589397)"
       inkscape:label="1">
      <path
         id="path87"
         style="display:inline;opacity:1;fill:#55ae60;fill-opacity:1;stroke:none;stroke-width:1.38;stroke-linecap:round;stroke-linejoin:round;stroke-opacity:0.9;paint-order:stroke markers fill"
         inkscape:label="color"
         d="m 1141.3009,1794.1568 c 0.061,0.1102 0.1361,0.2079 0.1836,0.33 0.3703,0.9555 0.3972,2.0471 0.08,3.0391 -0.064,0.204 -0.1651,0.3826 -0.248,0.5742 -0.4742,0.858 -0.032,0.062 -0.4747,0.8418 -0.061,0.1084 -0.1309,0.2095 -0.1836,0.3262 -0.1548,0.3428 -0.2361,0.746 -0.3144,1.1289 -0.092,0.3522 -0.2248,0.6752 -0.3789,0.9824 -0.045,0.09 -0.097,0.1742 -0.1387,0.2676 -0.024,0.053 -0.1546,0.4283 -0.1797,0.5 -0.1304,0.4135 -0.2736,0.8241 -0.3476,1.2656 -0.019,0.1131 -0.031,0.2292 -0.045,0.3438 -2.962,-1.8304 -6.2307,-2.441 -8.375,-0.041 -0.1167,0.1306 -0.2159,0.275 -0.3204,0.416 0.325,0.09 0.8157,0.2436 1.6641,0.5176 0.1243,0.1068 0.2649,0.1971 0.373,0.3203 0.1711,0.1948 0.2889,0.4084 0.3829,0.6308 -1.079,-0.5672 -2.1475,-1.1317 -2.5118,-1.3418 -0.7167,1.0988 -1.3539,2.2679 -1.8418,3.4864 -0.5623,1.1851 -1.2938,2.2672 -2.1015,3.2968 -0.5701,0.8034 -1.226,1.5339 -1.8653,2.2813 -0.1,0.099 -0.2096,0.19 -0.3007,0.2969 -0.1204,0.1413 -0.2164,0.3 -0.3321,0.4453 -0.4464,0.5608 -0.9294,1.0872 -1.4336,1.5957 -0.1669,0.1735 -0.3311,0.3498 -0.498,0.5234 -0.764,0.6911 -1.5196,1.393 -2.3359,2.0215 -1.1774,0.9474 -2.3843,1.8626 -3.6563,2.6797 -0.7459,0.474 -1.4959,0.9432 -2.1738,1.5137 -0.6244,0.5221 -1.252,1.0377 -1.8203,1.623 -1.4619,1.4322 -3.0149,2.7552 -4.7383,3.8691 -1.6334,1.1293 -3.2703,2.2618 -4.9707,3.2891 -0.416,0.2514 -0.8454,0.481 -1.2637,0.7285 -0.3828,0.2265 -0.7603,0.4627 -1.1406,0.6934 -0.6383,0.3642 -1.5593,0.9027 -2.2285,1.2324 -0.319,0.1572 -0.6552,0.2791 -0.9746,0.4355 -0.6416,0.3142 -1.2503,0.7027 -1.9278,0.9454 -1.0456,0.4519 -2.0774,0.927 -3.0996,1.4296 -1.2671,0.6687 -2.56,1.295 -3.7422,2.1133 -0.3944,0.2391 -0.7867,0.4837 -1.1797,0.7266 l -2.8222,-1.5586 c 0.026,-0.049 0.032,-0.066 0.061,-0.1191 0.1384,-0.2552 0.3033,-0.4956 0.4356,-0.754 0.2845,-0.556 0.4164,-1.1768 0.7363,-1.7167 0.2576,-0.6032 0.5658,-1.178 0.8359,-1.7754 0.3146,-0.696 0.5791,-1.415 0.9239,-2.0977 0.616,-1.2731 1.1495,-2.5862 1.6933,-3.8906 0.5104,-1.5149 1.176,-2.9748 1.6504,-4.5039 0.6031,-1.9691 1.2957,-3.9119 2.3145,-5.711 0.5858,-1.1039 1.0975,-2.2426 1.6953,-3.3398 0.2667,-0.6294 0.4589,-1.2819 0.6914,-1.9238 0.2961,-0.9456 0.6956,-1.8657 1.2031,-2.7168 0.4045,-0.7697 0.859,-1.509 1.3262,-2.2422 0.1594,-0.2544 0.288,-0.4386 0.4062,-0.7188 0.2876,-0.6818 0.4367,-1.4212 0.6407,-2.1289 0.4479,-1.4714 0.9441,-2.932 1.5507,-4.3457 l -9.9043,-5.0469 c 0.034,0.1609 0.089,0.3187 0.1016,0.4825 0.049,0.6056 -0.045,1.2123 -0.2051,1.8066 l -0.8593,-0.4726 c -0.1324,0.4766 -0.3788,0.899 -0.5157,1.371 -0.184,0.5563 -0.2949,1.1365 -0.5468,1.6719 -0.3458,0.801 -0.7303,1.5795 -1.3594,2.2031 -0.5696,0.6038 -1.1085,1.2378 -1.7324,1.7872 -0.7216,0.631 -1.3982,1.315 -2.17,1.8867 -1.2354,0.9329 -2.4778,1.8558 -3.7129,2.789 -1.6759,1.2284 -3.3981,2.3931 -5.1699,3.4786 -1.0611,0.7767 -2.1388,1.5288 -3.1719,2.3437 -1.4138,1.0736 -2.7387,2.2699 -4.2578,3.1992 -1.0968,0.6125 -2.1944,1.222 -3.2558,1.8946 l 0.5859,0.3593 c -0.047,0.036 -0.094,0.073 -0.1406,0.1094 -0.9653,0.8043 -2.007,1.5157 -2.9082,2.3945 -1.1816,1.0346 -2.4606,1.9501 -3.6524,2.9727 -1.1885,1.0075 -2.3568,2.0335 -3.5156,3.0742 -1.1351,0.9644 -2.2583,1.9426 -3.4023,2.8965 -1.0976,0.8786 -2.3021,1.6187 -3.4102,2.4863 -1.0313,0.8022 -1.9978,1.6823 -3.0019,2.5176 -1.577,1.2817 -3.0671,2.672 -4.7129,3.8672 -1.7451,1.2917 -3.5357,2.5231 -5.1856,3.9394 -1.3175,1.1274 -2.7833,2.0774 -3.9824,3.3399 -0.8129,0.7625 -1.6149,1.5431 -2.4844,2.2422 -1.2848,1.033 -2.6726,1.9238 -4.0195,2.8711 -1.1373,0.7061 -2.2926,1.384 -3.457,2.0449 0.1647,-0.3204 0.3369,-0.6372 0.4882,-0.9629 0.3581,-0.771 0.5076,-1.2489 0.8067,-2.0449 0.1406,-0.3742 0.2852,-0.7458 0.4277,-1.1192 0.4956,-1.2367 0.9882,-2.475 1.4805,-3.7129 0.3362,-0.8455 0.6289,-1.7079 0.9668,-2.5527 0.1701,-0.4254 0.3596,-0.844 0.539,-1.2656 0.1812,-0.4016 0.3618,-0.8015 0.543,-1.2031 0.1516,-0.3749 0.2929,-0.7545 0.4551,-1.125 0.5658,-1.2919 1.2161,-2.5501 1.6738,-3.8887 0.8199,-1.9462 1.4911,-3.953 2.4102,-5.8574 0.7943,-1.5072 1.4482,-3.0838 2.1387,-4.6407 1.0999,-2.4405 -0.3893,0.9068 0.621,-1.5 0.4628,-1.1025 1.0275,-2.1621 1.5059,-3.2578 0.8897,-1.6334 1.7805,-3.2659 2.7324,-4.8633 0.6082,-0.8955 1.2503,-1.7721 1.7969,-2.707 l -3.5293,-1.8867 c 0.6154,-0.4967 1.2564,-0.9692 1.9824,-1.2832 0.4771,-0.1659 1.0877,-0.1622 1.5078,-0.4746 0.1267,-0.094 0.2252,-0.2214 0.3379,-0.332 0.6593,-0.5649 1.2137,-1.2039 1.6563,-1.9493 0.3012,-0.4888 0.3555,-1.0662 0.5429,-1.5957 0.099,-0.1705 0.2467,-0.2289 0.4219,-0.2929 l -9.3242,-5.9532 c -0.2826,0.253 -0.5462,0.5136 -0.7246,0.8555 -0.09,0.1956 -0.1844,0.3803 -0.25,0.5859 -0.098,0.3086 -0.072,0.6401 -0.2012,0.9414 -0.2825,0.6361 -0.7481,1.1538 -1.3398,1.5235 -0.6261,0.2128 -1.27,0.4007 -1.8379,0.748 -0.8204,0.6627 -1.536,1.4432 -2.3672,2.0938 -1.0388,0.7667 -2.1473,1.3983 -3.2852,2.0058 -0.1797,0.1099 -0.3593,0.2202 -0.539,0.3301 -0.179,0.1013 -0.3611,0.1964 -0.5371,0.3028 -0.4556,0.2754 -0.8739,0.6038 -1.3184,0.8945 -0.1395,0.091 -0.2866,0.1721 -0.4297,0.2578 -0.8003,0.4436 -1.5846,0.925 -2.3261,1.4609 -0.8683,0.6248 -1.7011,1.3039 -2.6172,1.8594 l 1.0781,0.6602 c -1.0734,0.6424 -2.1596,1.257 -3.3008,1.7754 -0.9199,0.5038 -1.88,0.9382 -2.75,1.5312 -1.0133,0.6712 -2.0763,1.2682 -3.0371,2.0176 -1.3873,0.9243 -2.8197,1.7805 -4.2793,2.5859 -0.959,0.5486 -0.4688,0.2812 -1.4668,0.7989 -0.96089,0.5408 -1.88681,1.1494 -2.85351,1.6816 -1.40762,0.8003 -2.78296,1.6591 -4.15429,2.5195 -1.30209,0.8792 -2.62727,1.7235 -3.95313,2.5664 -1.12976,0.7564 -2.26179,1.5111 -3.40039,2.2539 -0.85392,0.5763 -1.72105,1.13 -2.5957,1.6739 -0.80141,0.5898 -1.60141,1.1864 -2.32032,1.8769 -0.79917,0.6995 -1.63381,1.3601 -2.50585,1.9649 -1.77178,-1.844 -1.63283,-1.9301 -3.9043,-0.8985 -0.4366,-3.0121 -2.27266,-3.0364 -6.1875,-4.5722 0.17865,-0.3058 0.35511,-0.6156 0.51562,-0.9004 0.20992,-0.3725 0.40977,-0.75 0.61524,-1.125 0.57746,-0.912 0.80324,-1.2397 1.32617,-2.166 0.38844,-0.6882 0.77034,-1.3802 1.14453,-2.0762 0.17562,-0.3267 0.32784,-0.6649 0.50586,-0.9903 0.17731,-0.3241 0.37226,-0.638 0.55859,-0.957 0.6562,-1.18 1.29786,-2.3756 2.11524,-3.4551 l -2.96485,-1.6328 c 0.20766,-0.2184 0.40876,-0.4444 0.59766,-0.6797 0.49664,-0.5675 1.03328,-1.0903 1.54102,-1.6464 0.31699,-0.3473 0.60174,-0.7224 0.91797,-1.0704 0.16292,-0.1792 0.33478,-0.3501 0.50195,-0.5254 0.0871,-0.095 0.70454,-0.7767 0.82812,-0.8964 0.12415,-0.1203 0.26726,-0.2208 0.39063,-0.3418 0.26394,-0.259 0.46763,-0.574 0.69726,-0.8614 0.54001,-0.7545 1.08222,-1.5072 1.58789,-2.2851 0.63225,-1.0775 1.42001,-2.0495 2.08399,-3.1074 0.44437,-0.7753 0.91122,-1.542 1.46484,-2.2442 l -9.76953,-5.4551 c -0.0368,0.5026 -0.32756,0.915 -0.53906,1.3555 -0.0782,0.1628 -0.14857,0.3295 -0.22266,0.4942 -0.0843,0.1704 -0.16765,0.341 -0.25195,0.5117 -0.61315,1.0447 -1.28975,2.0492 -2.02734,3.0097 -0.53867,0.7322 -1.12475,1.4294 -1.71875,2.1172 -0.6334,0.6784 -1.10379,1.4797 -1.66016,2.2188 -0.89885,1.1233 -1.84519,2.2137 -2.85742,3.2363 -0.5548,0.586 -1.2241,1.0438 -1.81836,1.5859 -1.04458,0.9528 0.15148,-0.061 -0.9082,0.8204 -1.07674,0.939 -2.24316,1.7471 -3.45508,2.5 -0.55106,0.4496 -1.20151,0.7557 -1.78321,1.1582 -0.19736,0.1366 -0.37797,0.2979 -0.57031,0.4414 -0.24714,0.1845 -0.86068,0.6149 -1.12109,0.7988 -0.59996,0.431 -1.26681,0.7625 -1.83008,1.2441 -0.4797,0.4448 -0.23839,0.2312 -0.72461,0.6367 -0.91282,0.6983 -1.73453,1.5154 -2.50391,2.3672 -0.79252,0.7519 -1.56299,1.5375 -2.40429,2.2364 -0.4097,0.3404 -0.8372,0.658 -1.25196,0.9922 -1.46663,1.1408 -2.97403,2.2312 -4.47851,3.3222 -2.26744,1.7139 -4.65524,3.2559 -6.95508,4.9258 -1.65659,1.24 -3.42132,2.3363 -5.04492,3.6211 -0.88982,0.7041 -1.7441,1.4513 -2.62695,2.1641 -1.14356,0.9041 -2.26438,1.8374 -3.38477,2.7695 l -2.09766,-1.3516 c 0.22638,-0.6908 0.44657,-1.385 0.67188,-2.0761 0.50408,-1.5263 0.91711,-3.0754 1.32812,-4.629 0.49909,-2.2038 1.2519,-4.3286 1.95118,-6.4746 0.68534,-1.9826 1.45191,-3.9382 2.26757,-5.8711 0.55263,-1.1913 1.06917,-2.4007 1.55274,-3.6211 0.36689,-1.0114 0.76527,-2.009 1.13672,-3.0195 0.64767,-1.6877 -0.28272,0.6992 0.42382,-0.998 0.24266,-0.5829 0.37382,-1.2064 0.63282,-1.7832 0.33235,-0.8496 0.73417,-1.6657 1.18945,-2.4571 0.32756,-0.5956 0.61952,-1.2038 0.86914,-1.8359 0.32914,-0.8372 0.71061,-1.6515 1.05859,-2.4805 0.36352,-0.705 0.65953,-1.4455 1.11524,-2.0996 -6.14941,-3.5747 -8.70352,-5.6069 -9.66797,-6.5898 0.0784,0.3489 0.0525,0.7949 -0.25977,1.3144 -0.008,0 -0.0156,-0.01 -0.0234,-0.014 0.002,0.018 -0.003,0.04 -0.002,0.059 -0.12413,0.1974 -0.28572,0.4033 -0.5,0.6171 -0.49134,0.3886 -0.9739,0.7889 -1.44531,1.2012 -0.44546,0.3821 -0.90296,0.7402 -1.44336,0.9805 -0.54213,0.3223 -1.09504,0.6362 -1.57422,1.0508 -0.61919,0.4928 -1.26679,0.9435 -1.91992,1.3906 -0.58793,0.3492 -1.18109,0.6866 -1.79297,0.9922 -0.75665,0.3629 -1.50617,0.7412 -2.23047,1.166 -0.88426,0.4814 -1.77661,0.9424 -2.69336,1.3594 -0.90608,0.4371 -1.73707,1.0137 -2.64453,1.4511 -1.26086,0.706 -2.54512,1.3705 -3.83789,2.0157 -1.16602,0.6049 -2.25543,1.3352 -3.37304,2.0234 -1.14517,0.721 -2.29113,1.4381 -3.49024,2.0684 -1.14398,0.5767 -2.28521,1.1503 -3.35547,1.8593 -1.04072,0.6903 -2.15407,1.2646 -3.25195,1.8575 -1.03905,0.5147 -2.09177,0.9916 -3.08984,1.5859 -1.13797,0.5181 -2.3251,0.914 -3.47071,1.4141 -1.0213,0.421 -2.03191,0.8738 -3.03125,1.3437 -1.00495,0.5321 -2.02766,1.0241 -3.05859,1.5039 -1.16201,0.5881 -2.29629,1.2339 -3.50391,1.7285 -1.22426,0.5657 -2.37201,1.272 -3.57226,1.8848 -1.39356,0.7362 -2.81035,1.4311 -4.15625,2.2539 -1.39313,0.8777 -2.86,1.6201 -4.28907,2.4355 -0.71946,0.3759 -1.42282,0.7825 -2.14843,1.1465 -1.1057,0.5548 -0.35982,0.1597 -1.45899,0.6719 -0.19586,0.091 -0.38673,0.1926 -0.58008,0.2891 -1.01459,0.4114 -2.02013,0.8284 -2.96484,1.3886 -1.09534,0.5044 -2.21705,0.9519 -3.28516,1.5137 -0.93754,0.4436 -1.86018,0.9264 -2.73632,1.4824 -1.15223,0.6638 -2.37008,1.2194 -3.60157,1.7188 -1.09916,0.4118 -2.26646,0.6426 -3.32421,1.168 -0.88149,0.3597 -1.76953,0.7059 -2.66211,1.0371 -0.97042,0.3636 -1.9027,0.8293 -2.92969,1.0195 -0.62417,0.2156 -1.27267,0.4298 -1.92774,0.5059 -0.70174,0.1167 -1.40698,0.2039 -2.10937,0.3164 -0.44861,0.066 -0.89925,0.1129 -1.34961,0.166 l -6.27148,-3.1953 c 0.008,-0.321 0.01,-0.6421 0.0215,-0.9629 0.033,-0.9879 -0.0328,-1.9766 0.0156,-2.9649 0.0523,-1.3915 0.2319,-2.7617 0.48438,-4.1308 0.16516,-0.928 0.25858,-1.8619 0.45117,-2.7852 0.22985,-1.0571 0.36948,-2.1359 0.72461,-3.1641 0.10447,-0.8612 0.28275,-1.7097 0.2168,-2.582 2.1e-4,-0.7422 0.003,-1.4889 0.0937,-2.2265 -1.66462,-1.0709 -2.99514,-2.3767 -4.14844,-3.5625 0.14153,0 0.28388,0.011 0.42578,0.037 l -1.37305,-0.9981 c -1.14979,-1.1821 -2.11189,-2.0931 -3.00781,-2.1855 l -4.70312,-3.416 c -0.96589,0.3999 -1.91809,0.8281 -2.86328,1.2753 -1.18279,0.5058 -2.31727,1.0941 -3.35352,1.8575 -0.9652,0.688 -1.96532,1.3401 -2.99219,1.9336 -1.55056,0.9216 -2.95121,2.0036 -4.34375,3.1425 -0.48275,0.4337 -0.96542,0.8648 -1.41601,1.3282 -0.30272,0.1483 -0.60269,0.3028 -0.9043,0.4531 -1.22441,0.6118 -2.47716,1.1625 -3.70312,1.7715 -1.16951,0.634 -2.33392,1.2846 -3.59961,1.7129 -1.42178,0.5728 -2.76601,1.306 -4.14844,1.9648 -1.35482,0.6156 -2.67853,1.2964 -4.01953,1.9414 -1.26252,0.6671 -2.59059,1.2169 -3.77735,2.0215 -1.01433,0.6895 -1.97912,1.452 -3.01367,2.1133 -0.95064,0.7076 -1.92174,1.3807 -2.92187,2.0156 -0.93365,0.6388 -1.90679,1.2213 -2.77539,1.9512 -1.20132,0.8423 -2.40639,1.6754 -3.49805,2.6621 -1.32775,1.1109 -2.66992,2.2094 -4.12305,3.1543 -1.17233,0.8247 -2.34387,1.6561 -3.66211,2.2383 -1.3389,0.6351 -2.6661,1.2943 -4.01758,1.9023 -1.33943,0.6141 -2.73414,1.1144 -4.14257,1.5449 -0.94995,0.1684 -1.91036,0.2766 -2.85157,0.4903 -1.13155,0.2816 -2.25412,0.5978 -3.38086,0.8984 -0.64192,0.1687 -1.28455,0.332 -1.92187,0.5137 0.551,-1.5378 1.16088,-3.0512 1.82227,-4.5449 0.54822,-1.4316 1.2168,-2.8157 1.88867,-4.1915 0.67052,-1.4152 1.56658,-2.7119 2.15234,-4.1699 0.77526,-1.6662 1.43418,-3.3895 2.38867,-4.9668 1.00587,-1.667 2.01812,-3.3287 3.30664,-4.7968 0.78412,-1.011 1.57083,-2.0288 2.23243,-3.125 0.973,-1.5644 2.04873,-3.0674 3.1582,-4.5372 0.56935,-0.8234 1.15257,-1.6374 1.77539,-2.4218 0.27845,-0.3507 0.80345,-0.9202 1.02344,-1.334 0.12119,-0.2279 0.1833,-0.4815 0.27539,-0.7227 -13.66973,-7.8633 -6.32279,-7.0526 -11.44727,-4.625 -0.91376,0.4528 -1.82778,0.9038 -2.6914,1.4492 -1.29463,0.7321 -2.57917,1.4786 -3.9043,2.1563 -1.57974,0.9029 -3.0823,1.9226 -4.6211,2.8926 -0.5393,0.3334 -1.35756,0.852 -1.91601,1.1484 -0.32565,0.1729 -0.66921,0.31 -0.99609,0.4805 -0.68128,0.3553 -1.3225,0.7903 -1.99805,1.1562 -1.41765,0.8472 -2.84768,1.6555 -4.34766,2.3516 -1.51901,0.7805 -3.05688,1.5215 -4.63281,2.1816 -1.82267,0.7982 -3.64998,1.5869 -5.42773,2.4825 -1.14624,0.5768 -2.3128,1.1081 -3.38672,1.8203 -1.15581,0.7019 -2.33786,1.3682 -3.41602,2.1855 -1.36866,0.98 -2.72225,1.9794 -4.17969,2.8281 -1.53304,0.8509 -3.0742,1.6885 -4.64257,2.4727 -0.89728,0.3554 -1.82442,0.6243 -2.73829,0.9336 -1.20561,0.4446 -2.39895,0.9581 -3.70898,0.9805 -1.05611,0.088 -2.10958,0.1641 -3.14844,0.3925 -1.38345,0.2612 -2.77232,0.5003 -4.1582,0.7481 -1.71058,0.2052 -3.42341,0.3858 -5.13281,0.5976 l -0.76758,-0.5273 c -0.13579,0.048 -0.2724,0.095 -0.4082,0.1426 -0.6841,0.2807 -1.35095,0.5996 -2.02735,0.8984 -0.49146,0.076 -0.98235,0.1535 -1.47656,0.1992 l 0.36328,0.2559 c -0.0302,0.011 -0.0595,0.024 -0.0898,0.035 -0.61186,0.2386 -1.23221,0.452 -1.84375,0.6915 -1.3711,0.5368 -2.71022,1.1653 -4.11524,1.6113 0.004,-0.1986 0.005,-0.3971 0.01,-0.5957 0.0237,-1.0567 -0.003,-2.1227 0.18945,-3.166 l -6.8457,-3.4883 c 0.0605,-0.4045 0.12082,-0.8103 0.16015,-1.2188 0.16085,-1.3598 0.18174,-2.7323 0.41211,-4.0859 0.0765,-1.0473 0.24056,-2.0846 0.31641,-3.1309 0.0195,-0.8868 0.0624,-1.7793 0.36523,-2.623 0.28427,-0.8345 0.65153,-1.6646 0.55079,-2.5625 -0.0162,-1.0186 2e-4,-2.0379 0.12109,-3.0508 0.17584,-1.1924 0.39095,-2.3958 0.99219,-3.459 -0.0109,-0.01 -0.0185,-0.011 -0.0293,-0.018 0.18217,-0.1877 0.37459,-0.3363 0.58008,-0.4296 -0.93443,-0.3022 -2.24784,-0.8173 -4.02149,-1.625 -3.41729,-2.0999 -5.34673,-3.5042 -6.34375,-4.3594 0.16832,0.5666 0.0926,1.285 -0.70703,2.0527 -0.77839,0.5348 -1.62116,0.9703 -2.44726,1.4258 -0.77132,0.4555 -1.55478,0.8125 -2.45118,0.9512 -0.97609,0.2858 -1.95772,0.5477 -2.90234,0.9316 -1.22908,0.4137 -2.45804,0.8244 -3.69531,1.2129 -1.04114,0.367 -2.09346,0.7203 -3.0918,1.1934 -0.99131,0.4568 -1.9274,0.9939 -2.85547,1.5683 -1.48846,0.7796 -3.02512,1.4586 -4.52734,2.211 -0.83772,0.3974 -1.6378,0.8642 -2.48438,1.2421 -0.90371,0.4034 -0.96832,0.3771 -1.875,0.7461 -0.23465,0.095 -0.46329,0.203 -0.69531,0.3047 -1.00828,0.4091 -2.02157,0.8027 -3.03711,1.1934 -1.50393,0.5755 -2.98041,1.2138 -4.44531,1.8828 -1.92364,0.8366 -3.84738,1.6668 -5.75,2.5508 -1.30827,0.6191 -2.6377,1.1919 -3.97461,1.7461 -1.13591,0.4852 -2.25381,1.0179 -3.42773,1.4101 -1.30729,0.4238 -2.6192,0.8366 -3.9668,1.1153 -0.50427,0.1276 -1.0086,0.2564 -1.51367,0.3847 -1.44738,-1.216 -2.17585,-1.7394 -3.56836,-1.6328 0.18505,-0.5015 0.38057,-0.9992 0.61523,-1.4805 0.46021,-1.2703 1.03189,-2.4948 1.72461,-3.6562 0.81471,-1.5758 1.7698,-3.0752 2.90039,-4.4414 0.69844,-0.5083 1.25513,-1.168 1.78321,-1.8535 0.13905,-0.06 0.3425,-0.1084 0.25195,-0.1699 -0.0206,-0.014 -0.0419,-0.027 -0.0625,-0.041 0.04,-0.047 0.0753,-0.099 0.125,-0.1347 0.0406,-0.029 0.10052,-0.013 0.15039,-0.016 -2.83238,-1.6745 -5.61069,-3.4426 -8.48047,-5.0507 -0.39277,-0.2448 -0.78859,-0.4852 -1.17969,-0.7325 0.002,0.025 0.002,0.049 0.008,0.074 -0.0216,-0.012 -0.0429,-0.022 -0.0645,-0.033 -0.14121,-0.076 -0.16007,0.2782 -0.24804,0.4121 -0.44419,0.6758 -0.39648,0.5748 -0.4375,0.6504 -0.44633,0.4796 -0.93181,0.9175 -1.49219,1.2832 -0.82923,0.6455 -1.5317,1.4357 -2.39063,2.0468 -0.83189,0.6506 -1.65393,1.3307 -2.60547,1.8028 -1.13151,0.5312 -2.31186,0.9497 -3.45507,1.455 -0.9882,0.4395 -1.93112,0.9421 -2.83399,1.5411 -1.15192,0.7096 -2.32879,1.3902 -3.3457,2.289 -0.91063,0.6824 -1.77901,1.4231 -2.74805,2.0235 -1.3854,0.7973 -2.85491,1.4149 -4.35547,1.9629 -1.11082,0.4494 -2.20825,0.9272 -3.34375,1.3125 -1.13,0.4877 -2.19692,1.091 -3.26562,1.6992 -1.43169,0.6969 -2.9124,1.279 -4.41016,1.8183 -1.37763,0.4987 -2.75783,0.9779 -4.16406,1.3907 -1.52007,0.4925 -3.02207,1.0348 -4.55078,1.5 -1.03317,0.3472 -2.09804,0.6657 -3.20117,0.5761 -0.97166,0.034 -1.93941,0.1186 -2.90039,0.2696 -2.05494,0.3696 -4.0894,0.8353 -6.09571,1.416 -2.09679,0.589 -0.66542,0.1684 -2.67383,0.8047 -1.16109,0.3678 -2.31373,0.7395 -3.30468,1.4765 l 0.90234,0.5352 c -0.51343,0.2141 -1.01628,0.4484 -1.50195,0.7344 -1.0483,0.5049 -2.06192,1.1128 -3.20703,1.375 -0.9755,0.2562 -1.95286,0.5224 -2.91016,0.8378 -0.77505,0.2757 -1.58236,0.4568 -2.38672,0.625 -0.81557,-0.01 -1.62975,-0.012 -2.44531,-0.012 -0.74494,6e-4 -1.4899,0 -2.23438,-0.029 -0.88976,-0.039 -1.78073,-0.1208 -2.65039,-0.3222 -0.61297,-0.1574 -1.22497,-0.3144 -1.81445,-0.5489 -1.17419,-0.467 0.12371,0.019 -0.95313,-0.4902 -0.1276,-0.06 -0.265,-0.092 -0.39843,-0.1387 -0.71755,-0.277 -1.4508,-0.4619 -2.22266,-0.4843 -0.77776,-0.095 -1.55879,-0.2223 -2.33789,-0.057 -0.60794,0.1156 -1.19829,0.2874 -1.75977,0.5274 0.0586,-0.142 0.0984,-0.2902 0.16993,-0.4278 0.44338,-0.8085 0.97699,-1.5458 1.48242,-2.3164 0.54268,-0.8863 1.04255,-1.7961 1.66015,-2.6328 0.50136,-0.8712 1.00548,-1.7428 1.375,-2.6816 0.59973,-1.2476 1.20857,-2.4874 1.88282,-3.6973 0.4491,-0.9263 0.89765,-1.8651 1.45508,-2.7305 0.44999,-0.686 0.83431,-1.3887 1.12695,-2.1543 0.43918,-0.7317 0.85208,-1.4831 1.35156,-2.1757 0.67479,-0.859 1.42623,-1.656 2.14844,-2.4747 0.97314,-1.0148 1.98727,-1.9897 2.99805,-2.9668 0.8985,-0.8164 1.76205,-1.6665 2.66406,-2.4765 0.0405,-0.034 0.26217,-0.237 0.44922,-0.4082 -0.12429,-0.07 -0.24691,-0.1428 -0.3711,-0.2129 0.0283,-0.019 0.0554,-0.042 0.084,-0.061 0.0869,0 0.19837,-0.069 0.26172,-0.01 0.0453,0.043 0.0799,0.1607 0.0801,0.2344 0.35082,-0.3261 0.70533,-0.6895 0.58399,-0.7754 -11.90482,-8.4237 -6.56381,-7.9945 -10.2168,-5.4063 -0.66568,0.4555 -1.40005,0.7403 -2.14844,1.0352 -0.91065,0.401 -1.80682,0.8324 -2.70703,1.2558 -1.07175,0.4547 -2.11903,0.9628 -3.22656,1.3301 -1.21539,0.4376 -2.44159,0.8468 -3.63281,1.3496 -1.28024,0.573 -2.61487,1.0024 -3.94531,1.4434 -1.20601,0.4328 -2.39293,0.9348 -3.55274,1.4785 -1.01928,0.479 -2.08838,0.8481 -3.07617,1.3984 -1.286,0.6251 -2.57175,1.2518 -3.89453,1.7969 -1.04755,0.3743 -2.09423,0.7565 -3.10352,1.2266 -1.23388,0.5729 -2.36843,1.3347 -3.63476,1.8398 -1.58414,0.6869 -3.11965,1.4785 -4.69922,2.1758 -1.69581,0.6441 -3.40202,1.261 -5.09961,1.9004 -1.59994,0.5515 -3.19968,1.12 -4.73438,1.8359 -1.59203,0.765 -3.22666,1.4525 -4.74023,2.3692 -1.76165,1.009 -3.58478,1.9032 -5.39453,2.8222 -1.51274,0.845 -3.0115,1.7194 -4.57813,2.4629 -1.44092,0.7104 -2.88553,1.3987 -4.36328,2.0293 -1.70492,0.8483 -3.39375,1.726 -5.09765,2.5762 -1.82619,0.9093 -3.63057,1.8663 -5.5,2.6875 -1.601,0.7241 -3.21061,1.4242 -4.78711,2.2012 -1.08971,0.5126 -2.21347,0.9406 -3.3125,1.4316 -1.06049,0.4295 -2.13228,0.8235 -3.2168,1.1875 -1.12903,0.3734 -2.28908,0.6868 -3.36133,1.2051 -0.18691,0.1049 -0.36469,0.2252 -0.54687,0.3379 l -0.33789,-0.1836 c 0.10411,-0.8557 0.19768,-1.7141 0.41992,-2.5489 0.37763,-1.2297 0.86557,-2.421 1.30664,-3.6289 0.52314,-1.3623 0.8876,-2.7761 1.22265,-4.1953 0.41617,-1.3827 0.99789,-2.7023 1.48243,-4.0605 0.30811,-0.9055 0.70484,-1.7786 1.06054,-2.666 0.37025,-0.7901 0.82648,-1.5335 1.16602,-2.334 0.37703,-0.929 0.68179,-1.896 1.23633,-2.7422 0.53292,-0.9142 1.11118,-1.7918 1.51367,-2.7754 0.002,0 0.0183,-0.044 0.0215,-0.051 -0.26389,-0.1885 -0.82385,-0.596 -1.36328,-1.0078 0.30307,-0.1749 0.61381,-0.3157 0.86328,-0.2871 0.0949,0.011 0.17243,0.085 0.25782,0.127 0.18777,0.3308 0.30834,0.5498 0.42382,0.7617 0.23957,-0.5289 0.59956,-1.359 0.50391,-1.4239 -9.07047,-6.1548 -5.98671,-6.9311 -9.91992,-5.8261 -0.80858,0.2961 -1.54507,0.7034 -2.2168,1.248 -0.67374,0.5119 -1.40831,0.9318 -2.11719,1.3926 -0.80604,0.4446 -1.62028,0.8779 -2.42382,1.3262 -0.89619,0.358 -1.79096,0.7194 -2.6875,1.0761 -1.00637,0.4553 -1.99612,0.9451 -3.00391,1.3965 -1.04518,0.3852 -2.08731,0.7816 -3.14258,1.1387 -1.28708,0.4942 -2.53267,1.0732 -3.80078,1.6133 -1.56189,0.5461 -3.07472,1.21 -4.59766,1.8554 -1.29909,0.5257 -2.60436,1.0293 -3.91601,1.5215 -1.25206,0.497 -2.48262,1.0401 -3.72656,1.5567 -1.29566,0.4969 -2.6129,0.9236 -3.91797,1.3945 -0.88415,0.314 -1.71981,0.7368 -2.60938,1.0254 -0.98343,0.2918 -1.94529,0.6836 -2.96094,0.8457 -0.91132,0.154 -1.83019,0.2791 -2.72656,0.5098 -1.05951,0.2075 -2.07687,0.5525 -3.10156,0.8867 -0.86801,0.2444 -1.75249,0.3419 -2.64649,0.4433 -0.75295,0.072 -1.51573,-5e-4 -2.27148,0.024 -0.81218,0.025 -1.63852,0.042 -2.37891,0.4219 -0.79453,0.5203 -1.34499,1.2572 -1.8457,2.0566 -0.0347,0.05 -0.0759,0.095 -0.11133,0.1445 0.0309,-0.2138 0.0523,-0.429 0.084,-0.6426 0.34123,-1.667 0.87991,-3.2822 1.2207,-4.9492 0.29576,-1.3964 0.61503,-2.7954 1.05859,-4.1523 0.52604,-1.3552 1.05868,-2.7073 1.49024,-4.0938 0.31464,-1.0895 0.57042,-2.2018 1.00195,-3.2539 0.49561,-1.2664 1.1138,-2.4789 1.63086,-3.7363 0.29881,-0.8913 0.6274,-1.7808 1.02149,-2.6367 0.0412,-0.033 0.084,-0.064 0.125,-0.098 0.76613,-0.6377 1.38579,-1.4311 2.01562,-2.1992 0.6063,-0.6321 0.89864,-1.4244 1.13867,-2.2461 -10.73898,-6.6152 -8.18913,-7.9977 -11.41797,-3.043 -0.25051,0.4356 -0.47289,0.8838 -0.68359,1.3379 -0.11607,0.106 -0.2156,0.2283 -0.33984,0.3262 -0.75392,0.6125 -1.53969,1.2105 -2.42774,1.6152 -1.00459,0.4565 -2.00514,0.9221 -3.00586,1.3868 -1.50479,0.7379 -3.00981,1.4766 -4.5332,2.1738 -1.02588,0.3791 -2.05124,0.7536 -3.00586,1.2949 -0.925,0.3653 -1.83914,0.7457 -2.7168,1.2168 -1.30504,0.611 -2.53663,1.3671 -3.8789,1.9004 -1.39617,0.5568 -2.83585,0.9995 -4.19922,1.6406 -1.26042,0.5602 -2.55655,1.0128 -3.85352,1.4785 -0.94215,0.3064 -1.84505,0.7059 -2.77734,1.0391 -1.18891,0.2972 -2.3948,0.5209 -3.58594,0.8086 -0.97642,0.2129 -1.9668,0.3831 -2.91992,0.6855 -0.76889,0.2122 -1.49579,0.5442 -2.2207,0.8731 -0.83973,0.4204 -1.74347,0.7105 -2.57032,1.1621 -1.06193,0.5654 -2.01533,1.3047 -2.95312,2.0547 -0.85475,0.8421 -1.81456,1.5788 -2.57617,2.5117 -0.24752,0.4125 -0.25452,0.3934 -0.43555,0.793 -0.16917,0.3734 -0.2523,0.7563 -0.62305,0.9902 -0.73407,0.4144 -1.58242,0.5959 -2.37695,0.8633 -1.08879,0.3248 -2.1591,0.6957 -3.20313,1.1465 -1.42097,0.5598 -2.85793,1.0811 -4.22851,1.7597 -1.57613,0.7052 -3.16171,1.3848 -4.75391,2.0528 -1.27759,0.5218 -2.49952,1.1649 -3.72461,1.7988 -1.184,0.5657 -2.40391,1.0641 -3.46679,1.8496 -0.98499,0.6289 -2.03914,1.1615 -3.12696,1.5879 -0.80075,0.3398 -1.51225,0.8132 -2.27929,1.2129 -0.85582,0.3221 -1.722,0.6012 -2.58789,0.8945 -1.19653,0.4304 -2.40458,0.8523 -3.64258,1.1465 -1.42795,0.2787 -2.86869,0.5029 -4.27344,0.8867 0.0461,-0.3496 0.0899,-0.6984 0.19922,-1.0351 l -6.55078,-3.543 c 2.32789,-4.437 5.08078,-8.6378 7.76562,-12.8633 2.36518,-3.4859 1.12743,-1.702 3.28711,-4.75 0.69768,-0.9847 1.44425,-2.2443 2.31641,-3.1035 0.0803,-0.079 0.19029,-0.1226 0.28515,-0.1836 l -2.67578,-1.6914 c 0.15027,-0.042 0.30055,-0.085 0.45118,-0.125 0.91257,-0.3522 1.71058,-0.9616 2.54882,-1.4668 0.93087,-0.4948 1.68551,-0.9844 2.49414,-1.6621 0.65198,-0.5566 1.33968,-1.1113 2.12696,-1.4629 l -9.23438,-6.0371 c -0.78258,0.4791 -1.47782,1.0695 -2.16992,1.6699 -0.7607,0.5739 -1.59191,1.0398 -2.4082,1.5293 -0.79448,0.4501 -1.53458,1.0249 -2.44922,1.2051 -0.89138,0.2715 -1.78463,0.5419 -2.69141,0.7578 -1.31822,0.311 -2.64074,0.5958 -3.97461,0.832 -1.43634,0.3105 -2.89108,0.427 -4.34961,0.5918 -1.22654,0.1194 -2.42087,0.425 -3.64257,0.586 -1.40384,0.2377 -2.81575,0.433 -4.20704,0.7402 -1.26132,0.2948 -2.52913,0.6036 -3.73437,1.084 -1.45307,0.5439 -2.94599,0.906 -4.45703,1.2539 -1.58051,0.3993 -3.14149,0.8566 -4.64453,1.4961 -1.71446,0.5934 -3.45144,1.1132 -5.15625,1.7344 -1.48787,0.5225 -2.95608,1.1001 -4.4336,1.6484 l 1.78711,1.1758 c -0.68943,0.3221 -1.37694,0.6492 -2.08008,0.9394 -0.91652,0.3439 -1.85078,0.6383 -2.76367,0.9922 -0.88361,0.3219 -1.73428,0.7171 -2.53711,1.209 -1.11513,0.5945 -2.31897,0.9693 -3.42773,1.5781 -1.43919,0.7175 -2.85715,1.4761 -4.30274,2.1797 -1.36711,0.591 -2.67124,1.2947 -3.93554,2.0821 -1.26645,0.8116 -2.47254,1.7104 -3.6836,2.6015 -1.31743,0.8799 -2.67014,1.7003 -4.10937,2.3672 -1.24776,0.5973 -2.48409,1.2235 -3.76172,1.7539 -1.21034,0.3702 -2.43291,0.7147 -3.59961,1.2109 -1.13403,0.5013 -2.27259,0.9862 -3.35742,1.5899 -1.3826,-0.7771 -2.76841,-1.5468 -4.14258,-2.3379 -0.15616,0.045 -0.30637,0.1 -0.45703,0.1543 0.0973,-0.4365 0.20206,-0.8713 0.33203,-1.2988 0.39924,-1.0498 0.8328,-2.097 1.38867,-3.0743 0.62772,-1.2088 1.13736,-2.4834 1.97656,-3.5703 0.42752,-0.643 0.91009,-1.2471 1.41016,-1.8379 0.19337,-0.1096 0.39505,-0.2051 0.57617,-0.3359 0.74474,-0.4668 1.43672,-1.0149 2.125,-1.5605 4.67819,-3.8644 -1.1729,-3.4919 -8.26367,-7.4532 -0.91072,0.813 -1.81267,1.6449 -2.69141,2.4961 -0.14943,0.1911 -0.30774,0.3762 -0.46093,0.5645 -0.69619,0.366 -1.40796,0.6976 -2.10352,1.0644 -0.82516,0.4326 -1.66708,0.8343 -2.57226,1.0723 -0.91265,0.2254 -1.83138,0.4624 -2.6836,0.8672 -1.16212,0.5403 -2.35842,0.999 -3.50586,1.5703 -0.90623,0.3619 -1.80504,0.7315 -2.67578,1.1758 -1.30843,0.6225 -2.59884,1.2835 -3.92383,1.8711 -1.26801,0.5666 -2.5948,0.9562 -3.86328,1.5234 -1.37658,0.55 -2.71315,1.2158 -4.18164,1.4942 -1.31219,0.3802 -2.58646,0.8547 -3.82031,1.4453 -0.99944,0.5122 -1.97231,1.058 -3.04102,1.4179 -0.86398,0.3939 -1.72605,0.7925 -2.58398,1.1993 -0.96359,0.4956 -1.9346,0.9657 -2.96094,1.3222 -0.73933,0.2742 -1.46232,0.5758 -2.17578,0.9121 -0.71854,0.3664 -1.41033,0.7807 -2.13867,1.1289 -0.70322,0.3919 -1.44016,0.724 -2.11328,1.17 -0.67648,0.4033 -1.30474,0.9004 -2.04688,1.1836 -0.75177,0.3219 -1.49745,0.6574 -2.2539,0.9687 -0.0149,0.01 -0.03,0.011 -0.0449,0.016 l -4.98437,-2.6953 c -9.3e-4,0 -0.005,-0.013 -0.006,-0.018 -0.004,-0.023 -0.0112,-0.082 -0.0156,-0.1093 -0.0349,-1.2829 -0.0281,-2.5668 -0.0664,-3.8496 -0.0312,-1.8498 -0.089,-3.697 -0.0293,-5.5469 0.0208,-1.8164 -0.005,-3.6327 -0.0195,-5.4492 -0.0252,-1.6887 -0.067,-3.405 0.23633,-5.0723 l -0.6836,-0.3477 c 0.005,-0.4146 0.0183,-0.8295 0.0234,-1.2441 -0.004,-0.2307 -4.2e-4,-0.5778 -0.0391,-0.8086 -0.63103,-3.8018 -9.24319,-5.7371 -10.40625,-6.3516 -1.03876,0.5541 -1.70703,1.5305 -2.54883,2.3164 -0.74229,0.7671 -1.65665,1.3027 -2.5625,1.8457 -0.66262,0.3367 -1.39334,0.401 -2.12305,0.42 -0.72931,-0.066 -1.42698,0.095 -2.14257,0.1972 -0.69081,0.086 -1.38692,0.097 -2.08203,0.1 -0.25983,0.1136 -0.55805,0.068 -0.82227,0.1582 -0.20004,0.068 -0.38173,0.1801 -0.57422,0.2676 -0.70208,0.3189 -1.41414,0.6167 -2.12305,0.9199 -1.24348,0.6613 -2.60793,1.0629 -3.86523,1.6836 -0.99183,0.6092 -2.0347,1.1169 -3.0625,1.6602 -0.57273,0.4476 -1.31362,0.5185 -1.95117,0.8203 -0.31931,0.1511 -0.61499,0.3496 -0.92578,0.5176 -0.13088,0.06 -0.25837,0.1274 -0.39258,0.1797 -0.55375,0.2156 -0.20266,0.01 -0.76953,0.2773 -0.52155,0.246 -1.00142,0.5339 -1.53711,0.7539 -1.40254,0.3965 -2.71674,1.0191 -4.05078,1.5957 -1.03895,0.5418 -2.13667,0.9399 -3.22852,1.3535 -1.10295,0.3389 -2.099278,0.9101 -3.109374,1.4571 -1.261348,0.6386 -2.451071,1.3926 -3.681641,2.0859 -1.154648,0.6472 -2.337477,1.2331 -3.474609,1.9102 -0.992898,0.5508 -2.072672,0.8909 -3.134766,1.2734 -0.496574,0.1071 -0.945289,0.3483 -1.414062,0.5313 -0.155704,0.061 -0.323311,0.093 -0.47461,0.164 -0.403062,0.1893 -0.774133,0.4392 -1.164062,0.6543 -0.802584,0.4233 -1.66945,0.7275 -2.46875,1.1563 -0.389966,0.2092 -0.758599,0.4557 -1.142578,0.6757 -0.788594,0.4312 -1.591847,0.8168 -2.416016,1.1719 -1.151309,0.4132 -2.28,0.9041 -3.400391,1.4024 -1.557198,0.6834 -3.125846,1.3398 -4.773437,1.7695 -0.600859,0.082 -1.173514,0.2892 -1.763672,0.418 -0.147643,0.032 -0.300724,0.037 -0.445312,0.08 -0.319324,0.097 -0.617446,0.2532 -0.929688,0.3711 -1.166763,0.505 -2.376546,0.9026 -3.605469,1.2325 -1.416098,0.3511 -2.783701,0.8643 -4.191406,1.2461 -0.08481,0.018 -0.169185,0.037 -0.253906,0.055 -0.351848,-0.7078 -0.616883,-1.4615 -0.853516,-2.2207 -0.287913,-0.927 -0.373903,-1.8898 -0.488281,-2.8476 -0.05752,-0.9939 -0.07826,-1.9909 -0.07422,-2.9863 -0.0365,-1.1464 -0.0027,-2.2932 0.0078,-3.4395 0.05339,-0.9355 -0.11523,-1.9024 0.07031,-2.8301 0.04095,-0.2047 0.121024,-0.3998 0.181641,-0.5996 0.475981,-1.2116 1.058261,-2.3763 1.570312,-3.5742 0.580647,-1.2878 1.269776,-2.5109 2.027344,-3.7012 0.983148,-1.3663 1.968579,-2.7361 3.044922,-4.0312 0.890382,-0.9113 1.775126,-1.8289 2.666016,-2.7403 0.465495,-0.5465 1.104182,-0.8697 1.755859,-1.1406 l -9.224609,-6.0605 c -0.699593,0.4158 -1.370704,0.872 -1.876954,1.5234 -0.423291,0.483 -0.844006,0.9685 -1.267578,1.4512 l -1.289062,-0.8594 c -2.523924,2.6138 -5.745638,4.403 -8.830078,6.2637 -0.730631,0.4549 -1.450535,0.9271 -2.191407,1.3652 -1.308089,0.7339 -3.212505,1.7916 -4.503906,2.5606 -2.134079,1.2707 -4.190337,2.6349 -6.222656,4.0605 -3.591049,2.5149 -7.060174,5.1972 -10.542969,7.8574 -1.780311,1.3123 -3.568054,2.6211 -5.457031,3.7754 -0.907574,0.5546 -2.070754,1.1867 -2.998047,1.7012 -3.803219,2.1667 -7.7938475,3.9787 -11.8124999,5.7031 -1.97689626,-1.075 -3.9719893,-2.1205 -5.9433594,-3.2051 -0.7393961,-0.01 -1.4777656,-0.027 -2.2167969,-0.043 -0.00618,-0.085 -0.018331,-0.1708 -0.023437,-0.2559 -0.00307,-1.1168 -0.015697,-2.2136 -0.203125,-3.3164 -0.2586302,-1.1855 -0.5868447,-2.3512 -0.8046875,-3.5469 -0.2345779,-1.3442 -0.3721609,-2.7008 -0.5527343,-4.0527 -0.2421109,-1.4927 -0.3878186,-2.997 -0.5957032,-4.4942 -0.1488152,-1.1325 -0.2314008,-2.2759 -0.2578125,-3.4179 -0.010435,-1.014 -0.1406045,-2.0217 -0.2285156,-3.0313 -0.032249,-1.0099 -0.1708193,-1.9934 -0.3886719,-2.9785 l -0.453125,-0.2187 c 0.1314936,0 0.2630252,0.01 0.3945313,0.01 0.505319,0.01 1.0139666,0.036 1.5097656,0.1407 l -6.0410147,-4.3907 c -0.35092,0.1393 -0.748986,0.133 -1.121094,0.1407 -0.43256,0 -0.864457,0.022 -1.296875,0.033 -0.12141,0 -0.244095,0 -0.365235,0.01 -0.130318,0.01 -0.258903,0.03 -0.388671,0.045 -0.300741,0.037 -0.603753,0.052 -0.90625,0.066 l -1.273438,-0.6114 c 0.05994,0.2351 0.06081,0.4754 0.128906,0.7071 -0.0518,0.01 -0.09346,0.015 -0.160156,0.025 -0.1036,0.022 -0.210737,0.032 -0.310547,0.066 -0.11967,0.043 -0.22775,0.1143 -0.34375,0.166 -0.14759,0.066 -0.296317,0.1299 -0.447265,0.1875 -0.54259,0.2071 -1.097277,0.3477 -1.660157,0.4863 -1.096258,0.3006 -2.194638,0.5973 -3.285156,0.918 -0.16966,0.05 -0.339854,0.093 -0.507812,0.1484 -0.16954,0.056 -0.336387,0.1222 -0.503907,0.1836 -0.769598,0.2824 -1.530005,0.5872 -2.296875,0.8769 -1.268896,0.5809 -2.566814,1.1014 -3.888672,1.5489 -0.493068,0.174 -0.992852,0.3244 -1.49414,0.4726 -0.10229,0.03 -0.67569,0.1948 -0.78125,0.2383 -0.13144,0.054 -0.252208,0.1289 -0.378906,0.1934 -0.68304,0.313 -1.409479,0.5186 -2.111329,0.7851 -0.198288,0.075 -0.398423,0.145 -0.589843,0.2364 -0.21447,0.1023 -0.416772,0.2292 -0.625,0.3437 -0.23911,0.1935 -0.471007,0.3951 -0.716797,0.5801 -1.040616,0.7832 -2.152775,1.4805 -3.294922,2.1113 l -1.390625,-0.9687 c -0.0691,0.058 -0.131811,0.1225 -0.207031,0.1718 -0.0853,0.056 -0.669405,0.3459 -0.708985,0.3672 -0.536798,0.2883 -1.070953,0.5789 -1.595703,0.8887 -0.781918,0.3751 -1.574972,0.7387 -2.388672,1.041 -0.936018,0.3477 -0.08563,-0.025 -0.982422,0.3887 -1.147016,0.4706 -2.210388,1.0898 -3.253906,1.7539 -1.685196,0.9809 -3.348776,1.9953 -5.089844,2.875 -1.403016,0.6795 -2.785009,1.4093 -4.134765,2.1894 -1.631688,0.8524 -3.213505,1.7976 -4.851563,2.6368 -1.350776,0.7115 -2.77019,1.2803 -4.142578,1.9453 -1.188308,0.6104 -2.350326,1.2696 -3.552734,1.8535 -1.055678,0.5711 -2.062693,1.2193 -3.056641,1.8906 -1.920276,1.1916 -4.054703,1.9701 -6.130859,2.8399 -1.970266,0.7601 -3.873703,1.6745 -5.792969,2.5507 -0.816728,0.3647 -1.638006,0.7345 -2.396484,1.2129 -0.0107,0.01 -0.981362,0.6692 -0.988282,0.6739 -0.176398,0.1231 -0.350858,0.249 -0.529296,0.3691 -0.47483,0.3195 -0.715903,0.4454 -1.181641,0.7949 -0.732148,0.5495 -1.429384,1.154 -2.138672,1.7324 -0.777139,0.6099 -1.56841,1.2001 -2.361328,1.7891 l -0.699219,-0.334 c -2.733825,2.4193 -5.473135,4.8504 -8.037115,7.4512 -0.79643,0.789 -1.52573,1.6433 -2.3125,2.4434 l -2.63476,-1.836 c -0.42911,0.6013 -1.02596,1.0535 -1.58594,1.5254 -0.10132,0.099 -0.20901,0.1925 -0.30469,0.2969 -0.23281,0.2542 -0.43247,0.5362 -0.66016,0.7949 -0.32755,0.3723 -0.68857,0.7044 -1.05664,1.0352 -0.26993,0.258 -0.55685,0.5116 -0.79297,0.8027 -0.18725,0.2309 -0.3362,0.4891 -0.51757,0.7246 -0.10597,0.1376 -0.22162,0.2683 -0.33203,0.4023 -0.61335,0.7378 -1.28166,1.4288 -1.94532,2.1211 -0.46105,0.4658 -0.71755,1.068 -1.0957,1.5938 -0.0889,0.1236 -0.62536,0.797 -0.72461,0.9219 -0.30367,0.3818 -0.63453,0.7388 -0.94922,1.1113 -0.0904,0.107 -0.1934,0.2048 -0.26953,0.3223 -0.0992,0.1532 -0.16935,0.3245 -0.25391,0.4863 -0.11636,0.1761 -0.23324,0.3512 -0.34961,0.5273 -0.79946,1.1681 -1.72047,2.2408 -2.64843,3.3067 -0.83035,1.0105 -1.51511,2.1286 -2.14844,3.2695 -0.41729,0.8917 -0.84825,1.7894 -1.14648,2.7305 -0.17204,0.5428 -0.30084,1.1003 -0.45508,1.6484 -0.33644,1.1811 -0.58823,2.3833 -0.91602,3.5664 -0.0238,0.1352 -0.0563,0.2697 -0.0703,0.4063 -0.059,0.5769 -0.004,1.1677 0.0234,1.7441 0.0411,0.8881 0.0295,0.6443 0.0527,1.5527 -7.9e-4,0.8828 -0.10287,1.7623 -0.11523,2.6446 -0.007,0.5076 0.0201,0.7868 0.0508,1.2988 0.0365,0.2508 0.0642,0.5025 0.10937,0.752 0.0261,0.1443 0.32432,1.5046 0.35352,1.6484 0.15089,0.743 0.25917,1.4915 0.37695,2.2402 0.11454,0.8956 0.32279,1.7706 0.54688,2.6426 -0.0114,0.8491 -0.0123,1.6984 -0.0195,2.5469 0.009,1.5222 -0.053,3.0427 -0.0742,4.5644 -0.0672,1.308 0.053,2.5904 0.36132,3.8614 0.2167,0.8992 0.73312,1.6749 1.09375,2.5136 0.19154,0.4454 0.40468,1.1196 0.55469,1.5684 0.80863,2.1318 1.53679,4.2873 2.17969,6.4746 0.35031,1.3976 0.77346,2.7762 1.33984,4.1016 0.40437,0.7892 0.71952,1.6185 1.08399,2.4257 0.41807,1.0801 0.98554,2.0901 1.51953,3.1153 0.73763,1.6772 1.35484,3.4026 2.07031,5.0898 0.58437,1.3617 1.06005,2.7656 1.63477,4.1309 0.7582,1.544 1.51222,3.0884 2.26172,4.6367 0.80346,1.5571 1.64285,3.0964 2.42578,4.6641 0.64735,1.2792 1.40073,2.4998 2.11133,3.7441 0.9035,1.6502 1.7039,3.3323 2.75976,4.8945 1.17117,1.7419 2.51245,3.3578 3.80859,5.0059 0.81131,0.9872 1.74573,1.8577 2.66602,2.7422 0.18935,1.1892 0.66587,2.312 1.0957,3.4316 0.41284,1.0148 1.124279,1.8071 1.937508,2.5156 1.092409,0.776 2.12556,1.6158 3.105469,2.5293 0.832649,0.8041 1.645813,1.6296 2.476563,2.4356 0.712329,0.8521 1.490544,1.6142 2.376953,2.2812 0.881479,0.5627 1.662602,1.2503 2.451172,1.9317 0.830199,0.5546 1.586723,1.1961 2.351562,1.834 0.908119,0.7086 1.793252,1.4426 2.613281,2.2519 0.81403,0.8012 1.765732,1.4389 2.712891,2.0684 0.30099,0.2049 0.641933,0.345 0.945312,0.5469 3.064687,2.5409 6.085848,4.7811 8.921875,6.3906 9.388411,5.3281 19.727832,9.6153 31.119141,12.9023 18.839861,5.4364 67.989971,13.3962 105.783203,17.2598 2.013378,1.2325 4.121639,2.1976 6.978516,2.4707 3.335636,0.1391 6.678508,0.057 10.015625,0.125 0.533839,0 1.067713,0 1.601562,0 13.311197,1.991 30.077007,4.6678 34.939447,5.7461 2.54335,0.564 9.82717,2.4199 16.18555,4.125 12.6388,3.3891 18.23737,4.3027 39.76758,6.4883 25.14836,2.5528 32.45539,3.0114 49.94336,3.1289 9.41038,0.063 20.85556,0.5094 25.43359,0.9922 4.57802,0.4827 12.69218,0.9128 18.0332,0.957 5.34103,0.044 17.82704,0.8291 27.7461,1.7441 14.38575,1.3272 27.905,1.6898 66.82031,1.7871 l 48.78711,0.1211 39.07422,0.01 c 67.29782,0.01 154.38651,2.4222 172.95898,4.7949 4.19146,0.5355 24.68361,1.2529 45.53906,1.5957 58.74972,0.9655 169.24396,1.0209 197.45704,0.098 28.27637,-0.9253 35.72491,-1.7605 74.45117,-8.3438 10.12719,-1.7215 17.44869,-2.714 24.98828,-3.7871 0.9212,2e-4 1.84247,-0.01 2.76367,0 3.457,0.036 6.9141,0.019 10.37109,0.01 3.7681,-0.011 7.5366,-0.01 11.30469,0 3.4905,0.012 6.98011,-0.01 10.47076,0 3.5119,0.2318 6.9436,-0.2174 10.4121,-0.668 0.2472,-0.032 0.4874,-0.1063 0.7343,-0.1406 l 1.502,1.0918 c 1.352,-0.023 2.7046,0.01 4.0566,-0.012 1.276,0.023 2.5539,0.03 3.8301,0.021 1.2358,0 2.4718,0.019 3.7071,-0.025 1.4593,-0.023 2.9196,0.01 4.3789,-0.025 1.8934,-0.046 3.7853,-0.075 5.6777,-0.1582 2.9772,-0.067 5.9538,-0.054 8.9316,-0.025 2.6936,0.01 5.3887,0.035 8.0801,0.1504 1.5905,0.055 3.1803,0.051 4.7715,0.047 1.6469,-0.022 3.2932,-0.035 4.9394,-0.084 2.4071,-0.046 4.8155,-0.1294 7.2227,-0.019 1.7359,0.05 3.4696,0.1647 5.207,0.1035 1.5685,-0.015 3.1366,-0.018 4.7051,-0.019 1.5404,0.019 3.0807,0.028 4.6211,0.01 1.5854,-0.01 3.1711,-0.019 4.7559,0.027 1.3714,0.01 2.7444,0.011 4.1152,-0.027 1.7028,-5e-4 3.4048,-0.053 5.1074,-0.072 2.0085,-0.024 4.0161,0.02 6.0235,0.084 1.3603,0.017 2.7195,0.041 4.08,0.023 1.4571,-0.023 2.912,-0.032 4.3692,-0.023 1.3646,9e-4 2.7318,-0.027 4.0918,-0.1445 1.3502,-0.1407 2.7053,-0.2192 4.0605,-0.295 1.5311,-0.1109 3.0572,-0.2402 4.584,-0.3965 1.0759,-0.099 2.1577,-0.1334 3.2207,-0.3457 1.8303,-0.3223 3.6321,-0.7872 5.4649,-1.0996 1.3421,-0.1887 2.6969,-0.2849 4.039,-0.4785 0.9904,-0.2134 1.9866,-0.4051 2.961,-0.6836 1.0316,-0.3148 2.0679,-0.6252 3.0664,-1.0351 0.7661,-0.3333 1.5544,-0.5841 2.3476,-0.8477 1.0604,-0.384 2.1289,-0.7556 3.1485,-1.2402 0.9262,-0.4508 1.7716,-1.0108 2.6425,-1.5586 1.0156,-0.6358 1.9581,-1.36 2.8262,-2.1895 0.9405,-0.8263 1.9094,-1.6245 2.7246,-2.58 0.7998,-1.0287 1.6108,-2.0484 2.3809,-3.0997 0.7328,-0.9652 1.4752,-1.9215 2.1777,-2.9082 0.6972,-0.9586 1.1744,-2.0316 1.7441,-3.0683 0.7173,-1.3505 1.3657,-2.739 2.1211,-4.0703 0.6563,-1.311 1.2993,-2.6229 1.9512,-3.9356 0.5958,-1.0285 1.1165,-2.0934 1.4707,-3.2324 0.2353,-0.5808 0.4388,-1.1729 0.6973,-1.7441 0.097,-0.2152 0.2273,-0.4182 0.3066,-0.6407 0.12,-0.3368 0.083,-0.7159 0.2285,-1.0468 0.149,-1.1069 0.3835,-2.2002 0.5723,-3.3008 0.1629,-1.1285 0.4451,-2.2363 0.6289,-3.3614 0.4034,-1.5812 0.9815,-3.0962 1.5195,-4.6328 0.3203,-1.3667 0.6645,-2.7253 0.9981,-4.0879 0.413,-2.05 1.0807,-4.0353 1.5586,-6.0703 0.436,-1.4351 0.7142,-2.8982 1.0273,-4.3632 0.1383,-0.7624 0.357,-1.5092 0.4883,-2.2715 0.1283,-0.7451 0.1567,-1.5105 0.3027,-2.2539 0.1479,-1.6675 0.3447,-3.3287 0.4727,-4.9981 0.2285,-1.7853 0.4375,-3.5724 0.5684,-5.3672 0.2043,-1.8579 0.4709,-3.7058 0.6992,-5.5605 0,-1.5995 0.065,-3.1993 0.053,-4.7988 0,-1.4252 0.011,-2.8506 0.045,-4.2754 0.013,-1.2263 0.064,-2.455 -0.017,-3.6797 -0.1118,-2.0569 -0.2738,-4.1072 -0.5489,-6.1504 -0.3413,-3.7552 -0.6195,-7.5373 -0.2929,-11.3047 0.015,-0.2649 0.04,-0.5311 0.059,-0.7969 l 1.2304,0.627 c -0.053,-0.9814 -0.1515,-1.9606 -0.1679,-2.9434 0,-0.9832 0.1376,-1.9545 0.1875,-2.9355 -0.012,-0.7708 -10e-5,-1.5402 -0.037,-2.3106 -0.1962,-1.2654 -0.311,-2.5435 -0.375,-3.8222 -0.01,-0.7723 10e-5,-1.543 -0.043,-2.3145 -0.013,-0.2398 -0.03,-0.4793 -0.045,-0.7187 -0.02,-0.2325 -0.048,-0.4643 -0.061,-0.6973 -0.012,-0.2173 -0.011,-0.4349 -0.014,-0.6524 0.013,-0.4199 0.01,-0.8399 0.022,-1.2597 0.023,-0.7242 0.068,-1.4501 -0.061,-2.1699 -0.041,-0.5346 -0.023,-1.07 -0.072,-1.6036 -0.034,-0.3695 -0.1108,-0.7346 -0.1328,-1.1054 -0.016,-0.1829 -0.024,-0.3657 -0.035,-0.5489 -0.037,-0.465 -0.081,-0.9278 -0.1679,-1.3867 -0.2663,-1.4047 0.081,0.5293 -0.1953,-0.8633 -0.03,-0.151 -0.048,-0.3031 -0.072,-0.455 -0.082,-0.2499 -0.1808,-0.5729 -0.2832,-0.8164 -0.059,-0.1405 -0.1434,-0.2707 -0.1953,-0.4141 -0.063,-0.1754 -0.098,-0.3598 -0.1504,-0.5391 -0.2991,-1.0386 -0.062,-0.1469 -0.3516,-1.2793 -0.5032,-1.7437 -0.8406,-3.5304 -1.3789,-5.2656 -0.442,-1.7819 -0.994,-3.5597 -1.0566,-5.4082 -0.2049,-0.9407 -0.3571,-1.8907 -0.5782,-2.8281 -0.1777,-1.2059 -0.6573,-2.3487 -0.83,-3.5586 -0.148,-1.3579 -0.3567,-2.7097 -0.4649,-4.0723 -0.1215,-1.0624 0.029,-0.047 -0.2187,-1.0429 -0.044,-0.1769 -0.061,-0.3595 -0.1016,-0.5372 -0.123,-0.5371 -0.3001,-1.0621 -0.4297,-1.5976 -0.089,-0.3533 -0.1876,-0.7041 -0.2715,-1.0586 -0.07,-0.2975 -0.109,-0.603 -0.1875,-0.8984 -0.031,-0.1182 -0.091,-0.2284 -0.1171,-0.3477 -0.028,-0.1257 -0.031,-0.2549 -0.047,-0.3828 -0.1415,-0.8185 -0.3469,-1.6246 -0.4746,-2.4453 -0.024,-0.1488 -0.053,-0.2955 -0.07,-0.4453 -0.04,-0.3702 -0.015,-0.5615 -0.066,-0.9278 -0.06,-0.425 -0.09,-0.3794 -0.2032,-0.7812 -0.037,-0.1317 -0.067,-0.2656 -0.1015,-0.3985 -0.025,-0.1428 -0.037,-0.2896 -0.076,-0.4296 -0.4641,-1.6984 0.1628,0.9156 -0.293,-0.8145 -0.1222,-0.4643 -0.1478,-0.9526 -0.2929,-1.4121 -0.083,-0.7334 -0.2436,-1.4641 -0.4786,-2.1641 -0.1791,-0.6634 0.041,0.016 -0.207,-0.4746 -0.1811,-0.3578 -0.1482,-0.7957 -0.3203,-1.1601 -0.072,-0.3087 -0.1521,-0.6225 -0.2109,-0.9336 -0.031,-0.1665 -0.01,-0.3413 -0.055,-0.5039 -0.017,-0.058 -0.064,-0.1061 -0.096,-0.1582 -0.044,-0.142 -0.1089,-0.2768 -0.1485,-0.42 -0.1,-0.3609 -0.1076,-0.7424 -0.33,-1.0644 -0.04,-0.07 -0.097,-0.1339 -0.1211,-0.211 -0.096,-0.3043 0.01,-0.2495 -0.035,-0.5371 -0.032,-0.2327 -0.2187,-0.4219 -0.2012,-0.6679 -0.075,-0.3011 -0.1436,-0.6149 -0.2519,-0.9063 -0.1587,-0.4268 -0.093,-0.1179 -0.2481,-0.5683 -0.04,-0.1164 -0.067,-0.2369 -0.1,-0.3555 -0.159,-0.6348 -0.2296,-1.2929 -0.6465,-1.8301 -0.077,-0.2233 -0.1674,-0.4415 -0.2343,-0.668 -0.1686,-0.5714 -0.2246,-1.1727 -0.4297,-1.7343 -0.1039,-0.8228 0.011,-0.096 -0.1641,-0.8692 -0.1214,-0.5455 -0.1764,-1.1069 -0.3594,-1.6386 -0.1707,-0.576 -0.3405,-1.1549 -0.5547,-1.7149 -0.1676,-0.3476 -0.3746,-0.6746 -0.5371,-1.0254 -0.049,-0.1057 -0.08,-0.2189 -0.1289,-0.3242 -0.047,-0.099 -0.1071,-0.1914 -0.1601,-0.2871 -0.1945,-0.4905 -0.2833,-1.0274 -0.3262,-1.5508 l -3.8398,-1.8613 c 0,-0.072 0.01,-0.1432 0.01,-0.2149 0.013,-0.6048 -0.044,-1.2089 -0.1797,-1.7988 -0.1645,-0.6222 -0.4286,-1.2044 -0.6836,-1.791 -0.2542,-1.5176 -0.4865,-3.0389 -0.6875,-4.5645 -0.1431,-0.9893 -0.3784,-1.9687 -0.6934,-2.9179 -0.037,-0.12 -0.079,-0.238 -0.1172,-0.3574 0,-0.019 -0.01,-0.039 -0.01,-0.059 -0.1545,-1.0301 -0.3812,-2.0573 -0.4375,-3.0996 -0.036,-0.6606 0.013,-1.5397 0.031,-2.2051 0.01,-0.3148 0.014,-0.6304 0.022,-0.9453 2e-4,-0.6773 0.022,-0.9984 -0.059,-1.6641 -0.1406,-1.1542 -0.5241,-2.2637 -0.707,-3.4102 -0.3876,-1.8455 -0.7793,-3.691 -1.0938,-5.5507 -0.077,-0.412 -0.179,-0.8198 -0.2402,-1.2344 -0.049,-0.3293 -0.021,-0.6667 -0.08,-0.9942 -0.025,-0.138 -0.086,-0.2691 -0.123,-0.4043 -0.041,-0.1484 -0.074,-0.2979 -0.1113,-0.4472 -0.08,-0.2927 -0.1747,-0.5806 -0.2403,-0.877 -0.1282,-0.5792 -0.1697,-1.1779 -0.2715,-1.7617 -0.1291,-0.8364 -0.254,-1.6691 -0.4277,-2.498 -0.2488,-0.9448 -0.4203,-1.9083 -0.4766,-2.8848 -0.1546,-0.8011 -0.3171,-1.5994 -0.4902,-2.3965 -0.026,-0.1491 -0.1073,-0.6351 -0.1484,-0.7851 -0.1117,-0.4084 -0.2872,-0.7983 -0.4102,-1.2032 -0.2226,-0.6362 -0.483,-1.259 -0.6914,-1.9004 -0.2052,-0.6554 -0.435,-1.4334 -0.207,-2.1171 0.029,-0.088 0.088,-0.1641 0.1328,-0.2461 l -3.4414,-1.7539 c 0.032,-0.1232 0.062,-0.2462 0.098,-0.3672 0.146,-0.4387 0.1173,-0.3068 0.211,-0.7559 0.028,-0.1346 0.062,-0.2683 0.08,-0.4062 0.066,-0.5544 -3e-4,-1.1223 0.057,-1.6778 0.017,-0.2409 0.014,-0.4854 0.049,-0.7226 0.1072,-0.7149 0.3553,-1.4285 0.8262,-1.8262 0.2138,-0.1806 0.4606,-0.2367 0.6992,-0.3106 z m -605.97068,27.0254 c -0.0222,0.021 -0.0306,0.028 -0.0527,0.049 0.005,0 0.009,0.01 0.0137,0.01 0.0314,0.018 0.0411,-0.014 0.041,-0.057 v 0 z m 595.13668,-16.9239 c -0.381,-0.2198 -0.3016,-0.2356 0.092,-0.1269 -0.024,0.033 -0.049,0.065 -0.074,0.098 -0.01,0.01 -0.011,0.02 -0.018,0.029 z m -195.20308,1.625 c 0.0329,-0.013 0.12047,0.072 0.0898,0.055 -0.0307,-0.017 -0.0611,-0.035 -0.0918,-0.053 z m -557.58594,6.8907 c 0.0956,-0.047 0.15808,0.1851 0.13477,0.289 -0.0138,0.062 -0.0645,0.1121 -0.0918,0.1699 -0.10546,-0.059 -0.21093,-0.1185 -0.31641,-0.1777 0.0913,-0.093 0.15609,-0.2236 0.27344,-0.2812 z m 376.48828,1.7832 c 0.0149,0 0.0266,0 0.0332,0.017 0.0144,0.037 -0.004,0.1106 -0.0254,0.1875 -0.0588,-0.033 -0.117,-0.067 -0.17578,-0.1 0.0503,-0.022 0.12338,-0.097 0.16797,-0.1054 z m -367.17578,3.8164 c 0.0403,-0.01 0.10618,0.1233 0.0703,0.1035 -0.0398,-0.022 -0.0794,-0.044 -0.11914,-0.066 0.0178,-0.01 0.0287,-0.033 0.0488,-0.037 z m 288.49609,0.5918 c -0.36594,-0.058 -0.80369,-0.037 -1.2207,0.1523 2.76244,0.8932 2.31853,0.02 1.2207,-0.1523 z m 87.79297,0.7578 c 0.046,-0.01 0.0913,-5e-4 0.12891,0.018 0.0764,0.046 0.18372,0.2864 0.10547,0.2442 -0.12824,-0.069 -0.25473,-0.1414 -0.38281,-0.2109 0.006,0 0.01,-0.01 0.0156,-0.01 0.0403,-0.018 0.0869,-0.034 0.13281,-0.041 z m -628.1289,4.9121 c 0.0839,-0.01 0.19489,-3e-4 0.25195,0.01 0.2547,0.039 0.40146,0.2798 0.50391,0.5313 -0.28126,-0.1636 -0.56751,-0.3189 -0.84766,-0.4844 -0.0497,-0.03 0.008,-0.046 0.0918,-0.053 z m 692.88672,0.6582 c 0.0296,-0.022 0.056,0.05 0.084,0.074 -0.0995,0.2043 -0.098,0.7197 -0.29883,0.6133 -0.0623,-0.033 -0.12341,-0.068 -0.18555,-0.1016 0.11861,-0.2101 0.2111,-0.4429 0.4004,-0.5859 z m -385.41797,5.4922 c -0.0649,0.1434 -0.15574,0.3529 -0.18164,0.4062 0.51871,0.3704 0.54848,0.2671 0.18164,-0.4062 z m -239.29102,0.1269 c 0.0883,-0.042 -0.0833,0.1779 -0.14258,0.2559 -0.0472,0.062 -0.11375,0.1199 -0.17383,0.1797 -0.0288,-0.019 -0.0591,-0.036 -0.0879,-0.055 -0.15501,-0.102 0.2371,-0.3004 0.4043,-0.3809 z m 44.33203,3.4883 2.83399,1.8652 c -0.009,0 -0.0169,0.01 -0.0254,0.01 z m 725.93164,2.666 c 0.0728,0 0.14481,7e-4 0.21094,0.027 0.0467,0.019 0.0802,0.059 0.11328,0.098 -0.0343,0.01 -0.0693,0.017 -0.10351,0.027 -0.089,-0.051 -0.17862,-0.1 -0.26758,-0.1504 h 0.0469 z m 110.27736,1.1563 c -0.059,0.1554 -0.1159,0.3119 -0.1758,0.4668 l -0.045,-0.033 c 0.057,-0.1209 0.147,-0.2906 0.2207,-0.4336 z m -880.19337,12.6445 c -0.0848,-0.048 0.19279,0.058 0.26367,0.125 0.0103,0.01 0.014,0.025 0.0234,0.035 -0.0954,-0.054 -0.1917,-0.1063 -0.28711,-0.1602 z m -206.8027373,2.4277 c 0.056535,0.013 0.071642,0.064 0.011719,0.1739 -0.06129,0.1128 -0.1741596,0.2309 -0.2949219,0.3457 -0.1247974,-0.078 -0.2526333,-0.1501 -0.3769531,-0.2285 -0.044804,-0.028 0.4905533,-0.3291 0.660156,-0.2911 z m -42.4218747,141.2793 c 0.774179,0.2078 1.550109,0.4091 2.324218,0.6172 -0.605149,-0.1312 -1.201618,-0.2985 -1.804687,-0.4375 -0.17223,-0.06 -0.346961,-0.1203 -0.519531,-0.1797 z m 386.166012,55.2813 c 1.44873,0.096 2.80455,0.1871 4.34571,0.2832 -0.45635,-0.01 -0.9128,-0.011 -1.36914,-0.018 -0.8148,-0.062 -1.62292,-0.1742 -2.44141,-0.209 -0.17899,-0.013 -0.35616,-0.044 -0.53516,-0.057 z" />
      <g
         id="g46"
         inkscape:label="stroke"
         style="display:inline"
         transform="translate(2.7e-6)">
        <path
           id="path39"
           style="display:inline;opacity:1;fill:#35603a;fill-opacity:1;stroke:none;stroke-width:5.8;stroke-linecap:round;stroke-linejoin:round"
           d="m 1096.1642,1791.0943 c -0.8211,0.041 -1.6521,-0.1497 -2.4629,0.1211 -2.9033,0.9706 -7.9558,4.4449 -10.334,6.1953 -8.2009,6.0359 -15.9174,13.5544 -23.8066,20.5644 -11.6957,10.7761 -23.1603,22.369 -35.1543,32.2617 3.6878,-7.1601 7.5086,-14.1532 11.0059,-21.5468 0.9962,-2.2124 9.1836,-19.8362 8.1523,-22.7793 -4.5356,-12.9429 -9.4329,-8.3007 -15.8652,-3.625 -14.8394,10.7405 -29.74977,21.4752 -45.15824,29.7715 -1.9213,0.8206 -3.82067,1.8192 -5.76367,2.4609 -0.7819,0.2583 -1.7935,-0.071 -2.68555,-0.1563 0.56849,-1.3551 1.2118,-2.6698 1.33789,-2.9687 3.2795,-7.0521 7.02842,-14.1314 9.65039,-21.834 0.4714,-1.3845 1.6323,-3.0288 1.1543,-4.3301 -1.3518,-3.6802 -3.94963,-5.7699 -5.92383,-8.6543 -0.5741,-0.2763 -1.11285,-0.8535 -1.72265,-0.8281 -2.7252,0.1132 -5.03253,2.4831 -7.375,4.5059 -6.215,5.3666 -12.09264,11.6608 -18.1836,17.373 -6.40817,5.8331 -12.74088,11.5484 -19.45508,16.4004 -1.90996,1.3802 -4.86753,3.4003 -7.50781,4.9668 0.13772,-0.2699 0.25505,-0.5608 0.38867,-0.834 3.2159,-6.5752 6.77842,-12.8152 9.15039,-20.2734 3.0906,-11.541 4.00572,-14.9409 -6.12695,-20.0332 -1.687,-0.8479 -3.61921,0.4085 -5.38281,1.1191 -2.5156,1.0136 -16.75562,9.2491 -18.22852,10.0879 -12.56334,7.2195 -25.11185,14.4357 -37.76562,21.1973 -7.09281,3.7901 -16.38508,8.9544 -23.74805,11.6621 -3.0745,1.1307 -6.20715,1.6672 -9.31055,2.5 -2.21987,0.035 -4.4383,0.069 -6.6582,0.1035 0.4707,1.3181 2.19521,2.953 1.41211,3.9531 -0.7741,0.9886 -1.48643,-2.0861 -1.73633,-3.541 -0.7395,-4.3043 2.1316,-12.3129 1.125,-16.7754 -0.3096,-1.8474 -0.0807,-4.2048 -0.92773,-5.543 -2.3369,-3.6939 -5.17392,-6.6831 -8.19922,-8.8886 -2.71324,-1.978 -8.7997,0.6579 -11.0957,1.6504 -4.5614,1.9716 -13.82665,7.2722 -17.99024,9.582 -11.95844,6.3766 -23.84446,13.1527 -35.77344,19.6797 1.54245,-2.1678 3.06416,-4.3716 4.45899,-6.7988 0.99318,-1.7683 7.5051,-13.0173 6.55078,-15.7715 -0.26647,-0.7691 -0.70921,-1.7162 -1.18164,-2.668 -1.68502,-0.3806 -3.15889,-2.9221 -4.84766,-2.3086 -0.95774,0.348 -0.41004,3.0518 -0.84961,4.4492 -1.22564,3.8966 -3.37471,7.3324 -5.15234,10.5606 -3.2321,5.6711 -6.97254,10.4589 -10.78711,15.0937 -1.03876,1.2622 -2.13679,2.4057 -3.13281,3.752 -0.39579,0.535 -1.42328,1.4032 -1.02344,1.8652 1.34726,1.5572 2.88835,2.6356 4.45313,3.6543 0.40685,0.811 0.79529,1.65 1.32031,2.2695 0.23783,0.2807 0.34931,-0.4029 0.49023,-1.0488 0.47187,0.3157 0.95533,0.603 1.41407,0.9512 16.20576,-9.6582 32.41667,-19.292 48.80078,-28.0703 8.09853,-3.5529 16.19989,-10.4967 24.6875,-11.2149 0.53567,-0.045 1.07143,0.1629 1.60547,0.4063 0.23206,1.1277 0.98836,2.4075 1.24023,3.541 1.0999,4.8999 -1.62258,11.5593 -1.02148,16.3809 0.1972,1.5817 0.64523,3.2885 1.49023,4.164 8.81328,9.1301 7.69603,7.5756 16.28711,6.834 3.0541,-0.9608 6.13861,-1.654 9.16211,-2.8828 6.99017,-2.8406 16.80556,-8.4515 23.51953,-12.1211 12.63457,-6.9055 25.21215,-14.0703 37.80859,-21.1699 1.9955,-1.0873 15.58044,-8.6656 18.53711,-9.6797 0.7176,-0.2462 1.51264,-0.082 2.29883,0.078 0.0709,0.4386 0.21578,0.9104 0.16992,1.2793 -0.2708,2.1775 -1.01418,4.1784 -1.52148,6.2676 -2.3107,7.3811 -5.73933,13.6326 -8.95313,20.0781 -0.9352,1.8756 -1.97705,3.6486 -2.75195,5.6895 -0.3746,0.9867 -1.15098,2.509 -0.64648,3.2636 2.07807,3.1085 4.9586,4.5964 7.4375,6.8946 1.21867,-0.4836 2.45929,-0.8167 3.65429,-1.4512 2.8512,-1.5135 7.43118,-4.9402 10.04688,-6.8945 6.66857,-4.9823 12.95732,-10.7743 19.33008,-16.6836 6.09677,-5.7603 12.0286,-12.0101 18.33007,-17.1895 0.90404,-0.743 1.89909,-1.5631 2.90235,-2.2969 -0.0105,0.041 -0.004,0.11 -0.0156,0.1485 -2.40157,7.7298 -6.18414,14.777 -9.41601,21.7051 -0.3804,0.8685 -1.5693,3.1508 -2.22852,5.3281 l -0.0508,-0.027 c 0,0.062 -0.006,0.1237 0,0.1856 -0.29562,1.018 -0.49871,2.0085 -0.37891,2.8047 0.0503,0.3343 0.21214,0.5856 0.34766,0.8574 7.3e-4,-0.019 0.005,-0.071 -0.002,0.064 6e-4,0.031 -8e-4,0.063 0,0.094 0,0.03 0.01,0.061 0.0137,0.09 0.01,0.027 0.0126,0.054 0.0156,0.082 0.01,0.075 0,0.128 0,0.2031 10e-5,0.034 0,0.067 0,0.1016 0,0.061 0.01,0.1462 0,0.207 0,0.033 -0.01,0.065 -0.01,0.098 0,0.027 0.0155,0.052 0.0215,0.078 0.02,0.093 0.0184,0.1082 0.0254,0.2031 0.033,0.092 0.0717,0.1856 0.0957,0.2812 0.025,0.1036 8.1e-4,0.1154 0.0996,0.1797 0.029,0.088 0.0518,0.1851 0.10937,0.2598 0.015,0.019 0.0357,0.033 0.0527,0.051 0.019,0.021 0.0347,0.044 0.0527,0.066 0.1806,0.2736 -0.0688,-0.098 0.10937,0.1484 0.016,0.023 0.0289,0.049 0.0449,0.072 0.059,0.084 0.12282,0.1663 0.17382,0.2559 0.028,0.063 0.0481,0.1278 0.0781,0.1894 0.012,0.025 0.0299,0.048 0.0449,0.072 0.014,0.015 0.032,0.028 0.041,0.047 0.082,0.162 -0.0369,0.014 0.0781,0.1387 0.1465,0.181 -0.056,-0.056 0.11914,0.1094 0.051,0.048 0.0607,0.088 0.0977,0.1445 0.013,0.021 0.034,0.036 0.043,0.059 0.012,0.03 0.0135,0.064 0.0195,0.096 0.012,0.02 0.0271,0.039 0.0371,0.061 0.01,0.022 -10e-4,0.056 0.0195,0.068 2.1156,1.2236 4.24561,2.4226 6.37109,3.6289 0.016,0.01 0.0357,0.011 0.0527,0.018 0.012,0 0.0231,0.014 0.0352,0.016 0.016,0 0.0328,3e-4 0.0488,0 0.065,-0.023 0.0711,-0.031 0.14063,-0.031 0.091,-4e-4 0.0538,0.017 0.15429,0.012 0.069,0 0.13654,-0.03 0.20704,-0.022 0.1485,-0.024 0.29875,-0.039 0.44335,-0.082 0.031,0 0.0628,-0.01 0.0937,-0.01 0.032,0 0.0637,4e-4 0.0957,0 0.027,0 0.0511,-0.019 0.0781,-0.027 0.0278,-0.01 0.0561,-0.017 0.084,-0.025 0.21934,0.094 0.42755,0.2389 0.65039,0.3164 1.4714,0.5115 9.49969,-3.6398 10.24219,-3.9902 15.32288,-8.7126 30.18058,-19.5535 45.07818,-30.0684 -0.01,-0.011 0,-0.014 -0.01,-0.025 0.032,-0.01 0.041,-0.011 0.1289,-0.031 0.1004,-0.018 0.2027,-0.021 0.2969,-0.061 0.022,-0.01 0.046,-0.014 0.068,-0.022 0.021,0 0.043,3e-4 0.062,-0.01 0.1102,-0.035 0.2049,-0.1102 0.3144,-0.1465 0.088,-0.05 0.1691,-0.09 0.2637,-0.125 0.028,-0.01 0.055,-0.027 0.084,-0.033 0.017,0 0.034,0.01 0.051,0 0.028,0 0.055,-0.017 0.082,-0.025 0.2192,-0.135 0.4337,-0.275 0.664,-0.3906 0.1955,-0.097 0.3932,-0.189 0.5918,-0.2793 0.078,-0.036 0.1557,-0.076 0.2364,-0.1055 0.1213,-0.045 0.4408,-0.1291 0.5625,-0.1621 0.137,-0.051 0.2751,-0.098 0.4121,-0.1485 -0.015,0.073 0,0.1827 -0.014,0.252 -1.4978,5.6314 -4.3178,11.4912 -6.4668,16.4355 -4.0906,8.7359 -8.669,16.8753 -13.0078,25.3067 -1.0985,2.1348 -2.2859,4.1768 -3.2402,6.4707 -0.3926,0.9438 -1.2932,2.4733 -0.7579,3.1406 1.3428,1.6738 2.9462,2.7124 4.5821,3.6738 0.3739,0.7143 0.7781,1.3758 1.2871,1.8457 0.2585,0.2387 0.2708,-0.2458 0.2519,-0.8964 0.5725,0.3438 1.1591,0.6542 1.709,1.0527 14.8607,-12.4925 29.0584,-26.897 43.6172,-40.2676 7.8804,-7.0324 15.6097,-14.5783 23.8731,-20.3984 1.6471,-1.1602 4.6328,-3.086 7.3027,-4.4024 -0.01,0.038 0,0.1003 0,0.1368 -0.4842,2.099 -1.1285,4.1164 -1.8067,6.0918 -2.6456,7.7055 -6.0649,14.5911 -9.4804,21.5019 -0.4919,0.994 -4.1094,7.3786 -4.0957,10.0078 0.01,1.0177 0.6654,1.8241 1.2383,2.2559 1.468,1.1065 2.9334,2.3327 4.4433,3.3554 10e-4,0 0,0 0,0.01 0.01,0.015 0.1179,0.091 0.2676,0.1895 0.3588,0.7833 1.4023,1.4406 1.5195,0.9218 0.01,0.01 0.033,0.019 0.037,0.022 v 0 c 0.049,0.03 0.059,0.027 0.07,-0.018 0.8503,0.4327 1.7168,0.7831 2.6133,0.9512 1.6825,0.3154 3.2682,-1.8139 4.8789,-2.832 2.1004,-1.3278 4.1668,-2.8025 6.25,-4.2031 11.7048,-9.0358 23.1793,-18.9856 34.3555,-29.6543 4.5317,-4.9705 2.3591,-2.5723 6.5156,-7.1934 l -5.461,-6.0352 c -4.0718,4.6783 -1.942,2.263 -6.3886,7.2325 -11.0385,10.8384 -22.3827,21.0339 -34.127,29.6972 -2.1172,1.331 -4.2093,2.7783 -6.3515,3.9922 -0.6268,0.3551 -1.3936,0.4299 -2.1446,0.5254 0.8248,-1.7389 1.7129,-3.4407 1.7989,-3.6211 4.2625,-8.6959 8.93,-17.6079 11.6347,-27.7734 0.4415,-1.6594 1.6194,-3.6644 1.0352,-5.125 -1.4504,-3.626 -4.2174,-5.4023 -6.3262,-8.1035 z m -331.13671,28.3066 c 0.0292,0.01 0.0566,0.034 0.0859,0.039 0.49407,0.088 0.22231,-0.1723 -0.30469,-0.5352 0.0938,0.1797 0.13097,0.3192 0.21875,0.4961 z m -0.21875,-0.4961 c -1.83889,-3.5235 -4.79669,-7.4914 -7.59961,-7.8633 -1.62692,-0.2159 -3.28376,0.2825 -4.92578,0.4239 -18.61869,7.6871 -36.74468,18.3649 -55.36914,25.9941 -5.2024,1.783 -10.0432,3.7566 -15.3086,4.4922 -1.79167,0.2502 -3.5971,0.3377 -5.375,0.1191 -0.57451,-0.071 -1.24342,-0.6504 -1.88085,-1.1484 0.42068,-3.311 2.59204,-16.4538 1.68554,-18.3984 -3.95777,-8.4926 -4.71665,-8.3502 -9.03125,-10.6524 -1.2828,0.1892 -2.58638,0.087 -3.84765,0.5664 -4.2457,1.6146 -8.26907,4.6345 -12.43164,6.7988 -8.8891,4.6216 -17.8837,8.7295 -26.98047,11.9414 -3.0999,0.9404 -6.18473,2.0623 -9.29883,2.8204 -1.38976,0.3383 -2.88834,0.059 -4.32422,0.072 1.71205,-2.4431 3.53469,-4.9363 3.80078,-5.3008 0.9532,-1.5328 3.09578,-2.5662 2.85938,-4.5996 -0.11561,-0.9941 -0.40471,-2.2103 -0.80469,-3.457 -0.27208,-0.1342 -0.5062,-0.2548 -0.74219,-0.3828 0.0647,0 0.13067,-0.027 0.19531,-0.029 0.10873,0 0.30939,0.1493 0.46094,0.2012 -1.13214,-3.4102 -3.17401,-6.9354 -5.61328,-6.4727 -3.7586,0.7133 -9.09673,4.0209 -12.39453,5.7969 -3.2482,1.7493 -6.49637,3.5023 -9.74414,5.2539 -13.56107,6.7441 -26.98072,12.5949 -40.88086,16.9101 -4.5772,1.4209 -9.164,2.7448 -13.76367,3.8868 -3.7045,0.9199 -7.63733,0.024 -11.14063,2.2968 -0.95122,0.6174 -0.97788,2.6054 -1.14258,4.3868 1.99245,0.9048 4.00396,1.6626 6.08789,1.8398 2.0243,0.1724 24.02807,-6.8364 24.41797,-6.9648 13.88217,-4.5717 27.41701,-10.3551 41.03125,-16.8692 5.1536,-1.5367 10.64022,-5.8418 16.07032,-8.3594 -0.17562,0.3085 -0.20378,0.374 -0.41211,0.7286 -0.3252,0.4552 -5.96477,8.2189 -6.35157,9.2402 -1.49442,3.9465 2.27642,6.6679 5.94336,8.2891 1.42264,0.6289 2.81695,1.1289 3.90039,1.416 1.6316,0.4322 16.05976,-4.6406 16.66016,-4.8399 9.10977,-3.3998 18.14513,-7.4331 27.0918,-11.9414 0.036,-0.018 11.7802,-6.2801 12.6582,-6.5566 0.4259,-0.1342 0.85668,-0.1229 1.28711,-0.1406 -0.0694,0.9559 0.53847,2.6377 0.50586,3.7421 -0.1353,4.5792 -1.04748,9.2181 -1.64258,13.7207 0.2708,1.2284 0.1929,2.8418 0.8125,3.6856 2.4214,3.2979 5.1334,6.1397 8.0293,8.3555 1.8286,1.3991 7.81773,0.7202 9.36133,0.4336 5.21907,-0.9679 9.98737,-3.0369 15.13867,-4.961 18.59224,-8.0678 36.74172,-18.7606 55.47265,-25.9023 -4.09569,-4.5368 5.25147,-0.1448 7.53516,1.4277 z m -243.59766,33.6563 c -0.75252,-0.3418 -1.50811,-0.6612 -2.25781,-1.0254 -0.0437,0.3041 -0.19116,0.6074 -0.13281,0.9062 0.2393,1.2257 1.49439,1.0027 2.24219,1.5039 0.0898,-0.4018 0.10494,-0.9144 0.14843,-1.3847 z m -2.25781,-1.0254 c 0.14679,-1.0225 0.62529,-2.0483 1.07617,-2.8828 0.9934,-1.8389 2.27586,-3.2431 3.43946,-4.8164 4.12047,-5.5722 8.3832,-10.9132 12.01757,-17.3204 0.7117,-1.5897 2.57827,-3.0408 2.13477,-4.7675 -0.12249,-0.4769 -0.46079,-1.2399 -0.82227,-2.0137 -0.93106,-0.5218 -1.49365,-0.9632 -2.08789,-1.4141 0.11551,0.023 0.23482,0.01 0.34961,0.039 0.40321,0.1025 1.09254,0.6081 1.60157,1.041 -1.49293,-3.0446 -4.34232,-7.2723 -6.73829,-7.5469 -3.33567,-0.3822 -7.56064,1.2079 -10.68164,2.295 -2.85797,0.9951 -5.69672,2.163 -8.54492,3.2441 -21.24824,8.7636 -42.37106,18.3158 -63.2832,29.2305 -3.88808,1.9925 -8.08023,4.3502 -12.11524,5.6445 -0.009,-2.4811 0.27061,-4.4025 2.1875,-2.1914 2.3897,-5.2244 4.91613,-10.5363 6.16993,-16.707 0.2576,-1.2673 0.95539,-2.9258 0.43359,-3.9063 -3.9672,-7.4549 -4.71472,-7.221 -8.71289,-8.4746 -8.26477,0.9066 -15.98409,7.8172 -24.08399,10.5449 -9.34887,4.1196 -18.84974,7.0253 -28.44921,8.2403 l 5.37109,6.8847 c 9.50677,-2.1074 18.92172,-4.8669 28.22852,-8.9551 7.15815,-2.1874 14.08082,-8.2799 21.30273,-9.7363 -0.002,0.015 0.006,0.041 0.004,0.055 -0.2761,1.713 -0.72078,3.3678 -1.20508,4.9785 -1.5576,5.1802 -2.45275,6.7001 -4.58985,11.4199 -3.74127,8.496 -5.4663,10.7599 4.07227,15.8164 1.3346,0.7076 2.83393,-0.9113 4.23633,-1.4843 5.21147,-2.1292 6.85755,-3.2326 12.20312,-6.1446 20.73444,-11.3913 41.73327,-21.1395 62.94141,-29.5449 3.7774,-1.3077 11.14481,-4.105 15.31641,-4.748 0.0369,-0.01 0.0744,0 0.11132,-0.01 -0.26452,0.6947 -0.47557,1.2721 -0.97461,2.498 -3.45737,6.4933 -7.63869,11.8028 -11.73046,17.2344 -0.5192,0.6892 -5.1136,5.8912 -5.0254,8.7246 0.042,1.3417 1.14305,1.9151 1.71485,2.8731 1.3904,0.531 2.75956,1.2331 4.13281,1.9004 z m 17.70899,-32.1348 c 0.0655,0.1335 0.0767,0.2056 0.13671,0.334 0.13141,0.074 0.15574,0.1248 0.29493,0.1992 0.33497,0.179 0.0126,-0.1554 -0.43164,-0.5332 z m 79.22851,1.1016 c 0.0239,0.072 0.0629,0.139 0.0859,0.2109 0.53789,0.2653 0.77026,0.4749 1.46875,0.7539 0.59261,0.2367 -0.69106,-0.6692 -1.55469,-0.9648 z m 367.99414,-18.2618 c 0.6079,0.1109 1.03524,0.9663 1.55274,1.4493 -0.56234,-0.3785 -1.09878,-0.9282 -1.64063,-1.4434 0.0295,0 0.0583,-0.011 0.0879,-0.01 z m -311.85547,16.1387 c 0.0539,-10e-4 0.10823,0.01 0.16211,0 0.7638,0.5949 3.13842,2.0328 2.29102,1.7852 -0.85658,-0.2502 -1.65276,-1.1262 -2.45313,-1.7891 z m 297.66992,19.1446 c 0.0874,0.05 0.17427,0.1006 0.26172,0.1503 -0.0711,-0.03 -0.15094,-0.022 -0.21093,-0.08 -0.019,-0.018 -0.0299,-0.043 -0.0449,-0.064 -0.002,0 -0.004,0 -0.006,-0.01 z m 0.28125,0.1601 c 0.0175,0.01 0.0353,0.019 0.0527,0.029 -0.003,-7e-4 -0.007,0 -0.01,0 -0.0147,-0.01 -0.0287,-0.018 -0.043,-0.027 z"
           inkscape:label="right" />
        <path
           style="display:inline;opacity:1;fill:#35603a;fill-opacity:1;stroke:none;stroke-width:1.38;stroke-linecap:round;stroke-linejoin:round;stroke-opacity:0.9;paint-order:stroke markers fill"
           id="path6"
           d="m 429.33927,1822.66 c -9.50677,2.1074 -18.92009,4.8675 -28.22682,8.9557 -8.11116,2.4786 -15.91937,9.993 -24.20383,10.0673 -0.64896,-0.3131 -2.51139,-1.5143 -1.94684,-0.9392 1.47906,1.5068 2.93497,3.5671 4.72783,3.7722 0.67774,0.078 -0.0543,-2.1665 0.115,-3.2182 0.27612,-1.713 0.72181,-3.3693 1.20609,-4.98 1.55757,-5.1802 2.45136,-6.7002 4.5885,-11.42 3.7413,-8.496 5.46755,-10.7583 -4.07105,-15.8148 -1.33461,-0.7076 -2.83362,0.9103 -4.23606,1.4833 -5.21147,2.1292 -6.85862,3.2332 -12.20418,6.1452 -20.73448,11.3913 -41.73249,21.1398 -62.94073,29.5452 -3.77736,1.3077 -11.1444,4.104 -15.31597,4.747 -1.44645,0.2229 -2.92059,0.3143 -4.33652,-0.045 -0.75511,-0.1919 -2.75281,-1.9572 -2.03403,-1.5732 6.64185,3.5485 4.28178,6.38 7.23311,-0.8705 3.45747,-6.4933 7.63798,-11.8012 11.72975,-17.2328 0.51918,-0.6892 5.11479,-5.8915 5.02658,-8.7249 -0.0418,-1.3417 -1.14375,-1.916 -1.71564,-2.874 -4.15911,-1.5886 -8.1646,-4.3991 -12.47733,-4.7659 -2.02437,-0.1724 -24.029,6.8369 -24.41889,6.9653 -13.8822,4.5717 -27.41679,10.3546 -41.03111,16.8687 -7.26262,2.1656 -15.19043,9.9781 -22.68238,10.267 -0.72833,0.028 -2.71112,-1.4444 -2.01452,-1.1662 7.82605,3.1258 4.75727,5.8158 9.03797,-1.4702 0.32518,-0.4552 5.96585,-8.2181 6.3526,-9.2394 2.07419,-5.4776 -5.96897,-8.6779 -9.84508,-9.7049 -1.63164,-0.4322 -16.0598,4.6406 -16.66017,4.8399 -9.10982,3.3998 -18.14519,7.4333 -27.09187,11.9416 -0.0358,0.018 -11.77835,6.2806 -12.65641,6.5571 -1.28087,0.4035 -2.58905,0.1058 -3.88358,0.1588 -0.76382,-0.5949 -3.13892,-2.032 -2.29146,-1.7844 1.57993,0.4615 2.95064,3.1519 4.53152,2.4387 0.91731,-0.4139 -0.19306,-2.9358 -0.14932,-4.4159 0.13531,-4.5792 1.04679,-9.2175 1.64183,-13.7204 -0.27076,-1.2284 -0.19262,-2.8417 -0.81223,-3.6855 -2.42146,-3.2979 -5.13319,-6.14 -8.02909,-8.3558 -1.8286,-1.3991 -7.81828,-0.72 -9.36181,-0.4334 -5.21913,0.9679 -9.98746,3.0377 -15.13876,4.9618 -18.592256,8.0678 -36.741596,18.7603 -55.472586,25.902 5.04088,5.5837 -10.47485,-2.4362 -7.83981,-1.9638 1.72186,0.3086 3.21594,2.9726 4.93398,2.3485 0.95774,-0.348 0.40968,-3.0523 0.84925,-4.4497 1.22567,-3.8966 3.37422,-7.3327 5.15185,-10.5609 3.2321,-5.6711 6.97339,-10.4589 10.78796,-15.0937 1.03876,-1.2622 2.13669,-2.4057 3.13271,-3.752 0.39579,-0.535 1.42218,-1.4022 1.02234,-1.8642 -2.27942,-2.6346 -5.11805,-3.8849 -7.67709,-5.8273 -16.20582,9.6582 -32.41766,19.2918 -48.8018,28.0701 -8.09856,3.5529 -16.1991802,10.4973 -24.6867602,11.2155 -1.59319,0.1347 -3.19687,-1.8543 -4.70568,-0.9288 -1.0406,0.6383 2.18898,3.264 2.97255,1.9918 0.81718,-1.3266 -0.74224,-3.34 -1.11335,-5.0101 -1.09985,-4.8999 1.62375,-11.5584 1.02265,-16.38 -0.19717,-1.5817 -0.64517,-3.2893 -1.49022,-4.1648 -8.8132598,-9.1301 -7.6964098,-7.5758 -16.2874998,-6.8342 -3.05413,0.9608 -6.13889,1.6536 -9.16239,2.8824 -6.990149,2.8406 -16.804518,8.4525 -23.518456,12.1221 -12.634626,6.9055 -25.212676,14.0701 -37.809093,21.1697 -1.995526,1.0873 -15.580805,8.6662 -18.537525,9.6803 -1.81888,0.6239 -4.14198,-1.3619 -5.53034,0.6547 -0.93684,1.3606 2.05003,3.4713 3.21814,2.7036 0.94477,-0.6208 -0.35063,-3.1514 -0.15609,-4.716 0.27077,-2.1775 1.01457,-4.1783 1.52185,-6.2675 2.3107,-7.3811 5.73836,-13.634 8.95213,-20.0795 0.93516,-1.8756 1.97815,-3.6475 2.7531,-5.6884 0.37464,-0.9867 1.150374,-2.5087 0.64588,-3.2633 -2.07807,-3.1085 -4.95782,-4.5963 -7.43672,-6.8945 -1.21871,0.4836 -2.4611,0.8163 -3.65611,1.4508 -2.85116,1.5135 -7.43058,4.9398 -10.04625,6.8941 -6.66862,4.9823 -12.95775,10.7745 -19.33052,16.6838 -6.0968,5.7603 -12.0283,12.0107 -18.32984,17.1901 -2.22431,1.8281 -4.80803,4.4009 -7.46109,3.9171 -0.60785,-0.1109 -1.03496,-0.9661 -1.55244,-1.4491 1.75933,1.184 3.32597,3.6539 5.27801,3.5518 0.85631,-0.045 0.46685,-2.6396 0.84985,-3.8723 2.40158,-7.7298 6.18371,-14.7766 9.41565,-21.7047 0.568,-1.2969 3.03984,-5.756 2.65832,-8.2915 -0.15684,-1.0423 -0.81751,-1.7696 -1.41931,-2.2524 -2.82586,-2.2668 -5.63556,-4.8292 -8.76418,-5.9166 -1.47133,-0.5115 -9.50099,3.6401 -10.24348,3.9905 -15.32277,8.7126 -30.17979,19.5526 -45.07736,30.0675 5.64229,11.1237 -11.15984,-0.072 -9.53845,4.2369 0.86912,2.3099 3.1465,3.6672 4.83423,2.808 1.1964,-0.6091 0.42268,-3.9031 0.90903,-5.7319 1.49774,-5.6314 4.31852,-11.4911 6.46746,-16.4357 4.09061,-8.7359 8.66878,-16.8749 13.00758,-25.3063 1.09856,-2.1348 2.28629,-4.1779 3.24061,-6.4718 0.39262,-0.9438 1.29364,-2.4735 0.7583,-3.1408 -2.23981,-2.7919 -5.22048,-3.7833 -7.83072,-5.6749 -14.86065,12.4925 -29.05867,26.8967 -43.61751,40.2673 -7.8803,7.0324 -15.60969,14.5786 -23.87307,20.3987 -2.38581,1.6805 -7.61536,5.0479 -10.55861,5.6899 -0.83092,0.1812 -1.65202,-0.2278 -2.47802,-0.3418 1.69274,1.1721 3.1949,3.8721 5.07822,3.5165 0.98854,-0.1866 0.31636,-3.1137 0.65915,-4.5997 0.48419,-2.099 1.12884,-4.116 1.80706,-6.0914 2.64563,-7.7058 6.06506,-14.5921 9.48056,-21.5029 0.49187,-0.994 4.10971,-7.3772 4.096,-10.0064 -0.005,-1.0177 -0.665,-1.825 -1.23797,-2.2568 -2.87736,-2.1687 -5.74412,-4.825 -8.9572,-5.4274 -1.68246,-0.3154 -3.26945,1.8149 -4.88016,2.833 -2.10045,1.3278 -4.1664,2.8014 -6.24959,4.202 -11.70484,9.0358 -23.17796,18.9865 -34.35415,29.6555 -4.53164,4.9705 -2.36019,2.5712 -6.51667,7.1923 0,0 5.46022,6.0358 5.46022,6.0358 v 0 c 4.07209,-4.6783 1.94358,-2.2637 6.39014,-7.2332 11.03852,-10.8384 22.38203,-21.0331 34.12638,-29.6964 2.11719,-1.331 4.2094,-2.7788 6.35155,-3.9927 1.6078,-0.911 4.16894,0.068 4.88878,-2.3766 0.63696,-2.163 -2.17427,-3.3092 -2.55941,-5.5339 -0.16647,-0.9614 1.62144,0.064 1.77957,1.0296 0.39695,2.4238 -3.56105,9.5544 -3.76225,9.9766 -4.26245,8.6959 -8.93134,17.6081 -11.63605,27.7736 -0.44151,1.6594 -1.61964,3.6633 -1.03539,5.1239 1.45033,3.626 4.21751,5.4023 6.32625,8.1035 0.82115,-0.041 1.65257,0.1498 2.46343,-0.121 2.90327,-0.9706 7.95531,-4.4445 10.33351,-6.1949 8.20084,-6.0359 15.91759,-13.5539 23.80682,-20.5639 14.5467,-13.4029 28.69021,-28.2179 44.00722,-39.2332 -1.12613,-2.1565 -1.84341,-5.0523 -3.37837,-6.4696 -0.54637,-0.5045 -0.0153,2.1283 -0.3432,3.0334 -0.85691,2.365 -2.0574,4.3978 -3.12822,6.5475 -4.26366,8.5595 -8.88212,16.6818 -13.00947,25.4076 -0.9962,2.2124 -9.18352,19.8356 -8.15218,22.7787 4.53553,12.9429 9.4327,8.3 15.865,3.6243 14.83941,-10.7405 29.75064,-21.474 45.15919,-29.7703 1.92128,-0.8206 3.82075,-1.8201 5.76381,-2.4618 1.50041,-0.4956 3.88002,1.2556 4.54286,-0.9423 0.63322,-2.0997 -2.24199,-3.0023 -2.71623,-5.1146 -0.21799,-0.9711 1.50603,0.2481 1.82428,1.1416 0.78845,2.2136 -2.01138,7.3462 -2.30458,8.0413 -3.27941,7.0521 -7.02775,14.1303 -9.64981,21.8329 -0.4713,1.3845 -1.63132,3.0298 -1.15334,4.3311 1.35182,3.6802 3.94856,5.7688 5.92284,8.6532 0.57411,0.2763 1.11255,0.8542 1.72231,0.8288 2.72521,-0.1132 5.03307,-2.4841 7.37554,-4.5069 6.21496,-5.3666 12.09241,-11.6594 18.18337,-17.3716 6.40822,-5.8331 12.74139,-11.5499 19.45553,-16.4019 2.55698,-1.8478 7.28384,-5.2548 10.12305,-6.4932 1.17527,-0.5126 2.39544,-0.6081 3.59317,-0.9122 -1.2178,-1.8399 -2.07115,-4.5304 -3.65339,-5.5196 -0.59497,-0.372 0.0328,2.1363 -0.27717,3.0622 -0.69845,2.0867 -1.74802,3.8538 -2.66596,5.7306 -3.21585,6.5752 -6.77967,12.8152 -9.15169,20.2734 -3.09057,11.541 -4.00587,14.9412 6.12677,20.0335 1.68706,0.8479 3.61979,-0.4093 5.38347,-1.1199 2.51553,-1.0136 16.755157,-9.248 18.228086,-10.0868 12.563348,-7.2195 25.112344,-14.4364 37.766192,-21.198 7.092789,-3.7901 16.384896,-8.9544 23.747876,-11.6621 3.07453,-1.1307 6.20671,-1.6659 9.31006,-2.4987 2.21995,-0.035 4.4399,-0.069 6.65985,-0.104 -0.47069,-1.3181 -2.19518,-2.9541 -1.41208,-3.9542 0.77405,-0.9886 1.48584,2.0858 1.7358,3.5407 0.7394898,4.3043 -2.13279,12.314 -1.12628,16.7765 0.30966,1.8474 0.0825,4.204 0.929,5.5422 2.3369098,3.6942 5.1743698,6.6835 8.1996598,8.889 2.71323,1.978 8.79919,-0.6571 11.09522,-1.6496 4.5614002,-1.9716 13.8271402,-7.272 17.9907302,-9.5818 16.51325,-8.8054 32.83471,-18.6601 49.41645,-27.0621 -1.15056,-2.2387 -1.9865,-4.9873 -3.4517,-6.7162 -0.3434,-0.4052 -0.37611,1.3237 -0.70363,1.813 -0.9477,1.4157 -2.04784,2.5518 -3.072,3.8272 -3.81295,4.7482 -7.59902,9.5559 -10.87509,15.2569 -0.99318,1.7683 -7.50551,13.0177 -6.55119,15.7719 1.28663,3.7133 5.28383,10.534 8.99923,11.027 1.62692,0.2159 3.28406,-0.2828 4.92608,-0.4242 18.61875,-7.6874 36.745996,-18.3651 55.370496,-25.9943 5.20238,-1.783 10.04279,-3.7573 15.30825,-4.4929 1.79171,-0.2502 3.59707,-0.3376 5.37495,-0.119 1.33458,0.1642 3.20536,3.1161 3.91011,1.2602 0.67889,-1.7878 -1.75757,-3.2918 -3.03008,-3.5777 -0.75362,-0.1694 0.69829,2.0881 1.04742,3.1322 -0.36349,3.0074 -2.6548,16.7543 -1.73258,18.733 3.95789,8.4926 4.71587,8.3504 9.0304,10.6526 1.28284,-0.1892 2.58721,-0.088 3.8485,-0.5674 4.24574,-1.6146 8.26818,-4.6336 12.43073,-6.7979 8.88913,-4.6216 17.88412,-8.7291 26.98095,-11.9413 3.09986,-0.9404 6.18542,-2.0631 9.29957,-2.8212 2.53548,-0.6173 5.45939,0.9604 7.63456,-1.3012 1.04826,-1.0899 -0.78552,-3.5897 -1.25528,-5.3314 -0.2243,-0.8317 0.79364,1.7615 0.51739,2.5955 -0.45258,1.3665 -5.92817,8.6557 -6.37411,9.2665 -0.95312,1.5328 -3.09579,2.5649 -2.85933,4.5983 0.4379,3.7658 3.11943,10.7838 6.50364,10.1418 3.75861,-0.7133 9.09743,-4.0214 12.3952,-5.7974 3.2482,-1.7493 6.49555,-3.503 9.74333,-5.2546 13.56112,-6.7441 26.98088,-12.5935 40.88113,-16.909 4.57713,-1.4209 9.16472,-2.7456 13.76443,-3.8876 3.70455,-0.9199 7.63796,-0.023 11.1412,-2.2962 1.20239,-0.7804 0.85972,-3.8475 1.28957,-5.7712 0.7478,0.5012 2.00407,0.278 2.24339,1.5037 0.25447,1.3034 -0.62527,2.7054 -1.21018,3.7882 -0.99341,1.8389 -2.2747,3.243 -3.43838,4.8166 -4.12045,5.5722 -8.38261,10.913 -12.01696,17.3202 -0.71174,1.5897 -2.57874,3.0422 -2.1352,4.7689 0.60637,2.3606 4.56264,9.5339 7.69669,9.893 3.33571,0.3822 7.56043,-1.2078 10.68138,-2.2949 2.85805,-0.9954 5.69626,-2.1619 8.5444,-3.243 21.24833,-8.7636 42.37204,-18.3153 63.28425,-29.23 3.96493,-2.032 8.24916,-4.4693 12.35735,-5.7447 1.37254,-0.4261 4.03624,1.4276 4.153,-0.7497 0.14483,-2.7179 -2.1952,-4.4432 -3.83479,-5.1822 -1.82856,-0.8241 1.36968,12.9722 -2.74822,8.2224 -2.38967,5.2244 -4.91688,10.5366 -6.1707,16.7076 -0.25755,1.2673 -0.95365,2.9262 -0.43187,3.9067 3.9672,7.4549 4.71336,7.2206 8.71157,8.4742 8.26479,-0.9066 15.98398,-7.8182 24.08386,-10.5459 9.34884,-4.1196 18.84958,-7.0254 28.44903,-8.2404 z"
           clip-path="url(#clipPath74)"
           inkscape:label="left" />
        <path
           id="path47"
           style="opacity:1;fill:#35603a;fill-opacity:1;stroke:none;stroke-width:5.8;stroke-linecap:round;stroke-linejoin:round"
           d="m 1141.6388,1793.3032 c -0.345,0.027 -0.6809,0.1241 -1.0195,0.1934 -0.4838,0.099 -0.9657,0.2158 -1.4473,0.332 l -0.076,-0.047 c -0.018,0.026 -0.036,0.053 -0.055,0.078 -0.8541,0.2109 -1.6981,0.4547 -2.4981,0.8125 l 0.8926,0.5508 c -0.021,0.055 -0.041,0.1105 -0.068,0.1601 -0.1183,0.2544 -0.3228,0.6584 -0.5605,0.8106 -0.076,0.049 -0.1665,0.072 -0.25,0.1074 -0.2973,0.1776 -0.6175,0.3269 -0.8672,0.5723 l 6.4902,3.4707 c -0.022,-0.04 0,-0.099 0.025,-0.1621 0.047,-0.1039 0.1054,-0.1841 0.168,-0.2793 0.032,-0.077 0.051,-0.1609 0.096,-0.2305 0.072,-0.112 0.2549,-0.2557 0.3574,-0.3359 0.1568,-0.1226 0.3191,-0.2214 0.4942,-0.3145 0.1174,-0.089 0.2752,-0.087 0.3984,-0.1621 0.039,-0.024 0.071,-0.058 0.1074,-0.086 0.068,-0.055 0.1057,-0.1346 0.1582,-0.2012 0.077,-0.098 0.1771,-0.1843 0.2656,-0.2715 0.052,-0.041 0.1,-0.086 0.1485,-0.1309 0.2941,-0.092 0.5935,-0.1647 0.8945,-0.2363 0.5402,1.1087 1.0082,2.2516 1.4258,3.4082 1.9599,5.4292 3.154,11.1129 4.4863,16.7031 0.4194,1.9292 0.8474,3.8562 1.2578,5.7871 0.9084,4.2736 1.4397,7.2125 2.4942,11.4766 1.8978,7.6735 4.2633,15.2403 6.498,22.8262 3.218,11.2297 6.5345,22.4321 9.8379,33.6387 1.2345,3.9765 2.3254,7.9941 3.2734,12.0429 0.4678,1.9449 0.7882,3.9066 0.9434,5.8965 l 0.3652,0.1758 c 0.4406,12.1483 1.1586,24.2837 1.5977,36.4336 0.1521,14.4317 1.2181,28.9861 -0.4414,43.375 -0.2742,2.3769 -0.7121,4.7316 -1.0684,7.0976 -1.6709,9.6894 -4.356,19.3062 -8.5703,28.2207 -0.6552,1.386 -1.4184,2.7188 -2.1269,4.0782 -3.1889,6.3056 -7.4503,11.2874 -12.5352,16.0918 -3.0402,2.384 -6.3382,4.5879 -10.0098,5.8847 -3.8088,1.3453 -5.7156,1.5343 -9.8339,2.3321 -17.2653,2.3557 -34.7464,2.4048 -52.1407,2.5898 -15.5753,0.1202 -31.151,-0.045 -46.7265,-0.033 -14.4523,-0.013 -28.9051,-0.035 -43.35745,-0.023 -12.24348,-0.1137 -24.29025,2.0131 -36.30273,4.0781 -30.50314,5.2438 6.18508,-1.1424 -23.94336,4.1191 -12.43758,2.0878 -24.89277,4.1886 -37.46875,5.2578 -6.83418,0.581 -10.45664,0.6789 -17.30274,0.9903 -19.73766,0.6383 -39.48901,0.5811 -59.23437,0.6289 -23.79856,0.033 -47.59794,-0.029 -71.39648,-0.059 -19.58718,0.041 -39.17281,-0.1697 -58.75977,-0.1797 -10.89814,-0.019 -21.7961,-0.1084 -32.69336,-0.25 -3.85307,-0.055 -7.7071,-0.08 -11.56055,-0.068 -0.19607,-2e-4 -0.39182,0 -0.58789,0 -25.4264,-3.5218 -51.19663,-4.0532 -76.82226,-4.8867 -32.589,-0.8862 -65.186,-1.4005 -97.78516,-1.7109 -16.32563,-0.1066 -32.6526,-0.1092 -48.97851,-0.125 -11.99325,-0.035 -23.98527,0.02 -35.97852,0.016 -12.82128,-0.03 -25.64359,0.016 -38.46484,0.023 -8.49278,-0.2482 -17.01353,0.2839 -25.50391,-0.033 -3.54459,-0.1325 -9.54512,-0.7362 -13.04297,-1.0586 -10.43892,-1.121 -20.90565,-1.94 -31.39062,-2.4667 -5.15979,-0.2623 -10.32532,-0.282 -15.49024,-0.2891 -5.97075,-0.6239 -11.94724,-1.1546 -17.9414,-1.4902 -5.36131,-0.2913 -10.73006,-0.3181 -16.09766,-0.3282 -1.03264,0.028 -2.05732,-0.071 -3.08594,-0.076 l -0.14258,-0.1036 c -0.89918,-0.01 -1.79813,0 -2.69726,0.012 -0.24801,0 -0.49613,0 -0.74414,0 -0.97663,-0.044 -1.95538,0 -2.9336,-0.072 l 0.11719,0.086 c -1.33316,0.01 -2.6668,0.018 -4,0.022 -3.44343,-4e-4 -6.88778,-0.055 -10.32617,-0.2519 -4.22699,-0.2768 -8.44313,-0.691 -12.62695,-1.3672 -2.60086,-0.4046 -5.20984,-0.7674 -7.83204,-1.002 -3.18685,-0.2554 -6.39262,-0.2843 -9.56445,-0.7343 -4.90813,-0.5995 -9.82053,-1.1044 -14.73242,-1.6661 -1.90838,-0.275 -4.76028,-0.6682 -6.625,-1.0117 -5.20371,-0.9585 -10.26607,-2.5011 -15.3457,-3.9551 -8.85535,-2.4725 -17.82471,-4.5213 -26.93164,-5.8339 -9.298045,-1.3871 -18.575942,-2.8924 -27.824223,-4.5801 -6.411034,-0.824 -12.877693,-1.1027 -19.285156,-1.9766 -7.754703,-0.9872 -15.524231,-1.843 -23.283203,-2.793 -6.956594,-0.8061 -13.926004,-1.5046 -20.847657,-2.5878 -7.0747427,-1.1639 -14.1318218,-2.4248 -21.1406247,-3.9414 -5.9809743,-1.1456 -11.9351433,-2.4182 -17.9355473,-3.461 -6.789743,-1.3417 -13.596315,-2.7462 -20.167968,-4.9492 -6.171574,-2.0911 -12.295453,-4.3095 -18.185547,-7.1172 -2.804837,-1.3392 -2.440711,-1.1357 -5.142578,-2.5351 -0.07651,-0.04 -0.125045,-0.066 -0.228516,-0.1211 -3.470779,-1.9783 -6.756047,-4.3348 -10.390625,-6.0098 -0.353163,-0.2636 -0.751505,-0.5571 -0.824219,-0.6113 -2.923377,-2.3301 -5.357525,-5.2229 -8.101562,-7.7559 -3.623197,-3.8326 -7.235683,-7.6655 -10.44336,-11.8652 -4.779494,-6.1262 -9.288224,-12.4836 -12.953124,-19.3516 -2.54256,-4.9301 -4.79875,-10.0068 -6.95898,-15.1133 -1.58034,-3.8014 -3.14637,-7.6055 -4.96094,-11.3027 -1.19645,-3.1623 -2.49322,-6.2951 -3.38867,-9.5606 -0.94949,-4.1262 -1.48238,-8.3271 -1.28321,-12.5722 0.0337,-3.816 -0.0231,-7.6352 0.19336,-11.4473 0.26414,-3.3965 0.70253,-6.7671 1.48633,-10.0879 0.79949,-3.0209 1.87164,-5.9644 3.45117,-8.6738 1.71917,-3.137 3.74178,-6.0468 6.46289,-8.416 2.74999,-2.3196 5.8261,-4.9124 9.54688,-5.3106 l -6.05664,-4.3965 c -3.60023,1.1755 -6.56875,3.5877 -9.39063,6.0293 -2.81206,2.4026 -5.03848,5.2811 -6.81836,8.502 -1.58948,2.7795 -2.67135,5.7689 -3.49609,8.8496 -0.79453,3.3764 -1.3035,6.7846 -1.48242,10.2461 -0.17191,3.8227 -0.25225,7.6502 -0.23438,11.4766 -0.0689,4.279 0.37299,8.523 1.21485,12.7109 0.78211,3.3121 2.09626,6.4662 3.30664,9.6387 1.73318,3.7846 3.50607,7.5426 5.09961,11.3906 2.14284,5.1964 4.54904,10.294 7.16015,15.2715 3.7278,6.8631 8.23157,13.2522 12.9336,19.4726 3.10509,4.1675 6.560743,8.0273 10.121089,11.8028 2.670768,2.5501 5.122079,5.3462 7.910157,7.7695 3.560036,2.8904 7.544811,5.2798 11.710937,7.1875 0.350203,0.1216 0.455045,0.1997 0.822266,0.3574 5.195219,3.2266 10.563422,6.1242 16.105469,8.7051 5.876644,2.7673 11.987894,4.9173 18.136718,6.9805 6.598194,2.1703 13.431912,3.5326 20.234375,4.8886 6.035094,1.0487 12.0113531,2.3841 18.02929713,3.5235 6.96407307,1.4678 13.98108387,2.6368 20.99804687,3.8164 6.904693,1.1372 13.865539,1.7963 20.820313,2.5215 7.778712,0.9244 15.558709,1.825 23.326171,2.8418 6.414584,0.9547 12.900465,1.204 19.330079,2.0078 9.13734,1.6332 18.327322,2.953 27.501952,4.3574 9.12663,1.4075 18.12882,3.4666 27.00586,5.9922 5.13163,1.5024 10.25055,3.0716 15.51953,4.0293 0.5837,0.1061 6.00559,0.936 6.73828,1.0488 4.97923,0.6092 9.95697,1.1595 14.9336,1.7969 3.23593,0.4673 6.51342,0.5111 9.75976,0.8496 2.6022,0.2591 5.19833,0.5977 7.7793,1.0215 4.17103,0.5103 8.34962,0.9244 12.54101,1.2246 3.47495,0.2369 6.95867,0.2439 10.43946,0.2773 1.74702,0.014 3.49319,0.018 5.24023,0.024 2.78478,0.1401 5.56447,0.2168 8.35742,0.1836 5.35491,0.031 10.71153,0.068 16.06055,0.3476 6.02084,0.3417 12.01604,0.9468 18.01953,1.4981 5.12385,4e-4 10.24884,0.03 15.36914,0.2402 10.41434,0.4574 20.80637,1.2537 31.17383,2.3477 3.61091,0.3305 9.4888,0.9215 13.13867,1.0488 8.45944,0.2951 16.95035,-0.2675 25.41211,-0.033 12.84097,0.01 25.68245,0.053 38.52344,0.019 11.98803,-0.01 23.97494,0.04 35.96289,-0.027 16.22426,-0.053 32.44943,-0.1088 48.67383,-0.094 32.38961,0.023 64.78242,0.2567 97.1582,1.2774 26.14951,0.9808 52.5507,1.5416 78.38477,6 l -0.39844,-0.3067 c 0.18759,1e-4 0.3749,0 0.5625,0 3.79202,0.012 7.58339,-0.01 11.375,-0.066 10.66673,-0.1444 21.33613,-0.2337 32.00391,-0.2519 19.43356,-0.01 38.86692,-0.2149 58.30078,-0.1543 23.80824,0 47.61577,-0.012 71.42383,0.08 19.87286,0.073 39.75583,0.2667 59.62109,-0.3829 8.66948,-0.4089 17.35678,-0.7973 25.97656,-1.8769 4.0373,-0.5056 13.86599,-2.2018 17.58399,-2.8477 3.60018,-0.6254 7.19478,-1.2747 10.79296,-1.9121 20.11096,-3.5547 40.33466,-7.4669 60.82422,-7.6582 14.46121,0.021 28.92151,0.016 43.38281,0.045 15.4767,0.051 30.9537,-0.041 46.4297,-0.1914 17.5761,-0.2327 35.2235,-0.2569 52.7012,-2.3242 4.0093,-0.7078 6.4832,-0.9674 10.2519,-2.2344 3.7828,-1.2718 7.1412,-3.5692 10.2188,-6.0488 5.0223,-4.8862 9.3203,-10.0724 12.3925,-16.4433 0.7031,-1.3832 1.4674,-2.7359 2.1094,-4.1485 4.1096,-9.042 6.6684,-18.786 8.3125,-28.5469 0.3419,-2.3901 0.772,-4.7688 1.0254,-7.1699 1.5266,-14.4619 0.2653,-29.0612 0.2363,-43.5547 -0.097,-4.056 -0.3142,-13.374 -0.4296,-17.582 -0.046,-1.6944 -0.3447,-10.7638 -0.3477,-12.9219 0,-2.1383 0.1503,-5.3031 0.248,-7.5742 l -0.2773,-0.1406 c -0.1448,-1.3178 -0.3597,-2.6245 -0.7441,-3.9082 -1.2544,-4.1461 -2.5659,-8.2807 -3.9473,-12.3887 -1.4434,-4.1414 -3.0207,-8.2327 -4.4863,-12.3672 -1.912,-5.3945 -2.8825,-8.1919 -4.5938,-13.8086 -0.8286,-2.7199 -1.5915,-5.4582 -2.3867,-8.1875 -1.8642,-6.7979 -2.5508,-9.0939 -4.1797,-15.8183 -1.9213,-7.9319 -3.4448,-15.9463 -5.3066,-23.8907 -0.4502,-1.9806 -0.9087,-3.9611 -1.3516,-5.9433 -0.7388,-3.3075 -1.5222,-7.2182 -2.4316,-10.5196 -0.3421,-1.2419 -0.7211,-2.4749 -1.1621,-3.6875 -0.3021,-0.8304 -0.3642,-1.8684 -1.0645,-2.4335 -2.2823,-1.8416 -5.056,-3.0299 -7.584,-4.545 -0.3861,-0.01 -0.7734,-0.051 -1.1582,-0.021 z" />
      </g>
    </g>
  </g>
</svg>
