<?xml version="1.0" encoding="UTF-8" standalone="no"?>
<!-- Created with Inkscape (http://www.inkscape.org/) -->

<svg
   width="1247.6289"
   height="339.12259"
   viewBox="0 0 1247.6289 339.12261"
   version="1.1"
   id="svg1"
   inkscape:version="1.3.2 (091e20e, 2023-11-25, custom)"
   sodipodi:docname="3-grass.svg"
   inkscape:export-filename="..\..\..\FlapDolly\assets\images\game_over_screen\grass\grass.svg"
   inkscape:export-xdpi="96"
   inkscape:export-ydpi="96"
   xmlns:inkscape="http://www.inkscape.org/namespaces/inkscape"
   xmlns:sodipodi="http://sodipodi.sourceforge.net/DTD/sodipodi-0.dtd"
   xmlns="http://www.w3.org/2000/svg"
   xmlns:svg="http://www.w3.org/2000/svg">
  <sodipodi:namedview
     id="namedview1"
     pagecolor="#ffffff"
     bordercolor="#000000"
     borderopacity="0.25"
     inkscape:showpageshadow="2"
     inkscape:pageopacity="0.0"
     inkscape:pagecheckerboard="false"
     inkscape:deskcolor="#3d3d3d"
     inkscape:document-units="px"
     inkscape:zoom="0.540625"
     inkscape:cx="1007.1676"
     inkscape:cy="-45.317919"
     inkscape:window-width="1366"
     inkscape:window-height="715"
     inkscape:window-x="1358"
     inkscape:window-y="-8"
     inkscape:window-maximized="1"
     inkscape:current-layer="g62" />
  <defs
     id="defs1">
    <clipPath
       clipPathUnits="userSpaceOnUse"
       id="clipPath27">
      <path
         id="path28"
         style="fill:#ff0000;fill-opacity:1;fill-rule:nonzero;stroke:none"
         d="m 737.55026,1575.4771 v 315.7676 h 204.38283 c 0.9923,-3.4674 4.2216,-7.0213 10.2265,-9.3301 5.4497,-2.0951 10.9098,-4.2002 15.8145,-7.4199 -3.5615,-15.829 -7.6437,-31.5443 -12.9082,-46.9023 -4.6563,-12.8507 -12.2893,-28.078 -10.7402,-42.0996 0.4121,-3.7298 1.8539,-7.2722 2.7812,-10.9082 5.1593,-5.3662 8.7042,-13.0117 15.4785,-16.0977 6.8821,-3.1351 13.2375,-3.5993 19.1465,-2.3555 -2.7621,-10.7903 -5.5548,-21.5703 -8.4609,-32.3242 -23.8613,-25.1544 -48.0088,-50.1598 -67.586,-78.8809 -8.3447,-13.9104 -16.5996,-25.8197 -21.4199,-41.5937 -10e-4,0 -10e-4,-0.01 0,-0.01 -8.8628,-1.6754 -17.7396,-3.2739 -26.6641,-4.6015 -14.4497,-2.1495 -19.5345,-2.5124 -34.3906,-4.0703 -26.98114,-2.2152 -11.9062,-1.0418 -38.12302,-2.9473 -13.04173,-0.9479 -39.66193,-0.3752 -47.53711,-16.2266 z m 381.99804,150.2715 c -3.9411,11.9679 -8.5279,23.7137 -13.2051,35.418 -1.5232,19.4754 -3.0551,38.9506 -4.4746,58.4336 3.1754,8.5223 5.9833,17.1789 8.2149,25.9961 2.5374,10.0255 2.7724,12.7972 4.4629,23.0332 0.9834,7.515 1.732,15.0603 2.3652,22.6152 h 2.6367 z" />
    </clipPath>
    <clipPath
       clipPathUnits="userSpaceOnUse"
       id="clipPath36">
      <path
         id="path37"
         style="fill:#ff0000;fill-opacity:1;fill-rule:nonzero;stroke:none"
         d="m 53.144459,1617.3559 v 5.3027 c 0.47858,-0.1243 0.98792,-0.2278 1.53711,-0.3008 2.87204,-0.3817 5.74461,-0.7597 8.61719,-1.1386 -2.49637,-0.8753 -3.93688,-2.343 -4.45118,-3.8633 z m 37.03711,0 c 0.23332,0.055 0.46594,0.1127 0.69922,0.1679 0.41196,-0.057 0.8244,-0.1108 1.23633,-0.1679 z m 27.011721,6.3066 c -0.97871,0.1361 -2.31882,0.3365 -3.18555,0.4609 0.19329,0.051 0.45576,0.047 0.50195,0.2266 0.0462,0.1797 -0.36055,-0.086 -0.54101,-0.1289 -0.0982,-0.023 -0.17691,-0.035 -0.26953,-0.055 -0.72664,0.1046 -1.66018,0.239 -2.62891,0.3809 -1.13787,2.4109 8.46586,11.7209 0.97461,9.2929 -0.3895,-0.1262 -0.78286,-0.2398 -1.16797,-0.3789 -0.25199,-0.091 -0.49297,-0.2122 -0.74219,-0.3105 -1.17076,-0.462 -3.61862,-1.3635 -4.47851,-1.6348 -4.29114,-1.3536 -7.863961,-2.1833 -12.328131,-3.3242 -0.9766,-0.2378 -1.95605,-0.4654 -2.93359,-0.6992 -11.46722,1.5728 -22.94654,3.0627 -34.41992,4.5879 -1.04438,0.1388 -1.98518,0.1421 -2.83008,0.047 v 57.871 h 64.048831 z" />
    </clipPath>
    <clipPath
       clipPathUnits="userSpaceOnUse"
       id="clipPath39">
      <path
         id="path39"
         style="fill:#ff0000;fill-opacity:1;fill-rule:nonzero;stroke:none"
         d="m -109.9571,1613.5551 v 329.3906 H 1114.871 V 1613.5551 H 130.42571 c 1.15406,1.7607 -5.96347,3.4435 -7.69531,5.3281 0.83962,0.5319 1.23738,1.2287 1.19726,2.2891 0.20249,0.094 0.41658,0.1897 0.66406,0.2851 0.13809,0.053 0.30114,0.064 0.41407,0.1602 0.0633,0.054 -0.16535,-0.014 -0.24805,-0.02 -0.24394,-0.017 -0.48804,-0.042 -0.73242,-0.051 -0.0384,0 -0.0768,0 -0.11524,0 -0.12875,1.0493 -0.63634,2.4452 -1.49218,4.3164 0.4687,0.102 0.87969,0.2305 0.89062,0.5449 0.48503,0.2951 0.96537,0.5993 1.42969,0.9277 -1.90046,2.679 -3.28096,5.8166 -5.70117,8.0372 -0.54636,0.5012 -1.33506,-0.6487 -2.00391,-0.9688 -6.48691,-3.1042 -13.13905,-5.8321 -19.789061,-8.5645 -1.73969,-0.6993 -3.47905,-1.3982 -5.21875,-2.0976 -3.19882,-0.4842 -7.11394,-1.2679 -7.28516,-5.7149 -0.0933,-2.4248 0.96079,-3.7276 2.41406,-4.4687 z m 228.80468,21.5879 c -0.004,0.01 -0.009,0.017 -0.0137,0.025 0.2101,0.097 0.19677,0.082 0.0137,-0.025 z" />
    </clipPath>
  </defs>
  <g
     inkscape:label="Layer 1"
     inkscape:groupmode="layer"
     id="layer1"
     transform="translate(128.0806,-1552.1221)">
    <g
       id="g62"
       style="display:inline"
       transform="translate(-16.037559,-52.283038)"
       inkscape:label="3">
      <path
         id="path29"
         clip-path="url(#clipPath39)"
         style="fill:#25542a;fill-opacity:1;stroke-width:5.79999;stroke-linecap:round;stroke-linejoin:round"
         d="m 1016.0644,1609.6137 c -0.5141,0.5755 -1.0821,1.098 -1.6641,1.6055 l -0.7051,-0.4219 c -0.1781,0.2548 -0.3552,0.5087 -0.5332,0.7636 -0.3467,0.5129 -0.6778,1.0359 -1.0019,1.5625 -0.043,0.03 -0.088,0.06 -0.1309,0.09 -0.1993,0.1452 -0.4048,0.2823 -0.6094,0.4199 -0.079,0.01 -0.1,-0.039 -0.1855,-0.023 -0.7985,0.143 -1.9037,0.5605 -3.3457,1.1894 -23.25963,10.144 -123.56685,40.1081 -131.13086,39.1719 -3.95979,-0.4901 -7.08559,-1.5792 -9.41406,-3.1016 0.60669,-1.0004 0.96083,-1.5596 1.54492,-2.7441 0.8773,-1.7787 1.59446,-3.6373 2.50586,-5.4004 1.635,-3.2715 3.30007,-6.5475 5.38867,-9.5586 0.9239,-1.3063 1.77836,-2.655 2.69336,-3.9668 0.0355,-0.051 0.0374,-0.051 0.0703,-0.098 1.76628,-1.2342 3.58974,-2.3911 5.41016,-3.5411 1.4666,-0.8598 3.1855,-1.7061 4.4375,-2.8945 1.45092,-1.3771 0.42761,-2.6839 -1.28906,-3.6094 0.14545,-0.071 0.29232,-0.139 0.44531,-0.1933 l -6.16016,-4.25 c -1.41462,1.1879 -2.60465,2.6116 -3.74023,4.0762 -0.49586,0.266 -0.97645,0.555 -1.44141,0.8671 l -17.32422,2.5196 -4.8164,-3.1699 c -0.074,0.034 -0.14311,0.077 -0.22071,0.1015 -0.309,0.098 -0.68989,0.1268 -0.99609,0.1856 -1.2518,0.2405 -2.5,0.5129 -3.74609,0.7812 -2.6893,0.5137 -5.35564,1.1352 -8.02344,1.75 -1.8654,0.3855 -3.57924,1.1458 -5.27344,1.9863 -1.8009,0.8799 -3.50296,1.9343 -5.31836,2.7911 -1.4872,0.6626 -2.9585,1.3527 -4.4707,1.957 -1.4262,0.514 -2.93876,0.6967 -4.42188,0.9726 -1.52745,0.1506 -2.98612,0.6232 -4.47265,0.9747 -1.28189,0.3528 -2.60986,0.4968 -3.90235,0.8007 -0.85283,0.2005 -1.69262,0.4553 -2.54101,0.6739 -1.96828,0.5379 -3.93525,1.0801 -5.92188,1.5468 -0.82625,0.199 -1.68589,0.2417 -2.51172,0.4414 -0.38155,0.092 -0.93788,0.3057 -1.30273,0.4375 -1.45386,0.4953 -2.86695,1.0881 -4.30859,1.6172 -1.73941,0.6028 -3.42736,1.3701 -5.11133,2.1172 -1.63736,0.7286 -3.26351,1.47 -4.92774,2.1367 -2.00922,0.8979 -4.02279,1.7851 -6.05468,2.6309 -2.88103,1.181 -5.64594,2.6194 -8.48829,3.8828 -0.45261,0.1947 -0.90139,0.3979 -1.35351,0.5938 -13.70928,4.1939 -25.07245,7.455 -27.13477,7.455 -0.71574,0 -1.40834,-0.1656 -2.08398,-0.3964 0.13902,-1.0146 0.30644,-2.0242 0.52539,-3.0274 0.77915,-3.0191 1.78529,-5.9735 3.46289,-8.6269 0.62441,-1.0924 1.32319,-2.181 1.77539,-3.3614 0.12691,-0.3313 0.59081,-0.7927 0.31641,-1.0176 -5.27949,-4.3265 -4.11708,-4.288 -7.16602,-4.0976 -1.69273,0.4325 -3.15239,1.1566 -4.40039,2.4101 -0.32239,0.2505 -0.64417,0.502 -0.9668,0.752 -2.71484,-1.2604 -16.13062,2.459 -44.48242,12.248 -22.67473,7.8294 -35.85423,10.1143 -43.12304,6.5645 -0.19812,-1.0899 -0.38232,-2.1821 -0.55274,-3.2793 -0.0952,-0.613 -0.43992,-3.0439 -0.56836,-3.7402 -0.09,-0.4881 -0.21088,-0.9701 -0.3164,-1.4551 -0.13275,-0.4069 -0.25536,-0.8154 -0.39844,-1.2188 -0.62015,-1.7482 -1.48075,-3.4151 -1.34961,-5.3339 0.0313,-1.7218 0.12575,-3.4261 0.33984,-5.1368 0.28217,-2.2547 0.1685,-1.0298 0.5,-2.9629 0.0397,-0.2316 0.0601,-0.4662 0.0899,-0.6992 l -6.60547,-3.3652 c 0.0445,0.4461 0.0694,0.8929 0.084,1.3398 -1.49551,-1.9329 -4.884,-1.4766 -12.80859,0.035 -7.7036,1.4696 -33.25891,9.2694 -56.78711,17.334 -17.40583,5.9661 -34.88847,11.0953 -45.1211,13.3789 l -3.16992,-2.2754 c -0.476,0.033 -0.95216,0.059 -1.42968,0.049 -0.98394,-0.012 -1.96725,-0.018 -2.95118,-0.031 -0.6495,-0.011 -1.29762,-0.051 -1.94726,-0.059 -0.42773,-0.01 -0.85544,0.013 -1.28321,0.012 -0.49907,-0.01 -0.99895,-2e-4 -1.49804,0.01 -0.5478,0 -1.09484,9e-4 -1.64258,-0.012 -0.18531,-0.479 -0.37575,-0.9564 -0.57617,-1.4296 -0.12687,-0.3143 -0.24984,-0.6308 -0.38086,-0.9434 -0.1094,-0.261 -0.10963,-0.6127 -0.33985,-0.7773 -0.98939,-0.7077 -1.99522,-1.3961 -3.01953,-2.0547 -0.0758,-0.2487 -0.15584,-0.4969 -0.24609,-0.7422 -0.0902,-0.2453 -0.0796,-0.5823 -0.29883,-0.7246 -0.89367,-0.5798 -1.61974,-1.0975 -2.23437,-1.5645 0.1563,-0.4245 0.32512,-0.847 0.59375,-1.3984 2.0308,-2.484 4.26055,-4.809 6.58203,-7.0215 0.70861,-0.6753 1.44537,-1.3221 2.16797,-1.9824 1.54694,-1.4204 3.14151,-2.7892 4.78906,-4.0918 0.17732,-0.1402 0.35464,-0.2831 0.5332,-0.4219 0.17686,-0.068 0.3529,-0.1343 0.52735,-0.207 -0.0413,-0.029 -0.0818,-0.059 -0.12305,-0.088 0.003,0 0.005,0 0.008,-0.01 0.1698,-0.1102 0.7227,-0.14 0.55274,-0.25 -0.64874,-0.4197 -1.31694,-0.8062 -1.99219,-1.1816 0.35501,-0.1801 0.70976,-0.3445 1.20898,-0.5469 0.2126,-0.086 0.43207,-0.1523 0.64844,-0.2285 l -6.19922,-3.9649 c -0.11509,0.136 -0.22126,0.2807 -0.3457,0.4082 -1.25431,1.2853 -2.71929,2.3675 -4.26563,3.2735 -0.44032,0.258 -0.89982,0.4815 -1.34961,0.7226 -0.9966,0.5536 -2.08292,0.9086 -3.11523,1.3829 -0.65466,0.3008 -1.27668,0.6641 -1.89648,1.0293 -0.24125,0.1507 -0.47234,0.3156 -0.69727,0.4882 0.0254,-0.4696 -0.0501,-0.7851 -0.31055,-0.7851 -0.92321,0 -17.09439,6.0059 -35.93554,13.3476 -34.51781,13.4502 -51.26907,16.2312 -60.63086,9.2891 -0.81062,-2.531 -1.64295,-5.0583 -2.29883,-7.6348 -0.20198,-0.844 -0.41665,-1.6668 -0.56445,-2.5215 -0.0446,-0.2581 0.1242,-0.6432 -0.0996,-0.7793 -0.098,-0.06 -0.18208,-0.1133 -0.27735,-0.1718 -0.0618,-0.3753 -0.11326,-0.7608 -0.17773,-1.3867 -0.12241,-1.1883 -0.14385,-2.3774 -0.13867,-3.5704 0.0201,-1.2721 0.1529,-2.538 0.2832,-3.8027 0.0719,-0.654 0.0846,-1.3134 0.082,-1.9707 -0.004,-0.2991 -0.0477,-0.5902 -0.11719,-0.8769 0.0463,-0.4307 0.0991,-0.8619 0.17383,-1.2891 0.0837,-0.3287 0.18813,-0.7154 0.32617,-1.0723 -0.0262,-0.018 -0.0414,-0.029 -0.0684,-0.047 0.0287,8e-4 0.0573,-9e-4 0.0859,0 -0.006,0.015 -0.0116,0.031 -0.0176,0.047 1.65289,1.1135 1.82646,1.3028 0.80078,0.168 -0.0473,-0.026 -0.0934,-0.049 -0.14062,-0.074 -0.0362,-0.033 -0.067,-0.076 -0.10938,-0.1 -0.15316,-0.088 -0.36687,-0.01 -0.53125,-0.041 0.0527,-0.1317 0.11131,-0.2548 0.17579,-0.371 l 2.08203,0.916 c -0.0907,-0.1592 -0.19641,-0.3082 -0.27735,-0.4727 -0.0584,-0.096 -0.10617,-0.1962 -0.16601,-0.291 -0.0314,-0.05 -0.0707,-0.095 -0.10547,-0.1426 -0.0377,-0.052 -0.0583,-0.1234 -0.11328,-0.1562 -6.22755,-3.7251 -3.99746,-3.2092 -6.59571,-3.7852 -0.31576,-0.073 -0.63268,-0.019 -0.95507,-0.027 h -0.94532 c -0.39864,0.021 -0.71431,0.03 -0.96093,0.3965 -0.0355,0.07 -0.0791,0.1352 -0.10547,0.2089 -0.1212,0.3385 0.0841,0.6585 0.23242,0.9493 0.0362,0.1517 0.061,0.3064 0.10156,0.457 0.0817,0.3038 0.2607,0.5738 0.34766,0.8769 0.12696,0.441 0.31835,0.8611 0.43945,1.3047 -7.15547,-2.8153 -35.23608,6.4467 -98.55859,31.6543 -32.34307,12.8755 -46.48363,17.7767 -54.60352,18.1778 -0.18175,-0.6005 -0.39211,-1.1919 -0.6543,-1.7696 -0.39079,-0.9601 -0.46723,-1.1685 -0.88085,-2.0996 -0.12028,-0.2707 -0.24383,-0.541 -0.3711,-0.8086 -0.0926,-0.1947 -0.10868,-0.46 -0.28906,-0.5781 -0.73148,-0.4791 -1.34947,-0.921 -1.90039,-1.334 0.20086,-2.3302 0.47223,-4.6558 0.80859,-6.9687 0.31521,-1.7123 0.25905,-2.43 -0.006,-2.9922 -0.20994,-0.078 -0.41936,-0.1581 -0.625,-0.2539 0.12102,-0.1133 0.25227,-0.2113 0.4043,-0.2754 -0.23116,-0.252 -0.28868,-0.4973 -0.82813,-0.8281 0.77507,-1.5921 1.45068,-3.2371 2.15235,-4.8575 1.48445,-3.0029 2.48914,-6.2914 4.40625,-9.0625 0.56526,-0.7761 1.20323,-1.5008 1.85937,-2.2011 0.005,-0.01 0.24899,-0.2607 0.47657,-0.4922 1.63114,-0.012 2.947,0.3866 0.36328,-0.375 0.0719,-0.076 0.20118,-0.2034 0.21289,-0.2207 0.0979,-0.1447 0.12862,-0.3241 0.19336,-0.4864 -0.76056,-0.3716 -1.50638,-0.7787 -2.25196,-1.1875 1.42767,-0.6666 2.85595,-1.3316 4.2793,-2.0078 l -6.17383,-3.9179 c -3.24619,2.6162 -7.16934,4.1778 -10.96679,5.8047 -1.97052,0.9956 -4.10252,1.8583 -5.67969,3.4628 -0.80494,0.8189 -1.37666,1.7082 -2.03711,2.6407 -0.18068,0.2853 -0.3458,0.5783 -0.51172,0.8711 -6.26474,3.5151 -15.01363,8.8175 -24.84961,15.1894 -15.22422,9.8627 -27.38276,16.985 -32.18945,19.1699 -3.42706,-2.7668 -7.17125,-5.898 -10.72852,-8.9902 1.3372,-2.8135 2.73699,-5.633 3.94727,-7.875 1.52527,-2.8253 5.1258,-9.1772 8,-14.1152 2.87419,-4.938 5.38664,-9.2873 5.58398,-9.666 0.70513,-1.3532 -5.69554,-0.4334 -11.44336,1.6445 l -5.30273,1.916 -0.33008,2.3828 c -3.86889,0.267 -22.19815,7.5431 -44.11133,17.6777 -22.802882,10.5468 -33.607722,15.3188 -39.898435,16.5352 -3.867429,-2.4001 -7.350306,-5.4893 -7.472657,-6.8437 -0.287413,-3.1821 4.846788,-11.2135 14.951172,-23.3926 7.678122,-9.2548 13.556506,-15.4521 28.03906,-29.5547 5.65174,-5.5033 9.7383,-9.8491 9.08203,-9.6582 -1.2347,0.3588 -22.03695,9.4226 -32.466793,14.1465 -5.339968,2.4188 -6.089602,2.9453 -7.478516,5.2558 -0.508794,0.8465 -2.78139,4.2266 -5.570312,8.334 -1.226463,-0.098 -12.684984,6.736 -26.587891,15.9277 -31.876565,21.0764 -51.6120555,31.6085 -63.509765,33.8047 -2.553351,-1.1548 -4.575863,-2.2306 -4.78125,-2.6855 -0.7683,-1.7017 3.830018,-16.1151 6.955078,-21.8027 1.726438,-3.1426 5.732196,-9.3568 8.9023436,-13.8086 3.1701971,-4.4517 5.3786631,-8.2644 4.9082031,-8.4727 -0.4704371,-0.2083 -6.1638338,1.2641 -12.6523437,3.2715 l -11.796875,3.6504 -1.275391,2.6797 c -5.909285,3.1564 -16.966758,9.6809 -31.707031,19.0058 -21.235675,13.4339 -36.179243,25.624 -38.574219,31.4649 -10.718148,26.1385 -15.174638,95.3157 -7.826168,121.4785 4.51425,16.0722 27.250043,44.6612 41.499996,52.1855 26.644757,14.0692 125.586043,26.517 257.466794,32.3907 94.4956,4.2078 207.67645,11.9442 306.28125,20.9355 33.89598,3.0908 70.03319,6.3106 80.30469,7.1543 26.57635,2.1828 292.22842,-1.4189 355.94141,-4.8262 l 53.39648,-2.8554 14.87115,-15.1856 c 12.7252,-12.9941 19.4443,-27.2621 46.582,-98.9277 27.8991,-73.6767 65.8511,-191.8299 64.7226,-201.0156 0.4847,-0.102 0.9797,-0.1638 1.4961,-0.1446 l -5.998,-4.3574 c -2.3964,0.3254 -4.3989,1.827 -6.4453,3.0039 -2.0382,1.2112 -4.061,2.435 -6.1485,3.5586 -0.1962,0.1212 -0.4045,0.2021 -0.6113,0.2852 -0.783,0.1849 -1.5202,0.3563 -2.3398,0.5546 -0.1715,0.03 -0.3441,0.054 -0.5137,0.092 -1.8961,0.3014 -3.7764,0.6615 -5.6543,1.0586 -2.3322,0.3556 -4.6137,0.947 -6.9141,1.4532 -2.4,0.6203 -4.7667,1.3137 -7.2168,1.7128 -1.1133,0.1783 -2.2607,0.2265 -3.3671,0.4493 -0.8886,0.1789 -1.7655,0.5024 -2.6426,0.7343 -1.5056,0.4652 -3.0043,0.951 -4.5176,1.3907 -0.7118,0.1611 -1.4098,0.3606 -2.1055,0.5703 l -0.1328,-0.09 c -1.4047,0.4353 -0.6823,0.2111 -2.164,0.6739 -2.1956,0.633 -4.4276,1.076 -6.6836,1.4394 -1.8823,0.3742 -3.7628,0.7625 -5.6563,1.0781 -2.607,0.4704 -5.2131,0.9895 -7.7656,1.7012 -2.4465,0.7915 -4.9052,1.5503 -7.291,2.5176 -2.5492,0.9895 -5.06,2.0805 -7.5625,3.1816 -1.2085,0.5378 -2.4028,1.0989 -3.586,1.6817 -2.1803,-0.5926 -3.9494,-2.0293 -6.4414,-4.3321 -3.5102,-3.2436 -4.9315,-5.8334 -4.9746,-9.08 0,-0.01 0.01,-0.013 0.012,-0.018 0.2816,-0.3313 0.5437,-0.6787 0.8086,-1.0235 1.154,-1.5024 2.1511,-3.1052 3.2032,-4.6796 1.1928,-1.8665 2.3729,-3.7429 3.6894,-5.5254 0.2074,-0.1509 0.4155,-0.3017 0.6211,-0.4551 1.5114,-1.1025 3.0677,-2.1456 4.6348,-3.166 l -5.2266,-3.3067 z m -777.71291,56.1875 c 0.002,0 0.006,0.01 0.008,0.01 -0.004,0 -0.002,-0.011 -0.006,-0.01 z m 0.008,0.01 c 0.12723,0.1403 0.13641,0.3592 0.21289,0.5215 0.0682,0.025 0.13429,0.059 0.20313,0.082 0.23224,0.078 -0.18436,-0.6719 -0.41602,-0.6035 z m 509.04883,-27.4219 c 0.99848,0.6426 0.67794,0.4445 -0.0469,0.01 0.0159,0 0.031,-0.01 0.0469,-0.01 z m -506.65625,5.5996 c 0.0198,0 0.0312,0.014 0.0273,0.039 -7.7e-4,0.01 -0.017,0.025 -0.0195,0.031 -0.0442,-0.016 -0.0884,-0.033 -0.13281,-0.049 0.05,-0.015 0.0965,-0.026 0.125,-0.022 z m 497.10352,0.3809 c -0.15549,0.4824 -0.2976,0.9693 -0.41602,1.4648 -0.1778,0.7439 -0.29255,1.5013 -0.43945,2.252 -0.0503,0.3382 -0.0937,0.6786 -0.13672,1.0176 -0.54007,-1.0166 -0.71138,-2.1296 -0.97656,-3.2364 0.28838,-0.2261 0.57889,-0.449 0.86523,-0.6777 0.28778,-0.2334 0.57987,-0.4632 0.87305,-0.6895 0.0767,-0.043 0.1534,-0.088 0.23047,-0.1308 z m -232.44141,7.8516 c 0.0429,0.2718 0.0712,0.4579 0.0918,0.6191 -0.0699,-0.042 -0.13886,-0.087 -0.20899,-0.1289 0.0105,-0.1632 0.0389,-0.3238 0.11719,-0.4902 z m 3.41992,3.1816 c 0.014,0 0.0277,0.012 0.0391,0.025 0.11533,0.1415 0.23666,0.6182 0.0703,0.543 -0.14271,-0.065 -0.28319,-0.1345 -0.42383,-0.2032 0.10377,-0.1949 0.229,-0.382 0.31445,-0.3652 z" />
      <path
         style="display:inline;opacity:1;fill:#35603a;fill-opacity:1;stroke:none;stroke-width:1.38;stroke-linecap:round;stroke-linejoin:round;stroke-opacity:0.9;paint-order:stroke markers fill"
         id="path4"
         d="m 1092.4597,1616.419 c -14.8026,2.4458 -29.4093,5.5407 -43.7489,9.9591 -12.5786,2.7671 -24.3039,10.5564 -37.335,10.9265 -1.0447,-0.2897 -4.0653,-1.4238 -3.1339,-0.8691 2.4402,1.4531 4.8854,3.4603 7.722,3.6013 1.0724,0.053 -0.2475,-2.1634 -0.06,-3.2206 0.3063,-1.722 0.8838,-3.3934 1.5254,-5.0205 2.0636,-5.2331 3.3564,-6.7843 6.3665,-11.5779 5.252,-8.6252 7.7993,-10.948 -7.5892,-15.6612 -2.1532,-0.6595 -4.391,1.0111 -6.5551,1.6339 -8.0417,2.3142 -10.55119,3.4764 -18.74536,6.5778 -31.7765,12.1259 -64.09058,22.6193 -96.83596,31.7777 -5.84637,1.442 -17.23027,4.4999 -23.74671,5.2916 -2.25951,0.2744 -4.57245,0.4183 -6.82751,0.1094 -1.20262,-0.1648 -4.47831,-1.8578 -3.31848,-1.4997 10.71727,3.3095 7.21516,6.2237 11.31717,-1.1284 4.95513,-6.6134 11.13673,-12.0678 17.16943,-17.6427 0.76544,-0.7074 7.60815,-6.0711 7.25744,-8.8998 -0.16609,-1.3396 -1.94317,-1.8742 -2.91477,-2.8113 -6.66374,-1.4392 -13.17714,-4.1052 -19.99125,-4.3178 -3.19852,-0.1 -37.30153,7.6915 -37.90547,7.8338 -21.50359,5.0651 -42.3696,11.3283 -63.30634,18.3253 -11.26676,2.4239 -23.15789,10.5155 -34.92589,11.0718 -1.14406,0.054 -4.37436,-1.3469 -3.25735,-1.0937 12.54914,2.8446 7.9212,5.6428 14.1125,-1.7923 0.47767,-0.4665 8.77342,-8.4268 9.30562,-9.4614 2.85433,-5.5488 -10.04206,-8.4602 -16.21844,-9.3482 -2.59996,-0.3738 -24.92519,5.2118 -25.85506,5.4324 -14.08125,3.7234 -27.99795,8.0775 -41.73956,12.9029 -0.0549,0.019 -18.06508,6.698 -19.42616,7.0058 -1.98544,0.4489 -4.06631,0.1982 -6.09946,0.2973 -1.24647,-0.5672 -5.09151,-1.9188 -3.73938,-1.7016 2.52076,0.4049 4.87897,3.0449 7.31335,2.2756 1.41257,-0.4464 -0.52338,-2.9274 -0.56525,-4.4082 -0.12957,-4.5817 0.95784,-9.2501 1.55741,-13.7719 -0.51794,-1.2182 -0.51566,-2.8334 -1.55382,-3.6546 -4.05714,-3.2097 -8.53699,-5.9535 -13.25983,-8.0647 -2.98219,-1.333 -12.35697,-0.4404 -14.76449,-0.099 -8.14063,1.1537 -15.48942,3.3928 -23.45179,5.4999 -28.65401,8.7276 -56.41471,20.0627 -85.35632,27.8697 8.35015,5.4007 -16.66582,-2.0608 -12.48391,-1.6829 2.73267,0.247 5.28307,2.8563 7.93995,2.1711 1.48112,-0.382 0.41641,-3.0653 1.00361,-4.4777 1.63731,-3.9383 4.76135,-7.4493 7.31723,-10.7394 4.66197,-5.7835 10.1913,-10.7025 15.84738,-15.4711 1.54023,-1.2986 3.18243,-2.4808 4.64911,-3.8619 0.58283,-0.5489 2.13312,-1.4522 1.46936,-1.8998 -3.78403,-2.5517 -8.34452,-3.7 -12.51679,-5.55 -24.77968,10.232 -49.57069,20.4395 -74.69678,29.7984 -12.47844,3.8402 -24.70647,11.0703 -38.00911,12.0913 -2.49701,0.1915 -5.1694,-1.7392 -7.47449,-0.7603 -1.58977,0.6752 3.68879,3.1842 4.8267,1.8847 1.18671,-1.3552 -1.41784,-3.3118 -2.12676,-4.9678 -2.09725,-4.8581 1.69068,-11.6104 0.38414,-16.408 -0.42858,-1.5738 -1.2613,-3.2645 -2.65657,-4.1094 -14.55176,-8.8105 -12.678,-7.297 -26.14177,-6.2488 -4.73422,1.0693 -9.5367,1.8719 -14.20268,3.208 -10.78749,3.0888 -25.81198,9.0484 -36.10281,12.9558 -19.36581,7.3531 -38.62321,14.9632 -57.91437,22.5089 -3.05891,1.158 -23.87033,9.2182 -28.44728,10.3374 -2.81558,0.6885 -6.61983,-1.2133 -8.65377,0.8518 -1.37247,1.3934 3.48564,3.3963 5.2664,2.5874 1.44029,-0.6543 -0.78747,-3.1374 -0.59836,-4.708 0.26322,-2.1861 1.28404,-4.2124 1.92606,-6.3186 3.08413,-7.4599 8.01033,-13.8319 12.58553,-20.3888 1.33133,-1.908 2.84008,-3.7163 3.90692,-5.7838 0.51575,-0.9995 1.62262,-2.5484 0.77229,-3.2847 -3.50262,-3.0325 -8.14558,-4.4168 -12.21837,-6.6252 -1.88162,0.5268 -3.8118,0.9038 -5.64486,1.5806 -4.37349,1.6146 -11.32356,5.2027 -15.2935,7.2493 -10.12132,5.2179 -19.5849,11.2317 -29.17133,17.3655 -9.16331,5.975 -18.02982,12.434 -27.55876,17.8357 -3.36353,1.9067 -7.23692,4.5704 -11.44806,4.1815 -0.96483,-0.089 -1.70091,-0.9285 -2.55137,-1.3928 2.85711,1.1206 5.50718,3.5332 8.57133,3.3615 1.34418,-0.075 0.53723,-2.6549 1.04772,-3.9007 3.20106,-7.8116 8.62569,-14.9897 13.19341,-22.0297 0.79681,-1.3165 4.35307,-5.8615 3.56305,-8.382 -0.32477,-1.0362 -1.41882,-1.7395 -2.40194,-2.2006 -4.61642,-2.1647 -9.22952,-4.6254 -14.23417,-5.6005 -2.3536,-0.4587 -14.67883,3.9775 -15.82104,4.3543 -23.46081,9.2553 -46.02958,20.6202 -68.686446,31.6617 9.710914,10.9164 -17.566951,0.3262 -14.693162,4.5753 1.540465,2.2777 5.225739,3.5529 7.817338,2.6339 1.83716,-0.6514 0.373217,-3.9161 1.001787,-5.7613 1.935688,-5.682 5.936275,-11.6394 8.948113,-16.6582 5.783714,-8.8774 12.379341,-17.1756 18.57639,-25.7576 1.56907,-2.173 3.28531,-4.2573 4.61548,-6.5842 0.54726,-0.9573 1.85071,-2.5184 0.95837,-3.1662 -3.73346,-2.7105 -8.498105,-3.5949 -12.747165,-5.3923 -22.450862,13.0167 -43.716017,27.9206 -65.626263,41.8041 -11.87474,7.3101 -23.4735726,15.1284 -36.0418146,21.2407 -3.6287089,1.7648 -11.6062414,5.3172 -16.1898294,6.064 -1.294013,0.2108 -2.61672,-0.1687 -3.925079,-0.2531 2.751433,1.111 5.317236,3.756 8.254298,3.3333 1.541651,-0.2218 0.264948,-3.1234 0.69323,-4.6209 0.604944,-2.1152 1.468521,-4.1541 2.388045,-6.1528 3.586909,-7.7962 8.45277,-14.801 13.3106491,-21.8302 0.69965632,-1.011 5.9154028,-7.5202 5.6971797,-10.1475 -0.084465,-1.0169 -1.1829885,-1.8003 -2.1169296,-2.2114 -4.6901256,-2.0648 -9.4000339,-4.6173 -14.5013192,-5.1046 -2.671155,-0.2552 -5.009168,1.9307 -7.46769,3.0058 -3.206041,1.4021 -6.346865,2.9487 -9.520297,4.423 -17.743334,9.4491 -35.053575,19.8044 -51.842845,30.8669 -6.759377,5.1298 -3.521766,2.6543 -9.716899,7.4214 0,0 9.043836,5.8376 9.043836,5.8376 v 0 c 6.058065,-4.8213 2.889179,-2.3319 9.514733,-7.4577 16.559966,-11.227 33.648,-21.8215 51.481369,-30.8997 3.232133,-1.4058 6.416213,-2.9277 9.696398,-4.2174 2.4619401,-0.968 6.5654814,-0.081 7.5153934,-2.55 0.8405546,-2.1846 -3.669019,-3.2298 -4.4414926,-5.4396 -0.3338516,-0.9549 2.5563551,0.01 2.8773979,0.9655 0.8059525,2.4084 -4.8891527,9.6766 -5.1742097,10.1057 -6.05712,8.8437 -12.737666,17.918 -16.233555,28.1748 -0.570657,1.6743 -2.274732,3.7192 -1.246077,5.1582 2.553498,3.5723 7.040867,5.2488 10.561299,7.8732 1.289165,-0.07 2.611766,0.091 3.867485,-0.2089 4.4961109,-1.0737 12.1863491,-4.7263 15.7978513,-6.5607 12.4536797,-6.3256 24.0347297,-14.1153 35.9251917,-21.4034 21.88874,-13.9155 43.03738,-29.2278 66.316879,-40.7844 -1.9334,-2.1152 -3.27874,-4.9839 -5.800203,-6.3456 -0.897531,-0.4847 0.135122,2.1278 -0.313204,3.0441 -1.171569,2.3944 -2.908658,4.469 -4.432945,6.6558 -6.069227,8.7073 -12.729499,16.9904 -18.571798,25.859 -1.402179,2.2468 -12.967904,20.1532 -11.124835,23.0579 8.105349,12.7742 15.464451,7.9589 25.236831,3.0558 22.548484,-11.2649 45.210514,-22.5253 68.837444,-31.3676 2.96201,-0.8888 5.87634,-1.9556 8.88601,-2.6664 2.32404,-0.5488 6.19966,1.1164 7.07834,-1.104 0.83941,-2.1212 -3.75264,-2.9207 -4.65692,-5.0149 -0.41566,-0.9628 2.3885,0.1942 2.95615,1.0758 1.40631,2.1843 -2.61572,7.4143 -3.02512,8.1194 -4.63314,7.1656 -10.00225,14.374 -13.55229,22.1662 -0.6381,1.4006 -2.34048,3.0865 -1.491,4.3701 2.40254,3.6299 6.64509,5.6247 9.96762,8.4371 0.9241,0.2556 1.81464,0.814 2.77228,0.7669 4.28002,-0.2106 7.73442,-2.6626 11.26933,-4.768 9.37868,-5.5858 18.15697,-12.0852 27.31469,-18.012 9.64791,-6.0589 19.18642,-11.9989 29.38914,-17.0882 3.88555,-1.9382 11.06908,-5.5122 15.44433,-6.8513 1.81111,-0.5543 3.72408,-0.6934 5.58611,-1.0401 -2.05398,-1.7954 -3.59809,-4.4541 -6.16195,-5.3863 -0.96408,-0.3505 0.21137,2.1341 -0.20711,3.0706 -0.94303,2.1106 -2.46251,3.9142 -3.76664,5.8228 -4.56878,6.6866 -9.71021,13.0506 -12.88506,20.5897 -4.00023,11.6453 -5.18627,15.0764 11.1397,19.8042 2.71825,0.7872 5.66563,-0.5384 8.38787,-1.3116 3.88271,-1.1029 25.67482,-9.8415 27.92993,-10.7326 19.23016,-7.6643 38.43792,-15.3256 57.84474,-22.5356 10.87799,-4.0415 25.11411,-9.535 36.49824,-12.5043 4.75363,-1.2399 9.6425,-1.8866 14.46375,-2.8298 3.49081,-0.114 6.98161,-0.2279 10.47242,-0.3418 -0.8393,-1.3006 -3.67539,-2.8742 -2.51786,-3.9018 1.14412,-1.0157 2.49418,2.0317 2.99634,3.4769 1.48562,4.2757 -2.43521,12.3838 -0.51756,16.808 0.62549,1.8353 0.44433,4.1988 1.87644,5.5061 3.95376,3.6089 8.64248,6.4952 13.56814,8.5915 4.41759,1.8801 13.79758,-0.971 17.33646,-2.045 7.03052,-2.1334 21.21498,-7.762 27.59418,-10.2193 25.32725,-9.3906 50.2742,-19.8231 75.73941,-28.8129 -1.97802,-2.1964 -3.49906,-4.9138 -5.93407,-6.5894 -0.57068,-0.3928 -0.49286,1.3365 -0.97165,1.8372 -1.38545,1.4488 -3.0317,2.6236 -4.54795,3.9349 -5.64505,4.8819 -11.24336,9.8223 -15.9723,15.6373 -1.43064,1.8029 -10.83727,13.279 -9.12952,15.9977 2.30243,3.6654 9.10272,10.3398 14.98629,10.6998 2.57632,0.1577 5.14675,-0.3999 7.72013,-0.5998 28.72415,-8.3484 56.45121,-19.6679 85.18876,-27.9583 8.0533,-1.9679 15.52268,-4.1141 23.75358,-5.0373 2.80078,-0.3141 5.63522,-0.4659 8.4493,-0.311 2.11244,0.1165 5.27715,3 6.24734,1.1199 0.93461,-1.8111 -3.01196,-3.2272 -5.03582,-3.4676 -1.19859,-0.1424 1.25502,2.0621 1.88253,3.0932 -0.34706,3.0188 -2.92454,16.8403 -1.32531,18.7851 6.86349,8.3468 8.04563,8.1776 15.00733,10.3245 2.00457,-0.2349 4.06476,-0.1801 6.0137,-0.7046 6.56048,-1.7654 12.66455,-4.9264 19.053,-7.2382 13.64258,-4.9367 27.49021,-9.3633 41.56504,-12.8987 4.80771,-1.0506 9.57928,-2.283 14.42313,-3.1519 3.94375,-0.7075 8.66291,0.7649 11.9167,-1.5732 1.56807,-1.1267 -1.50462,-3.5598 -2.37412,-5.2838 -0.41519,-0.8233 1.38065,1.7322 1.00831,2.5757 -0.60999,1.3819 -8.68137,8.8629 -9.33745,9.4893 -1.38521,1.5661 -4.6798,2.6741 -4.15561,4.698 0.97077,3.7483 5.71545,10.6668 10.99293,9.9042 5.86134,-0.8471 14.01526,-4.3442 19.07191,-6.237 4.98066,-1.8644 9.95963,-3.7332 14.93945,-5.5998 20.83583,-7.2249 41.51615,-13.5506 63.06731,-18.3603 7.09646,-1.5836 14.21659,-3.0714 21.36942,-4.3772 5.76082,-1.0516 12.01769,-0.2953 17.36046,-2.6928 1.83376,-0.823 1.06511,-3.8762 1.59766,-5.8143 1.21425,0.4742 3.17446,0.2063 3.64276,1.4228 0.49792,1.2937 -0.78162,2.7263 -1.62106,3.8294 -1.42574,1.8734 -3.33699,3.3226 -5.05049,4.937 -6.06733,5.7164 -12.37495,11.2066 -17.61487,17.7402 -1.0011,1.6143 -3.83044,3.1328 -3.00334,4.8427 1.13078,2.3378 7.89303,9.366 12.85176,9.613 5.27776,0.2629 11.80701,-1.4772 16.63694,-2.6752 4.42309,-1.097 8.80215,-2.3642 13.20323,-3.5464 32.78166,-9.518 65.30827,-19.8191 97.40011,-31.475 6.08743,-2.1726 12.64693,-4.7615 19.01633,-6.183 2.128,-0.4749 6.4583,1.2826 6.4792,-0.8977 0.024,-2.7216 -3.7867,-4.3624 -6.4221,-5.0425 -2.9392,-0.7583 3.1256,12.9165 -3.7097,8.3162 -3.3697,5.3071 -6.9493,10.7068 -8.4608,16.9194 -0.3105,1.2758 -1.2819,2.9586 -0.3874,3.92 6.8005,7.3093 7.9572,7.0485 14.3427,8.1587 12.9379,-1.2013 24.5682,-8.385 37.1104,-11.4006 14.4036,-4.4513 29.1369,-7.6949 44.1521,-9.2521 z" />
    </g>
    <path
       id="path1"
       style="fill:#35603a;fill-opacity:1;stroke-width:5.8;stroke-linecap:round;stroke-linejoin:round"
       d="m 1093.8764,1559.2818 c -1.3554,0.6338 -2.6058,1.4691 -3.9804,2.0606 -1.7637,0.759 -3.6551,1.1747 -5.4805,1.7461 -3.0329,0.9881 -6.0778,2.0145 -9.0176,3.2402 l 6.2852,4.0234 c 2.7417,-1.3455 5.6975,-2.3046 8.5937,-3.2871 1.8346,-0.5771 3.7521,-0.9643 5.5215,-1.7402 0.045,-0.02 0.084,-0.046 0.1289,-0.066 0.035,1.2453 -0.038,2.4982 -0.1035,3.7226 -0.658,5.4673 -1.7801,10.888 -3.1152,16.2286 -1.211,5.875 -3.1586,11.5236 -5.043,17.2031 -1.9688,5.9877 -3.6547,12.0614 -5.2852,18.1484 -3.014,10.6958 -6.1966,21.3449 -9.4492,31.9707 -3.3384,11.2719 -7.0423,22.4264 -10.7637,33.5762 -5.6339,16.1249 -11.716,32.0885 -17.9628,47.9844 -5.9511,15.5703 -12.3089,30.9818 -18.3477,46.5175 -3.7429,10.745 -7.5779,21.4573 -11.6719,32.0743 -2.1833,5.5332 -4.4268,11.0418 -6.4375,16.6406 -1.721,4.8762 -3.3906,9.6281 -5.75,14.248 -3.52178,6.1138 -7.95987,11.6844 -12.46287,17.1035 -3.82549,4.0197 -7.4395,8.2896 -11.7207,11.8379 -2.8603,2.3538 -6.10888,4.0815 -9.67187,5.0625 -2.6315,0.9278 -5.08466,2.2698 -7.71875,3.1817 -2.4792,0.6451 -5.01863,1.0615 -7.54493,1.4922 -2.12789,0.3524 -4.28375,0.4235 -6.43554,0.4629 -1.4197,0.013 -0.71554,0.01 -2.11524,0.012 l 5.91407,4.291 c 1.39599,-0.015 0.69207,0 2.10937,-0.031 2.1717,-0.06 4.34823,-0.144 6.48633,-0.5664 2.5337,-0.4765 5.10195,-0.847 7.56445,-1.623 2.6037,-0.956 5.06962,-2.2475 7.69531,-3.1543 3.5515,-1.1552 6.79054,-2.9871 9.61524,-5.4473 4.22109,-3.6617 7.87065,-7.9249 11.65234,-12.0273 4.4201,-5.5541 8.77009,-11.1995 12.51759,-17.2344 0.7869,-1.522 2.1853,-4.165 2.8789,-5.7422 1.2103,-2.7525 2.0209,-5.6745 3.1465,-8.4609 1.9059,-5.6636 3.8593,-11.3129 5.8554,-16.9453 3.966,-10.6957 7.5852,-21.5154 11.2168,-32.3282 5.7305,-15.6747 11.7514,-31.244 17.879,-46.7675 6.2657,-15.8667 12.454,-31.7642 18.4902,-47.7188 3.9418,-11.073 7.8698,-22.1478 10.9433,-33.5019 3.2531,-10.5989 6.483,-21.2033 9.8145,-31.7774 1.9449,-5.9679 3.7806,-11.9677 5.5059,-18.0019 1.9105,-5.6801 3.9384,-11.3163 5.1523,-17.2012 1.3684,-5.3638 2.3916,-10.8254 3.2676,-16.2891 0.4838,-6.0199 1.0381,-12.3472 -8.1563,-12.916 z m 6.0352,4.0371 c 1.3386,0.9631 0.9242,0.6636 -0.1016,0.047 0.036,-0.013 0.066,-0.034 0.1016,-0.047 z m -1202.86525,71.4024 c -1.38899,1.481 -2.96631,2.7739 -4.49218,4.1113 -1.81441,1.4208 -3.42847,3.0479 -4.77149,4.918 -0.94566,1.5509 -1.88881,3.1187 -2.66406,4.7636 -0.96872,1.9032 -1.56436,3.9505 -2.27344,5.9551 -1.27601,3.2885 -1.88611,6.8023 -2.59961,10.2461 -0.78984,4.5133 -1.80878,8.9805 -2.69531,13.4746 -1.21226,5.271 -1.8869,10.6527 -2.71875,15.9942 -0.9145,6.1779 -1.49229,12.3989 -2.07227,18.6152 -0.7212,6.1335 -0.83562,12.2996 -0.83984,18.4668 0.12502,6.5796 -0.23726,13.1834 0.57617,19.7344 0.20868,1.6806 0.52455,3.3445 0.78711,5.0175 0.32234,1.723 0.62983,3.4498 0.9668,5.17 0.31918,1.6293 0.62624,3.2617 1.00195,4.8789 1.52143,6.5489 3.6443,12.9559 5.45899,19.4258 1.56567,5.8798 0.85333,3.031 2.15625,8.541 l 4.99023,2.3828 c -0.54616,-1.88 -0.65392,-2.2794 -0.83594,-2.9063 4.05961,9.7115 12.19556,17.3069 19.972658,24.1328 10.351319,9.0657 22.654291,15.3413 35.642578,19.6172 16.244214,4.8653 32.814568,7.8141 49.5878909,10.1875 20.5587091,2.9604 41.2780481,4.436 61.8984371,6.7793 25.291525,3.1152 50.711516,4.817 76.117186,6.6524 31.14332,2.4644 62.38684,3.0407 93.60938,3.5683 27.38106,0.4024 54.71315,2.6861 82.03711,4.4629 35.62258,1.6688 71.12601,4.9641 106.68554,7.5371 33.77964,2.0014 67.3737,6.0239 101.05078,9.1953 23.61968,3.0957 47.37376,4.2152 71.16407,4.8165 20.9291,0.3609 41.86098,0.5889 62.79297,0.6914 11.32932,0.016 22.65896,2e-4 33.98828,-0.01 8.41955,0.017 16.83827,0.033 25.25781,0.016 9.86689,0.012 19.73468,-0.027 29.60156,-0.049 8.27243,-0.01 4.19398,-0.01 12.23828,0 l -5.70507,-4.1445 c -8.023,0.012 -3.94747,0.012 -12.22266,0.012 -9.9106,-0.022 -19.8218,-0.061 -29.73242,-0.049 -8.39583,-0.014 -16.79171,2e-4 -25.1875,0.037 -11.29526,0.016 -22.58955,0.046 -33.88477,0.078 -20.77687,0.082 -41.55719,0.1181 -62.33008,-0.375 -23.7734,-0.6705 -47.50232,-1.9774 -71.12695,-4.8399 -33.54655,-2.9629 -67.00192,-6.8991 -100.63281,-8.873 -35.68127,-2.6501 -71.3097,-5.9552 -107.04883,-7.8008 -27.29981,-1.8416 -54.62189,-4.1412 -81.98828,-4.3867 -31.23335,-0.4354 -62.47547,-1.1705 -93.62695,-3.627 -25.511389,-1.8886 -51.028905,-3.7327 -76.42188,-6.9101 -20.565609,-2.3407 -41.2344511,-3.7851 -61.744141,-6.6875 -16.920943,-2.4533 -33.585686,-5.7014 -49.96875,-10.6328 -12.086158,-4.0945 -14.659778,-5.1354 -23.599609,-12.6524 -8.02209,-6.9173 -16.47797,-14.7156 -20.31836,-24.8203 l -6.45117,-3.123 c -0.22258,-0.7722 -0.42369,-1.4481 -1.32813,-4.6172 -2.78118,-9.7194 -6.00399,-19.3653 -7.45312,-29.4043 -0.17919,-1.6198 -0.39703,-3.2358 -0.53711,-4.8594 -0.55843,-6.4729 -0.25527,-12.9847 -0.16406,-19.4687 0.17912,-6.1363 0.38808,-12.2758 0.87695,-18.3965 0.0364,-0.396 0.55655,-6.0565 0.59961,-6.4492 0.44194,-4.0297 1.08212,-8.0376 1.60547,-12.0567 0.77818,-5.3172 1.67232,-10.6105 2.96484,-15.8301 0.89319,-4.484 1.86634,-8.9518 2.71289,-13.4453 0.84011,-3.3536 1.61227,-6.744 2.98242,-9.9316 0.78119,-1.9474 1.39808,-3.9617 2.36329,-5.832 0.79251,-1.5964 1.71335,-3.1174 2.59375,-4.6661 1.28073,-1.8141 2.7427,-3.4968 4.49218,-4.8789 1.620153,-1.2926 3.230612,-2.6137 4.937503,-3.7871 z" />
    <path
       style="display:inline;fill:#35603a;fill-opacity:1;stroke-width:5.8;stroke-linecap:round;stroke-linejoin:round"
       id="path3"
       d="m 743.60168,1891.2448 c 17.61926,-0.056 35.22324,-0.4889 52.83237,-1.0709 23.56214,-0.8035 47.12674,-1.1184 70.67004,-2.3736 21.062,-1.254 42.0852,-2.9159 63.1712,-3.7851 14.5323,-1.2449 29.2942,0.4556 43.7581,-1.4064 11.3295,-2.5326 22.317,-6.3488 33.30511,-10.0482 8.9034,-2.0179 16.219,-5.9513 23.8919,-10.6506 9.2187,-5.7276 17.1093,-13.0229 24.3187,-21.0705 7.8937,-8.7033 13.3558,-19.1871 19.5946,-29.0653 5.5492,-8.4429 9.6011,-17.609 13.3079,-26.9632 4.0037,-10.7588 8.7175,-21.1845 13.3835,-31.6607 2.9539,-7.2401 4.7942,-14.88 6.8232,-22.4177 2.0388,-8.5744 4.3554,-17.0762 5.9022,-25.757 2.2431,-11.0337 3.5534,-22.199 4.404,-33.4153 0.6756,-8.531 0.579,-17.0876 0.5798,-25.6364 -0.033,-9.8463 -0.01,-19.6925 -0.01,-29.5388 0.061,-8.3202 -3.5641,-15.0077 -9.1846,-20.8522 -6.9152,-6.4431 -13.7307,-12.9321 -20.882,-19.1137 -4.8525,-4.2971 -2.4957,-2.0875 -7.0723,-6.6265 0,0 -6.6008,-2.7341 -6.6008,-2.7341 v 0 c 4.5611,4.5954 2.2027,2.3664 7.0776,6.6844 7.1236,6.1624 13.919,12.6127 20.8172,19.0243 5.6586,5.6325 9.4097,12.1556 9.446,20.3583 0.022,9.8537 0.087,19.7073 0.056,29.561 -0.026,8.5318 -0.089,17.0694 -0.5612,25.5903 -0.7468,11.2024 -2.0144,22.3604 -4.3528,33.3554 -1.5868,8.6455 -3.9533,17.102 -5.9661,25.6538 -2.0289,7.5071 -3.9004,15.0952 -6.7154,22.3543 -4.5473,10.5378 -9.2409,20.9894 -13.3001,31.734 -3.7481,9.2784 -7.8932,18.3676 -13.2979,26.8233 -6.1366,9.8896 -11.6074,20.3292 -19.4676,28.9999 -7.1698,8.0052 -15.168,15.1345 -24.3303,20.8193 -7.502,4.5849 -15.0976,8.4734 -23.7253,10.5714 -10.93791,3.748 -21.91781,7.515 -33.24581,9.9145 -14.3463,1.7581 -28.9538,0.4057 -43.3577,1.6223 -21.0863,0.922 -42.1194,2.5157 -63.1837,3.7854 -23.4668,1.2665 -46.9558,1.7348 -70.44266,2.5198 -17.89702,0.5504 -35.79125,0.8797 -53.69531,0.4187 z"
       clip-path="url(#clipPath27)" />
  </g>
</svg>
