<?xml version="1.0" encoding="UTF-8" standalone="no"?>
<!-- Created with Inkscape (http://www.inkscape.org/) -->

<svg
   width="225.24243"
   height="301.4418"
   viewBox="0 0 225.24243 301.44182"
   version="1.1"
   id="svg1"
   inkscape:version="1.3.2 (091e20e, 2023-11-25, custom)"
   xml:space="preserve"
   xmlns:inkscape="http://www.inkscape.org/namespaces/inkscape"
   xmlns:sodipodi="http://sodipodi.sourceforge.net/DTD/sodipodi-0.dtd"
   xmlns="http://www.w3.org/2000/svg"
   xmlns:svg="http://www.w3.org/2000/svg"><sodipodi:namedview
     id="namedview1"
     pagecolor="#ffffff"
     bordercolor="#000000"
     borderopacity="0.25"
     inkscape:showpageshadow="2"
     inkscape:pageopacity="0.0"
     inkscape:pagecheckerboard="false"
     inkscape:deskcolor="#3d3d3d"
     inkscape:document-units="px"><inkscape:page
       x="-1.2416702e-05"
       y="-1.1861233e-05"
       width="225.24243"
       height="301.4418"
       id="page3"
       margin="0"
       bleed="0" /></sodipodi:namedview><defs
     id="defs1"><clipPath
       clipPathUnits="userSpaceOnUse"
       id="clipPath3"><path
         id="path3"
         style="fill:#ff0000;fill-opacity:1;fill-rule:nonzero;stroke:none;stroke-width:1.0904"
         d="M 859.97193,1212.5465 969.01883,1031.3902 818.15509,940.57788 716.36268,1109.6824 c 1.56483,0.3044 3.18306,0.6958 4.85636,1.1907 2.39045,0.7074 -2.13435,-0.9725 -1.53859,-0.921 1.18132,0.1018 2.32003,0.5128 3.49918,0.6372 0.57454,0.061 4.44181,0.2627 4.59214,0.271 5.39584,0.012 10.76366,0.4298 16.14137,0.7949 5.28665,0.4983 10.54371,1.2361 15.74218,2.317 4.971,0.9994 9.66955,2.9152 14.41447,4.6424 4.80583,1.7345 9.45306,3.8605 14.02337,6.1345 3.49551,1.754 6.9041,3.6715 10.29391,5.6197 2.03219,1.0949 4.03591,2.4048 6.29982,2.9471 2.68841,0.989 5.42106,1.6265 8.24016,2.0443 3.50998,0.4386 6.86879,1.5239 10.16542,2.7608 28.041,10.5212 17.0588,39.3042 -10.78256,28.2655 -1.25128,-0.4961 -2.49122,-0.9905 -3.8495,-1.1042 -4.31897,-0.6482 -8.5511,-1.6169 -12.68186,-3.0526 -4.36005,-1.4141 -8.53626,-3.2616 -12.46927,-5.6316 -2.8714,-1.6513 -5.75587,-3.2834 -8.71509,-4.7737 -3.54883,-1.774 -7.15362,-3.4398 -10.88934,-4.7875 -3.40308,-1.2433 -6.7566,-2.682 -10.30503,-3.4662 -3.53623,-0.7669 -7.12507,-1.2195 -10.71856,-1.6272 z" /></clipPath><clipPath
       clipPathUnits="userSpaceOnUse"
       id="clipPath8"><path
         id="path8"
         style="fill:#ff0000;fill-opacity:1;fill-rule:nonzero;stroke:none;stroke-width:1.0904"
         d="M 863.40791,1217.8624 991.49332,1005.0782 810.38457,896.05982 698.92903,1081.2174 c 3.00798,1.8534 5.98635,3.7587 8.9695,5.6478 3.90075,2.591 7.81942,5.1536 11.73725,7.719 3.70635,-2.7891 7.73121,-3.4963 11.79758,-3.0354 0.13933,-1.6789 0.65229,-3.3579 1.69346,-4.9937 2.85003,-4.4779 8.01168,-7.3177 12.9457,-9.2746 3.55007,-1.4081 8.56025,1.41 11.7343,2.8923 4.11541,2.3411 7.91072,5.1649 11.50386,8.2347 3.82984,3.7915 7.46767,7.7712 11.27442,11.5892 1.29657,1.4368 2.67253,2.7918 4.06834,4.1268 1.94842,-3.878 4.08394,-7.6642 6.44153,-11.3329 2.5679,-3.858 5.06479,-7.854 8.07425,-11.3942 1.04776,-1.2325 1.95278,-2.6629 3.29628,-3.564 2.82629,-1.8956 5.68635,-5.2221 9.05192,-4.718 6.26537,0.9384 11.29709,5.7408 16.94466,8.6114 0.31957,1.2519 0.67349,2.4966 1.00964,3.7448 0.26422,-0.2191 0.52047,-0.4477 0.78585,-0.6654 5.55088,-3.9408 12.77697,-7.5109 19.91159,-2.1608 6.27243,4.7036 7.73725,9.2942 7.19354,14.4373 0.82326,0.6956 1.58852,1.4509 2.2078,2.3531 5.01343,7.3045 0.84334,13.3866 -2.95033,18.3016 -2.71535,3.0619 -5.70949,5.8349 -9.14987,8.077 -2.06102,1.397 -4.23699,2.7237 -5.9548,4.5365 -2.77271,3.2151 -5.07159,6.7504 -7.18204,10.4323 -0.87934,1.4253 -1.76713,2.8526 -2.64934,4.2816 1.06009,1.2958 2.08507,2.624 3.04145,4.0158 2.79566,4.2114 4.22199,9.0524 5.59169,13.8608 1.3379,5.4494 2.03597,14.0421 -3.83849,17.7247 -4.91371,3.0803 -11.288,3.2855 -17.08731,3.2667 -2.5083,-0.01 -6.34116,-4.497 -8.042,-6.2801 -1.73795,-2.2013 -3.17355,-4.5667 -4.40714,-7.0328 -4.87472,2.5451 -11.25742,2.5252 -17.1179,2.95 z m -80.65942,-48.5529 c -0.22211,-0.2198 -0.44517,-0.4387 -0.66782,-0.658 0.18405,0.211 0.38824,0.4011 0.58024,0.6053 z m -1.47978,-0.8907 c -1.00891,-1.0582 -2.03313,-2.105 -2.44894,-2.543 -2.48916,-2.4787 -4.81273,-5.1059 -7.05329,-7.8029 -0.64386,-0.6918 -1.29867,-1.3735 -1.94487,-2.0631 -0.68757,1.4277 -1.4827,2.7892 -2.43457,4.0529 z m -91.46121,-55.0551 c 0.73979,0.1562 1.41182,0.2344 1.95271,0.1588 -0.70496,-0.4601 -1.4011,-0.9352 -2.10836,-1.3909 -2.19112,-1.5248 -4.40109,-3.0222 -6.61021,-4.5209 l -0.74248,1.2334 z" /></clipPath></defs><g
     inkscape:label="Layer 1"
     inkscape:groupmode="layer"
     id="layer1"
     style="display:none"
     transform="translate(-491.13453,-768.38943)"><rect
       style="display:none;fill:#697015;fill-opacity:1;stroke-width:5.8;stroke-linecap:round;stroke-linejoin:bevel;paint-order:stroke fill markers"
       id="rect4"
       width="364.91614"
       height="71.936874"
       x="358.37643"
       y="1038.5068"
       ry="24.9711" /><rect
       style="display:none;fill:#909822;fill-opacity:1;stroke-width:5.8;stroke-linecap:round;stroke-linejoin:bevel;paint-order:stroke fill markers"
       id="rect5"
       width="347.9129"
       height="70.628929"
       x="367.53207"
       y="1035.891"
       ry="24.9711" /><rect
       style="fill:#697015;fill-opacity:1;stroke-width:5.8;stroke-linecap:round;stroke-linejoin:bevel;paint-order:stroke fill markers"
       id="rect6"
       width="337.09091"
       height="71.936874"
       x="371.65082"
       y="1038.5068"
       ry="24.9711"
       inkscape:export-filename="umpressed_spacey.svg"
       inkscape:export-xdpi="96"
       inkscape:export-ydpi="96" /><rect
       style="display:inline;fill:#909822;fill-opacity:1;stroke-width:5.8;stroke-linecap:round;stroke-linejoin:bevel;paint-order:stroke fill markers"
       id="rect3"
       width="337.44934"
       height="70.628929"
       x="371.45587"
       y="1035.7595"
       ry="24.9711"
       inkscape:export-filename="pressed_space.svg"
       inkscape:export-xdpi="96"
       inkscape:export-ydpi="96" /></g><g
     inkscape:groupmode="layer"
     id="layer2"
     inkscape:label="BODY"
     transform="matrix(0.91709188,0,0,0.91709182,-578.08003,-1422.6798)"
     style="display:inline;stroke-width:1.0904"
     inkscape:export-filename="dolly_arm.svg"
     inkscape:export-xdpi="96"
     inkscape:export-ydpi="96"><g
       id="g129"
       inkscape:label="R"
       style="display:inline;stroke-width:1.0904"
       transform="rotate(148.95418,717.67591,1356.9622)"
       inkscape:export-filename="..\..\FlapDolly\assets\obstacles\dolly\dolly-arm.svg"
       inkscape:export-xdpi="96"
       inkscape:export-ydpi="96"><path
         id="path131"
         style="display:inline;fill:#f7f7f7;fill-opacity:1;stroke:none;stroke-width:1.0904;stroke-linecap:round;stroke-linejoin:round;stroke-dasharray:none;stroke-opacity:1;paint-order:normal"
         inkscape:label="COLOR"
         d="m 964.41342,992.99219 c -4.79439,0.23017 -6.60256,3.88559 -11.71094,19.87301 -0.75384,2.3593 -1.58229,4.7559 -2.44726,7.1661 l -9.23829,-4.7071 c 0.51651,3.1636 -0.0409,6.3236 -0.75976,9.4043 -0.98891,3.3228 -2.47711,6.4972 -4.34766,9.4121 -1.84231,2.6586 -4.0076,5.0691 -6.04297,7.5782 -1.62015,2.4683 -3.41358,4.8229 -4.99414,7.3164 -0.20397,0.3298 -0.40428,0.6636 -0.61328,0.9902 -0.69569,1.0872 -0.48886,0.6677 -1.11719,1.7773 -0.42692,0.7539 -0.76919,1.5425 -1.1875,2.3008 -0.82912,1.6003 -1.56603,3.244 -2.48242,4.8028 -0.94622,1.6808 -2.15892,3.1491 -3.40234,4.6093 -1.27568,1.2115 -2.11312,2.7554 -3.14453,4.1563 -0.98813,1.1337 -1.58418,2.5076 -2.23242,3.8476 -0.61772,1.5761 -1.25799,3.1405 -1.91407,4.7012 -0.83822,2.0648 -1.73876,4.1078 -2.5625,6.1797 -0.79712,1.6788 -1.78311,3.2695 -2.75781,4.8516 -1.1642,2.0177 -2.75084,3.7123 -4.24609,5.4804 -1.32575,1.4676 -2.61426,2.9625 -3.88086,4.4805 -1.36786,1.5834 -2.8455,3.0984 -4.44727,4.4473 -2.54573,2.3867 -5.48991,4.2777 -8.39062,6.1953 -0.47036,0.3034 -0.93487,0.6175 -1.41211,0.9101 -0.46576,0.2854 -0.95202,0.5358 -1.41602,0.8242 -1.80245,1.12 -3.51496,2.3982 -5.23047,3.6446 -2.54533,1.9584 -5.34879,3.5296 -8.10351,5.166 -2.88283,2.1648 -5.8726,4.1794 -8.78516,6.3027 -1.37272,0.9411 -2.76648,1.8481 -4.07617,2.875 -1.53574,1.4073 -3.06398,2.8091 -4.77148,4.0078 -0.80682,0.5854 -1.69252,0.9593 -2.61524,1.2325 -3.96818,-3.6322 -2.92809,-4.0767 -5.84961,-3.834 -0.0136,-0.01 -0.0235,-0.017 -0.0371,-0.027 -0.0303,-0.022 -0.0683,0.016 -0.10547,0.039 -0.2778,0.024 -0.48638,0.038 -0.84179,0.07 -1.99283,0.1202 -3.9791,0.084 -5.9668,-0.084 -1.82988,-0.173 -3.66235,-0.2927 -5.4668,-0.6543 -2.25213,-0.4858 -4.51113,-0.9321 -6.76953,-1.3867 -0.898,-0.1935 -1.77254,-0.4638 -2.64453,-0.7422 -18.94011,-9.1754 -41.18065,-19.2639 -53.20508,-23.7363 -20.46538,-7.612 -54.67959,-10.8494 -67.5664,-6.3926 l -9.65235,3.3379 16,13.252 c 2.73565,2.2658 5.43359,4.4117 8.11524,6.5 -0.93233,1.6858 -1.4191,3.3352 -0.69727,5.2636 2.93739,5.777 10.82798,7.261 16.66211,9.5078 1.31083,0.5382 2.56525,1.2197 3.97461,1.4805 1.8287,0.4523 3.64021,0.9862 5.49414,1.3301 23.65368,14.1587 47.75139,22.3401 78.68945,27.4512 60.84908,10.0525 87.40086,-5.2685 121.25586,-71.086 1.74087,-2.8231 3.54887,-5.6053 5.19727,-8.4844 1.6408,-2.7962 3.28524,-5.6279 4.53906,-8.6191 0.87466,-2.4904 1.66825,-5.0051 2.43359,-7.5293 0.36076,-0.6783 0.74056,-1.3465 1.08204,-2.0351 1.08827,-2.5767 2.19453,-5.1375 3.36328,-7.6797 1.18552,-2.7028 2.32646,-5.4273 3.48633,-8.1426 1.48848,-3.3991 3.04218,-6.7642 4.48437,-10.1836 1.27469,-2.7689 2.42715,-5.5931 3.58984,-8.4102 0.91254,-2.2865 1.9405,-4.5187 2.69922,-6.8632 0.5391,-1.983 0.32359,-3.1607 -0.51562,-4.0176 5.0741,-13.9705 8.39341,-24.57846 7.56054,-25.65041 -0.72071,-0.92767 -4.64617,-2.01411 -8.72265,-2.41406 -0.82511,-0.081 -1.57095,-0.11882 -2.25586,-0.0859 z M 713.46029,1123.6328 c 0.4002,0.2284 0.42028,0.2479 0.80274,0.4668 -0.0355,-0.017 -0.0789,-0.027 -0.11328,-0.045 -0.23873,-0.1236 -0.92295,-0.5551 -0.68946,-0.4219 z"
         clip-path="url(#clipPath8)" /><path
         id="path137"
         style="display:inline;fill:#dedede;fill-opacity:1;stroke:none;stroke-width:1.0904;stroke-linecap:round;stroke-linejoin:round;stroke-dasharray:none;stroke-opacity:1;paint-order:normal"
         d="m 956.60678,1024.0859 c -2.26822,5.0483 -4.80116,9.9762 -7.3086,14.9102 -2.15555,4.0289 -3.83549,8.2974 -5.97656,12.332 -0.51621,0.9728 -2.7537,4.815 -3.3125,5.7793 -2.84356,5.0933 -5.94379,10.0329 -8.98828,15.0059 -2.65071,4.4774 -5.10502,9.0599 -7.52539,13.664 -1.61211,3.2742 -3.58427,6.323 -5.5,9.418 -1.84093,3.1975 -3.92302,6.2276 -6.15234,9.1641 -2.88795,4.1515 -6.06129,8.0707 -9.26172,11.9824 -2.40263,3.0551 -5.2383,5.7253 -8.04102,8.4043 -2.05081,2.4614 -4.45324,4.5025 -7.13867,6.2324 -3.80368,2.1168 -7.63733,4.1894 -11.56641,6.0684 -3.93358,1.5676 -7.63778,3.6163 -11.4707,5.4023 -3.95877,1.5304 -7.64427,3.6168 -11.32226,5.7129 -3.29683,1.6317 -5.82626,4.156 -8.36915,6.7324 -1.06979,1.2128 -0.95859,1.0954 -1.55664,1.8125 -2.50981,-1.3865 -5.05556,-2.6693 -7.81054,-3.6308 -2.51672,-1.1921 -5.03447,-2.3844 -7.56055,-3.5567 -3.91336,-1.764 -7.9921,-3.0744 -12.0293,-4.5234 -5.35839,-2.1495 -10.753,-4.2123 -16.15234,-6.2559 -5.15106,-1.6902 -10.32564,-3.4781 -15.75781,-3.9922 -7.78715,-1.0896 -15.53629,-2.3627 -23.15821,-4.3417 -9.53016,-2.3692 -19.08668,-4.6866 -28.77929,-6.2989 -7.42193,-1.2861 -14.85912,-2.973 -22.42774,-2.9258 l 6.03321,4.3848 c 0.63892,-0.03 1.27652,-0.027 1.91406,-0.027 0.41513,0.928 1.85077,1.691 9.55273,5.7754 15.15658,8.0372 25.63759,11.9871 43.11133,16.248 16.38378,3.9951 29.46399,6.1542 47.41211,7.8262 12.33587,1.1496 15.85938,1.3847 15.85938,1.0605 0,-0.1539 0.47802,-0.1711 1.0625,-0.039 0.58448,0.1322 1.94634,0.3433 3.02539,0.4707 0.75878,0.089 1.59745,0.1519 2.42382,0.1992 0.41637,0.1963 0.82961,0.3999 1.24805,0.5918 2.6701,0.6913 9.25755,4.4013 2.44141,0.5371 l 6.15039,2.4258 -1.10938,-0.8203 c -0.75245,-0.432 -1.49353,-0.8625 -2.23633,-1.293 0.49682,-0.5999 0.46239,-0.5687 1.4668,-1.7168 0.003,0 0.007,-0.01 0.01,-0.01 2.43054,0.085 9.67944,-1.072 15.02539,-2.5 13.49997,-3.606 25.17949,-9.3016 33.92773,-16.5469 9.29503,-7.6982 21.18238,-22.3767 31.82422,-39.2949 7.67788,-12.2062 17.09291,-29.3745 22.47266,-40.9804 4.34218,-9.3676 12.08008,-28.1771 12.08008,-29.3633 0,-0.2375 -2.46099,-1.037 -3.7461,-1.2735 0.15839,-0.3185 0.32292,-0.6341 0.48047,-0.9531 z"
         clip-path="url(#clipPath3)" /><g
         id="g130"
         inkscape:label="FOREARM"
         style="display:inline;stroke-width:1.0904"
         inkscape:transform-center-x="-216.46811"
         inkscape:transform-center-y="-13.901986"
         transform="rotate(30,621.37436,1116.7951)"><path
           style="display:inline;fill:#000000;fill-opacity:1;stroke:none;stroke-width:1.0904;stroke-linecap:round;stroke-linejoin:round;stroke-dasharray:none;stroke-opacity:1;paint-order:normal"
           id="path127"
           d="m 829.15426,1021.8968 c 6.81679,-7.9576 11.21104,-17.8982 15.4018,-27.63945 6.67578,-17.25482 11.32467,-35.34109 13.35414,-53.93228 0.42254,-3.8708 0.59332,-7.7683 0.88998,-11.65245 0.92653,-18.99548 -0.003,-38.15574 -4.15252,-56.65082 0,0 -10.02557,-8.56481 -10.02557,-8.56481 v 0 c 4.6245,18.43106 5.80627,37.68608 4.92125,56.74764 -0.28699,3.85383 -0.46036,7.71926 -0.861,11.5615 -1.92191,18.4321 -6.43089,36.39662 -13.4213,53.3406 -4.19117,9.39675 -8.6585,19.13327 -15.75056,26.40477 z" /><path
           style="display:inline;fill:#000000;fill-opacity:1;stroke:none;stroke-width:1.0904;stroke-linecap:round;stroke-linejoin:round;stroke-dasharray:none;stroke-opacity:1;paint-order:normal"
           id="path128"
           d="m 837.08984,1053.4526 c 8.3005,-3.0869 15.23229,-9.0102 21.86685,-14.7123 9.25831,-9.3876 17.63122,-20.0108 22.6638,-32.311 1.1919,-2.9131 2.05516,-5.9501 3.08274,-8.92517 0.75462,-3.42528 1.69218,-6.81533 2.26386,-10.27585 1.2611,-7.63375 2.11156,-19.04953 2.55253,-26.63671 0.87518,-15.05784 0.6536,-29.94106 0.0949,-45.00106 -0.94479,-17.4055 -2.97957,-34.72921 -5.85283,-51.91496 0,0 -12.63607,-6.15011 -12.63607,-6.15011 v 0 c 3.48894,17.24843 5.92042,34.68629 6.98969,52.26447 1.18966,27.07586 1.20292,54.63047 -5.39673,81.09389 -1.02054,2.91866 -1.87741,5.8998 -3.06161,8.75593 -5.02387,12.11707 -13.40855,22.54257 -22.80057,31.55147 -6.63098,5.5909 -13.62774,11.4218 -22.1004,13.893 z" /></g><g
         id="g134"
         inkscape:label="PAW"
         style="display:inline;stroke-width:1.0904"><path
           id="path132"
           style="fill:#484559;fill-opacity:1;stroke:none;stroke-width:1.0904;stroke-linecap:round;stroke-linejoin:round;stroke-dasharray:none;stroke-opacity:1;paint-order:normal"
           d="m 977.28906,923.01172 -2.75586,3.04687 -2.68164,-1.28515 c 0.47196,0.819 0.949,1.64128 1.32227,2.51172 0.0271,0.0631 0.0499,0.12795 0.0762,0.1914 l -3.63086,4.01367 c -4.21866,4.66398 -9.71578,14.71489 -12.21484,22.33399 -5.07778,15.48096 -6.04446,50.38088 -1.72266,62.18948 2.52823,6.9077 3.94954,7.5218 13.69922,5.9121 16.0376,-2.6477 29.58457,-10.943 44.53511,-27.2676 19.5184,-21.31227 26.9524,-33.48383 25.3848,-42.93164 0.2678,-0.0984 0.5361,-0.19477 0.8105,-0.27539 0.3957,-0.29529 0.8809,-0.40441 1.3047,-0.63672 l -2.8555,-1.875 c -0.3696,-0.98687 -0.8413,-1.94952 -1.4179,-2.89453 -1.0295,-1.68728 -2.3321,-2.11008 -4.5469,-1.02148 l -3.5312,-2.31836 c -0.3878,0.17996 -0.718,0.45361 -1.1075,0.625 -0.6152,0.34283 -1.2604,0.62734 -1.9082,0.90234 -0.9499,0.40672 -1.8897,0.83403 -2.8633,1.1836 -1.1522,0.54326 -2.2413,1.2128 -3.3964,1.75195 -0.6877,0.33736 -1.3719,0.69037 -2.084,0.97461 -0.2303,0.0919 -0.4723,0.15388 -0.6992,0.2539 -0.3599,0.15863 -0.6709,0.41719 -1.043,0.55274 -1.1117,0.5288 -2.1801,1.15497 -3.1817,1.87109 -0.8278,0.59789 -1.6825,1.13529 -2.6113,1.56641 -0.2198,0.10202 -0.4528,0.1721 -0.6738,0.27148 -0.1787,0.0803 -0.3489,0.17849 -0.5234,0.26758 -1.5661,0.75148 -3.1899,1.38598 -4.8379,1.9336 -0.4085,0.10697 -0.8132,0.22735 -1.2246,0.32226 -1.8086,0.41728 -3.67555,0.66935 -5.53322,0.61719 l 6.63672,4.57617 c -3.6942,-0.14334 -7.5145,-1.1751 -11.60937,-3.11328 -0.42572,-0.2015 -0.83343,-0.43017 -1.23242,-0.67383 l 1.12304,0.53906 c -0.25503,-0.87421 -0.57491,-1.72865 -0.8164,-2.60742 -0.15632,-0.54039 -0.23262,-0.83975 -0.42774,-1.37305 -0.41795,-1.14235 -0.91654,-2.25843 -1.19336,-3.44921 -0.15119,-0.57769 -0.38319,-1.4187 -0.49219,-2.00977 -0.18095,-0.98131 -0.15543,-1.98506 -0.33789,-2.9668 -0.0792,-1.0505 -0.22218,-2.1068 -0.70898,-3.05664 -0.34665,-0.6862 -0.16059,-0.33255 -0.56641,-1.05859 -0.65071,-1.24735 -1.23259,-2.53779 -1.71875,-3.85742 -0.56111,-1.77002 -1.23669,-3.69105 -0.79687,-5.56446 l -6.64258,-3.18164 z"
           inkscape:label="COLOR" /><path
           id="path140"
           style="display:inline;fill:#423b49;fill-opacity:1;stroke:none;stroke-width:1.0904;stroke-linecap:round;stroke-linejoin:round;stroke-dasharray:none;stroke-opacity:1;paint-order:normal"
           d="m 1011.3125,937.7832 -2.0195,0.68555 c -3.3838,1.15092 -4.6304,2.00661 -9.0039,6.17578 l -3.22269,3.07227 c 0.41374,-1.01543 0.82187,-2.03256 1.24804,-3.04297 0.62093,-1.49873 0.33056,-0.77348 0.87305,-2.17578 l -3.16016,-1.75391 c -0.50322,1.41076 -0.23232,0.67936 -0.82226,2.1875 -1.02424,2.49062 -2.03341,4.98874 -3.17969,7.42578 -1.27413,2.75612 -2.36525,5.60555 -3.91797,8.22656 -0.77639,1.21554 -1.13367,1.83622 -2.01758,2.97657 -1.51253,1.95135 -3.32488,3.62869 -5.15234,5.27734 -3.27839,2.68735 -6.69469,5.17019 -10.40039,7.24805 -5.08931,3.41584 -9.97748,7.13669 -14.20313,11.60547 -2.16785,2.2922 -3.00978,3.10044 -5.01171,5.53906 -2.76475,3.36782 -5.21614,7.00083 -7.45118,10.73633 -1.16312,2.0239 -1.63715,2.7771 -2.66406,4.8242 -0.8632,1.7208 -1.75268,3.5746 -1.79883,5.5371 l 3.32227,1.6934 c -0.0522,-0.7911 0.0521,-1.566 0.24414,-2.3223 0.24389,-0.07 2.94134,-0.7054 6.04297,-1.4219 10.34039,-2.3888 13.68654,-3.5085 20.69336,-6.9199 5.97438,-2.9088 10.0618,-5.80425 16.99414,-12.04099 5.18663,-4.6662 7.45174,-7.16735 13.17773,-14.55274 1.57749,-2.03468 3.61179,-4.58509 4.51949,-5.66601 3.5692,-4.25033 6.6051,-8.62191 8.2305,-11.85157 2.0775,-4.12774 2.7255,-7.0929 2.3067,-10.54882 -0.4564,-3.76584 -2.0309,-8.84446 -3.2188,-10.38477 z"
           transform="translate(20.927091,7.8476591)" /><path
           style="fill:#000000;fill-opacity:1;stroke:none;stroke-width:1.0904;stroke-linecap:round;stroke-linejoin:round;stroke-dasharray:none;stroke-opacity:1;paint-order:normal"
           id="path118"
           d="m 961.8431,1022.0923 c -4.40894,-7.2605 -6.14973,-15.8818 -7.5619,-24.14473 -1.0589,-9.58595 -0.96603,-19.39657 0.79976,-28.90459 0.98658,-5.31226 2.03182,-8.08043 3.65006,-13.20153 2.29997,-6.48987 5.08657,-12.86533 9.56765,-18.16865 0.3105,-0.3674 4.57367,-4.79842 5.04548,-5.28993 3.12094,-2.5389 6.56494,-5.67409 10.62864,-6.64118 0.59335,-0.14147 1.21618,-0.0958 1.82427,-0.14373 0.54277,0.0983 1.1014,0.13188 1.62833,0.29506 0.57248,0.17736 2.22545,0.87964 1.64784,0.71955 -5.24318,-1.4535 -10.36952,-3.33355 -15.66009,-4.60387 -0.63112,-0.15156 1.05357,0.7645 1.52562,1.20996 1.22881,1.15952 1.76716,2.01859 2.75951,3.36833 3.218,5.22741 4.64957,11.31345 6.11097,17.21319 1.14016,3.84424 1.11545,8.15515 3.35736,11.58398 5.26215,4.90206 16.0118,8.64303 23.3837,5.53486 1.4512,-0.61187 2.9297,-1.65689 4.2355,-2.50289 3.4602,-2.99414 6.4945,-6.43097 9.943,-9.44396 3.1463,-2.48498 7.177,-3.34839 10.9744,-4.35279 0.9053,-0.0205 1.8131,-0.1312 2.7159,-0.0616 0.9203,0.0709 1.8181,0.32071 2.7271,0.48108 -4.8881,-1.44233 -9.7372,-3.02383 -14.6643,-4.32702 -0.7583,-0.20055 1.4453,0.61912 2.1251,1.01035 1.6856,0.96975 1.8233,1.32059 3.1464,2.71954 2.9981,4.37718 4.2394,9.53617 4.4348,14.76851 -0.7814,7.00942 -5.1295,12.66425 -9.2994,18.08546 -5.0601,5.71825 -9.2134,12.19874 -14.5366,17.675 -4.0716,3.93521 -8.3157,7.7123 -12.83464,11.1292 -4.32612,3.3355 -9.36618,5.6463 -14.36762,7.787 -3.75176,1.5603 -7.69162,2.5655 -11.62935,3.5239 -4.63849,1.1037 -9.28646,2.1661 -13.92983,3.2492 -2.76377,0.5948 -5.47125,0.7833 -8.25782,0.2923 -0.83232,-0.1467 -3.27954,-0.8106 -2.47401,-0.5549 19.40045,6.1595 19.43688,6.2281 13.06429,3.7878 0,0 -18.09828,-2.814 -18.09828,-2.814 v 0 c 7.9089,3.7411 3.29726,1.6777 21.46077,6.8836 1.29539,0.3712 3.84251,0.4819 5.16731,0.4135 1.96588,-0.1014 3.8181,-0.5137 5.74724,-0.8709 4.75689,-1.0282 9.51999,-2.0355 14.25535,-3.1581 3.94356,-1.0142 7.85151,-2.2129 11.56829,-3.8938 5.0321,-2.3273 10.1185,-4.7474 14.4789,-8.2126 4.4819,-3.5544 8.8377,-7.2706 12.7434,-11.4624 5.1799,-5.65239 9.3795,-12.12185 14.4393,-17.88788 4.5316,-5.73579 8.9442,-11.73791 9.9642,-19.17862 -0.1245,-5.6403 -1.1898,-10.90285 -3.9724,-15.87704 -1.2996,-1.84914 -2.9382,-3.99479 -5.2131,-4.76265 -9.6698,-3.26371 -16.2993,-7.18128 -25.4913,-5.85808 -4.0858,1.08803 -8.3458,2.09786 -11.515,5.08462 -3.2082,3.06134 -6.0699,6.51455 -9.63772,9.16693 -1.59619,0.87729 -2.39676,1.4556 -4.14622,1.91286 -0.6181,0.16154 -1.25818,0.24278 -1.89591,0.28096 -0.54898,0.0328 -2.16617,-0.25443 -1.64843,-0.069 13.15008,4.71073 22.03718,6.47315 15.27458,5.10235 -3.1755,-2.13504 -2.8514,-7.49202 -4.1038,-10.79186 -1.55721,-6.01544 -2.93445,-12.19879 -5.7051,-17.7913 -0.64225,-0.97082 -3.05004,-4.91833 -4.06251,-5.32511 -4.49808,-1.80727 -15.10997,-7.31126 -22.59379,-6.80494 -4.89351,1.36329 -8.92886,4.48111 -12.50164,8.0243 -1.2571,1.40788 -3.74384,4.14743 -4.8419,5.57945 -4.33911,5.65876 -7.07154,12.11986 -9.14943,18.90748 -1.67079,5.40364 -2.62017,7.90062 -3.63114,13.5082 -1.73877,9.6442 -1.84998,19.57767 -1.09156,29.31765 0.2713,2.19445 0.44649,4.40294 0.81394,6.58338 1.03367,6.1338 2.91685,12.1684 5.04753,17.9977 z"
           inkscape:label="STROKE"
           inkscape:transform-center-x="-307.6656"
           inkscape:transform-center-y="-129.73935" /></g></g><path
       style="fill:#000000;fill-opacity:1;stroke-width:6.32434;stroke-linecap:round;stroke-linejoin:bevel;paint-order:stroke fill markers"
       id="path9"
       d="m 708.86879,1592.7705 c 0.69832,-1.028 1.5998,-1.9354 2.57756,-2.701 0.2716,-0.2126 0.55961,-0.4034 0.83941,-0.6052 1.04404,-0.6371 2.08958,-1.2806 3.24867,-1.6897 0.53896,-0.1903 0.65096,-0.196 1.18937,-0.3081 0.95451,-0.1538 1.90487,-0.2624 2.87211,-0.276 0.98944,-0.033 1.97503,-0.1225 2.96582,-0.1211 0.68552,0 1.37086,0.023 2.05637,0.028 0.10631,-0.01 0.21412,-0.038 0.31878,-0.019 0.28389,0.053 0.69707,0.3873 0.92941,0.5492 0.11071,0.077 0.44673,0.3022 0.3297,0.235 -3.21792,-1.8468 -6.42264,-3.7164 -9.63396,-5.5746 0.67765,0.4371 1.23259,1.0631 1.65779,1.7443 0.54589,0.6879 0.81449,1.5302 1.08276,2.3535 0.33154,1.136 0.32955,2.3345 0.40138,3.5071 0.0117,1.1564 -0.0592,2.3099 -0.0109,3.4656 -0.009,0.9697 -0.0779,1.9365 -0.11314,2.9056 -0.0719,0.7402 -0.049,1.4869 -0.002,2.2286 0.0131,0.8887 0.0558,1.7741 1.6e-4,2.6626 -0.0124,0.6235 -0.0627,1.2445 -0.10871,1.8661 0.0498,0.5873 3.9e-4,1.1724 -0.0225,1.7597 -0.0422,0.5639 -0.12197,1.1241 -0.1826,1.6862 -0.0721,0.5448 -0.12107,1.0916 -0.25592,1.6255 -0.10162,0.8117 -0.31386,1.598 -0.54573,2.3805 -0.21769,0.6098 -0.29968,1.254 -0.44228,1.8833 -0.0697,0.9121 -0.12438,1.7702 -0.38683,2.653 -0.16929,0.4692 -0.2779,0.9567 -0.42484,1.4329 0,0 10.5707,5.6982 10.5707,5.6982 v 0 c 0.0877,-0.514 0.15438,-1.0282 0.22743,-1.5448 0.0538,-0.3067 0.128,-0.61 0.17129,-0.9184 0.0217,-0.1548 0.0185,-0.3123 0.0383,-0.4673 0.0532,-0.4203 0.1865,-0.8121 0.2771,-1.2238 0.13833,-0.6276 0.32593,-1.2444 0.40207,-1.8842 0.14905,-0.7792 0.23319,-1.5794 0.57743,-2.306 0.18172,-0.5749 0.35243,-1.1553 0.39546,-1.76 0.0392,-0.277 0.0985,-0.56 0.1102,-0.8398 0.0132,-0.3132 -0.037,-0.6302 0.005,-0.9433 0.071,-0.5913 0.19134,-1.1776 0.19229,-1.7761 -0.0454,-0.6586 -0.0951,-1.3166 -0.10871,-1.9769 -0.0523,-0.8887 -0.0161,-1.7738 1.1e-4,-2.6625 0.0498,-0.7421 0.0659,-1.4887 -10e-4,-2.2297 -0.0341,-1.0058 -0.10021,-2.0097 -0.10588,-3.016 0.0557,-1.1719 -0.0125,-2.3427 -0.0308,-3.5152 0.0249,-1.2179 -0.0531,-2.4296 -0.15028,-3.643 -0.12311,-0.9163 -0.37229,-1.8128 -0.72708,-2.6661 -0.64239,-0.8928 0.21163,0.322 -0.43892,-0.7054 -0.33481,-0.5287 -0.80315,-0.9643 -1.16803,-1.4708 -3.46307,-2.0394 -6.91814,-4.0924 -10.38921,-6.1181 -0.22093,-0.129 -0.56768,-0.2534 -0.82002,-0.3083 -0.42803,-0.093 -0.84757,-0.052 -1.28029,-0.08 -0.65066,0.012 -1.3004,0.047 -1.94763,0.1161 -0.94867,0.1025 -1.90136,0.1753 -2.85533,0.2008 -1.01768,0.089 -2.07284,0.1052 -2.99767,0.5897 -0.46483,0.232 -0.63539,0.3019 -1.08506,0.5931 -1.00532,0.6512 -1.9204,1.4395 -2.95572,2.0475 -0.90552,0.639 -0.84548,0.605 -1.76734,1.222 -0.68992,0.4618 -1.393,0.937 -2.15838,1.2694 -0.14754,0.064 -0.30443,0.104 -0.45664,0.156 z" /></g></svg>
