<?xml version="1.0" encoding="UTF-8" standalone="no"?>
<!-- Created with Inkscape (http://www.inkscape.org/) -->

<svg
   width="337.44934"
   height="74.684212"
   viewBox="0 0 337.44935 74.684215"
   version="1.1"
   id="svg1"
   inkscape:version="1.3.2 (091e20e, 2023-11-25, custom)"
   xml:space="preserve"
   xmlns:inkscape="http://www.inkscape.org/namespaces/inkscape"
   xmlns:sodipodi="http://sodipodi.sourceforge.net/DTD/sodipodi-0.dtd"
   xmlns="http://www.w3.org/2000/svg"
   xmlns:svg="http://www.w3.org/2000/svg"><sodipodi:namedview
     id="namedview1"
     pagecolor="#ffffff"
     bordercolor="#000000"
     borderopacity="0.25"
     inkscape:showpageshadow="2"
     inkscape:pageopacity="0.0"
     inkscape:pagecheckerboard="false"
     inkscape:deskcolor="#3d3d3d"
     inkscape:document-units="px"><inkscape:page
       x="9.8823293e-06"
       y="-2.8391478e-06"
       width="337.44934"
       height="74.684212"
       id="page3"
       margin="0"
       bleed="0" /></sodipodi:namedview><defs
     id="defs1"><clipPath
       clipPathUnits="userSpaceOnUse"
       id="clipPath3"><path
         id="path3"
         style="fill:#ff0000;fill-opacity:1;fill-rule:nonzero;stroke:none;stroke-width:1.0904"
         d="M 859.97193,1212.5465 969.01883,1031.3902 818.15509,940.57788 716.36268,1109.6824 c 1.56483,0.3044 3.18306,0.6958 4.85636,1.1907 2.39045,0.7074 -2.13435,-0.9725 -1.53859,-0.921 1.18132,0.1018 2.32003,0.5128 3.49918,0.6372 0.57454,0.061 4.44181,0.2627 4.59214,0.271 5.39584,0.012 10.76366,0.4298 16.14137,0.7949 5.28665,0.4983 10.54371,1.2361 15.74218,2.317 4.971,0.9994 9.66955,2.9152 14.41447,4.6424 4.80583,1.7345 9.45306,3.8605 14.02337,6.1345 3.49551,1.754 6.9041,3.6715 10.29391,5.6197 2.03219,1.0949 4.03591,2.4048 6.29982,2.9471 2.68841,0.989 5.42106,1.6265 8.24016,2.0443 3.50998,0.4386 6.86879,1.5239 10.16542,2.7608 28.041,10.5212 17.0588,39.3042 -10.78256,28.2655 -1.25128,-0.4961 -2.49122,-0.9905 -3.8495,-1.1042 -4.31897,-0.6482 -8.5511,-1.6169 -12.68186,-3.0526 -4.36005,-1.4141 -8.53626,-3.2616 -12.46927,-5.6316 -2.8714,-1.6513 -5.75587,-3.2834 -8.71509,-4.7737 -3.54883,-1.774 -7.15362,-3.4398 -10.88934,-4.7875 -3.40308,-1.2433 -6.7566,-2.682 -10.30503,-3.4662 -3.53623,-0.7669 -7.12507,-1.2195 -10.71856,-1.6272 z" /></clipPath></defs><g
     inkscape:label="Layer 1"
     inkscape:groupmode="layer"
     id="layer1"
     transform="translate(-371.45588,-1035.7596)"><rect
       style="display:none;fill:#697015;fill-opacity:1;stroke-width:5.8;stroke-linecap:round;stroke-linejoin:bevel;paint-order:stroke fill markers"
       id="rect4"
       width="364.91614"
       height="71.936874"
       x="358.37643"
       y="1038.5068"
       ry="24.9711" /><rect
       style="display:none;fill:#909822;fill-opacity:1;stroke-width:5.8;stroke-linecap:round;stroke-linejoin:bevel;paint-order:stroke fill markers"
       id="rect5"
       width="347.9129"
       height="70.628929"
       x="367.53207"
       y="1035.891"
       ry="24.9711" /><rect
       style="fill:#697015;fill-opacity:1;stroke-width:5.8;stroke-linecap:round;stroke-linejoin:bevel;paint-order:stroke fill markers"
       id="rect6"
       width="337.09091"
       height="71.936874"
       x="371.65082"
       y="1038.5068"
       ry="24.9711"
       inkscape:export-filename="umpressed_spacey.svg"
       inkscape:export-xdpi="96"
       inkscape:export-ydpi="96" /><rect
       style="display:inline;fill:#909822;fill-opacity:1;stroke-width:5.8;stroke-linecap:round;stroke-linejoin:bevel;paint-order:stroke fill markers"
       id="rect3"
       width="337.44934"
       height="70.628929"
       x="371.45587"
       y="1035.7595"
       ry="24.9711" /></g><g
     inkscape:groupmode="layer"
     id="layer2"
     inkscape:label="BODY"
     transform="matrix(0.91709188,0,0,0.91709182,-458.40138,-1690.05)"
     style="display:none;stroke-width:1.0904"
     inkscape:export-filename="..\..\FlapDolly\assets\obstacles\dolly\dolly.svg"
     inkscape:export-xdpi="96"
     inkscape:export-ydpi="96"><g
       id="g129"
       inkscape:label="R"
       style="display:inline;stroke-width:1.0904"
       transform="rotate(148.95418,717.67591,1356.9622)"
       inkscape:export-filename="..\..\FlapDolly\assets\obstacles\dolly\dolly-arm.svg"
       inkscape:export-xdpi="96"
       inkscape:export-ydpi="96"><path
         id="path131"
         style="display:inline;fill:#f7f7f7;fill-opacity:1;stroke:none;stroke-width:1.0904;stroke-linecap:round;stroke-linejoin:round;stroke-dasharray:none;stroke-opacity:1;paint-order:normal"
         inkscape:label="COLOR"
         d="m 964.41342,992.99219 c -4.79439,0.23017 -6.60256,3.88559 -11.71094,19.87301 -0.75384,2.3593 -1.58229,4.7559 -2.44726,7.1661 l -9.23829,-4.7071 c 0.51651,3.1636 -0.0409,6.3236 -0.75976,9.4043 -0.98891,3.3228 -2.47711,6.4972 -4.34766,9.4121 -1.84231,2.6586 -4.0076,5.0691 -6.04297,7.5782 -1.62015,2.4683 -3.41358,4.8229 -4.99414,7.3164 -0.20397,0.3298 -0.40428,0.6636 -0.61328,0.9902 -0.69569,1.0872 -0.48886,0.6677 -1.11719,1.7773 -0.42692,0.7539 -0.76919,1.5425 -1.1875,2.3008 -0.82912,1.6003 -1.56603,3.244 -2.48242,4.8028 -0.94622,1.6808 -2.15892,3.1491 -3.40234,4.6093 -1.27568,1.2115 -2.11312,2.7554 -3.14453,4.1563 -0.98813,1.1337 -1.58418,2.5076 -2.23242,3.8476 -0.61772,1.5761 -1.25799,3.1405 -1.91407,4.7012 -0.83822,2.0648 -1.73876,4.1078 -2.5625,6.1797 -0.79712,1.6788 -1.78311,3.2695 -2.75781,4.8516 -1.1642,2.0177 -2.75084,3.7123 -4.24609,5.4804 -1.32575,1.4676 -2.61426,2.9625 -3.88086,4.4805 -1.36786,1.5834 -2.8455,3.0984 -4.44727,4.4473 -2.54573,2.3867 -5.48991,4.2777 -8.39062,6.1953 -0.47036,0.3034 -0.93487,0.6175 -1.41211,0.9101 -0.46576,0.2854 -0.95202,0.5358 -1.41602,0.8242 -1.80245,1.12 -3.51496,2.3982 -5.23047,3.6446 -2.54533,1.9584 -5.34879,3.5296 -8.10351,5.166 -2.88283,2.1648 -5.8726,4.1794 -8.78516,6.3027 -1.37272,0.9411 -2.76648,1.8481 -4.07617,2.875 -1.53574,1.4073 -3.06398,2.8091 -4.77148,4.0078 -0.80682,0.5854 -1.69252,0.9593 -2.61524,1.2325 -3.96818,-3.6322 -2.92809,-4.0767 -5.84961,-3.834 -0.0136,-0.01 -0.0235,-0.017 -0.0371,-0.027 -0.0303,-0.022 -0.0683,0.016 -0.10547,0.039 -0.2778,0.024 -0.48638,0.038 -0.84179,0.07 -1.99283,0.1202 -3.9791,0.084 -5.9668,-0.084 -1.82988,-0.173 -3.66235,-0.2927 -5.4668,-0.6543 -2.25213,-0.4858 -4.51113,-0.9321 -6.76953,-1.3867 -0.898,-0.1935 -1.77254,-0.4638 -2.64453,-0.7422 -18.94011,-9.1754 -41.18065,-19.2639 -53.20508,-23.7363 -20.46538,-7.612 -54.67959,-10.8494 -67.5664,-6.3926 l -9.65235,3.3379 16,13.252 c 2.73565,2.2658 5.43359,4.4117 8.11524,6.5 -0.93233,1.6858 -1.4191,3.3352 -0.69727,5.2636 2.93739,5.777 10.82798,7.261 16.66211,9.5078 1.31083,0.5382 2.56525,1.2197 3.97461,1.4805 1.8287,0.4523 3.64021,0.9862 5.49414,1.3301 23.65368,14.1587 47.75139,22.3401 78.68945,27.4512 60.84908,10.0525 87.40086,-5.2685 121.25586,-71.086 1.74087,-2.8231 3.54887,-5.6053 5.19727,-8.4844 1.6408,-2.7962 3.28524,-5.6279 4.53906,-8.6191 0.87466,-2.4904 1.66825,-5.0051 2.43359,-7.5293 0.36076,-0.6783 0.74056,-1.3465 1.08204,-2.0351 1.08827,-2.5767 2.19453,-5.1375 3.36328,-7.6797 1.18552,-2.7028 2.32646,-5.4273 3.48633,-8.1426 1.48848,-3.3991 3.04218,-6.7642 4.48437,-10.1836 1.27469,-2.7689 2.42715,-5.5931 3.58984,-8.4102 0.91254,-2.2865 1.9405,-4.5187 2.69922,-6.8632 0.5391,-1.983 0.32359,-3.1607 -0.51562,-4.0176 5.0741,-13.9705 8.39341,-24.57846 7.56054,-25.65041 -0.72071,-0.92767 -4.64617,-2.01411 -8.72265,-2.41406 -0.82511,-0.081 -1.57095,-0.11882 -2.25586,-0.0859 z M 713.46029,1123.6328 c 0.4002,0.2284 0.42028,0.2479 0.80274,0.4668 -0.0355,-0.017 -0.0789,-0.027 -0.11328,-0.045 -0.23873,-0.1236 -0.92295,-0.5551 -0.68946,-0.4219 z" /><path
         id="path137"
         style="display:inline;fill:#dedede;fill-opacity:1;stroke:none;stroke-width:1.0904;stroke-linecap:round;stroke-linejoin:round;stroke-dasharray:none;stroke-opacity:1;paint-order:normal"
         d="m 956.60678,1024.0859 c -2.26822,5.0483 -4.80116,9.9762 -7.3086,14.9102 -2.15555,4.0289 -3.83549,8.2974 -5.97656,12.332 -0.51621,0.9728 -2.7537,4.815 -3.3125,5.7793 -2.84356,5.0933 -5.94379,10.0329 -8.98828,15.0059 -2.65071,4.4774 -5.10502,9.0599 -7.52539,13.664 -1.61211,3.2742 -3.58427,6.323 -5.5,9.418 -1.84093,3.1975 -3.92302,6.2276 -6.15234,9.1641 -2.88795,4.1515 -6.06129,8.0707 -9.26172,11.9824 -2.40263,3.0551 -5.2383,5.7253 -8.04102,8.4043 -2.05081,2.4614 -4.45324,4.5025 -7.13867,6.2324 -3.80368,2.1168 -7.63733,4.1894 -11.56641,6.0684 -3.93358,1.5676 -7.63778,3.6163 -11.4707,5.4023 -3.95877,1.5304 -7.64427,3.6168 -11.32226,5.7129 -3.29683,1.6317 -5.82626,4.156 -8.36915,6.7324 -1.06979,1.2128 -0.95859,1.0954 -1.55664,1.8125 -2.50981,-1.3865 -5.05556,-2.6693 -7.81054,-3.6308 -2.51672,-1.1921 -5.03447,-2.3844 -7.56055,-3.5567 -3.91336,-1.764 -7.9921,-3.0744 -12.0293,-4.5234 -5.35839,-2.1495 -10.753,-4.2123 -16.15234,-6.2559 -5.15106,-1.6902 -10.32564,-3.4781 -15.75781,-3.9922 -7.78715,-1.0896 -15.53629,-2.3627 -23.15821,-4.3417 -9.53016,-2.3692 -19.08668,-4.6866 -28.77929,-6.2989 -7.42193,-1.2861 -14.85912,-2.973 -22.42774,-2.9258 l 6.03321,4.3848 c 0.63892,-0.03 1.27652,-0.027 1.91406,-0.027 0.41513,0.928 1.85077,1.691 9.55273,5.7754 15.15658,8.0372 25.63759,11.9871 43.11133,16.248 16.38378,3.9951 29.46399,6.1542 47.41211,7.8262 12.33587,1.1496 15.85938,1.3847 15.85938,1.0605 0,-0.1539 0.47802,-0.1711 1.0625,-0.039 0.58448,0.1322 1.94634,0.3433 3.02539,0.4707 0.75878,0.089 1.59745,0.1519 2.42382,0.1992 0.41637,0.1963 0.82961,0.3999 1.24805,0.5918 2.6701,0.6913 9.25755,4.4013 2.44141,0.5371 l 6.15039,2.4258 -1.10938,-0.8203 c -0.75245,-0.432 -1.49353,-0.8625 -2.23633,-1.293 0.49682,-0.5999 0.46239,-0.5687 1.4668,-1.7168 0.003,0 0.007,-0.01 0.01,-0.01 2.43054,0.085 9.67944,-1.072 15.02539,-2.5 13.49997,-3.606 25.17949,-9.3016 33.92773,-16.5469 9.29503,-7.6982 21.18238,-22.3767 31.82422,-39.2949 7.67788,-12.2062 17.09291,-29.3745 22.47266,-40.9804 4.34218,-9.3676 12.08008,-28.1771 12.08008,-29.3633 0,-0.2375 -2.46099,-1.037 -3.7461,-1.2735 0.15839,-0.3185 0.32292,-0.6341 0.48047,-0.9531 z"
         clip-path="url(#clipPath3)" /><g
         id="g131"
         inkscape:label="UPPERARM"
         inkscape:transform-center-x="-77.173607"
         inkscape:transform-center-y="26.163757"
         transform="rotate(30,621.37436,1116.7951)"
         style="display:none;stroke-width:1.0904"><path
           style="fill:#000000;fill-opacity:1;stroke:none;stroke-width:1.0904;stroke-linecap:round;stroke-linejoin:round;stroke-dasharray:none;stroke-opacity:1;paint-order:normal"
           id="path125"
           d="m 673.20494,1071.6532 c 10.96459,-12.1835 25.4205,-19.7503 40.22934,-26.1943 17.28631,-6.8492 35.53112,-10.6465 53.73602,-14.1014 12.86399,-2.3538 25.78039,-4.4092 38.68566,-6.5216 8.04793,-1.3119 16.10272,-2.5805 24.15008,-3.8958 0,0 -13.14016,-6.5146 -13.14016,-6.5146 v 0 c -7.91834,1.3699 -15.83386,2.7567 -23.75929,4.0853 -12.82519,2.1423 -25.65623,4.2563 -38.42958,6.6943 -18.14351,3.6612 -36.34061,7.5972 -53.57352,14.5135 -15.30688,6.7297 -29.45513,14.3426 -41.4165,26.2636 z" /><path
           style="fill:#000000;fill-opacity:1;stroke:none;stroke-width:1.0904;stroke-linecap:round;stroke-linejoin:round;stroke-dasharray:none;stroke-opacity:1;paint-order:normal"
           id="path126"
           d="m 685.90819,1084.0387 c 7.59435,0.8879 15.24447,1.0065 22.88048,1.1101 13.11867,0.4661 26.1595,0.054 39.21205,-1.2393 11.65113,-1.536 23.08992,-4.5747 34.31034,-8.0258 10.23262,-3.1472 20.24441,-6.9796 30.16485,-10.9935 7.94796,-3.7709 16.108,-7.1167 23.98811,-11.0196 3.98503,-1.9604 2.05406,-0.9607 5.79787,-2.9895 0,0 -12.26419,-8.0075 -12.26419,-8.0075 v 0 c -3.66588,2.0091 -1.77351,1.008 -5.68154,2.9952 -7.84219,3.8575 -15.8356,7.4168 -23.79844,11.0209 -9.85331,4.0391 -19.7978,7.8965 -30.00811,10.9476 -11.12514,3.4365 -22.47577,6.4105 -34.04506,7.8613 -13.04333,1.2584 -26.08251,1.6618 -39.18554,1.0486 -7.77293,-0.2403 -15.61013,-0.3736 -23.28676,-1.7306 z" /></g><g
         id="g130"
         inkscape:label="FOREARM"
         style="display:inline;stroke-width:1.0904"
         inkscape:transform-center-x="-216.46811"
         inkscape:transform-center-y="-13.901986"
         transform="rotate(30,621.37436,1116.7951)"><path
           style="fill:#000000;fill-opacity:1;stroke:none;stroke-width:1.0904;stroke-linecap:round;stroke-linejoin:round;stroke-dasharray:none;stroke-opacity:1;paint-order:normal"
           id="path127"
           d="m 826.34631,1023.8069 c 7.47737,-8.0454 12.28985,-18.1022 16.87907,-27.95753 7.30777,-17.45801 12.38719,-35.76096 14.58774,-54.57921 0.45816,-3.91808 0.63966,-7.86358 0.95949,-11.79538 0.98806,-19.22929 -0.0634,-38.62833 -4.6519,-57.35903 0,0 -11.02906,-8.6867 -11.02906,-8.6867 v 0 c 5.11022,18.66663 6.43905,38.16201 5.49669,57.45826 -0.30925,3.90111 -0.49364,7.81415 -0.92778,11.70334 -2.08262,18.65737 -7.00851,36.83728 -14.66247,53.98011 -4.59021,9.50652 -9.48332,19.35664 -17.26421,26.70694 z" /><path
           style="fill:#000000;fill-opacity:1;stroke:none;stroke-width:1.0904;stroke-linecap:round;stroke-linejoin:round;stroke-dasharray:none;stroke-opacity:1;paint-order:normal"
           id="path128"
           d="m 837.08984,1053.4526 c 8.3005,-3.0869 15.23229,-9.0102 21.86685,-14.7123 9.25831,-9.3876 17.63122,-20.0108 22.6638,-32.311 1.1919,-2.9131 2.05516,-5.9501 3.08274,-8.92517 0.75462,-3.42528 1.69218,-6.81533 2.26386,-10.27585 1.2611,-7.63375 2.11156,-19.04953 2.55253,-26.63671 0.87518,-15.05784 0.6536,-29.94106 0.0949,-45.00106 -0.94479,-17.4055 -2.97957,-34.72921 -5.85283,-51.91496 0,0 -12.63607,-6.15011 -12.63607,-6.15011 v 0 c 3.48894,17.24843 5.92042,34.68629 6.98969,52.26447 1.18966,27.07586 1.20292,54.63047 -5.39673,81.09389 -1.02054,2.91866 -1.87741,5.8998 -3.06161,8.75593 -5.02387,12.11707 -13.40855,22.54257 -22.80057,31.55147 -6.63098,5.5909 -13.62774,11.4218 -22.1004,13.893 z" /></g><g
         id="g134"
         inkscape:label="PAW"
         style="display:inline;stroke-width:1.0904"><path
           id="path132"
           style="fill:#484559;fill-opacity:1;stroke:none;stroke-width:1.0904;stroke-linecap:round;stroke-linejoin:round;stroke-dasharray:none;stroke-opacity:1;paint-order:normal"
           d="m 977.28906,923.01172 -2.75586,3.04687 -2.68164,-1.28515 c 0.47196,0.819 0.949,1.64128 1.32227,2.51172 0.0271,0.0631 0.0499,0.12795 0.0762,0.1914 l -3.63086,4.01367 c -4.21866,4.66398 -9.71578,14.71489 -12.21484,22.33399 -5.07778,15.48096 -6.04446,50.38088 -1.72266,62.18948 2.52823,6.9077 3.94954,7.5218 13.69922,5.9121 16.0376,-2.6477 29.58457,-10.943 44.53511,-27.2676 19.5184,-21.31227 26.9524,-33.48383 25.3848,-42.93164 0.2678,-0.0984 0.5361,-0.19477 0.8105,-0.27539 0.3957,-0.29529 0.8809,-0.40441 1.3047,-0.63672 l -2.8555,-1.875 c -0.3696,-0.98687 -0.8413,-1.94952 -1.4179,-2.89453 -1.0295,-1.68728 -2.3321,-2.11008 -4.5469,-1.02148 l -3.5312,-2.31836 c -0.3878,0.17996 -0.718,0.45361 -1.1075,0.625 -0.6152,0.34283 -1.2604,0.62734 -1.9082,0.90234 -0.9499,0.40672 -1.8897,0.83403 -2.8633,1.1836 -1.1522,0.54326 -2.2413,1.2128 -3.3964,1.75195 -0.6877,0.33736 -1.3719,0.69037 -2.084,0.97461 -0.2303,0.0919 -0.4723,0.15388 -0.6992,0.2539 -0.3599,0.15863 -0.6709,0.41719 -1.043,0.55274 -1.1117,0.5288 -2.1801,1.15497 -3.1817,1.87109 -0.8278,0.59789 -1.6825,1.13529 -2.6113,1.56641 -0.2198,0.10202 -0.4528,0.1721 -0.6738,0.27148 -0.1787,0.0803 -0.3489,0.17849 -0.5234,0.26758 -1.5661,0.75148 -3.1899,1.38598 -4.8379,1.9336 -0.4085,0.10697 -0.8132,0.22735 -1.2246,0.32226 -1.8086,0.41728 -3.67555,0.66935 -5.53322,0.61719 l 6.63672,4.57617 c -3.6942,-0.14334 -7.5145,-1.1751 -11.60937,-3.11328 -0.42572,-0.2015 -0.83343,-0.43017 -1.23242,-0.67383 l 1.12304,0.53906 c -0.25503,-0.87421 -0.57491,-1.72865 -0.8164,-2.60742 -0.15632,-0.54039 -0.23262,-0.83975 -0.42774,-1.37305 -0.41795,-1.14235 -0.91654,-2.25843 -1.19336,-3.44921 -0.15119,-0.57769 -0.38319,-1.4187 -0.49219,-2.00977 -0.18095,-0.98131 -0.15543,-1.98506 -0.33789,-2.9668 -0.0792,-1.0505 -0.22218,-2.1068 -0.70898,-3.05664 -0.34665,-0.6862 -0.16059,-0.33255 -0.56641,-1.05859 -0.65071,-1.24735 -1.23259,-2.53779 -1.71875,-3.85742 -0.56111,-1.77002 -1.23669,-3.69105 -0.79687,-5.56446 l -6.64258,-3.18164 z"
           inkscape:label="COLOR" /><path
           id="path140"
           style="display:inline;fill:#423b49;fill-opacity:1;stroke:none;stroke-width:1.0904;stroke-linecap:round;stroke-linejoin:round;stroke-dasharray:none;stroke-opacity:1;paint-order:normal"
           d="m 1011.3125,937.7832 -2.0195,0.68555 c -3.3838,1.15092 -4.6304,2.00661 -9.0039,6.17578 l -3.22269,3.07227 c 0.41374,-1.01543 0.82187,-2.03256 1.24804,-3.04297 0.62093,-1.49873 0.33056,-0.77348 0.87305,-2.17578 l -3.16016,-1.75391 c -0.50322,1.41076 -0.23232,0.67936 -0.82226,2.1875 -1.02424,2.49062 -2.03341,4.98874 -3.17969,7.42578 -1.27413,2.75612 -2.36525,5.60555 -3.91797,8.22656 -0.77639,1.21554 -1.13367,1.83622 -2.01758,2.97657 -1.51253,1.95135 -3.32488,3.62869 -5.15234,5.27734 -3.27839,2.68735 -6.69469,5.17019 -10.40039,7.24805 -5.08931,3.41584 -9.97748,7.13669 -14.20313,11.60547 -2.16785,2.2922 -3.00978,3.10044 -5.01171,5.53906 -2.76475,3.36782 -5.21614,7.00083 -7.45118,10.73633 -1.16312,2.0239 -1.63715,2.7771 -2.66406,4.8242 -0.8632,1.7208 -1.75268,3.5746 -1.79883,5.5371 l 3.32227,1.6934 c -0.0522,-0.7911 0.0521,-1.566 0.24414,-2.3223 0.24389,-0.07 2.94134,-0.7054 6.04297,-1.4219 10.34039,-2.3888 13.68654,-3.5085 20.69336,-6.9199 5.97438,-2.9088 10.0618,-5.80425 16.99414,-12.04099 5.18663,-4.6662 7.45174,-7.16735 13.17773,-14.55274 1.57749,-2.03468 3.61179,-4.58509 4.51949,-5.66601 3.5692,-4.25033 6.6051,-8.62191 8.2305,-11.85157 2.0775,-4.12774 2.7255,-7.0929 2.3067,-10.54882 -0.4564,-3.76584 -2.0309,-8.84446 -3.2188,-10.38477 z"
           transform="translate(20.927091,7.8476591)" /><path
           style="fill:#000000;fill-opacity:1;stroke:none;stroke-width:1.0904;stroke-linecap:round;stroke-linejoin:round;stroke-dasharray:none;stroke-opacity:1;paint-order:normal"
           id="path118"
           d="m 961.8431,1022.0923 c -4.40894,-7.2605 -6.14973,-15.8818 -7.5619,-24.14473 -1.0589,-9.58595 -0.96603,-19.39657 0.79976,-28.90459 0.98658,-5.31226 2.03182,-8.08043 3.65006,-13.20153 2.29997,-6.48987 5.08657,-12.86533 9.56765,-18.16865 0.3105,-0.3674 4.57367,-4.79842 5.04548,-5.28993 3.12094,-2.5389 6.56494,-5.67409 10.62864,-6.64118 0.59335,-0.14147 1.21618,-0.0958 1.82427,-0.14373 0.54277,0.0983 1.1014,0.13188 1.62833,0.29506 0.57248,0.17736 2.22545,0.87964 1.64784,0.71955 -5.24318,-1.4535 -10.36952,-3.33355 -15.66009,-4.60387 -0.63112,-0.15156 1.05357,0.7645 1.52562,1.20996 1.22881,1.15952 1.76716,2.01859 2.75951,3.36833 3.218,5.22741 4.64957,11.31345 6.11097,17.21319 1.14016,3.84424 1.11545,8.15515 3.35736,11.58398 5.26215,4.90206 16.0118,8.64303 23.3837,5.53486 1.4512,-0.61187 2.9297,-1.65689 4.2355,-2.50289 3.4602,-2.99414 6.4945,-6.43097 9.943,-9.44396 3.1463,-2.48498 7.177,-3.34839 10.9744,-4.35279 0.9053,-0.0205 1.8131,-0.1312 2.7159,-0.0616 0.9203,0.0709 1.8181,0.32071 2.7271,0.48108 -4.8881,-1.44233 -9.7372,-3.02383 -14.6643,-4.32702 -0.7583,-0.20055 1.4453,0.61912 2.1251,1.01035 1.6856,0.96975 1.8233,1.32059 3.1464,2.71954 2.9981,4.37718 4.2394,9.53617 4.4348,14.76851 -0.7814,7.00942 -5.1295,12.66425 -9.2994,18.08546 -5.0601,5.71825 -9.2134,12.19874 -14.5366,17.675 -4.0716,3.93521 -8.3157,7.7123 -12.83464,11.1292 -4.32612,3.3355 -9.36618,5.6463 -14.36762,7.787 -3.75176,1.5603 -7.69162,2.5655 -11.62935,3.5239 -4.63849,1.1037 -9.28646,2.1661 -13.92983,3.2492 -2.76377,0.5948 -5.47125,0.7833 -8.25782,0.2923 -0.83232,-0.1467 -3.27954,-0.8106 -2.47401,-0.5549 19.40045,6.1595 19.43688,6.2281 13.06429,3.7878 0,0 -18.09828,-2.814 -18.09828,-2.814 v 0 c 7.9089,3.7411 3.29726,1.6777 21.46077,6.8836 1.29539,0.3712 3.84251,0.4819 5.16731,0.4135 1.96588,-0.1014 3.8181,-0.5137 5.74724,-0.8709 4.75689,-1.0282 9.51999,-2.0355 14.25535,-3.1581 3.94356,-1.0142 7.85151,-2.2129 11.56829,-3.8938 5.0321,-2.3273 10.1185,-4.7474 14.4789,-8.2126 4.4819,-3.5544 8.8377,-7.2706 12.7434,-11.4624 5.1799,-5.65239 9.3795,-12.12185 14.4393,-17.88788 4.5316,-5.73579 8.9442,-11.73791 9.9642,-19.17862 -0.1245,-5.6403 -1.1898,-10.90285 -3.9724,-15.87704 -1.2996,-1.84914 -2.9382,-3.99479 -5.2131,-4.76265 -9.6698,-3.26371 -16.2993,-7.18128 -25.4913,-5.85808 -4.0858,1.08803 -8.3458,2.09786 -11.515,5.08462 -3.2082,3.06134 -6.0699,6.51455 -9.63772,9.16693 -1.59619,0.87729 -2.39676,1.4556 -4.14622,1.91286 -0.6181,0.16154 -1.25818,0.24278 -1.89591,0.28096 -0.54898,0.0328 -2.16617,-0.25443 -1.64843,-0.069 13.15008,4.71073 22.03718,6.47315 15.27458,5.10235 -3.1755,-2.13504 -2.8514,-7.49202 -4.1038,-10.79186 -1.55721,-6.01544 -2.93445,-12.19879 -5.7051,-17.7913 -0.64225,-0.97082 -3.05004,-4.91833 -4.06251,-5.32511 -4.49808,-1.80727 -15.10997,-7.31126 -22.59379,-6.80494 -4.89351,1.36329 -8.92886,4.48111 -12.50164,8.0243 -1.2571,1.40788 -3.74384,4.14743 -4.8419,5.57945 -4.33911,5.65876 -7.07154,12.11986 -9.14943,18.90748 -1.67079,5.40364 -2.62017,7.90062 -3.63114,13.5082 -1.73877,9.6442 -1.84998,19.57767 -1.09156,29.31765 0.2713,2.19445 0.44649,4.40294 0.81394,6.58338 1.03367,6.1338 2.91685,12.1684 5.04753,17.9977 z"
           inkscape:label="STROKE"
           inkscape:transform-center-x="-307.6656"
           inkscape:transform-center-y="-129.73935" /></g><g
         id="g136"
         inkscape:label="LINE"
         style="display:none;stroke-width:1.0904"><path
           style="display:inline;fill:#f7f7f7;fill-opacity:1;stroke:none;stroke-width:1.0904;stroke-linecap:round;stroke-linejoin:round;stroke-dasharray:none;stroke-opacity:1;paint-order:normal"
           id="path135"
           d="m 679.51328,1060.2822 c -9.63235,0.7348 -19.26759,1.4402 -28.89326,2.2663 -9.22585,0.8129 -18.54578,2.0991 -27.32348,5.1954 -4.64774,1.6395 -6.04559,2.5655 -10.33997,4.8203 -5.54081,3.7998 -10.20619,8.6355 -13.05914,14.7707 -1.43612,3.0883 -1.64796,4.435 -2.50936,7.6694 -1.04651,5.1157 -1.11918,10.3658 -0.11266,15.4945 0.58126,2.9618 1.16657,4.524 2.07494,7.3782 2.10951,5.5447 4.86851,10.8516 8.67305,15.4323 0.74553,0.8977 1.55986,1.7358 2.33979,2.6037 8.04364,8.3147 18.50867,13.2518 28.47922,18.8411 5.81742,2.7139 11.9181,4.768 18.00236,6.7921 4.91672,1.3805 9.78336,2.9166 14.59309,4.6316 0.86788,0.2734 1.7408,0.5313 2.60365,0.8202 2.87583,0.9628 5.71252,1.943 8.65638,2.6938 2.17674,0.5551 3.92397,0.8934 6.12235,1.351 4.69322,0.9089 9.43788,1.552 14.21287,1.791 2.49733,0.114 4.99783,0.1439 7.49744,0.1645 1.78235,-0.034 3.56518,-0.016 5.34769,-0.01 1.55961,-0.014 3.11932,-9e-4 4.67894,0.01 1.75515,0.1517 2.97834,-0.1303 4.6245,-0.6622 1.2292,-0.4494 2.5017,-0.7685 3.73624,-1.2039 0,0 -12.21318,-8.2997 -12.21318,-8.2997 v 0 c -1.24936,0.3702 -2.48476,0.7806 -3.73124,1.1597 -1.44723,0.3867 -2.9071,0.3286 -4.39619,0.3023 -1.55357,0.01 -3.10717,0.02 -4.66075,0.011 -1.7703,0.018 -3.54067,0.05 -5.31112,0.037 -2.38167,0.046 -4.76428,0.083 -7.14559,-0.01 -4.56621,-0.2332 -9.12614,-0.6607 -13.60521,-1.6186 -5.94099,-1.3063 -11.74831,-3.021 -17.45244,-5.1427 -4.82284,-1.677 -9.69956,-3.18 -14.60283,-4.6045 -5.96317,-1.9548 -11.95461,-3.8919 -17.57555,-6.7228 2.84891,1.7037 5.7148,3.3792 8.54673,5.1109 0.97722,0.5975 -2.00892,-1.1034 -2.98185,-1.708 -3.90225,-2.4248 -7.54886,-5.2826 -10.85694,-8.466 -1.91516,-2.0517 -2.74579,-2.8357 -4.43849,-5.0653 -2.90015,-3.82 -5.13489,-8.0594 -6.92302,-12.5011 -0.97285,-2.8102 -1.57189,-4.2714 -2.20602,-7.194 -1.07513,-4.9552 -1.11313,-10.0471 -0.14309,-15.0215 0.7209,-3.1152 0.90433,-4.5058 2.17151,-7.4957 2.54112,-5.9958 6.81072,-10.7996 12.2401,-14.3557 4.07274,-2.1919 5.55033,-3.1628 9.94354,-4.7988 8.54984,-3.184 17.63591,-4.5589 26.68539,-5.311 10.41785,-0.713 20.89172,-1.3316 31.31872,-0.3915 z" /><path
           style="fill:#f7f7f7;fill-opacity:1;stroke:none;stroke-width:1.0904;stroke-linecap:round;stroke-linejoin:round;stroke-dasharray:none;stroke-opacity:1;paint-order:normal"
           d="m 662.91548,1155.5192 c -2.27454,-0.2952 -6.46643,-1.1261 -9.31531,-1.8465 -7.60106,-1.9222 -38.45946,-12.1065 -42.55951,-14.0462 -3.67548,-1.7387 -11.56116,-9.0994 -14.66992,-13.6932 -2.54726,-3.7641 -5.9965,-11.4119 -7.12168,-15.7904 -1.27406,-4.958 -1.28661,-14.0255 -0.0261,-18.8649 2.94667,-11.313 11.13419,-19.487 24.2162,-24.1763 9.45248,-3.3883 19.52609,-4.8922 40.28744,-6.0148 l 6.94869,-0.3757 0.7052,2.8006 c 0.9596,3.8109 3.561,6.1215 12.69645,11.2771 4.22394,2.3838 8.00482,4.9414 8.40198,5.6834 1.02918,1.9231 1.04141,6.92 0.0382,15.6033 -0.75875,6.5673 -0.73991,8.2966 0.14612,13.4064 1.69556,9.7785 3.44417,14.3333 8.77988,22.8698 2.34816,3.7568 3.38927,8.9988 3.39678,17.1028 l 0.005,5.3313 -2.0595,0.7179 c -2.37779,0.8289 -23.51733,0.8398 -29.86984,0.015 z"
           id="path136"
           transform="translate(20.927091,7.8476591)" /><path
           style="display:inline;fill:#dedede;fill-opacity:1;stroke:none;stroke-width:1.0904;stroke-linecap:round;stroke-linejoin:round;stroke-dasharray:none;stroke-opacity:1;paint-order:normal"
           id="path141"
           d="m 675.91677,1029.2578 c -0.35662,2.7966 -0.92734,5.5566 -1.30322,8.353 -0.0372,0.4739 -0.10602,0.9461 -0.11165,1.4215 -0.008,0.7179 0.0462,1.4349 0.0694,2.1524 -10e-4,0.7563 0.007,1.5128 -0.004,2.2691 -0.0267,1.8848 -0.13147,3.7676 -0.18763,5.6513 -0.0366,2.7229 -0.0578,5.4438 -0.16581,8.1646 -0.11011,2.1616 0.89515,4.0931 1.53786,6.0759 0.53071,2.3121 1.41484,4.4333 2.61844,6.4108 1.03861,1.5857 2.23338,3.0483 3.5301,4.3848 0.4796,0.4704 0.53975,0.557 1.07257,0.967 4.35775,3.3526 12.10712,7.7173 14.42608,9.2029 3.92362,2.5137 -7.87555,-4.9737 -11.81333,-7.4606 1.90772,1.5097 3.94517,2.7913 5.83372,4.3322 2.1136,1.6719 3.81482,3.8272 5.1682,6.2522 0.86773,1.8735 1.22061,3.9451 1.50828,6.0021 0.38362,2.3609 0.69514,4.7345 0.90041,7.122 0.17721,2.7973 0.29865,5.5996 0.35218,8.4028 0.0555,2.7693 -0.091,5.5347 -0.12738,8.3028 -0.036,2.1152 -0.0151,4.2293 -0.0328,6.3449 1.6e-4,2.1868 0.13279,4.3697 0.48895,6.5212 0.50938,2.2775 1.30092,4.4726 2.23274,6.5797 0.79798,1.8298 1.82384,3.5169 2.63048,5.3422 0.83981,1.9402 1.35117,3.9934 1.73384,6.0896 0.35773,2.3496 0.64107,4.7128 0.90444,7.0771 0.27939,2.9677 0.97194,5.8605 1.48916,8.7832 0.41577,2.7102 0.774,5.4302 1.21493,8.1358 0.41239,2.064 0.96588,4.0923 1.48453,6.1271 0.24163,0.9989 0.11594,0.4954 0.37752,1.5101 0,0 13.26765,6.8803 13.26765,6.8803 v 0 c -0.29318,-1.0091 -0.14942,-0.494 -0.43016,-1.5453 -0.60449,-2.0083 -1.22247,-4.0213 -1.64418,-6.0858 -0.68957,-2.6859 -1.03884,-5.464 -1.4733,-8.2089 -0.48916,-2.8448 -1.14004,-5.679 -1.31007,-8.5725 -0.27346,-2.3766 -0.57878,-4.7478 -0.88503,-7.1192 -0.22494,-2.2114 -0.72269,-4.3836 -1.51951,-6.4348 -0.68864,-1.9047 -1.61583,-3.646 -2.59474,-5.3844 -0.88452,-2.0421 -1.95029,-4.0112 -2.44795,-6.228 -0.3579,-2.0497 -0.5892,-4.1401 -0.55472,-6.2297 -0.0168,-2.1261 0.005,-4.2507 -0.0262,-6.3764 -0.0314,-2.8208 -0.16868,-5.6387 -0.13368,-8.4604 0.0245,-2.803 0.14396,-5.6125 -0.0959,-8.4093 -0.18968,-2.4003 -0.44474,-4.7967 -0.73202,-7.1812 -0.40189,-2.1936 -0.54262,-4.4657 -1.42948,-6.5221 -0.67291,-1.5378 -1.13354,-2.1846 -2.0982,-3.5092 -0.89914,-1.2346 -1.77135,-2.4893 -2.96792,-3.4098 -1.01029,-0.8847 -1.99271,-1.7911 -3.08996,-2.546 -0.55993,-0.3853 -1.17202,-0.68 -1.71064,-1.1001 -0.24242,-0.1891 -0.449,-0.4281 -0.67349,-0.6422 -16.25758,-10.4433 -18.35957,-11.7545 -1.32325,-0.9548 0.20582,0.1305 -0.4146,-0.2554 -0.61931,-0.3878 -0.19759,-0.128 -0.39165,-0.2624 -0.58747,-0.3935 -0.20025,-0.1195 -0.40432,-0.2315 -0.60075,-0.3583 -0.2018,-0.1303 -0.39551,-0.2751 -0.59327,-0.4126 -1.38749,-1.2366 -2.66261,-2.5957 -3.79524,-4.1187 -1.30508,-1.8025 -2.41029,-3.7164 -2.84549,-6.0049 -0.22664,-0.7506 -0.42013,-1.5131 -0.65471,-2.2608 -0.25536,-0.8139 -0.68895,-1.6099 -0.88583,-2.4434 -0.0658,-0.2787 -0.0769,-0.5696 -0.11527,-0.8544 -0.11532,-2.7801 -0.15331,-5.5604 -0.17604,-8.3431 -0.0533,-2.6507 -0.1892,-5.315 0.009,-7.9627 0.048,-0.64 0.15386,-1.2732 0.21634,-1.9116 0.0443,-0.4527 0.0693,-0.9073 0.10393,-1.3609 0.23924,-2.7184 0.53805,-5.4959 1.63161,-7.986 z" /><path
           style="display:inline;fill:#000000;fill-opacity:1;stroke:none;stroke-width:1.0904;stroke-linecap:round;stroke-linejoin:round;stroke-dasharray:none;stroke-opacity:1;paint-order:normal"
           id="path122"
           d="m 687.02836,1043.0804 c -2.37171,4.2952 -3.32609,9.0571 -4.0565,13.8523 -0.45765,4.9122 -1.33584,9.9247 -0.32808,14.8076 1.02489,3.0591 3.23836,5.2807 6.00038,6.8586 4.76083,2.7197 9.55652,5.378 14.33477,8.067 0.58566,0.2055 1.1822,0.3824 1.75698,0.6167 2.02211,0.8242 4.51564,2.3519 3.54233,1.7915 -5.82246,-3.3526 -27.45903,-15.6551 3.53486,2.0314 3.65203,2.084 -7.29795,-4.1787 -10.94692,-6.268 3.51265,2.2878 3.94308,6.2635 3.97737,10.1096 -0.57893,3.9107 -1.12441,7.8143 -1.46479,11.7557 -0.72993,6.4311 0.73256,12.7013 2.38757,18.8699 0.92531,3.112 1.93394,6.2135 3.56101,9.042 1.17041,2.0346 2.69985,3.8447 3.94576,5.8349 2.30643,4.2876 2.58516,9.1394 2.82148,13.8987 0.57258,6.3684 -0.3502,12.8422 0.67332,19.1733 0.22099,1.367 0.60316,2.7029 0.90475,4.0544 1.9745,5.1945 0.8708,2.7225 3.27114,7.4336 0,0 13.03692,5.8508 13.03692,5.8508 v 0 c -2.56765,-4.5171 -1.39878,-2.1488 -3.47531,-7.1204 -0.90365,-3.5416 -1.27172,-4.28 -1.48501,-7.9659 -0.2861,-4.9441 0.29113,-9.9336 0.0546,-14.8823 -0.18083,-4.9189 -0.29294,-9.9546 -2.44617,-14.4891 -0.364,-0.6968 -0.661,-1.4329 -1.092,-2.0904 -0.88038,-1.3429 -2.10588,-2.4358 -2.99675,-3.7718 -1.79693,-2.6948 -2.86805,-5.7454 -3.84803,-8.8079 -1.64404,-5.9814 -3.12911,-12.0208 -2.31249,-18.2717 0.30549,-3.9795 0.90495,-7.9041 1.58003,-11.835 0.0144,-4.0596 -0.16473,-8.5731 -3.3721,-11.4917 -43.95791,-25.4734 0.90336,0.5077 -3.45049,-1.9636 -6.56457,-3.7262 -12.64403,-7.9694 -19.65191,-10.6749 3.62493,2.1305 7.26079,4.2424 10.87478,6.3914 0.54887,0.3263 -1.13069,-0.5952 -1.67857,-0.9232 -2.02948,-1.215 -3.71393,-2.752 -4.78524,-4.8932 -1.50008,-4.6183 -0.41656,-9.6194 -0.10544,-14.3647 0.67863,-4.6136 1.51239,-9.3163 4.24447,-13.2198 z"
           inkscape:label="LINE" /></g></g></g></svg>
