<?xml version="1.0" encoding="UTF-8" standalone="no"?>
<!-- Created with Inkscape (http://www.inkscape.org/) -->

<svg
   width="518.9801"
   height="208.94171"
   viewBox="0 0 518.9801 208.94172"
   version="1.1"
   id="svg1"
   inkscape:version="1.3.2 (091e20e, 2023-11-25, custom)"
   sodipodi:docname="bird.svg"
   xml:space="preserve"
   xmlns:inkscape="http://www.inkscape.org/namespaces/inkscape"
   xmlns:sodipodi="http://sodipodi.sourceforge.net/DTD/sodipodi-0.dtd"
   xmlns:xlink="http://www.w3.org/1999/xlink"
   xmlns="http://www.w3.org/2000/svg"
   xmlns:svg="http://www.w3.org/2000/svg"><sodipodi:namedview
     id="namedview1"
     pagecolor="#ffffff"
     bordercolor="#000000"
     borderopacity="0.25"
     inkscape:showpageshadow="2"
     inkscape:pageopacity="0.0"
     inkscape:pagecheckerboard="false"
     inkscape:deskcolor="#3d3d3d"
     inkscape:document-units="px"
     inkscape:zoom="0.540625"
     inkscape:cx="474.45087"
     inkscape:cy="788.90173"
     inkscape:window-width="1366"
     inkscape:window-height="715"
     inkscape:window-x="1358"
     inkscape:window-y="-8"
     inkscape:window-maximized="1"
     inkscape:current-layer="g76" /><defs
     id="defs1"><linearGradient
       id="linearGradient54"
       inkscape:collect="always"><stop
         style="stop-color:#f9f9f9;stop-opacity:1;"
         offset="0"
         id="stop54" /><stop
         style="stop-color:#60acc9;stop-opacity:1;"
         offset="1"
         id="stop55" /></linearGradient><linearGradient
       inkscape:collect="always"
       xlink:href="#linearGradient54"
       id="linearGradient55"
       x1="455.16422"
       y1="-5.2317729"
       x2="444.70068"
       y2="1825.8887"
       gradientUnits="userSpaceOnUse"
       gradientTransform="matrix(1,0,0,0.9816273,0,35.661191)" /><clipPath
       clipPathUnits="userSpaceOnUse"
       id="clipPath60"><path
         id="path60"
         style="fill:#ff0000;fill-opacity:1;fill-rule:nonzero;stroke:none"
         d="m 168.79492,784.20312 v 67.89844 h 504.5293 v -67.89844 z m 18.69531,15.75391 c 0.38451,0.0164 0.71643,0.16705 0.95508,0.41602 0.3551,0.14293 0.62387,0.41086 0.75977,0.76172 0.32906,0.19061 0.7268,0.30161 1.00586,0.54882 0.14344,-0.0345 0.28915,-0.0613 0.43554,-0.0586 0.45435,0.009 1.0218,-0.12333 1.34961,0.19141 0.56405,0.54157 0.69238,1.40262 1.03907,2.10351 -0.14507,0.31874 -0.24822,0.65796 -0.4336,0.95508 -0.22997,0.36859 -0.93319,0.98024 -1.23828,1.24805 -0.80621,0.70768 -1.64187,1.3799 -2.4707,2.06054 -0.3687,0.2823 -1.07694,0.84519 -1.4961,1.0918 -0.27191,0.15998 -0.538,0.49538 -0.8457,0.42578 -0.59804,-0.13524 -1.2209,-0.33513 -1.74609,-0.66211 -0.0555,0.11165 -0.11178,0.2229 -0.16797,0.33399 -0.37399,0.81511 -0.8903,1.66266 -2.04102,1.54492 -0.52269,-0.0535 -0.90331,-0.53514 -1.35547,-0.80274 -0.0865,-0.19056 -0.19326,-0.37381 -0.25976,-0.57226 -0.18665,-0.55715 -0.0669,-1.17837 0.0859,-1.72461 0.0376,-0.11596 0.0806,-0.23104 0.12695,-0.34375 -0.10784,-0.237 -0.20952,-0.4765 -0.30274,-0.7168 -0.0194,-0.05 0.48449,-0.5129 0.59376,-0.61523 0.54564,-0.50083 0.98625,-1.10443 1.43359,-1.69141 0.0369,-0.0503 0.076,-0.0985 0.11328,-0.14844 0.0551,-0.12541 0.11371,-0.2497 0.17773,-0.37109 0.36769,-0.62933 0.80754,-1.20837 1.29102,-1.75391 0.27166,-0.31941 0.52227,-0.65543 0.78711,-0.98046 0.67783,-0.83169 1.41165,-1.20321 2.03516,-1.23829 0.057,-0.003 0.11303,-0.004 0.16796,-0.002 z m -6.10351,8.17774 c -0.0175,0.0336 -0.0343,0.0677 -0.0547,0.0977 -0.003,0.004 -0.002,0.0206 0,0.0156 0.0194,-0.0371 0.0369,-0.0754 0.0547,-0.11328 z" /></clipPath><linearGradient
       inkscape:collect="always"
       xlink:href="#linearGradient54"
       id="linearGradient2"
       gradientUnits="userSpaceOnUse"
       gradientTransform="matrix(1,0,0,0.9816273,0,35.661191)"
       x1="455.16422"
       y1="-5.2317729"
       x2="444.70068"
       y2="1825.8887" /></defs><g
     inkscape:label="bird full"
     inkscape:groupmode="layer"
     id="layer1"
     style="display:none"
     transform="translate(-491.06607,-111.85098)"><rect
       style="display:none;fill:url(#linearGradient2);fill-opacity:1;stroke:none;stroke-width:5.8;stroke-linecap:round;stroke-linejoin:bevel;stroke-opacity:1;paint-order:stroke fill markers"
       id="rect54"
       width="1077.7452"
       height="1956.683"
       x="0"
       y="-15.695317"
       ry="24.512314"
       sodipodi:insensitive="true" /></g><g
     inkscape:label="bird full"
     inkscape:groupmode="layer"
     id="g119"
     transform="translate(-491.06607,-111.85098)"><rect
       style="display:none;fill:url(#linearGradient55);fill-opacity:1;stroke:none;stroke-width:5.8;stroke-linecap:round;stroke-linejoin:bevel;stroke-opacity:1;paint-order:stroke fill markers"
       id="rect89"
       width="1077.7452"
       height="1956.683"
       x="0"
       y="-15.695317"
       ry="24.512314"
       sodipodi:insensitive="true" /><g
       id="g96"
       inkscape:label="body"
       style="display:inline"
       transform="translate(325.54913,-638.15029)"><path
         style="display:inline;fill:#ffc97e;fill-opacity:1;stroke:none;stroke-width:5.8;stroke-linecap:round;stroke-linejoin:bevel;stroke-opacity:1;paint-order:stroke fill markers"
         d="m 408.63361,949.51267 c -9.08793,-1.0722 -24.138,-5.5901 -34.95254,-10.49247 -9.84064,-4.46087 -25.56893,-15.47928 -51.27308,-35.91923 -29.80343,-23.69968 -65.9482,-47.29661 -93.90762,-61.3071 -19.4637,-9.75328 -23.50667,-11.07798 -37.54067,-12.30043 l -10.46354,-0.91144 -0.37407,-12.72946 c -0.33712,-11.47207 -0.15695,-12.64615 1.82406,-11.88596 1.28051,0.49138 2.8017,0.0249 3.64393,-1.11728 2.1405,-2.90295 5.95008,-4.56416 12.71521,-5.54464 7.53038,-1.09138 13.40026,0.87033 24.69902,8.25441 31.08464,20.31472 68.07846,27.37504 99.99108,19.08345 15.67127,-4.07174 17.00086,-4.60859 71.34948,-28.80863 52.18401,-23.2362 67.98546,-29.27013 80.4385,-30.71618 33.9064,-3.93721 50.28659,-5.19462 77.82262,-5.97398 22.28099,-0.63063 32.86095,-0.4273 38.45849,0.73911 7.36811,1.53536 45.33678,17.78 56.36739,24.11641 2.87748,1.65293 8.01426,4.04797 11.41505,5.3223 l 6.18328,2.31696 -2.41869,3.4304 c -3.96257,5.62006 -8.73749,15.91585 -11.90298,25.66544 -1.63495,5.03558 -5.6461,14.69293 -8.91368,21.46078 -4.95546,10.26379 -8.01847,14.47065 -18.46323,25.35819 -17.05811,17.78124 -34.04072,31.68677 -53.7008,43.97075 -27.59178,17.23987 -50.99902,26.82037 -79.97108,32.73189 -19.95311,4.07128 -65.84054,7.0483 -81.02613,5.25671 z"
         id="path90"
         inkscape:label="color" /><g
         id="g92"
         inkscape:label="belly"
         style="opacity:0.616"><path
           style="display:inline;fill:#cccccc;fill-opacity:1;stroke:none;stroke-width:5.79999;stroke-linecap:round;stroke-linejoin:bevel;stroke-opacity:1;paint-order:stroke fill markers"
           d="m 404.25931,951.85376 c -9.28075,-1.80674 -23.36931,-6.54154 -32.69221,-10.987 -9.36285,-4.46452 -24.36276,-15.16358 -43.25928,-30.85576 -8.66994,-7.19974 -18.7526,-15.54894 -22.40593,-18.55377 -3.65333,-3.00482 -14.17138,-10.74322 -23.37344,-17.19643 -9.20208,-6.45321 -16.48257,-11.73311 -16.17888,-11.73311 0.30369,0 5.84867,1.12749 12.32219,2.50553 8.7743,1.86784 16.89282,4.63157 31.89725,10.85861 23.90825,9.92227 34.71797,14.08943 43.35515,16.71351 23.2252,7.05608 67.3085,7.70956 85.75895,1.27125 10.05117,-3.50738 13.60034,-5.46909 23.28923,-12.87264 11.29669,-8.63211 17.07415,-11.82695 28.70284,-15.87222 20.42575,-7.10551 38.5494,-9.59182 69.9281,-9.59314 20.82803,-8.8e-4 72.58744,1.83716 73.32083,2.60371 0.7589,0.79322 -13.4047,15.24516 -26.69446,27.23792 -25.24199,22.77854 -59.03818,43.49213 -85.89084,52.64223 -29.31245,9.9883 -51.19629,13.41205 -94.67306,14.81172 -11.67153,0.37574 -17.74752,0.12124 -23.40644,-0.98041 z"
           id="path91" /><path
           style="fill:#ffae3f;fill-opacity:1;stroke:none;stroke-width:5.8;stroke-linecap:round;stroke-linejoin:bevel;stroke-opacity:1;paint-order:stroke fill markers"
           id="path92"
           d="m 634.97186,856.09587 c -1.38803,0.042 -2.77543,0.13235 -4.16407,0.12591 -5.53482,-0.0257 -11.06567,-0.30324 -16.59836,-0.46036 -13.1083,-0.37225 -26.21597,-0.65651 -39.32725,-0.89834 -19.02171,0.0206 -38.16012,-1.0582 -57.14131,0.75245 -8.93224,0.85206 -13.75331,1.94023 -22.37501,3.55658 -8.82653,2.0919 -17.80866,4.14348 -26.12726,7.89402 -3.2573,1.46859 -4.49586,2.30798 -7.47667,4.078 -5.68733,3.51864 -10.78084,7.88587 -16.39027,11.50672 -5.48679,3.65374 -11.74368,5.61233 -17.97742,7.50027 -5.88641,1.80458 -12.01454,2.2547 -18.12288,2.52683 -7.3916,0.22784 -14.78796,0.18561 -22.18201,0.17162 -7.47605,0.3828 -14.85896,-0.82973 -22.26214,-1.66752 -8.07606,-0.98239 -15.89809,-3.41474 -23.67476,-5.73886 -7.87635,-2.98497 -15.79039,-5.85954 -23.68123,-8.8088 -6.91465,-2.99606 -13.91378,-5.77859 -20.8685,-8.67688 -4.08472,-1.88419 -8.41546,-3.26797 -12.7548,-4.43566 -3.79503,-0.82578 -7.67763,-1.15163 -11.45296,-2.0619 -4.83638,-1.44345 -9.82743,-2.06045 -14.83632,-2.46782 -0.74025,-0.0458 -1.4805,-0.0916 -2.22075,-0.13738 0,0 8.73163,6.47938 8.73163,6.47938 v 0 c 0.7256,0.0447 1.4512,0.0894 2.1768,0.13409 4.98443,0.42927 9.91491,1.20401 14.73717,2.58258 3.82293,0.82246 7.71719,1.26675 11.52302,2.17789 4.25018,1.2036 8.48122,2.55314 12.50175,4.40563 6.91741,2.838 13.86959,5.58556 20.74377,8.52967 7.87045,2.9159 15.73545,5.84532 23.63273,8.6808 7.87069,2.31669 15.7581,4.84328 23.9453,5.7123 7.41318,0.81904 14.80949,1.92981 22.29269,1.54594 7.43178,0.008 14.86601,0.0561 22.29563,-0.1505 6.17263,-0.28968 12.35094,-0.82914 18.2716,-2.74899 6.31392,-1.95529 12.61936,-4.05549 18.20081,-7.72245 5.4836,-3.74351 10.61123,-7.99362 16.21592,-11.56754 10.03886,-6.21303 21.00078,-9.60821 32.41993,-12.35329 9.29082,-1.91323 12.13511,-2.7237 21.92885,-3.72921 18.88819,-1.93925 37.9453,-1.01737 56.88293,-0.84814 20.65947,0.53855 41.3004,1.39722 61.93173,2.55856 z" /></g><g
         id="g95"
         style="display:inline"
         inkscape:label="top"><path
           style="display:inline;fill:#ba5c3a;fill-opacity:1;stroke:none;stroke-width:5.8;stroke-linecap:round;stroke-linejoin:bevel;stroke-opacity:1;paint-order:stroke fill markers"
           id="path93"
           d="m 648.81216,781.20266 c -2.51793,0.69792 -5.07082,1.1373 -7.66916,1.40623 -3.27093,0.28272 -6.50905,0.79613 -9.78712,1.02599 -3.28853,0.18047 -6.58247,0.21399 -9.87518,0.20906 -2.61713,-0.0314 -5.2342,-0.0128 -7.8514,-0.0215 -2.80375,0.005 -5.60727,0.0144 -8.41103,-4.5e-4 -2.35566,-0.0176 -4.71135,-0.011 -7.06705,-0.0184 -2.38381,-0.0246 -4.76688,0.0235 -7.15066,0.0231 -2.69117,-0.0306 -5.38214,0.005 -8.07329,0.005 -2.59847,-0.0115 -5.19692,-0.012 -7.79539,-0.0237 -2.40784,-0.36071 -4.79711,-0.89398 -7.15018,-1.51834 -2.71688,-1.21525 -5.56251,-2.10495 -8.37858,-3.05556 -2.25686,-0.70719 -4.62155,-0.91754 -6.95303,-1.25143 -4.32329,-0.40006 -8.66815,-0.45725 -13.0066,-0.5074 -4.77865,0.0113 -9.55685,-0.0681 -14.33534,-0.0954 -3.16396,-0.0226 -6.32812,-0.0249 -9.49216,-0.0175 -3.03578,0.0324 -6.07176,-0.002 -9.1075,-0.0235 -7.19138,0.0515 -6.2062,-1.47481 5.27658,6.54297 2.60725,-0.0691 5.21382,-0.12536 7.82213,-0.13339 3.87359,0.0419 7.74702,0.009 11.62067,0.006 3.26244,0.11099 6.55052,-0.16167 9.79915,0.19831 2.69931,0.36977 5.42073,0.56697 8.14074,0.70811 3.94458,0.1705 7.8236,1.34984 11.65752,2.2703 3.20615,0.77668 6.36599,1.68407 9.63433,2.17282 3.11856,0.27516 6.2597,0.2473 9.38857,0.24048 3.30437,-0.0163 6.60873,0.0104 9.91309,0.009 2.66805,0.0292 5.3359,-6.4e-4 8.00388,-0.007 3.84088,-0.0794 7.68279,-0.0345 11.52409,-0.0226 3.19671,0.0189 6.39239,0.0305 9.58895,-0.004 3.8284,-0.002 7.65697,-0.0213 11.48536,-0.004 2.1526,0.24895 4.45839,-0.37155 6.58332,0.17782 0.28867,0.0746 0.52885,0.27555 0.79327,0.41332 -3.11648,-1.79354 -6.23296,-3.58707 -9.34945,-5.38061 -0.0866,-0.0599 -0.15622,-0.1979 -0.25994,-0.17963 -0.49831,0.0878 -0.96022,0.31947 -1.44032,0.47921 -0.90105,0.17714 -1.79835,0.37453 -2.70314,0.53143 -4.3529,0.75486 -8.72113,1.15544 -13.11923,1.53469 -9.16388,0.67944 -18.35646,0.76942 -27.54084,0.8433 -6.08362,0.002 -12.16724,-0.0588 -18.25028,-0.13977 -3.93449,-0.2765 -7.91612,-0.64255 -11.73205,-1.67089 -2.83898,-0.96361 -5.73316,-1.61673 -8.70851,-1.94903 -3.51982,-0.77113 -7.13256,-0.745 -10.71492,-0.87001 -3.66073,-0.061 -7.28634,-0.61687 -10.93147,-0.91448 -3.45737,-0.30728 -6.92983,-0.1461 -10.39448,-0.11777 -3.2201,0.002 -6.44068,0.0685 -9.66081,0.0501 -0.94938,-0.005 -1.89919,-0.0887 -2.84776,-0.0491 -0.33924,0.0142 -1.27584,0.0161 -0.99681,0.2096 3.51175,2.43497 7.29298,4.45628 10.93947,6.68442 12.29657,0.16407 24.58886,0.512 36.87971,0.90955 6.05799,0.22276 12.12019,0.31006 18.18181,0.3542 4.03951,-0.11376 8.12244,0.29261 12.13218,-0.26151 0.0374,-0.007 2.84835,-0.49466 3.10548,-0.63155 0.24591,-0.13092 0.72795,-0.51084 0.4994,-0.67014 -3.34191,-2.32936 -6.83935,-4.45879 -10.47994,-6.28646 -0.63491,-0.31874 -1.42046,-0.0343 -2.13081,-0.0445 -1.04612,-0.015 -2.09235,-0.0208 -3.13852,-0.0312 -12.65085,0.0354 -25.30104,0.14444 -37.95214,0.12171 -10.76046,0.007 -21.51939,-0.19585 -32.27914,-0.28227 -4.91199,-0.0308 -9.82357,-0.0908 -14.73518,-0.15727 -3.51355,-0.0205 -7.02718,0.0396 -10.541,0.0329 -4.39266,-0.11232 -8.76542,0.30999 -13.14302,0.59439 -4.40108,0.20126 -8.75148,1.0429 -13.09378,1.75895 -4.81271,0.65696 -9.54792,1.73461 -14.30029,2.71451 -4.58735,1.06217 -8.89892,2.96731 -13.33036,4.50567 -3.56423,1.07473 -6.91812,2.71055 -10.44118,3.88631 -3.75922,1.4402 -7.64036,2.51052 -11.48915,3.68091 -5.53433,2.11744 -11.22688,3.74815 -16.88185,5.4984 -4.75728,1.06648 -9.37291,2.60957 -14.04239,3.99513 -4.47083,1.59362 -9.15525,2.40595 -13.70077,3.73507 -2.59159,0.87135 -5.346,1.14769 -7.9682,1.88962 -1.516,0.42894 -2.98708,1.00372 -4.48966,1.47755 -5.12161,1.67752 -10.44878,2.57262 -15.59887,4.13821 -5.2726,1.35994 -10.57078,2.64997 -15.90153,3.76476 -3.17141,0.91809 -6.40498,1.44095 -9.69124,1.6711 -3.5267,0.20054 -7.05962,0.15337 -10.58995,0.14222 -3.34236,-0.0227 -6.68482,0.0139 -10.02723,0.006 -3.27247,-0.0495 -6.54463,-0.0167 -9.81719,-0.006 -3.5861,-0.002 -7.17215,7.2e-4 -10.75827,-0.003 -3.0137,-0.002 -6.0273,-0.0243 -9.04098,-0.0348 -2.50598,5.9e-4 -5.01192,-0.005 -7.51789,-0.007 -2.60322,0.0709 -5.17321,0.0668 -7.74831,-0.32309 -2.55692,-0.53186 -5.16456,-0.89292 -7.7074,-1.48791 -3.74048,-0.95831 -7.58151,-1.36335 -11.41992,-1.68419 -2.56143,-0.21454 -5.13166,-0.2187 -7.69977,-0.2278 -2.34935,0.0899 -4.65935,-0.0223 -6.94328,-0.59852 -2.14378,-0.62859 -4.33637,-1.00466 -6.56311,-1.14068 -2.13274,-0.0585 -4.21131,-0.58858 -6.25282,-1.16439 -2.22378,-0.45429 -4.43039,-1.13874 -6.43078,-2.21834 -4.89429,-2.74989 4.63657,2.71174 6.99984,3.98645 0.36919,0.19913 -0.68586,-0.48688 -0.99512,-0.77027 -1.01409,-0.92927 -1.42415,-1.89704 -1.80492,-3.1846 -0.2572,-2.56433 0.39698,-5.01618 1.44366,-7.33053 1.04025,-2.36474 3.27704,-3.49067 5.29867,-4.89036 1.924,-1.25047 4.01234,-2.10243 6.24477,-2.59819 2.01013,-0.38044 4.06051,-0.38933 6.09824,-0.41846 2.26529,-0.006 4.53053,0.007 6.79582,-1.3e-4 2.33548,0.10896 4.72029,-0.25223 7.00264,0.30647 1.36562,0.30726 2.70053,0.73498 3.96674,1.33581 0.43976,0.20867 1.71485,0.92166 1.29179,0.68092 -9.18462,-5.22647 -10.63004,-6.23121 -6.85947,-3.72809 2.36392,1.48046 4.48467,3.29404 6.7016,4.97575 2.29886,1.89659 4.6472,3.70893 7.0539,5.46706 2.64965,1.75101 5.01463,3.87177 7.58228,5.73207 7.53886,5.30653 11.28828,6.6411 19.03287,8.59861 3.34225,0.9128 6.76078,1.52339 10.11614,2.37094 2.78665,0.72476 5.68964,0.89019 8.55637,1.01117 2.83084,0.64726 5.66277,1.27852 8.54168,1.66922 2.25975,0.27311 4.54069,0.27742 6.81356,0.27694 3.21774,-0.0754 6.43744,0.0725 9.64653,-0.19414 4.06027,-0.34456 7.95425,-1.77274 11.82066,-2.99311 3.37968,-1.19982 6.46987,-3.04844 9.64136,-4.69049 3.24313,-1.81065 6.65809,-3.26704 10.03643,-4.80129 3.05832,-1.42036 6.14056,-2.73576 9.44018,-3.46105 3.08721,-0.75451 6.18337,-1.48936 9.29542,-2.13892 4.09183,-0.84885 8.10813,-2.01285 12.0991,-3.24774 3.7029,-1.05215 7.52461,-1.55351 11.29123,-2.30121 2.28623,-0.55308 4.66902,-0.85562 6.92159,-1.54932 1.66258,-0.51202 3.27114,-1.18534 4.90917,-1.77117 5.28424,-2.06744 10.7323,-3.67377 16.03288,-5.68993 4.14584,-1.44174 8.21991,-3.08546 12.45801,-4.24334 3.317,-0.87376 6.41942,-2.30136 9.45013,-3.87913 3.54672,-2.24493 7.54666,-3.16964 11.55466,-4.15867 2.54665,-0.75399 5.24441,-0.65529 7.68094,-1.7293 2.2901,-1.38349 4.68603,-2.11078 7.22804,-2.85453 2.51389,-0.82036 5.08989,-1.3598 7.6537,-1.98662 3.02851,-0.79252 6.01471,-1.71031 8.98628,-2.69089 0.41009,-0.11951 0.82973,-0.21014 1.23029,-0.35853 3.08992,-1.14471 -0.63781,-0.004 2.67801,-1.08835 1.53132,-0.50072 3.09749,-0.93627 4.64578,-1.38311 2.81302,-0.64404 5.5613,-1.52373 8.35563,-2.23606 2.5166,-0.73985 5.00816,-1.53923 7.48605,-2.40184 2.45264,-0.94552 4.82944,-1.95458 7.43131,-2.44908 2.49979,-0.39691 5.03379,-0.44948 7.55921,-0.46716 2.22098,0.13696 4.39314,-0.32765 6.58464,-0.60212 2.1025,-0.24215 4.22105,-0.27299 6.33493,-0.29583 2.15059,5.1e-4 4.30109,-0.021 6.45166,-0.024 2.58012,0.007 5.15998,-0.009 7.74014,0.002 2.29791,0.0178 4.59583,0.0167 6.89375,0.004 3.0528,-0.0292 6.10557,-0.0386 9.15857,-0.0215 2.50545,0.0219 5.01097,0.0193 7.51649,0.0292 2.36056,-0.0396 4.73396,0.1201 7.08096,-0.15845 2.33804,-0.39363 4.6965,-0.58958 7.06286,-0.69467 2.54313,-0.0851 5.08755,-0.0965 7.63184,-0.0891 2.25588,0.0203 4.51178,0.0115 6.76771,0.0164 2.40549,-0.005 4.81101,-0.0103 7.2165,-0.004 2.16464,0.0155 4.32923,0.01 6.49386,0.006 2.3342,-0.17095 4.14265,1.21212 6.25038,2.05621 2.28523,1.13645 4.72512,1.9019 7.03564,2.97938 2.169,0.69779 4.36865,1.33855 6.5892,1.85958 2.29742,0.20011 4.24264,1.29672 6.31601,2.17757 1.9582,1.31837 4.19189,1.93274 6.37833,2.73223 2.04716,0.8897 4.08061,1.81025 6.1417,2.66985 1.70057,0.34937 3.06121,1.37971 4.58228,2.12464 0.81656,0.3999 1.66542,0.73074 2.48768,1.11879 2.22757,0.79984 4.38514,1.80643 6.62631,2.56241 2.15315,0.78864 4.21056,1.79383 6.31091,2.70518 -0.6861,-0.31611 2.84557,1.61379 2.13847,1.20284 -2.76984,-1.60972 -11.12363,-6.36189 -8.33209,-4.79012 4.49037,2.5283 8.00565,5.28481 12.62076,6.82552 1.30431,0.53022 0.64912,0.28423 1.96514,0.73916 0,0 -8.72653,-6.81427 -8.72653,-6.81427 v 0 c -1.28621,-0.48465 -0.63708,-0.23806 -1.94732,-0.74001 -0.67489,-0.27995 -2.62223,-1.28368 -1.99333,-0.91174 2.77269,1.63979 11.16914,6.4243 8.35904,4.84946 -4.24801,-2.38068 -8.3823,-5.04348 -12.75145,-7.22911 -2.08435,-0.94729 -4.19314,-1.83706 -6.34008,-2.63409 -2.17796,-0.86172 -4.3822,-1.66178 -6.52584,-2.60558 -2.36899,-1.10282 -4.63764,-2.41316 -7.12587,-3.24401 -2.04977,-0.91342 -4.1141,-1.79019 -6.1996,-2.61916 -2.20313,-0.74666 -4.27359,-1.70978 -6.33021,-2.7941 -2.08196,-0.92372 -4.18159,-1.6937 -6.44652,-2.04727 -2.1749,-0.57407 -4.37867,-1.10802 -6.45191,-1.99268 -2.34223,-0.97519 -4.7234,-1.85701 -7.01878,-2.9423 -2.12701,-0.93848 -4.14053,-2.00784 -6.55252,-1.73381 -2.15885,-0.003 -4.31764,-0.009 -6.47649,0.006 -2.4108,0.006 -4.82163,3.2e-4 -7.2324,-0.008 -2.24629,10e-4 -4.49255,-0.0144 -6.7388,0.008 -2.55538,0.0169 -5.11276,-10e-4 -7.66549,0.13131 -2.37702,0.136 -4.73965,0.37737 -7.09533,0.72568 -2.34516,0.14524 -4.69394,0.0263 -7.04225,0.0628 -2.47867,0.01 -4.95735,0.007 -7.43595,0.0293 -3.07272,0.0174 -6.1452,0.007 -9.21772,-0.0215 -2.29462,-0.0126 -4.58923,-0.0141 -6.88384,0.003 -2.58223,0.01 -5.16414,-0.008 -7.74634,-0.007 -2.16848,-0.006 -4.33713,-0.042 -6.50542,0.009 -2.14094,0.05 -4.2883,0.10967 -6.41304,0.39678 -2.15839,0.30407 -4.30962,0.62853 -6.49904,0.50716 -2.54448,0.0713 -5.09395,0.21294 -7.60008,0.68878 -2.61711,0.57808 -5.04693,1.63969 -7.56113,2.54428 -2.44567,0.88634 -4.93511,1.61277 -7.43248,2.33599 -2.7632,0.7929 -5.52346,1.58525 -8.30767,2.30235 -2.89189,0.88951 -5.77952,1.77409 -8.6113,2.84037 -2.93251,1.02142 -5.90864,1.9069 -8.93958,2.59105 -2.59105,0.56828 -5.12941,1.27797 -7.66785,2.04633 -2.55517,0.72189 -4.97363,1.66505 -7.32234,2.90733 -2.43644,0.7914 -5.0541,0.8706 -7.49218,1.70111 -4.03434,1.06204 -7.99295,2.24591 -11.61499,4.39169 -3.05706,1.43233 -6.16724,2.75381 -9.42397,3.67105 -4.15634,1.3123 -8.17974,2.97654 -12.27636,4.4579 -5.31484,1.9367 -10.68346,3.71689 -15.98973,5.67795 -3.94046,1.24356 -7.91365,2.30373 -11.9808,3.05037 -3.79131,0.75389 -7.63109,1.30795 -11.34767,2.40105 -3.94841,1.23218 -7.90565,2.44069 -11.97977,3.19384 -3.16637,0.60899 -6.33968,1.22079 -9.44727,2.08528 -3.29838,0.86619 -6.38509,2.25394 -9.4699,3.69522 -3.38411,1.56825 -6.84918,2.95885 -10.08018,4.83815 -3.11734,1.63723 -6.21329,3.3537 -9.5389,4.54312 -3.79042,1.27797 -7.64642,2.56574 -11.67379,2.75991 -3.24273,0.1321 -6.49026,0.0736 -9.7349,0.0355 -2.24298,-0.0375 -4.49151,-0.071 -6.71686,-0.38743 -2.87267,-0.42637 -5.68665,-1.14291 -8.55925,-1.55865 -2.84177,-0.16867 -5.68423,-0.41669 -8.44209,-1.16903 -3.34286,-0.70955 -6.67164,-1.46122 -9.98536,-2.30103 -1.82137,-0.47053 -3.63632,-0.92948 -5.41248,-1.55469 -3.72062,-1.30965 -10.08471,-5.12955 5.19617,3.57157 -2.6235,-1.84026 -5.01997,-3.94109 -7.66735,-5.74732 -2.36681,-1.75839 -4.76809,-3.4352 -6.95822,-5.41586 -2.25046,-1.68705 -4.3969,-3.50793 -6.74137,-5.06749 -5.45632,-3.55325 -10.90404,-7.60831 -17.38504,-8.89859 -2.36203,-0.28457 -4.74232,-0.10237 -7.1182,-0.15335 -2.28219,-0.0187 -4.56453,-0.0361 -6.84677,-0.0131 -2.09022,0.0318 -4.19068,0.13367 -6.22949,0.63674 -2.29732,0.63437 -4.47171,1.57568 -6.43452,2.94644 -2.19812,1.50432 -4.47333,2.84888 -5.58672,5.40638 -1.17971,2.52821 -1.85869,5.15041 -1.7673,7.96728 0.21265,1.31584 0.13698,1.55693 0.76177,2.72931 0.36044,0.67633 1.0387,1.58724 1.70716,1.99988 7.65525,4.72557 7.32431,4.52514 11.83442,6.87835 2.12828,0.91965 4.34082,1.58484 6.60318,2.09324 2.08076,0.54219 4.20922,0.89094 6.35928,0.99605 2.17967,0.2412 4.31804,0.67964 6.44289,1.22206 2.3534,0.41305 4.71754,0.52272 7.10518,0.43392 2.51239,0.003 5.02637,0.0385 7.53358,0.21363 3.81709,0.30509 7.60972,0.81568 11.31962,1.79523 2.61608,0.55124 5.23517,1.12828 7.88305,1.49842 2.60207,0.28489 5.21321,0.17489 7.82711,0.2036 2.49926,-0.002 4.99849,-0.008 7.49776,-0.007 2.98171,-0.0105 5.96335,-0.0327 8.94509,-0.0349 3.583,-0.004 7.16595,-0.002 10.74894,-0.003 3.27005,0.0111 6.5397,0.0449 9.80972,0.002 3.36344,-7.3e-4 6.72676,0.0488 10.09018,0.0375 3.53357,-0.0151 7.06969,-0.0614 10.59921,-0.23434 3.30683,-0.25816 6.52506,-0.89222 9.70349,-1.85827 5.27896,-1.27655 10.52807,-2.67745 15.82005,-3.90332 5.19231,-1.46353 10.48194,-2.55658 15.64776,-4.12148 4.14087,-1.23724 8.3398,-2.19472 12.51104,-3.31395 4.53298,-1.32924 9.1917,-2.1905 13.65149,-3.77079 4.66148,-1.36252 9.27408,-2.87707 13.98902,-4.05313 5.6553,-1.78711 11.28727,-3.63167 16.93406,-5.4422 3.91127,-1.12153 7.85438,-2.14596 11.64955,-3.63013 3.49408,-1.24111 6.87029,-2.80652 10.41121,-3.92901 4.3162,-1.64469 8.59569,-3.46848 13.12507,-4.45633 4.7448,-0.97735 9.48999,-1.94969 14.28385,-2.66202 4.35758,-0.63659 8.70565,-1.45364 13.11321,-1.62791 4.37165,-0.2868 8.73835,-0.71893 13.12615,-0.5197 3.54393,-0.007 7.08772,0.0535 10.63137,0.0326 4.76386,-0.0681 9.52769,-0.13055 14.29194,-0.16521 10.49249,-0.0961 20.98408,-0.31524 31.47749,-0.29886 12.94248,-0.008 25.89142,0.02 38.82461,0.56251 1.10941,0.0744 2.22124,0.11894 3.32825,0.2232 0.75993,0.0716 2.82647,0.82606 2.26963,0.30399 -7.77473,-7.28917 -5.39648,-6.22519 -10.78519,-5.34485 -3.98135,0.40988 -7.99458,0.0777 -11.99087,0.2019 -5.84812,0.039 -11.69618,0.0726 -17.54441,0.0881 -12.48879,-0.0173 -25.03033,-0.0432 -37.44823,-1.5046 2.31264,2.02371 4.53769,4.15213 6.93793,6.07114 0.11226,0.0897 0.2182,-0.22201 0.36131,-0.23535 0.89946,-0.0838 1.80626,-0.0454 2.7096,-0.0509 3.26957,-0.0201 6.53969,0.0476 9.80912,0.0623 3.53814,0.0523 7.07735,0.1392 10.60864,0.37686 3.58668,0.28042 7.1655,0.72767 10.76827,0.73792 3.65665,0.14877 7.29708,0.42351 10.89619,1.1175 2.89306,0.38623 5.69368,1.14378 8.49631,1.94796 3.88441,0.84071 7.85686,1.31849 11.83081,1.42602 5.93952,-0.0606 11.87921,-0.10431 17.81848,-0.18823 9.15736,-0.0992 18.31465,-0.34077 27.4513,-0.99932 4.53558,-0.36061 9.07808,-0.70737 13.58876,-1.32037 0.99521,-0.13525 3.74284,-0.42995 4.85793,-1.12523 0.4732,-0.29504 0.7704,-0.80643 1.15561,-1.20965 -3.23781,-1.999 -6.42117,-4.08901 -9.71343,-5.997 -0.93272,-0.54054 -6.04596,0.0311 -7.37206,-0.1568 -3.83248,0.0171 -7.66512,-0.002 -11.4976,-0.004 -3.19995,-0.0332 -6.399,-0.0236 -9.59909,-0.004 -3.86193,0.0121 -7.72443,0.0558 -11.58598,-0.0221 -2.66937,-0.005 -5.33861,-0.0331 -8.00797,0.006 -3.28167,0.0104 -6.56334,0.0586 -9.84508,0.032 -3.13393,-0.0341 -6.28482,-10e-4 -9.39433,-0.45085 -3.16638,-0.52238 -6.24701,-1.40185 -9.37981,-2.08566 -3.95327,-0.92773 -7.91094,-2.11593 -11.9886,-2.27184 -2.70624,-0.1413 -5.40156,-0.39022 -8.09221,-0.71225 -3.23224,-0.17118 -6.47394,0.0291 -9.70951,-0.0229 -3.86823,-0.003 -7.73626,-0.036 -11.60443,0.006 -2.73063,-0.008 -5.45965,-0.0668 -8.18933,-0.13336 9.63421,7.29535 5.61225,6.61489 12.73489,6.54304 3.01329,-0.0219 6.02678,-0.0565 9.04013,-0.026 3.14165,0.005 6.2834,-0.003 9.42493,-0.0312 4.72926,-0.0307 9.45968,-0.10716 14.18836,0.0107 4.39191,0.0928 8.80403,0.16538 13.15808,0.80212 2.30373,0.37531 4.64375,0.62231 6.85396,1.41737 2.81837,0.95819 5.63207,1.91891 8.41529,2.97434 2.41932,0.58285 4.85802,1.24355 7.35604,1.3316 2.57676,-0.0118 5.1535,-0.0121 7.73026,-0.0237 2.69597,3.9e-4 5.39175,0.0357 8.08773,0.005 2.40494,-4e-4 4.80921,0.0475 7.21417,0.023 2.33898,-0.007 4.67795,-7.7e-4 7.01689,-0.0179 2.80642,-0.0141 5.61259,-0.003 8.419,0.008 2.6017,-0.003 5.20332,0.0281 7.80485,-0.0214 3.29235,-0.0423 6.5881,-0.0488 9.87313,-0.29971 3.2927,-0.24335 6.54513,-0.76631 9.83399,-1.0408 2.69832,-0.30519 5.34473,-0.83412 8.00744,-1.35456 z"
           inkscape:label="color" /><path
           style="display:inline;fill:#ffae3f;fill-opacity:1;stroke:none;stroke-width:5.8;stroke-linecap:round;stroke-linejoin:bevel;stroke-opacity:1;paint-order:stroke fill markers"
           id="path94"
           d="m 180.39763,798.94498 c -3.35437,-0.78576 -6.39379,0.14045 -8.90595,2.25011 -2.17309,3.51259 -3.04749,7.55905 -2.57122,11.56732 0.36394,1.20719 0.50302,2.03235 1.23432,3.09784 0.57568,0.83876 1.43061,1.59915 2.36075,2.09375 7.89459,4.19787 8.06302,4.25656 13.03349,6.62093 5.36397,2.45297 10.94734,4.19966 16.81794,5.19734 5.51656,1.19603 11.16663,1.6495 16.77137,2.3435 5.09198,0.67472 10.25335,0.66381 15.35466,1.19766 4.90289,1.12308 9.66366,2.72655 14.34555,4.47083 4.23794,1.5401 8.66286,2.45034 12.9718,3.80794 4.29622,1.13875 8.63317,2.07593 12.95535,3.12716 8.29993,1.5853 16.63263,2.9819 24.94938,4.48648 7.23828,1.41139 14.56309,2.29825 21.94106,2.70635 8.17929,0.56907 16.24909,-0.20375 24.30407,-1.46208 10.16912,-1.64201 19.86501,-5.03614 29.63428,-8.0256 7.90557,-2.77824 15.8816,-5.41859 23.69168,-8.42502 5.40194,-1.66167 10.31511,-4.17643 15.2603,-6.73245 7.82454,-3.712 15.1279,-8.26182 22.55693,-12.59965 1.20729,-0.71502 2.39196,-1.4641 3.62183,-2.14503 7.57261,-4.19266 -0.60204,0.67339 6.76722,-3.65924 2.7299,-1.60499 5.34512,-3.36237 8.02164,-5.04119 3.82427,-2.46592 7.53051,-5.07774 11.33596,-7.56795 5.06728,-2.70648 10.84797,-3.92123 16.54129,-4.90887 6.35521,-0.94108 12.80971,-0.99304 19.22933,-1.06399 8.40814,-0.1464 16.81766,-0.0446 25.22622,-0.007 6.87266,0.0957 13.74728,-0.111 20.61456,0.17685 7.20716,0.61131 14.38641,1.46698 21.59374,2.07548 4.3723,0.30795 8.53822,1.6644 12.87452,2.2641 5.40954,0.59457 10.86895,0.54781 16.30705,0.55417 7.13602,0.002 14.27205,1.2e-4 21.40807,0.009 6.76878,0.009 13.53752,-0.0295 20.3064,-0.0126 4.74114,0.16626 9.44354,-0.51816 14.15679,-0.87551 3.69048,-0.50029 7.30823,-1.31618 10.96145,-1.9935 2.39121,-0.44428 4.82546,-0.58705 7.25415,-0.71682 0,0 -9.24145,-6.16283 -9.24145,-6.16283 v 0 c -2.47564,0.13608 -4.95304,0.31908 -7.3803,0.8218 -3.61039,0.71269 -7.21444,1.45619 -10.87891,1.8983 -4.61651,0.4076 -9.22235,1.07979 -13.87389,0.95138 -6.77177,0.0197 -13.54355,-0.0155 -20.3152,0.008 -7.13018,0.0226 -14.26077,0.0501 -21.39079,-0.009 -5.46959,-0.0774 -10.96585,-0.0894 -16.39218,-0.80982 -4.29304,-0.69498 -8.48222,-1.99025 -12.85765,-2.15332 -7.16262,-0.52156 -14.29633,-1.30562 -21.44927,-1.92344 -6.88401,-0.26471 -13.77595,-0.14254 -20.66482,-0.15806 -8.41551,0.0115 -16.83106,0.0658 -25.24658,0.0112 -6.48785,0.079 -13.0208,0.095 -19.42878,1.16078 -5.83504,1.09859 -11.72765,2.39611 -16.9205,5.20822 -3.77435,2.50368 -7.50687,5.05899 -11.24283,7.6114 -2.58986,1.72205 -5.13887,3.49379 -7.82437,5.08797 -7.81139,4.63706 1.36083,-0.93598 -6.7191,3.71891 -1.20453,0.69395 -2.36629,1.45007 -3.54942,2.17509 -7.42574,4.39843 -14.82143,8.86529 -22.79131,12.38455 -4.92497,2.49976 -9.85486,4.88217 -15.14252,6.6749 -7.6896,3.07495 -15.53353,5.83604 -23.39123,8.51255 -9.71515,2.97032 -19.34179,6.41156 -29.48283,7.92942 -8.14495,1.16446 -16.29166,1.65141 -24.5269,1.03722 -7.23665,-0.40167 -14.42813,-1.24257 -21.53471,-2.59707 -8.41055,-1.55641 -16.85533,-2.95491 -25.21001,-4.75862 -4.34182,-1.11136 -8.73453,-2.0284 -13.03701,-3.26566 -4.27922,-1.31099 -8.6988,-2.18257 -12.86513,-3.80201 -4.74527,-1.71647 -9.56392,-3.36247 -14.57456,-4.2687 -5.07821,-0.42075 -10.19304,-0.46852 -15.24628,-1.16471 -5.58736,-0.69347 -11.20817,-1.20446 -16.71213,-2.37868 -5.86057,-1.11496 -11.4438,-2.97985 -16.77386,-5.52195 -5.00124,-2.22583 -1.51514,-0.73963 6.53737,3.83848 0.44637,0.25379 -0.95233,-0.41217 -1.38826,-0.68118 -1.46557,-0.90438 -2.17574,-2.14309 -2.6487,-3.68956 -0.70317,-3.63626 -0.0104,-7.43286 2.04569,-10.62212 2.50442,-1.89448 5.36099,-2.22348 8.4289,-1.31068 z"
           clip-path="url(#clipPath60)"
           inkscape:label="stroke" /><path
           style="display:inline;fill:#800000;fill-opacity:1;stroke:none;stroke-width:5.8;stroke-linecap:round;stroke-linejoin:bevel;stroke-opacity:1;paint-order:stroke fill markers"
           d="m 301.04046,844.32012 c -21.83033,-3.23732 -47.89958,-9.16157 -64.43192,-14.64218 -4.63781,-1.53748 -11.36763,-2.96438 -15.56808,-3.30085 -24.06292,-1.92754 -39.69408,-5.42193 -41.12836,-9.19438 -0.93838,-2.46814 0.1388,-8.20384 1.96173,-10.44569 6.67976,-8.21477 9.30871,-9.51159 19.28224,-9.51159 8.14441,0 10.71667,0.87884 19.6366,6.70904 17.55153,11.47195 25.21237,14.8556 45.9906,20.31318 13.75587,3.6131 14.98812,3.77753 28.70806,3.83059 13.68552,0.0529 14.90126,-0.0976 26.82307,-3.32016 13.2929,-3.59322 26.48576,-8.6271 43.00352,-16.40846 5.59538,-2.63592 14.95954,-6.68538 20.80925,-8.99879 5.84971,-2.31342 14.3815,-6.08904 18.95954,-8.39028 14.51086,-7.29416 55.91096,-23.94432 62.77224,-25.24554 2.51766,-0.47746 11.68976,-1.49319 20.38243,-2.25718 8.69268,-0.76398 18.30197,-1.80234 21.354,-2.30746 3.05202,-0.50513 22.40462,-1.18971 43.00578,-1.5213 33.29146,-0.53584 38.03954,-0.43263 42.69856,0.92823 6.4329,1.87898 28.39293,11.51135 45.1331,19.7968 l 12.45596,6.165 -3.66983,0.92688 c -5.44259,1.37462 -73.67685,1.27934 -79.5438,-0.11108 -9.84359,-2.33284 -28.9546,-3.19964 -63.31677,-2.87181 -34.28043,0.32706 -34.76241,0.3581 -41.6185,2.68035 -4.40037,1.49046 -10.14874,4.55878 -15.72254,8.39225 -17.30147,11.89934 -42.1989,25.43673 -59.40389,32.29947 -11.9649,4.77257 -34.95011,12.4131 -44.64235,14.83961 -8.62737,2.15991 -34.04205,3.11177 -43.93064,1.64535 z"
           id="path95"
           inkscape:label="color fill" /></g><path
         style="display:inline;fill:#000000;fill-opacity:1;stroke:none;stroke-width:5.8;stroke-linecap:round;stroke-linejoin:bevel;stroke-opacity:1;paint-order:stroke fill markers"
         id="path96"
         d="m 184.32099,804.35344 c 0.496,-3.147 3.201,-5.0589 5.88522,-6.3029 4.16992,-1.4742 8.63438,-1.5937 13.00969,-1.7081 4.00325,-0.011 7.78621,1.3145 11.46445,2.759 0.56127,0.2705 1.13025,0.5254 1.68379,0.8113 0.61916,0.3198 1.22419,0.6664 1.83311,1.0053 8.85792,4.9303 -15.08405,-8.9813 -6.63338,-3.763 0.69729,0.4306 1.388,0.8717 2.08199,1.3076 4.17125,2.8501 8.25574,5.8186 12.58457,8.4286 7.64127,4.398 15.26871,9.0499 23.63152,11.9738 5.05692,1.7879 10.25848,3.1486 15.42566,4.58 4.96774,1.3021 9.937,2.5881 14.97604,3.5862 3.73789,0.6851 7.54228,0.7922 11.33168,0.8224 4.40231,-0.018 8.80516,0 13.20745,-0.041 6.25226,-0.709 12.39001,-2.279 18.45616,-3.9182 4.89532,-1.3799 9.94542,-2.3805 14.66622,-4.2999 3.1063,-1.236 6.06628,-2.8158 9.25314,-3.839 3.49607,-1.195 6.89475,-2.5872 10.22101,-4.1915 3.99281,-1.9775 7.97717,-3.9702 12.10087,-5.6609 3.86167,-1.9275 7.73245,-3.788 11.80682,-5.2244 4.24815,-1.3329 8.2963,-3.1603 12.35785,-4.9636 4.91755,-1.9554 9.52272,-4.5426 14.24029,-6.9169 4.64105,-2.2839 9.42103,-4.3044 14.25501,-6.1437 5.41412,-1.9341 10.64155,-4.3479 15.88298,-6.7045 7.11825,-2.8385 14.21261,-5.77062 21.40657,-8.41399 5.41231,-2.33688 11.2376,-2.87864 17.01723,-3.5563 5.4143,-0.45366 10.82894,-0.89589 16.24537,-1.32926 4.51262,-0.47576 9.0668,-0.76315 13.54603,-1.49629 4.86222,-0.89231 9.77771,-1.36472 14.71007,-1.61378 4.33902,-0.17223 8.68297,-0.20164 13.02482,-0.16244 3.3484,0.19797 6.65602,-0.071 9.98147,-0.41092 3.56443,-0.36916 7.15109,-0.38799 10.72962,-0.48294 4.43759,-0.0352 8.87526,-0.0361 13.31296,-0.0644 5.35266,-0.0563 10.70579,-0.03 16.05851,0.004 5.31524,-0.2585 10.40979,1.4204 15.47113,2.79466 5.11628,2.005 10.07831,4.36722 15.13887,6.50676 3.48998,1.67456 7.0738,3.13102 10.56188,4.8077 3.4509,1.7111 7.04432,3.083 10.51187,4.7608 4.02429,1.9199 7.93522,4.0577 11.91895,6.0574 4.02977,2.0104 7.97273,4.1748 12.22568,5.6816 4.74455,1.667 9.7709,2.2028 14.75998,2.5108 0.82281,0.036 1.64529,0.08 2.46842,0.1072 0.11368,0 4.2741,0.089 4.58539,0.1305 0.48575,0.064 1.83906,0.6415 1.41613,0.3941 -12.36763,-7.2346 -11.38985,-11.2911 -12.37215,-6.0833 -2.18752,3.4512 -5.09772,6.3581 -7.65779,9.527 -2.71172,3.1007 -4.12959,7.0049 -5.99399,10.6154 -2.21868,3.7038 -3.58656,7.793 -4.82575,11.9038 -1.42945,4.4089 -2.54635,8.913 -4.46209,13.1437 -1.76373,4.0181 -3.63593,7.9861 -5.45014,11.9805 -1.47502,3.6266 -3.53522,6.9825 -5.68128,10.2446 -2.0505,3.212 -4.59681,6.0771 -7.05727,8.9783 -2.34474,2.5492 -4.87291,4.917 -7.27382,7.4171 -3.39343,3.9573 -7.03586,7.6743 -10.93948,11.1349 -4.07308,3.7316 -8.40812,7.1526 -12.62522,10.7157 -3.41257,3.0087 -6.86611,5.9816 -10.60266,8.583 -3.7122,2.8129 -7.66929,5.2409 -11.59978,7.7283 -5.63687,3.7804 -11.23421,7.5646 -17.23039,10.7554 -4.5806,2.9644 -9.41154,5.4473 -14.38272,7.6761 -3.75449,1.4752 -7.20275,3.5786 -10.84039,5.2888 -3.87984,1.831 -7.95453,3.2123 -12.05564,4.4554 -4.20355,1.053 -8.24859,2.5793 -12.31663,4.0578 -4.07609,1.3227 -8.32206,1.9344 -12.45589,3.053 -5.68884,1.4169 -11.46154,2.4916 -17.24374,3.451 -5.70703,1.201 -11.53125,1.4952 -17.31762,2.0581 -4.96732,0.5878 -9.9719,0.6538 -14.95268,1.0506 -7.70772,0.6531 -15.44215,0.8145 -23.17317,0.896 -5.2814,0 -10.60887,0.3006 -15.8703,-0.3416 -1.9505,-0.238 -5.95805,-1.0596 -7.88047,-1.4364 -7.53501,-1.2692 -14.55691,-4.3657 -21.74756,-6.8052 -6.01726,-2.2582 -11.70853,-5.2673 -17.29876,-8.4162 -8.64132,-4.7846 4.00932,2.4236 6.06127,3.5521 0.89385,0.4916 -1.73259,-1.0774 -2.59317,-1.6251 -2.25242,-1.4336 -4.48496,-2.8993 -6.7333,-4.3394 -3.57335,-2.5084 -7.20244,-4.9353 -10.80908,-7.3951 -3.88566,-2.6749 -7.4886,-5.7374 -11.12973,-8.7305 -3.91233,-3.3639 -8.10608,-6.372 -12.10918,-9.6227 -4.63712,-3.6894 -9.30308,-7.3444 -13.97645,-10.9887 -4.62178,-3.6642 -9.35717,-7.1736 -14.1784,-10.5699 -5.1373,-3.4999 -10.35642,-6.8722 -15.57303,-10.251 -5.40954,-3.7906 -10.90539,-7.4529 -16.49454,-10.9729 -7.78723,-5.1577 -15.7416,-10.119 -24.16703,-14.1824 -4.32605,-2.2535 -8.57968,-4.629 -12.95368,-6.7909 -4.67362,-2.1865 -9.15183,-4.7294 -13.8575,-6.8546 -2.39485,-0.8534 -4.71664,-2.0203 -7.16463,-2.7285 -0.9854,-0.285 -1.99586,-0.4773 -2.98303,-0.7562 -2.871,-0.9201 -5.87075,-0.9853 -8.85406,-1.0729 -3.48892,-0.037 -6.95315,-0.011 -10.42363,-0.3924 -2.8918,0.06 -5.36746,-1.0481 -7.93538,-2.1985 -1.00908,-0.6569 -2.16647,-0.9747 -3.228,-1.5307 -0.3641,-0.1908 -1.42735,-0.8159 -1.07081,-0.6114 11.9048,6.8284 15.20595,9.0004 10.44799,5.9099 -2.32417,-1.7728 -2.89473,-4.5792 -3.30337,-7.3114 -0.28023,-2.7196 -0.18697,-5.4557 -0.18784,-8.1843 -0.0272,-2.9758 -0.0341,-5.9525 -0.003,-8.9285 -0.0668,-3.0404 1.18279,-5.4878 2.96875,-7.8396 1.77932,-2.2215 4.24606,-2.5887 6.91341,-2.8623 1.77898,-0.1251 3.56368,-0.1338 5.34618,-0.1363 0,0 -11.84253,-8.5925 -11.84253,-8.5925 v 0 c -1.82014,0.021 -3.6448,0.019 -5.45032,0.2881 -3.14148,0.5102 -5.52128,1.1949 -7.5159,3.857 -1.92307,2.602 -3.4004,5.3222 -3.43429,8.6509 0.0185,2.9624 -0.008,5.9257 -0.0709,8.8874 -0.0241,2.798 0.0462,5.5971 0.22203,8.3899 0.2239,2.9848 0.80195,5.9874 2.69815,8.402 5.84188,4.3852 12.41938,7.7093 19.04601,10.7355 2.60024,1.0865 5.25945,1.673 8.09036,1.7335 3.47814,0.2574 6.96156,0.1932 10.44541,0.3218 2.95051,0.1718 5.88042,0.4906 8.71504,1.379 3.33028,0.8973 6.57659,2.0811 9.73854,3.4589 4.67201,2.1733 9.16968,4.6958 13.83101,6.8928 4.39579,2.2087 8.66541,4.65 13.05698,6.8662 5.51908,2.7851 2.28494,1.2013 -8.57333,-5.1572 -0.61404,-0.3596 1.23737,0.7032 1.84881,1.0672 1.99996,1.1904 2.16154,1.3292 4.17096,2.6577 0.77521,0.5125 1.54975,1.0261 2.32463,1.5391 5.67286,3.4265 11.21622,7.0848 16.58891,10.967 5.17405,3.4432 10.4567,6.7242 15.59901,10.218 4.81777,3.335 9.49677,6.8632 14.11773,10.4668 4.62409,3.6 9.25973,7.1875 13.8028,10.8857 4.02832,3.2923 8.272,6.3004 12.23834,9.6681 3.59017,2.9507 7.07795,6.0473 10.84675,8.762 3.68274,2.4666 7.37406,4.929 10.98218,7.501 8.93983,5.7198 17.88611,11.4375 27.33681,16.3053 5.65371,3.1229 11.38727,6.1778 17.51808,8.2689 7.13157,2.4407 14.18886,5.2412 21.66091,6.4935 2.38722,0.4406 5.61586,1.0836 8.02704,1.3366 5.27569,0.5537 10.59928,0.1607 15.8874,0.2145 7.8481,-0.1657 15.69928,-0.3023 23.5393,-0.7111 5.02039,-0.2235 10.04595,-0.3921 15.03432,-1.0561 5.78489,-0.5799 11.57816,-1.0861 17.296,-2.1917 5.8142,-0.9924 11.60955,-2.1238 17.34462,-3.5042 4.27138,-0.9239 8.65217,-1.442 12.74779,-3.0458 4.04598,-1.4789 8.08505,-2.9537 12.26669,-4.0133 4.12995,-1.3438 8.26485,-2.7139 12.17612,-4.6214 3.61266,-1.7639 7.15575,-3.6683 10.849,-5.2701 4.83986,-2.3826 9.46298,-5.1451 14.03348,-8.0048 5.96345,-3.3112 11.63296,-7.0545 17.37439,-10.7305 4.13032,-2.3342 8.17355,-4.7151 11.91107,-7.6575 3.72316,-2.6718 7.15752,-5.7196 10.59931,-8.7402 4.16509,-3.5984 8.37267,-7.1432 12.40708,-10.8888 3.92452,-3.5371 7.84296,-7.1066 11.47295,-10.9462 2.37845,-2.5464 4.93367,-4.9155 7.24388,-7.5222 2.51858,-2.9268 4.99579,-5.9234 7.08995,-9.1716 2.18108,-3.3362 4.37011,-6.7066 5.81732,-10.4415 1.72081,-4.0318 3.59163,-8.0007 5.34785,-12.0176 1.96011,-4.2789 3.09947,-8.8484 4.53556,-13.3217 1.21887,-4.0125 2.75597,-7.9352 4.74396,-11.6342 1.89033,-3.5039 3.31878,-7.2774 5.9001,-10.3679 2.57876,-3.358 5.60312,-6.3409 8.12202,-9.7495 0.25927,-0.5452 1.2463,-1.2548 0.77781,-1.6356 -3.96514,-3.2226 -8.51101,-5.6674 -12.92671,-8.2383 -0.39467,-0.2298 -0.91095,-0.072 -1.36748,-0.084 -2.29354,-0.059 -4.59264,0 -6.88232,-0.2061 -4.95501,-0.4031 -9.92082,-1.0393 -14.57569,-2.8919 -4.17015,-1.6804 -8.12425,-3.8046 -12.14369,-5.8106 -4.00744,-2.0366 -7.97152,-4.1587 -12.02772,-6.09888 -3.48901,-1.6239 -7.08006,-3.01941 -10.51421,-4.76253 -3.46334,-1.62223 -6.99826,-3.0844 -10.48093,-4.66479 -5.0108,-2.12039 -9.94183,-4.45292 -15.08766,-6.23139 -5.17203,-1.45104 -10.40109,-2.87172 -15.8321,-2.58778 -5.35386,0.0323 -10.70812,0.0537 -16.06186,-0.006 -4.47477,-0.0301 -8.95001,-0.0465 -13.42451,0.008 -3.66945,0.007 -7.33792,0.14473 -10.9948,0.45957 -3.23635,0.36707 -6.47436,0.44641 -9.73127,0.40133 -4.33921,0.0531 -8.6813,0.0211 -13.01546,0.27553 -4.91547,0.35648 -9.80171,0.95784 -14.66127,1.78399 -4.52483,0.52357 -9.06975,0.87798 -13.59749,1.38054 -5.348,0.57623 -10.71125,0.93037 -16.06029,1.49205 -5.86383,0.62355 -11.72371,1.42456 -17.14689,3.90297 -7.08743,2.8485 -14.10989,5.85932 -21.25327,8.57219 -5.42843,2.16064 -10.8397,4.3614 -16.32806,6.3631 -4.80471,1.949 -9.50682,4.1229 -14.18996,6.347 -4.70608,2.3903 -9.3785,4.829 -14.28306,6.7965 -4.08139,1.7756 -8.21521,3.3975 -12.43767,4.8085 -4.02804,1.568 -7.89458,3.4638 -11.8083,5.29 -4.11758,1.7315 -8.05295,3.8592 -12.10552,5.736 -3.37659,1.5419 -6.86978,2.7147 -10.37911,3.9111 -3.09308,1.1851 -6.01852,2.7464 -9.07157,4.029 -4.64895,1.7945 -9.51488,2.9578 -14.29006,4.3636 -6.0438,1.6584 -12.16653,3.2469 -18.46514,3.4538 -4.43703,-0.021 -8.87449,0.036 -13.31093,-0.071 -3.72213,-0.1099 -7.4553,-0.2583 -11.11986,-0.9805 -4.92608,-0.9642 -9.78583,-2.2272 -14.64701,-3.4722 -5.28626,-1.4739 -10.57602,-2.969 -15.7042,-4.9371 -5.45336,-2.0671 -20.38922,-9.7121 1.16587,2.0935 -4.40322,-2.5183 -8.56521,-5.3977 -12.65678,-8.3937 -7.58179,-5.0052 -15.43577,-9.709 -23.70177,-13.4791 -3.78169,-1.3035 -7.60921,-2.4443 -11.66627,-2.2128 -4.53691,0.1876 -9.16361,0.4237 -13.41957,2.1651 -0.643,0.3329 -1.31897,0.6086 -1.92901,0.9986 -2.37493,1.5182 -4.09996,3.9176 -5.25216,6.4419 z"
         inkscape:label="stroke" /></g></g></svg>
