<?xml version="1.0" encoding="UTF-8" standalone="no"?>
<!-- Created with Inkscape (http://www.inkscape.org/) -->

<svg
   width="31.465477"
   height="27.77887"
   viewBox="0 0 31.465477 27.778871"
   version="1.1"
   id="svg1"
   inkscape:version="1.3.2 (091e20e, 2023-11-25, custom)"
   sodipodi:docname="bird.svg"
   xml:space="preserve"
   xmlns:inkscape="http://www.inkscape.org/namespaces/inkscape"
   xmlns:sodipodi="http://sodipodi.sourceforge.net/DTD/sodipodi-0.dtd"
   xmlns:xlink="http://www.w3.org/1999/xlink"
   xmlns="http://www.w3.org/2000/svg"
   xmlns:svg="http://www.w3.org/2000/svg"><sodipodi:namedview
     id="namedview1"
     pagecolor="#ffffff"
     bordercolor="#000000"
     borderopacity="0.25"
     inkscape:showpageshadow="2"
     inkscape:pageopacity="0.0"
     inkscape:pagecheckerboard="false"
     inkscape:deskcolor="#3d3d3d"
     inkscape:document-units="px"
     inkscape:zoom="0.540625"
     inkscape:cx="474.45087"
     inkscape:cy="788.90173"
     inkscape:window-width="1366"
     inkscape:window-height="715"
     inkscape:window-x="1358"
     inkscape:window-y="-8"
     inkscape:window-maximized="1"
     inkscape:current-layer="g76" /><defs
     id="defs1"><linearGradient
       id="linearGradient54"
       inkscape:collect="always"><stop
         style="stop-color:#f9f9f9;stop-opacity:1;"
         offset="0"
         id="stop54" /><stop
         style="stop-color:#60acc9;stop-opacity:1;"
         offset="1"
         id="stop55" /></linearGradient><linearGradient
       inkscape:collect="always"
       xlink:href="#linearGradient54"
       id="linearGradient55"
       x1="455.16422"
       y1="-5.2317729"
       x2="444.70068"
       y2="1825.8887"
       gradientUnits="userSpaceOnUse"
       gradientTransform="matrix(1,0,0,0.9816273,0,35.661191)" /><linearGradient
       inkscape:collect="always"
       xlink:href="#linearGradient54"
       id="linearGradient2"
       gradientUnits="userSpaceOnUse"
       gradientTransform="matrix(1,0,0,0.9816273,0,35.661191)"
       x1="455.16422"
       y1="-5.2317729"
       x2="444.70068"
       y2="1825.8887" /></defs><g
     inkscape:label="bird full"
     inkscape:groupmode="layer"
     id="layer1"
     style="display:none"
     transform="translate(-120.59605,-426.99882)"><rect
       style="display:none;fill:url(#linearGradient2);fill-opacity:1;stroke:none;stroke-width:5.8;stroke-linecap:round;stroke-linejoin:bevel;stroke-opacity:1;paint-order:stroke fill markers"
       id="rect54"
       width="1077.7452"
       height="1956.683"
       x="0"
       y="-15.695317"
       ry="24.512314"
       sodipodi:insensitive="true" /></g><g
     inkscape:label="bird full"
     inkscape:groupmode="layer"
     id="g119"
     transform="translate(-120.59605,-426.99882)"><rect
       style="display:none;fill:url(#linearGradient55);fill-opacity:1;stroke:none;stroke-width:5.8;stroke-linecap:round;stroke-linejoin:bevel;stroke-opacity:1;paint-order:stroke fill markers"
       id="rect89"
       width="1077.7452"
       height="1956.683"
       x="0"
       y="-15.695317"
       ry="24.512314"
       sodipodi:insensitive="true" /><g
       id="g118"
       inkscape:label="eye"
       transform="translate(-474.45087,-356.06936)"
       style="display:inline"><path
         style="fill:#f2f2f2;fill-opacity:1;stroke:none;stroke-width:5.8;stroke-linecap:round;stroke-linejoin:bevel;stroke-opacity:1;paint-order:stroke fill markers"
         d="m 603.47027,806.66623 c -0.48529,-0.0559 -0.5667,-0.15961 -1.10277,-1.40454 -1.54688,-3.59237 -1.9174,-7.59143 -0.9359,-10.10108 l 0.1694,-0.43314 1.55911,0.8195 1.55912,0.81952 0.35761,-1.16734 c 0.58764,-1.91821 1.23848,-3.08454 2.18578,-3.91697 2.0541,-1.80501 4.74242,-2.35865 8.45179,-1.74059 2.08422,0.34728 2.00915,0.3069 2.22941,1.1994 0.40744,1.65117 -0.31786,4.69547 -1.76986,7.4285 -1.8196,3.42496 -4.33308,5.94202 -7.48379,7.49446 -1.56182,0.76955 -3.69106,1.17838 -5.2199,1.00228 z"
         id="path116" /><path
         style="fill:#000000;fill-opacity:1;stroke:none;stroke-width:5.8;stroke-linecap:round;stroke-linejoin:bevel;stroke-opacity:1;paint-order:stroke fill markers"
         id="path117"
         d="m 604.97609,783.06818 c -2.3029,0.0394 -5.25702,1.92594 -6.81044,3.54261 -0.51084,0.53164 -0.89502,1.17189 -1.34253,1.75784 -0.36599,0.61929 -0.83777,1.18723 -1.09796,1.85789 -1.32022,3.4029 -0.53258,7.1984 0.82096,10.42177 3.53706,5.14118 9.60394,8.83549 15.7308,9.99695 4.59428,0.59645 6.25396,-0.0438 9.729,-3.07623 2.42096,-2.62024 4.20845,-5.90067 4.50647,-9.48669 -0.18099,-1.88122 -1.02569,-3.90175 -2.74464,-4.90637 -3.43525,-2.00767 -6.92362,-3.92302 -10.38543,-5.88454 -2.50749,-1.26495 -5.20524,-1.77527 -7.97023,-2.05668 -2.03328,-0.0483 -4.40767,0.39062 -5.83267,2.02318 -0.32698,0.3746 -0.53916,0.83563 -0.80873,1.25344 -0.81887,1.99419 -0.46112,0.98046 -1.07411,3.04089 0,0 9.6002,5.24025 9.6002,5.24025 v 0 c 0.53686,-1.87664 0.21384,-0.97432 0.95792,-2.71093 1.51832,-2.07735 3.42021,-2.52218 5.92737,-2.30866 2.75039,0.40129 5.40146,1.10944 7.87487,2.41759 -2.86706,-1.6847 -5.74049,-3.35862 -8.60119,-5.05411 -0.28895,-0.17126 0.6058,0.29498 0.88542,0.48109 1.22036,0.81227 2.06836,2.0177 2.38546,3.44492 0.12595,3.30545 -1.69623,6.42245 -3.89519,8.77332 -3.44852,2.76955 -4.99832,2.97204 -9.31708,2.10884 -3.68227,-1.1619 -8.81652,-4.58772 6.17876,4.05989 0.39128,0.22565 -0.77288,-0.47118 -1.13044,-0.74718 -0.97556,-0.75303 -1.27639,-1.17505 -2.10016,-2.09415 -1.49034,-2.83594 -2.60137,-6.34631 -1.39073,-9.52786 0.23806,-0.62561 0.68072,-1.15277 1.02107,-1.72916 2.04695,-2.45395 4.56185,-4.49956 7.94038,-4.25751 z" /><path
         style="display:inline;fill:#000000;fill-opacity:1;stroke:none;stroke-width:5.8;stroke-linecap:round;stroke-linejoin:bevel;stroke-opacity:1;paint-order:stroke fill markers"
         d="m 613.69718,804.61363 c 3.08223,-3.3183 3.98032,-4.77015 4.1851,-6.76564 0.14396,-1.40277 -0.14877,-1.84904 -0.99512,-1.51731 -2.32349,0.91065 -4.25454,-0.007 -4.10946,-1.95203 0.21125,-2.83247 -2.9526,-5.00751 -8.76663,-6.02682 -5.70119,-0.99952 -6.73108,-0.47037 -6.75022,3.46842 -0.0224,4.59318 2.89933,9.257 7.5799,12.09954 4.34239,2.63711 6.86766,2.83497 8.85646,0.69385 z"
         id="path118" /></g></g></svg>
