<?xml version="1.0" encoding="UTF-8" standalone="no"?>
<!-- Created with Inkscape (http://www.inkscape.org/) -->

<svg
   width="343.3493"
   height="251.96397"
   viewBox="0 0 343.3493 251.96399"
   version="1.1"
   id="svg1"
   inkscape:version="1.3.2 (091e20e, 2023-11-25, custom)"
   sodipodi:docname="bird.svg"
   xml:space="preserve"
   xmlns:inkscape="http://www.inkscape.org/namespaces/inkscape"
   xmlns:sodipodi="http://sodipodi.sourceforge.net/DTD/sodipodi-0.dtd"
   xmlns:xlink="http://www.w3.org/1999/xlink"
   xmlns="http://www.w3.org/2000/svg"
   xmlns:svg="http://www.w3.org/2000/svg"><sodipodi:namedview
     id="namedview1"
     pagecolor="#ffffff"
     bordercolor="#000000"
     borderopacity="0.25"
     inkscape:showpageshadow="2"
     inkscape:pageopacity="0.0"
     inkscape:pagecheckerboard="false"
     inkscape:deskcolor="#3d3d3d"
     inkscape:document-units="px"
     inkscape:zoom="0.540625"
     inkscape:cx="474.45087"
     inkscape:cy="788.90173"
     inkscape:window-width="1366"
     inkscape:window-height="715"
     inkscape:window-x="1358"
     inkscape:window-y="-8"
     inkscape:window-maximized="1"
     inkscape:current-layer="g76" /><defs
     id="defs1"><linearGradient
       id="linearGradient56"
       inkscape:collect="always"><stop
         style="stop-color:#ffd83c;stop-opacity:1;"
         offset="0.6111111"
         id="stop56" /><stop
         style="stop-color:#ffc97e;stop-opacity:1;"
         offset="1"
         id="stop57" /></linearGradient><linearGradient
       id="linearGradient54"
       inkscape:collect="always"><stop
         style="stop-color:#f9f9f9;stop-opacity:1;"
         offset="0"
         id="stop54" /><stop
         style="stop-color:#60acc9;stop-opacity:1;"
         offset="1"
         id="stop55" /></linearGradient><clipPath
       clipPathUnits="userSpaceOnUse"
       id="clipPath11"><path
         id="path12"
         style="fill:#ff0000;fill-opacity:1;fill-rule:nonzero;stroke:none"
         d="m 213.13867,551.58398 v 375.6543 H 328.7207 c -13.30847,-16.26844 1.82201,-37.07549 30.54297,-25.4707 0.61582,0.24883 1.23184,0.49726 1.84766,0.74609 2.03202,0.85956 4.11543,1.58261 6.19531,2.31445 2.78125,-2.18661 5.87686,-4.11838 8.79102,-6.05078 6.69677,-4.56122 13.46369,-9.06206 20.66211,-12.80273 7.10495,-3.84276 14.34411,-8.0803 22.63671,-8.3457 19.06922,-0.61028 10.03169,9.14064 0.50586,19.07421 5.47326,-1.06583 10.94286,-2.14998 16.41602,-3.21484 18.55819,-3.56933 36.91661,-8.00778 55.17969,-12.84375 18.09505,-4.77886 36.03305,-10.14294 53.85937,-15.84765 v -313.2129 z m 332.21875,359.95899 c -0.51575,0.39016 -0.96622,0.79163 -1.51367,1.17578 -5.69497,3.99621 -11.84994,7.19779 -18.06836,10.28516 -2.8437,1.3694 -5.65335,2.80267 -8.46484,4.23437 h 28.04687 z" /></clipPath><clipPath
       clipPathUnits="userSpaceOnUse"
       id="clipPath11-9"><path
         id="path12-2"
         style="fill:#ff0000;fill-opacity:1;fill-rule:nonzero;stroke:none"
         d="m 213.13867,551.58398 v 375.6543 H 328.7207 c -13.30847,-16.26844 1.82201,-37.07549 30.54297,-25.4707 0.61582,0.24883 1.23184,0.49726 1.84766,0.74609 2.03202,0.85956 4.11543,1.58261 6.19531,2.31445 2.78125,-2.18661 5.87686,-4.11838 8.79102,-6.05078 6.69677,-4.56122 13.46369,-9.06206 20.66211,-12.80273 7.10495,-3.84276 14.34411,-8.0803 22.63671,-8.3457 19.06922,-0.61028 10.03169,9.14064 0.50586,19.07421 5.47326,-1.06583 10.94286,-2.14998 16.41602,-3.21484 18.55819,-3.56933 36.91661,-8.00778 55.17969,-12.84375 18.09505,-4.77886 36.03305,-10.14294 53.85937,-15.84765 v -313.2129 z m 332.21875,359.95899 c -0.51575,0.39016 -0.96622,0.79163 -1.51367,1.17578 -5.69497,3.99621 -11.84994,7.19779 -18.06836,10.28516 -2.8437,1.3694 -5.65335,2.80267 -8.46484,4.23437 h 28.04687 z" /></clipPath><linearGradient
       inkscape:collect="always"
       xlink:href="#linearGradient54"
       id="linearGradient55"
       x1="455.16422"
       y1="-5.2317729"
       x2="444.70068"
       y2="1825.8887"
       gradientUnits="userSpaceOnUse"
       gradientTransform="matrix(1,0,0,0.9816273,0,35.661191)" /><linearGradient
       inkscape:collect="always"
       xlink:href="#linearGradient56"
       id="linearGradient119"
       gradientUnits="userSpaceOnUse"
       x1="276.23584"
       y1="609.7229"
       x2="484.16269"
       y2="894.03973" /><linearGradient
       inkscape:collect="always"
       xlink:href="#linearGradient54"
       id="linearGradient2"
       gradientUnits="userSpaceOnUse"
       gradientTransform="matrix(1,0,0,0.9816273,0,35.661191)"
       x1="455.16422"
       y1="-5.2317729"
       x2="444.70068"
       y2="1825.8887" /></defs><g
     inkscape:label="bird full"
     inkscape:groupmode="layer"
     id="layer1"
     style="display:none"
     transform="translate(-56.48494,-30.422654)"><rect
       style="display:none;fill:url(#linearGradient2);fill-opacity:1;stroke:none;stroke-width:5.8;stroke-linecap:round;stroke-linejoin:bevel;stroke-opacity:1;paint-order:stroke fill markers"
       id="rect54"
       width="1077.7452"
       height="1956.683"
       x="0"
       y="-15.695317"
       ry="24.512314"
       sodipodi:insensitive="true" /></g><g
     inkscape:label="bird full"
     inkscape:groupmode="layer"
     id="g119"
     transform="translate(-56.48494,-30.422654)"><rect
       style="display:none;fill:url(#linearGradient55);fill-opacity:1;stroke:none;stroke-width:5.8;stroke-linecap:round;stroke-linejoin:bevel;stroke-opacity:1;paint-order:stroke fill markers"
       id="rect89"
       width="1077.7452"
       height="1956.683"
       x="0"
       y="-15.695317"
       ry="24.512314"
       sodipodi:insensitive="true" /><g
       id="g116"
       inkscape:label="wing"
       style="display:inline;stroke-width:1.10839"
       transform="matrix(0.99488357,-0.10102814,0.08223529,0.80981934,-198.99293,-425.62611)"><g
         id="g113"
         inkscape:label="back"
         style="display:inline;stroke-width:1.19876"
         transform="matrix(0.90774127,-0.12376382,0.12142092,0.92525677,-73.304869,108.18308)"><path
           style="fill:#000000;stroke-width:6.95276;stroke-linecap:round;stroke-linejoin:round"
           id="path97"
           d="m 527.38178,765.15662 c -28.50778,-1.58231 -55.41043,-14.14518 -81.55018,-24.64139 -22.62269,-9.65978 -44.67341,-20.71947 -65.88806,-33.17899 -1.29373,-0.75982 -2.31153,-1.92039 -3.55089,-2.76599 -37.61415,-25.66369 2.4508,2.55113 -31.08932,-21.26477 -21.74394,-16.28326 -38.98861,-36.91819 -53.20975,-59.86822 -6.79693,-11.79886 -13.34926,-23.74655 -19.39883,-35.9481 -3.96819,-8.00356 -7.43574,-16.13023 -11.93974,-23.84658 -6.7801,-7.43675 -6.23908,-7.49512 -23.60208,-12.02979 -1.27101,-0.33195 -1.3033,2.30721 -1.67551,3.56703 -1.60496,5.43224 -1.42836,11.664 -1.70334,17.25549 -0.41363,12.70819 -0.25493,25.42195 -0.19553,38.13347 0.27571,13.83518 -0.14472,27.6808 0.42943,41.50746 0.39944,11.53585 5.2407,21.65438 11.35647,31.16782 6.86955,9.44686 15.86709,17.2588 24.9519,24.52558 0.67129,-0.0292 9.04334,6.94998 9.10757,6.95298 0.48177,0.0225 0.48762,-0.96178 0.31507,-1.41214 -0.6815,-1.77884 -3.58949,-2.55646 -4.85596,-3.12784 -1.41875,-0.79127 -5.6672,-3.17893 -4.25625,-2.37383 4.65445,2.65588 18.60799,10.63973 13.98688,7.92625 -7.73481,-4.54182 -15.54998,-8.94539 -23.32866,-13.41167 -1.53949,-0.88393 -3.08083,-1.76464 -4.62581,-2.63893 -1.53373,-0.86794 -6.16956,-3.40885 -4.61026,-2.58774 4.51685,2.37851 8.98933,4.84035 13.48399,7.26053 -10.24058,-6.67236 -18.74434,-15.40205 -27.74302,-23.54529 -7.05908,-4.02586 -13.86582,-8.53059 -21.17726,-12.07758 -0.65595,-0.31822 -1.5229,0.29407 -2.0276,0.82021 -3.14203,3.2756 -0.31883,10.46254 0.5722,14.03545 2.74588,9.76107 7.8274,18.79918 12.54687,27.74356 4.87148,8.81176 10.25449,17.3322 16.22616,25.4385 6.3055,8.93519 14.78183,15.57529 23.75324,21.62596 10.63173,6.4266 8.66263,5.30892 27.26505,15.31574 2.33034,1.25357 5.79001,2.49943 8.2506,3.51306 1.03943,0.42818 4.06547,1.9041 3.0997,1.32876 -5.75963,-3.43123 -11.66824,-6.60598 -17.50236,-9.90896 0.43729,-0.41549 1.00097,-0.70635 -0.41285,-1.19837 -2.49721,-0.86904 -5.19594,-0.99222 -7.76935,-1.59952 -5.27423,-1.24466 -5.08895,-1.24306 -10.50009,-2.70487 -8.0419,-3.07301 -15.99073,-6.55041 -23.68655,-10.42683 -1.76343,-0.88825 -6.92732,-3.79 -5.2306,-2.78013 4.5949,2.73484 9.28593,5.30485 13.92889,7.95727 -8.55617,-4.14087 -28.97456,-23.75641 -33.88362,-16.58185 -0.50191,0.73356 -0.56618,1.68509 -0.84928,2.52763 -0.35779,8.6563 4.49752,15.92248 8.75426,23.04117 6.22597,10.4159 14.14625,19.6346 21.86471,28.9467 7.23545,9.64453 16.30355,17.38646 25.99647,24.43229 1.66596,1.02126 3.30727,2.08384 4.99787,3.06378 7.75332,4.49412 15.50734,8.9886 23.33201,13.35732 1.46062,0.8155 3.01553,1.44943 4.51527,2.19055 13.02346,6.43572 -14.81016,-2.94345 -13.78868,-8.61105 -10.81885,-1.14196 -20.93234,-5.03839 -30.95547,-9.10644 -10.74511,-3.76714 -20.40779,-9.87974 -30.68828,-14.63339 -7.70315,-2.29039 -8.21581,2.34083 -4.97907,7.92742 5.95298,7.24219 12.32566,14.07397 18.06915,21.49741 10.83015,13.94632 26.93167,21.43869 42.24555,29.60171 1.54362,0.668 3.10262,1.30154 4.63086,2.004 3.28182,1.50851 6.53659,3.0754 9.7908,4.64258 1.50367,0.72416 5.91769,3.08526 4.47336,2.249 -17.25005,-9.98766 -20.36217,-13.45973 -15.34036,-8.142 -6.66264,-1.14133 -12.93094,-3.97938 -19.15047,-6.60265 -11.7622,-4.85273 -8.18574,4.62254 -4.86,10.87783 4.90277,8.55801 11.46257,15.61923 19.24471,21.58878 1.52796,1.01302 3.00478,2.10777 4.58388,3.03906 7.64074,4.50621 15.31302,8.96171 23.06776,13.26879 4.89912,2.72103 10.32191,4.30518 15.19053,7.0989 5.99426,3.29975 12.59434,5.72164 19.24575,7.33948 8.49962,2.8323 17.54001,3.31127 26.41693,3.843 9.56251,0.47536 19.13716,0.49368 28.7086,0.48135 9.75867,0.002 19.51724,-0.0245 29.27593,-0.0362 11.15299,-0.0415 22.30614,-0.0512 33.45921,-0.0589 10.19743,-0.0226 20.47394,0.72526 30.4028,-1.94973 8.43439,-2.61593 16.60286,-5.93505 24.74904,-9.31696 6.63855,-2.65896 12.75611,-6.28304 18.92758,-9.84781 0,0 -18.21029,-11.81645 -18.21029,-11.81645 v 0 c -6.11093,3.58657 -12.26298,7.05079 -18.93941,9.50509 -8.01809,3.43189 -16.15918,6.55807 -24.52304,9.05738 -9.81553,2.20717 -19.88159,1.61539 -29.88292,1.67144 -11.19881,-0.006 -22.39765,-0.0143 -33.59643,-0.0385 -9.76072,0.007 -19.52133,0.0168 -29.28203,0.0253 -9.53576,-0.0398 -19.07892,-0.046 -28.60297,-0.5759 -8.92429,-0.6304 -17.87329,-1.47619 -26.40148,-4.37185 -6.52296,-1.92125 -12.98104,-4.26842 -18.87894,-7.69296 -3.5567,-1.77185 -7.21059,-3.25904 -10.80503,-4.95157 -1.39477,-0.65676 -5.46729,-2.8365 -4.16371,-2.01345 3.0545,1.92854 22.83091,13.55944 9.42606,5.34717 -7.85045,-5.61294 -14.40564,-12.26555 -19.35113,-20.62699 -2.07906,-3.55432 -1.62929,-2.55028 -3.18788,-6.04114 -2.11888,-4.74579 2.87066,-0.32883 5.11764,-0.29146 4.4821,1.85543 15.83467,7.47611 20.54137,4.62851 0.86681,-0.52443 1.26512,-1.58272 1.89769,-2.37409 -0.23079,-0.65108 -0.11627,-1.57207 -0.69236,-1.95324 -12.82957,-8.48866 -26.26667,-15.32926 -40.22032,-21.60111 -1.48663,-0.81119 -5.90832,-3.31121 -4.45991,-2.43358 4.6653,2.82685 9.33249,5.65695 14.11365,8.28307 1.43197,0.78653 -2.74374,-1.77886 -4.05246,-2.75682 -2.65578,-1.98457 -5.33254,-4.34511 -7.62804,-6.7402 -1.14624,-1.19597 -2.1881,-2.48777 -3.28215,-3.73165 -5.63015,-7.33799 -11.60763,-14.30958 -17.78455,-21.18871 -3.01385,-4.03346 -4.32454,-5.38465 1.89069,-3.1312 10.04912,4.86332 19.80783,10.37357 30.34071,14.18813 8.06849,3.17439 21.05827,8.93667 29.80902,8.17467 1.30133,-0.11332 2.51531,-0.70598 3.77297,-1.05898 0.37464,-0.77985 1.81459,-1.81849 1.12392,-2.33955 -6.35316,-4.79305 -13.60975,-8.25489 -20.48343,-12.26593 -2.47749,-1.44571 -10.1374,-5.35338 -7.70276,-3.83662 4.48773,2.7958 9.14566,5.30903 13.69033,8.01129 1.68041,0.99916 -3.39798,-1.93446 -5.09697,-2.90169 -9.76629,-6.85722 -18.99507,-14.38802 -26.27307,-23.94575 -7.64667,-9.2052 -15.53311,-18.29795 -21.79014,-28.53826 -3.88708,-6.6779 -8.76967,-13.20276 -8.94819,-21.25191 -0.005,-1.27821 -0.33308,-0.94183 0.79108,-1.16767 -5.59805,-3.40143 -11.1961,-6.80287 -16.79415,-10.2043 -1.04938,-0.62506 2.05405,1.32326 3.05631,2.0214 6.11152,4.25707 1.05474,1.15468 7.76191,5.01158 16.92476,9.75011 33.73764,20.02778 52.39556,26.19982 4.23552,1.13314 15.38963,4.83768 19.54509,3.80086 2.77684,-0.69284 2.49426,-1.48904 2.8281,-3.43259 -6.89179,-3.93091 -13.72237,-7.97114 -20.67537,-11.79275 -2.17024,-1.19284 -4.60152,-1.83474 -6.8701,-2.82792 -1.4084,-0.61659 -5.47554,-2.76881 -4.19413,-1.91923 4.88511,3.23887 22.34317,13.25143 10.04146,6.16923 -9.03852,-5.75564 -17.66058,-12.12195 -24.00122,-20.90747 -6.07266,-7.99785 -11.50392,-16.43379 -16.43885,-25.17486 -2.54889,-4.68756 -4.93617,-9.43257 -7.26038,-14.23575 -1.40779,-2.90931 -3.05535,-5.71704 -4.19632,-8.74097 -0.51281,-1.35911 -0.76209,-2.80354 -1.14313,-4.20531 -1.13525,-4.41881 -0.97523,-3.33925 -1.64218,-7.56067 -0.16728,-1.0588 -0.50033,-3.05217 -0.30052,-3.13539 0.32557,-0.13559 1.33867,0.38007 1.04053,0.19167 -5.41627,-3.4226 -10.97052,-6.62182 -16.45578,-9.93273 9.46428,7.7325 17.52214,17.20112 27.93014,23.84427 7.81972,4.7633 15.61352,9.56941 23.45916,14.2899 1.50819,0.90743 3.06777,1.72656 4.60014,2.59254 1.5365,0.86833 6.12512,3.50949 4.60644,2.61037 -33.11366,-19.60469 1.95552,1.87565 13.96794,7.87267 1.2345,0.52152 2.39692,1.26651 3.70349,1.56457 0.98693,0.22515 2.12902,0.42117 3.03672,-0.0269 4.74973,-2.34478 -7.84603,-9.11549 -8.51473,-9.57274 -9.11468,-6.99806 -17.90285,-14.71626 -24.99689,-23.79428 -6.28453,-9.13353 -11.54181,-18.9566 -12.18241,-30.26714 -0.73515,-13.78332 -0.26247,-27.59726 -0.40971,-41.3955 -0.0673,-12.66959 -0.20924,-25.34661 0.16495,-38.01191 0.22938,-4.21096 0.31592,-7.65292 0.92212,-11.81273 0.21688,-1.48832 0.46819,-2.97906 0.88171,-4.42514 0.20822,-0.72811 1.56448,-1.58344 0.97106,-2.05393 -5.43437,-4.30861 -11.68613,-7.47232 -17.58537,-11.11863 -1.01971,-0.63028 1.9616,1.37857 2.9424,2.06785 5.29654,7.67899 9.01927,15.87718 13.21874,24.20496 6.10968,12.1158 12.59756,24.03224 19.05664,35.96356 14.52888,23.95752 31.56837,43.86086 53.91178,61.03878 41.81953,29.49155 86.13957,55.62117 133.21592,75.83858 27.312,11.06752 55.17569,23.8772 84.91058,26.2017 z"
           clip-path="url(#clipPath11)"
           inkscape:label="stroke" /><path
           style="display:none;fill:#b3b3b3;stroke-width:6.95276;stroke-linecap:round;stroke-linejoin:round"
           id="path98"
           d="m 529.68308,768.21663 c 3.7109,2.12105 6.46314,5.44282 9.25336,8.59897 3.38222,3.61879 5.99669,7.6818 7.60528,12.35911 1.09023,4.7171 1.57181,9.71813 0.71729,14.51991 -0.22528,1.2659 -0.59531,2.50173 -0.89297,3.7526 -3.23923,10.05434 -9.53967,18.64344 -15.96773,26.87346 -8.13182,9.81526 -16.85201,19.12797 -25.54455,28.44524 -8.55723,8.5824 -17.52421,16.76551 -26.49405,24.91641 -4.14247,3.49381 -8.37513,6.96003 -13.07747,9.68899 -2.12256,1.23181 -3.81444,1.95949 -6.02051,2.98361 -6.29889,2.51182 -13.12283,3.27962 -19.79345,4.21461 -7.75802,1.03189 -15.57745,1.41026 -23.39422,1.61282 -6.83849,0.35812 -13.67765,0.67912 -20.52341,0.8549 -8.51119,0.1754 -17.02487,0.17599 -25.53751,0.18629 -7.29014,-0.007 -14.58024,-0.0312 -21.87035,-0.0492 -4.07006,-0.0146 -8.1401,-0.0272 -12.21017,-0.0367 -2.86353,-0.0117 -5.72705,-3.8e-4 -8.5906,-0.004 -1.6788,-0.005 -3.3576,-0.004 -5.0364,-0.005 0,0 2.97198,2.15927 2.97198,2.15927 v 0 c 1.67427,-9.1e-4 3.34853,5e-4 5.0228,-0.005 2.85967,-0.004 5.71932,0.007 8.57897,-0.004 4.03876,-0.009 8.0775,-0.0198 12.11624,-0.0314 7.24875,-0.0127 14.49748,-0.0284 21.74623,-0.0415 8.54855,-0.004 17.09778,0.0141 25.64556,-0.11866 6.83818,-0.17879 13.66755,-0.54265 20.49975,-0.87216 7.80998,-0.20873 15.61663,-0.65676 23.36761,-1.67853 6.72259,-0.90835 13.61337,-1.61915 19.92753,-4.24965 2.23974,-1.06573 3.84648,-1.77226 6.00477,-3.04744 4.68836,-2.77005 8.92122,-6.24412 13.03829,-9.78371 8.89228,-8.22171 17.75372,-16.49867 26.33174,-25.04561 8.71973,-9.31496 17.54164,-18.55981 25.66582,-28.40544 6.45914,-8.26068 12.78687,-16.88023 16.17439,-26.92058 0.31263,-1.25861 0.69801,-2.50136 0.9379,-3.77584 0.90691,-4.81811 0.48174,-9.85049 -0.54143,-14.60846 -1.58819,-4.7268 -4.17519,-8.85025 -7.58381,-12.50409 -2.7539,-3.12775 -5.43073,-6.46372 -9.05265,-8.63859 z"
           inkscape:label="close stroke" /><path
           style="display:none;fill:#000000;fill-opacity:1;stroke-width:6.95276;stroke-linecap:round;stroke-linejoin:round"
           id="path99"
           d="m 529.68308,768.21663 c 3.7109,2.12105 6.46314,5.44282 9.25336,8.59897 3.38222,3.61879 5.99669,7.6818 7.60528,12.35911 1.09023,4.7171 1.57181,9.71813 0.71729,14.51991 -0.22528,1.2659 -0.59531,2.50173 -0.89297,3.7526 -3.23923,10.05434 -9.53967,18.64344 -15.96773,26.87346 -8.13182,9.81526 -16.85201,19.12797 -25.54455,28.44524 -8.55723,8.5824 -17.52421,16.76551 -26.49405,24.91641 -4.14247,3.49381 -8.37513,6.96003 -13.07747,9.68899 -2.12256,1.23181 -3.81444,1.95949 -6.02051,2.98361 -6.29889,2.51182 -13.12283,3.27962 -19.79345,4.21461 -7.75802,1.03189 -15.57745,1.41026 -23.39422,1.61282 -6.83849,0.35812 -13.67765,0.67912 -20.52341,0.8549 -8.51119,0.1754 -17.02487,0.17599 -25.53751,0.18629 -7.29014,-0.007 -14.58024,-0.0312 -21.87035,-0.0492 -4.07006,-0.0146 -8.1401,-0.0272 -12.21017,-0.0367 -2.86353,-0.0117 -5.72705,-3.8e-4 -8.5906,-0.004 -1.6788,-0.005 -3.3576,-0.004 -5.0364,-0.005 0,0 2.97198,2.15927 2.97198,2.15927 v 0 c 1.67427,-9.1e-4 3.34853,5e-4 5.0228,-0.005 2.85967,-0.004 5.71932,0.007 8.57897,-0.004 4.03876,-0.009 8.0775,-0.0198 12.11624,-0.0314 7.24875,-0.0127 14.49748,-0.0284 21.74623,-0.0415 8.54855,-0.004 17.09778,0.0141 25.64556,-0.11866 6.83818,-0.17879 13.66755,-0.54265 20.49975,-0.87216 7.80998,-0.20873 15.61663,-0.65676 23.36761,-1.67853 6.72259,-0.90835 13.61337,-1.61915 19.92753,-4.24965 2.23974,-1.06573 3.84648,-1.77226 6.00477,-3.04744 4.68836,-2.77005 8.92122,-6.24412 13.03829,-9.78371 8.89228,-8.22171 17.75372,-16.49867 26.33174,-25.04561 8.71973,-9.31496 17.54164,-18.55981 25.66582,-28.40544 6.45914,-8.26068 12.78687,-16.88023 16.17439,-26.92058 0.31263,-1.25861 0.69801,-2.50136 0.9379,-3.77584 0.90691,-4.81811 0.48174,-9.85049 -0.54143,-14.60846 -1.58819,-4.7268 -4.17519,-8.85025 -7.58381,-12.50409 -2.7539,-3.12775 -5.43073,-6.46372 -9.05265,-8.63859 z"
           inkscape:label="close stroke"
           transform="translate(-3.7281344e-6)" /><path
           style="display:inline;fill:url(#linearGradient119);stroke-width:6.95276;stroke-linecap:round;stroke-linejoin:round"
           d="m 315.21431,901.46758 c -7.22803,-3.56468 -12.53632,-7.36374 -17.16681,-12.286 -5.73702,-6.09854 -10.95397,-13.72154 -10.95397,-16.00595 0,-0.36316 3.83917,0.78476 8.53149,2.55094 9.91779,3.73305 15.29113,4.06433 17.75573,1.09467 1.51907,-1.83036 1.23121,-2.53552 -2.12875,-5.21469 -2.13694,-1.70397 -10.65396,-6.61775 -18.9267,-10.91951 -17.64367,-9.17457 -18.97228,-10.24547 -31.21695,-25.16195 -5.13254,-6.25247 -9.91988,-11.7315 -10.63853,-12.17567 -0.71866,-0.44415 -1.30664,-1.36877 -1.30664,-2.05474 0,-0.68595 4.26716,0.90221 9.48258,3.52924 14.37428,7.2404 36.53409,15.84154 45.21297,17.549 8.15411,1.60423 14.05664,0.19802 12.96134,-3.08789 -0.28331,-0.84992 -6.42689,-5.07723 -13.6524,-9.39404 -17.08458,-10.20696 -21.95106,-14.25199 -32.52993,-27.0389 -17.98023,-21.73311 -29.93861,-40.45281 -29.07204,-45.50955 0.34808,-2.03119 1.93767,-1.47488 11.52131,4.03211 25.37732,14.58243 54.43557,23.44441 56.78638,17.31831 0.45358,-1.18202 0.66369,-2.27249 0.46692,-2.42328 -2.41963,-1.85421 -20.62773,-11.77518 -25.23832,-13.75151 -7.78667,-3.33775 -19.18794,-14.83329 -27.87757,-28.10807 -7.73449,-11.81566 -20.34505,-36.03931 -21.67184,-41.62949 l -0.87796,-3.69914 4.95538,3.9293 c 5.55499,4.40475 38.43922,24.39209 48.61401,29.54804 14.58617,7.39138 15.89834,2.43328 2.11667,-7.99798 -20.93796,-15.84782 -33.58679,-33.48148 -36.00159,-50.18961 -0.67072,-4.64074 -1.22219,-25.80066 -1.22549,-47.02204 l -0.006,-38.58432 9.95652,18.96517 c 22.43865,42.74111 42.17772,64.87556 80.90494,90.72294 54.06001,36.08083 111.26259,64.97213 160.87701,81.25414 9.35179,3.06899 20.98466,6.30953 25.85081,7.2012 10.38999,1.90387 13.27839,4.86914 15.62078,16.0366 1.95229,9.30754 -0.99675,18.69083 -9.94514,31.64353 -15.54773,22.5052 -57.65419,64.5215 -72.69247,72.53682 -12.78574,6.81473 -25.10461,8.09551 -85.0505,8.84255 l -52.9717,0.66013 z"
           id="path100"
           inkscape:label="color" /><g
           id="g112"
           style="stroke-width:1.19876"><g
             id="g102"
             style="fill:#ffae3f;fill-opacity:1;stroke-width:1.19876"><path
               style="fill:#ffae3f;fill-opacity:1;stroke-width:6.95276;stroke-linecap:round;stroke-linejoin:round"
               id="path101"
               d="m 373.47418,723.11829 c 3.22813,1.83669 6.43084,3.7188 9.68439,5.51006 1.64698,0.90676 -3.24282,-1.90341 -4.86371,-2.856 -7.47357,-4.39219 -14.88251,-8.8903 -22.34752,-13.29644 -8.91021,-5.46404 -17.79059,-10.98459 -26.27849,-17.08846 -7.1723,-5.4106 -14.0429,-11.23067 -20.44441,-17.53546 -5.10363,-4.85584 -9.39183,-10.40306 -13.83193,-15.83667 -3.79031,-4.18764 -6.93631,-8.83504 -9.91906,-13.61221 -3.33824,-4.43999 -6.00831,-9.26076 -8.43487,-14.24024 -1.54077,-3.19406 -0.80501,-1.627 -2.21185,-4.69904 0,0 -13.19788,-6.02186 -13.19788,-6.02186 v 0 c 1.44783,3.12323 0.69217,1.54086 2.27114,4.7451 2.33514,5.0366 4.91925,9.97161 8.33871,14.37233 2.99491,4.87739 6.08024,9.69097 10.01992,13.87707 4.56781,5.35446 8.62798,11.13712 13.80844,15.96755 6.42635,6.48988 13.56337,12.23534 20.72812,17.88355 8.4839,6.27868 17.49152,11.76232 26.46628,17.30854 13.95851,8.14034 27.65622,16.7233 41.67115,24.76977 z" /><path
               style="fill:#ffae3f;fill-opacity:1;stroke-width:6.95276;stroke-linecap:round;stroke-linejoin:round"
               id="path102"
               d="m 358.00291,737.27539 c -0.48922,-0.28214 -0.97782,-0.56534 -1.46764,-0.84641 -4.79867,-2.75363 -9.57446,-5.54757 -14.39783,-8.25769 -1.58602,-0.89114 -3.24611,-1.64576 -4.83367,-2.53414 -0.90456,-0.50618 -3.6066,-2.0452 -2.71024,-1.52465 3.09511,1.79744 6.20444,3.57028 9.30666,5.35542 -8.02468,-4.6444 -15.10885,-10.59993 -22.14561,-16.58399 -5.00017,-4.66863 -10.55041,-8.71826 -15.32958,-13.62694 -2.05171,-2.10731 -3.31585,-3.70477 -5.17002,-5.93044 -4.48035,-5.84606 -8.35141,-12.14323 -11.61797,-18.73978 -3.22294,-5.74093 -5.97771,-11.69142 -8.31483,-17.83936 -1.57748,-4.55809 -2.73709,-9.23718 -3.90276,-13.91202 -0.57315,-2.05021 -1.08999,-4.11396 -1.57727,-6.18589 0,0 -13.18402,-6.33591 -13.18402,-6.33591 v 0 c 0.49622,2.08165 1.02167,4.155 1.60768,6.2136 1.14881,4.75837 2.48901,9.45888 3.94642,14.13239 2.39946,6.24702 5.19327,12.29127 8.54976,18.09212 3.25199,6.65293 6.90077,13.13639 11.4178,19.02227 2.79158,3.32527 5.58787,6.61395 8.78613,9.56572 2.24549,2.07243 5.61418,4.70719 7.90226,6.6836 1.39295,1.20321 2.74378,2.45434 4.11567,3.68152 6.85316,5.98406 13.77315,11.91693 21.58182,16.63762 5.06438,2.92974 10.1226,5.87017 15.19315,8.78923 1.54589,0.88995 3.80818,2.12633 5.39157,2.97476 0.77977,0.41783 3.10817,1.68981 2.34708,1.23886 -3.54777,-2.10208 -7.1395,-4.12906 -10.70928,-6.19353 -0.4393,-0.25405 0.87854,0.50819 1.31781,0.76228 z" /></g><g
             id="g105"
             style="fill:#ffae3f;fill-opacity:1;stroke-width:1.19876"><g
               id="g104"
               style="fill:#ffae3f;fill-opacity:1;stroke-width:1.19876"><path
                 style="fill:#ffae3f;fill-opacity:1;stroke-width:6.95276;stroke-linecap:round;stroke-linejoin:round"
                 id="path103"
                 d="m 364.93988,752.76261 c 2.93531,0.29579 5.86761,0.64349 8.8059,0.88735 1.4874,0.12346 -2.96826,-0.35 -4.45232,-0.52602 -6.84266,-0.81159 -13.67449,-1.74652 -20.51569,-2.57438 -8.23446,-1.17371 -16.4665,-2.41126 -24.61264,-4.34347 -6.96843,-1.86172 -13.85778,-4.22217 -20.57309,-7.22044 -5.29647,-2.23579 -10.2396,-5.44334 -15.25367,-8.48362 -4.12883,-2.18704 -7.94941,-5.06353 -11.69635,-8.12674 -3.88896,-2.60717 -7.426,-5.84237 -10.84149,-9.32451 -2.17953,-2.24026 -1.1247,-1.13261 -3.16707,-3.3191 0,0 -11.50103,0.13784 -11.50103,0.13784 v 0 c 2.089,2.21549 1.01473,1.1024 3.22513,3.3357 3.36902,3.57262 6.88271,6.94772 10.8168,9.4849 3.78934,3.14884 7.62218,6.20156 11.85777,8.32391 5.07918,2.91447 9.93766,6.43191 15.28077,8.61212 6.79533,3.1554 13.85093,5.33538 20.89378,7.41553 8.20199,2.09224 16.51299,3.24244 24.82142,4.46324 12.75898,1.45874 25.47937,3.42892 38.24733,4.77873 z" /><path
                 style="fill:#ffae3f;fill-opacity:1;stroke-width:6.95276;stroke-linecap:round;stroke-linejoin:round"
                 id="path104"
                 d="m 358.58539,772.14161 c -0.44612,-0.0483 -0.89215,-0.0978 -1.33833,-0.14478 -4.37123,-0.46085 -8.73956,-0.96791 -13.1139,-1.37889 -1.43837,-0.13514 -2.88407,-0.11523 -4.32262,-0.24721 -0.81965,-0.0752 -3.27715,-0.32428 -2.45855,-0.23259 2.82659,0.3166 5.65512,0.60489 8.48269,0.90734 -7.32318,-0.80653 -14.4114,-3.19918 -21.47516,-5.63776 -5.15927,-2.11006 -10.50563,-3.42634 -15.58684,-5.84748 -2.18137,-1.0394 -3.62587,-1.9507 -5.70515,-3.18101 -5.18153,-3.39682 -10.07706,-7.46042 -14.63904,-12.05135 -4.2432,-3.8344 -8.2206,-8.05699 -11.9644,-12.63541 -2.66416,-3.46023 -5.06887,-7.20712 -7.47651,-10.9476 -1.10037,-1.6142 -2.16486,-3.26451 -3.21086,-4.93476 0,0 -11.59658,-0.1525 -11.59658,-0.1525 v 0 c 1.05568,1.67527 2.12958,3.33063 3.24201,4.94698 2.42359,3.82328 4.96519,7.51306 7.58189,11.12871 3.82186,4.64175 7.85879,8.93273 12.21803,12.76481 4.57047,4.64817 9.36895,8.9747 14.59019,12.39204 3.12189,1.82911 6.23486,3.62308 9.52333,4.94155 2.30882,0.92569 5.61317,1.8848 7.92032,2.70547 1.40456,0.49962 2.79497,1.06049 4.19246,1.59074 6.93191,2.51638 13.89461,4.95807 21.08828,5.92523 4.62121,0.50778 9.24158,1.02785 13.86363,1.52335 1.40915,0.15106 3.44916,0.31235 4.8713,0.40991 0.70035,0.0481 2.7998,0.21358 2.10174,0.12761 -3.25401,-0.40073 -6.51436,-0.71481 -9.77153,-1.07215 -0.40084,-0.044 0.80164,0.0881 1.20246,0.13207 z" /></g></g><g
             id="g107"
             transform="matrix(0.94103291,-0.09622376,0.10046149,0.90133766,-55.632492,156.9815)"
             style="fill:#ffae3f;fill-opacity:1;stroke-width:1.29426"><g
               id="g106"
               style="fill:#ffae3f;fill-opacity:1;stroke-width:1.29426"><path
                 style="fill:#ffae3f;fill-opacity:1;stroke-width:7.50671;stroke-linecap:round;stroke-linejoin:round"
                 id="path105"
                 d="m 364.93988,752.76261 c 2.93531,0.29579 5.86761,0.64349 8.8059,0.88735 1.4874,0.12346 -2.96826,-0.35 -4.45232,-0.52602 -6.84266,-0.81159 -13.67449,-1.74652 -20.51569,-2.57438 -8.23446,-1.17371 -16.4665,-2.41126 -24.61264,-4.34347 -6.96843,-1.86172 -13.85778,-4.22217 -20.57309,-7.22044 -5.29647,-2.23579 -10.2396,-5.44334 -15.25367,-8.48362 -4.12883,-2.18704 -7.94941,-5.06353 -11.69635,-8.12674 -3.88896,-2.60717 -7.426,-5.84237 -10.84149,-9.32451 -2.17953,-2.24026 -1.1247,-1.13261 -3.16707,-3.3191 0,0 -11.50103,0.13784 -11.50103,0.13784 v 0 c 2.089,2.21549 1.01473,1.1024 3.22513,3.3357 3.36902,3.57262 6.88271,6.94772 10.8168,9.4849 3.78934,3.14884 7.62218,6.20156 11.85777,8.32391 5.07918,2.91447 9.93766,6.43191 15.28077,8.61212 6.79533,3.1554 13.85093,5.33538 20.89378,7.41553 8.20199,2.09224 16.51299,3.24244 24.82142,4.46324 12.75898,1.45874 25.47937,3.42892 38.24733,4.77873 z" /><path
                 style="fill:#ffae3f;fill-opacity:1;stroke-width:7.50671;stroke-linecap:round;stroke-linejoin:round"
                 id="path106"
                 d="m 358.58539,772.14161 c -0.44612,-0.0483 -0.89215,-0.0978 -1.33833,-0.14478 -4.37123,-0.46085 -8.73956,-0.96791 -13.1139,-1.37889 -1.43837,-0.13514 -2.88407,-0.11523 -4.32262,-0.24721 -0.81965,-0.0752 -3.27715,-0.32428 -2.45855,-0.23259 2.82659,0.3166 5.65512,0.60489 8.48269,0.90734 -7.32318,-0.80653 -14.4114,-3.19918 -21.47516,-5.63776 -5.15927,-2.11006 -10.50563,-3.42634 -15.58684,-5.84748 -2.18137,-1.0394 -3.62587,-1.9507 -5.70515,-3.18101 -5.18153,-3.39682 -10.07706,-7.46042 -14.63904,-12.05135 -4.2432,-3.8344 -8.2206,-8.05699 -11.9644,-12.63541 -2.66416,-3.46023 -5.06887,-7.20712 -7.47651,-10.9476 -1.10037,-1.6142 -2.16486,-3.26451 -3.21086,-4.93476 0,0 -11.59658,-0.1525 -11.59658,-0.1525 v 0 c 1.05568,1.67527 2.12958,3.33063 3.24201,4.94698 2.42359,3.82328 4.96519,7.51306 7.58189,11.12871 3.82186,4.64175 7.85879,8.93273 12.21803,12.76481 4.57047,4.64817 9.36895,8.9747 14.59019,12.39204 3.12189,1.82911 6.23486,3.62308 9.52333,4.94155 2.30882,0.92569 5.61317,1.8848 7.92032,2.70547 1.40456,0.49962 2.79497,1.06049 4.19246,1.59074 6.93191,2.51638 13.89461,4.95807 21.08828,5.92523 4.62121,0.50778 9.24158,1.02785 13.86363,1.52335 1.40915,0.15106 3.44916,0.31235 4.8713,0.40991 0.70035,0.0481 2.7998,0.21358 2.10174,0.12761 -3.25401,-0.40073 -6.51436,-0.71481 -9.77153,-1.07215 -0.40084,-0.044 0.80164,0.0881 1.20246,0.13207 z" /></g></g><g
             id="g109"
             transform="matrix(0.69329137,-0.13718126,0.13738185,0.6802816,-6.2662745,387.7788)"
             style="fill:#ffae3f;fill-opacity:1;stroke-width:1.71168"><g
               id="g108"
               style="fill:#ffae3f;fill-opacity:1;stroke-width:1.71168"><path
                 style="fill:#ffae3f;fill-opacity:1;stroke-width:9.92764;stroke-linecap:round;stroke-linejoin:round"
                 id="path107"
                 d="m 364.93988,752.76261 c 2.93531,0.29579 5.86761,0.64349 8.8059,0.88735 1.4874,0.12346 -2.96826,-0.35 -4.45232,-0.52602 -6.84266,-0.81159 -13.67449,-1.74652 -20.51569,-2.57438 -8.23446,-1.17371 -16.4665,-2.41126 -24.61264,-4.34347 -6.96843,-1.86172 -13.85778,-4.22217 -20.57309,-7.22044 -5.29647,-2.23579 -10.2396,-5.44334 -15.25367,-8.48362 -4.12883,-2.18704 -7.94941,-5.06353 -11.69635,-8.12674 -3.88896,-2.60717 -7.426,-5.84237 -10.84149,-9.32451 -2.17953,-2.24026 -1.1247,-1.13261 -3.16707,-3.3191 0,0 -11.50103,0.13784 -11.50103,0.13784 v 0 c 2.089,2.21549 1.01473,1.1024 3.22513,3.3357 3.36902,3.57262 6.88271,6.94772 10.8168,9.4849 3.78934,3.14884 7.62218,6.20156 11.85777,8.32391 5.07918,2.91447 9.93766,6.43191 15.28077,8.61212 6.79533,3.1554 13.85093,5.33538 20.89378,7.41553 8.20199,2.09224 16.51299,3.24244 24.82142,4.46324 12.75898,1.45874 25.47937,3.42892 38.24733,4.77873 z" /><path
                 style="fill:#ffae3f;fill-opacity:1;stroke-width:9.92764;stroke-linecap:round;stroke-linejoin:round"
                 id="path108"
                 d="m 358.58539,772.14161 c -0.44612,-0.0483 -0.89215,-0.0978 -1.33833,-0.14478 -4.37123,-0.46085 -8.73956,-0.96791 -13.1139,-1.37889 -1.43837,-0.13514 -2.88407,-0.11523 -4.32262,-0.24721 -0.81965,-0.0752 -3.27715,-0.32428 -2.45855,-0.23259 2.82659,0.3166 5.65512,0.60489 8.48269,0.90734 -7.32318,-0.80653 -14.4114,-3.19918 -21.47516,-5.63776 -5.15927,-2.11006 -10.50563,-3.42634 -15.58684,-5.84748 -2.18137,-1.0394 -3.62587,-1.9507 -5.70515,-3.18101 -5.18153,-3.39682 -10.07706,-7.46042 -14.63904,-12.05135 -4.2432,-3.8344 -8.2206,-8.05699 -11.9644,-12.63541 -2.66416,-3.46023 -5.06887,-7.20712 -7.47651,-10.9476 -1.10037,-1.6142 -2.16486,-3.26451 -3.21086,-4.93476 0,0 -11.59658,-0.1525 -11.59658,-0.1525 v 0 c 1.05568,1.67527 2.12958,3.33063 3.24201,4.94698 2.42359,3.82328 4.96519,7.51306 7.58189,11.12871 3.82186,4.64175 7.85879,8.93273 12.21803,12.76481 4.57047,4.64817 9.36895,8.9747 14.59019,12.39204 3.12189,1.82911 6.23486,3.62308 9.52333,4.94155 2.30882,0.92569 5.61317,1.8848 7.92032,2.70547 1.40456,0.49962 2.79497,1.06049 4.19246,1.59074 6.93191,2.51638 13.89461,4.95807 21.08828,5.92523 4.62121,0.50778 9.24158,1.02785 13.86363,1.52335 1.40915,0.15106 3.44916,0.31235 4.8713,0.40991 0.70035,0.0481 2.7998,0.21358 2.10174,0.12761 -3.25401,-0.40073 -6.51436,-0.71481 -9.77153,-1.07215 -0.40084,-0.044 0.80164,0.0881 1.20246,0.13207 z" /></g></g><g
             id="g111"
             transform="matrix(0.45978458,-0.26471269,0.18594954,0.51056017,46.185243,587.08175)"
             style="fill:#ffae3f;fill-opacity:1;stroke-width:2.24955"><g
               id="g110"
               style="fill:#ffae3f;fill-opacity:1;stroke-width:2.24955"><path
                 style="fill:#ffae3f;fill-opacity:1;stroke-width:13.0472;stroke-linecap:round;stroke-linejoin:round"
                 id="path109"
                 d="m 364.93988,752.76261 c 2.93531,0.29579 5.86761,0.64349 8.8059,0.88735 1.4874,0.12346 -2.96826,-0.35 -4.45232,-0.52602 -6.84266,-0.81159 -13.67449,-1.74652 -20.51569,-2.57438 -8.23446,-1.17371 -16.4665,-2.41126 -24.61264,-4.34347 -6.96843,-1.86172 -13.85778,-4.22217 -20.57309,-7.22044 -5.29647,-2.23579 -10.2396,-5.44334 -15.25367,-8.48362 -4.12883,-2.18704 -7.94941,-5.06353 -11.69635,-8.12674 -3.88896,-2.60717 -7.426,-5.84237 -10.84149,-9.32451 -2.17953,-2.24026 -1.1247,-1.13261 -3.16707,-3.3191 0,0 -11.50103,0.13784 -11.50103,0.13784 v 0 c 2.089,2.21549 1.01473,1.1024 3.22513,3.3357 3.36902,3.57262 6.88271,6.94772 10.8168,9.4849 3.78934,3.14884 7.62218,6.20156 11.85777,8.32391 5.07918,2.91447 9.93766,6.43191 15.28077,8.61212 6.79533,3.1554 13.85093,5.33538 20.89378,7.41553 8.20199,2.09224 16.51299,3.24244 24.82142,4.46324 12.75898,1.45874 25.47937,3.42892 38.24733,4.77873 z" /><path
                 style="fill:#ffae3f;fill-opacity:1;stroke-width:13.0472;stroke-linecap:round;stroke-linejoin:round"
                 id="path110"
                 d="m 358.58539,772.14161 c -0.44612,-0.0483 -0.89215,-0.0978 -1.33833,-0.14478 -4.37123,-0.46085 -8.73956,-0.96791 -13.1139,-1.37889 -1.43837,-0.13514 -2.88407,-0.11523 -4.32262,-0.24721 -0.81965,-0.0752 -3.27715,-0.32428 -2.45855,-0.23259 2.82659,0.3166 5.65512,0.60489 8.48269,0.90734 -7.32318,-0.80653 -14.4114,-3.19918 -21.47516,-5.63776 -5.15927,-2.11006 -10.50563,-3.42634 -15.58684,-5.84748 -2.18137,-1.0394 -3.62587,-1.9507 -5.70515,-3.18101 -5.18153,-3.39682 -10.07706,-7.46042 -14.63904,-12.05135 -4.2432,-3.8344 -8.2206,-8.05699 -11.9644,-12.63541 -2.66416,-3.46023 -5.06887,-7.20712 -7.47651,-10.9476 -1.10037,-1.6142 -2.16486,-3.26451 -3.21086,-4.93476 0,0 -11.59658,-0.1525 -11.59658,-0.1525 v 0 c 1.05568,1.67527 2.12958,3.33063 3.24201,4.94698 2.42359,3.82328 4.96519,7.51306 7.58189,11.12871 3.82186,4.64175 7.85879,8.93273 12.21803,12.76481 4.57047,4.64817 9.36895,8.9747 14.59019,12.39204 3.12189,1.82911 6.23486,3.62308 9.52333,4.94155 2.30882,0.92569 5.61317,1.8848 7.92032,2.70547 1.40456,0.49962 2.79497,1.06049 4.19246,1.59074 6.93191,2.51638 13.89461,4.95807 21.08828,5.92523 4.62121,0.50778 9.24158,1.02785 13.86363,1.52335 1.40915,0.15106 3.44916,0.31235 4.8713,0.40991 0.70035,0.0481 2.7998,0.21358 2.10174,0.12761 -3.25401,-0.40073 -6.51436,-0.71481 -9.77153,-1.07215 -0.40084,-0.044 0.80164,0.0881 1.20246,0.13207 z" /></g></g></g></g><g
         id="g115"
         inkscape:label="front"
         transform="matrix(1.1186053,0,0,1,-28.874163,0)"
         style="display:none;stroke-width:1.04799"><path
           style="display:none;fill:#b3b3b3;stroke-width:6.07829;stroke-linecap:round;stroke-linejoin:round"
           id="path113"
           d="m 492.82577,770.38237 c 2.73357,1.895 4.90257,5.01718 7.08438,7.97487 2.62797,3.38198 4.76188,7.23882 6.25114,11.74951 1.13463,4.57593 1.87208,9.46132 1.67102,14.21855 -0.053,1.25415 -0.20838,2.48609 -0.31257,3.72914 -1.42198,10.03423 -5.07591,18.7845 -8.84703,27.18868 -4.81892,10.04647 -10.08472,19.62928 -15.33106,29.21516 -5.21244,8.8576 -10.7401,17.34388 -16.27232,25.7987 -2.57681,3.63909 -5.21811,7.25565 -8.24336,10.17214 -1.36556,1.31645 -2.47461,2.11624 -3.91463,3.23301 -4.14501,2.78389 -8.79371,3.88212 -13.32303,5.13675 -5.27216,1.40463 -10.63964,2.17079 -16.01951,2.76421 -4.69194,0.69675 -9.38733,1.3571 -14.09904,1.87522 -5.86147,0.6018 -11.73881,1.03213 -17.61465,1.47191 -5.03327,0.36141 -10.06795,0.70536 -15.10211,1.05559 -2.81094,0.19109 -5.6217,0.38413 -8.43223,0.58028 -1.97777,0.13309 -3.95368,0.2887 -5.93079,0.42986 -1.15935,0.08 -2.31822,0.16572 -3.47726,0.24952 0,0 2.22656,1.96983 2.22656,1.96983 v 0 c 1.15576,-0.0854 2.31169,-0.16853 3.46708,-0.25823 1.97386,-0.1481 3.94887,-0.28212 5.92216,-0.43678 2.78745,-0.21231 5.57467,-0.42716 8.36187,-0.64237 5.00312,-0.37838 10.00598,-0.75965 15.00907,-1.1384 5.90115,-0.43525 11.80455,-0.84914 17.69472,-1.41097 4.70624,-0.5207 9.3914,-1.22264 14.0813,-1.89099 5.37469,-0.59913 10.7277,-1.43303 15.99583,-2.82738 4.56736,-1.23108 9.26682,-2.27672 13.41275,-5.1779 1.4599,-1.15932 2.51189,-1.93404 3.8986,-3.29488 3.01227,-2.95611 5.65308,-6.5804 8.20864,-10.26316 5.47295,-8.52041 10.92014,-17.0935 16.14981,-25.91735 5.2653,-9.58498 10.60681,-19.1063 15.418,-29.18221 3.79009,-8.43584 7.46039,-17.21739 8.98588,-27.24537 0.1139,-1.2514 0.27931,-2.49091 0.3417,-3.75422 0.23591,-4.7759 -0.46513,-9.69491 -1.55678,-14.31435 -1.47918,-4.56031 -3.59904,-8.47788 -6.24805,-11.89293 -2.15444,-2.93163 -4.27253,-6.07156 -6.94903,-8.0239 z"
           inkscape:label="close stroke" /><path
           style="display:inline;fill:#000000;stroke-width:7.84055;stroke-linecap:round;stroke-linejoin:round"
           id="path114"
           d="m 527.38178,765.15662 c -28.50778,-1.58231 -55.41043,-14.14518 -81.55018,-24.64139 -22.62269,-9.65978 -44.67341,-20.71947 -65.88806,-33.17899 -1.29373,-0.75982 -2.31153,-1.92039 -3.55089,-2.76599 -37.61415,-25.66369 2.4508,2.55113 -31.08932,-21.26477 -21.74394,-16.28326 -38.98861,-36.91819 -53.20975,-59.86822 -6.79693,-11.79886 -13.34926,-23.74655 -19.39883,-35.9481 -3.96819,-8.00356 -7.43574,-16.13023 -11.93974,-23.84658 -6.7801,-7.43675 -6.23908,-7.49512 -23.60208,-12.02979 -1.27101,-0.33195 -1.3033,2.30721 -1.67551,3.56703 -1.60496,5.43224 -1.42836,11.664 -1.70334,17.25549 -0.41363,12.70819 -0.25493,25.42195 -0.19553,38.13347 0.27571,13.83518 -0.14472,27.6808 0.42943,41.50746 0.39944,11.53585 5.2407,21.65438 11.35647,31.16782 6.86955,9.44686 15.86709,17.2588 24.9519,24.52558 0.67129,-0.0292 9.04334,6.94998 9.10757,6.95298 0.48177,0.0225 0.48762,-0.96178 0.31507,-1.41214 -0.6815,-1.77884 -3.58949,-2.55646 -4.85596,-3.12784 -1.41875,-0.79127 -5.6672,-3.17893 -4.25625,-2.37383 4.65445,2.65588 18.60799,10.63973 13.98688,7.92625 -7.73481,-4.54182 -15.54998,-8.94539 -23.32866,-13.41167 -1.53949,-0.88393 -3.08083,-1.76464 -4.62581,-2.63893 -1.53373,-0.86794 -6.16956,-3.40885 -4.61026,-2.58774 4.51685,2.37851 8.98933,4.84035 13.48399,7.26053 -10.24058,-6.67236 -18.74434,-15.40205 -27.74302,-23.54529 -7.05908,-4.02586 -13.86582,-8.53059 -21.17726,-12.07758 -0.65595,-0.31822 -1.5229,0.29407 -2.0276,0.82021 -3.14203,3.2756 -0.31883,10.46254 0.5722,14.03545 2.74588,9.76107 7.8274,18.79918 12.54687,27.74356 4.87148,8.81176 10.25449,17.3322 16.22616,25.4385 6.3055,8.93519 14.78183,15.57529 23.75324,21.62596 10.63173,6.4266 8.66263,5.30892 27.26505,15.31574 2.33034,1.25357 5.79001,2.49943 8.2506,3.51306 1.03943,0.42818 4.06547,1.9041 3.0997,1.32876 -5.75963,-3.43123 -11.66824,-6.60598 -17.50236,-9.90896 0.43729,-0.41549 1.00097,-0.70635 -0.41285,-1.19837 -2.49721,-0.86904 -5.19594,-0.99222 -7.76935,-1.59952 -5.27423,-1.24466 -5.08895,-1.24306 -10.50009,-2.70487 -8.0419,-3.07301 -15.99073,-6.55041 -23.68655,-10.42683 -1.76343,-0.88825 -6.92732,-3.79 -5.2306,-2.78013 4.5949,2.73484 9.28593,5.30485 13.92889,7.95727 -8.55617,-4.14087 -28.97456,-23.75641 -33.88362,-16.58185 -0.50191,0.73356 -0.56618,1.68509 -0.84928,2.52763 -0.35779,8.6563 4.49752,15.92248 8.75426,23.04117 6.22597,10.4159 14.14625,19.6346 21.86471,28.9467 7.23545,9.64453 16.30355,17.38646 25.99647,24.43229 1.66596,1.02126 3.30727,2.08384 4.99787,3.06378 7.75332,4.49412 15.50734,8.9886 23.33201,13.35732 1.46062,0.8155 3.01553,1.44943 4.51527,2.19055 13.02346,6.43572 -14.81016,-2.94345 -13.78868,-8.61105 -10.81885,-1.14196 -20.93234,-5.03839 -30.95547,-9.10644 -10.74511,-3.76714 -20.40779,-9.87974 -30.68828,-14.63339 -7.70315,-2.29039 -8.21581,2.34083 -4.97907,7.92742 5.95298,7.24219 12.32566,14.07397 18.06915,21.49741 10.83015,13.94632 26.93167,21.43869 42.24555,29.60171 1.54362,0.668 3.10262,1.30154 4.63086,2.004 3.28182,1.50851 6.53659,3.0754 9.7908,4.64258 1.50367,0.72416 5.91769,3.08526 4.47336,2.249 -17.25005,-9.98766 -20.36217,-13.45973 -15.34036,-8.142 -6.66264,-1.14133 -12.93094,-3.97938 -19.15047,-6.60265 -11.7622,-4.85273 -8.18574,4.62254 -4.86,10.87783 4.90277,8.55801 11.46257,15.61923 19.24471,21.58878 1.52796,1.01302 3.00478,2.10777 4.58388,3.03906 7.64074,4.50621 15.31302,8.96171 23.06776,13.26879 4.89912,2.72103 10.32191,4.30518 15.19053,7.0989 5.99426,3.29975 12.59434,5.72164 19.24575,7.33948 8.49962,2.8323 17.54001,3.31127 26.41693,3.843 9.56251,0.47536 19.13716,0.49368 28.7086,0.48135 9.75867,0.002 19.51724,-0.0245 29.27593,-0.0362 11.15299,-0.0415 22.30614,-0.0512 33.45921,-0.0589 10.19743,-0.0226 20.47394,0.72526 30.4028,-1.94973 8.43439,-2.61593 16.60286,-5.93505 24.74904,-9.31696 6.63855,-2.65896 12.75611,-6.28304 18.92758,-9.84781 0,0 -18.21029,-11.81645 -18.21029,-11.81645 v 0 c -6.11093,3.58657 -12.26298,7.05079 -18.93941,9.50509 -8.01809,3.43189 -16.15918,6.55807 -24.52304,9.05738 -9.81553,2.20717 -19.88159,1.61539 -29.88292,1.67144 -11.19881,-0.006 -22.39765,-0.0143 -33.59643,-0.0385 -9.76072,0.007 -19.52133,0.0168 -29.28203,0.0253 -9.53576,-0.0398 -19.07892,-0.046 -28.60297,-0.5759 -8.92429,-0.6304 -17.87329,-1.47619 -26.40148,-4.37185 -6.52296,-1.92125 -12.98104,-4.26842 -18.87894,-7.69296 -3.5567,-1.77185 -7.21059,-3.25904 -10.80503,-4.95157 -1.39477,-0.65676 -5.46729,-2.8365 -4.16371,-2.01345 3.0545,1.92854 22.83091,13.55944 9.42606,5.34717 -7.85045,-5.61294 -14.40564,-12.26555 -19.35113,-20.62699 -2.07906,-3.55432 -1.62929,-2.55028 -3.18788,-6.04114 -2.11888,-4.74579 2.87066,-0.32883 5.11764,-0.29146 4.4821,1.85543 15.83467,7.47611 20.54137,4.62851 0.86681,-0.52443 1.26512,-1.58272 1.89769,-2.37409 -0.23079,-0.65108 -0.11627,-1.57207 -0.69236,-1.95324 -12.82957,-8.48866 -26.26667,-15.32926 -40.22032,-21.60111 -1.48663,-0.81119 -5.90832,-3.31121 -4.45991,-2.43358 4.6653,2.82685 9.33249,5.65695 14.11365,8.28307 1.43197,0.78653 -2.74374,-1.77886 -4.05246,-2.75682 -2.65578,-1.98457 -5.33254,-4.34511 -7.62804,-6.7402 -1.14624,-1.19597 -2.1881,-2.48777 -3.28215,-3.73165 -5.63015,-7.33799 -11.60763,-14.30958 -17.78455,-21.18871 -3.01385,-4.03346 -4.32454,-5.38465 1.89069,-3.1312 10.04912,4.86332 19.80783,10.37357 30.34071,14.18813 8.06849,3.17439 21.05827,8.93667 29.80902,8.17467 1.30133,-0.11332 2.51531,-0.70598 3.77297,-1.05898 0.37464,-0.77985 1.81459,-1.81849 1.12392,-2.33955 -6.35316,-4.79305 -13.60975,-8.25489 -20.48343,-12.26593 -2.47749,-1.44571 -10.1374,-5.35338 -7.70276,-3.83662 4.48773,2.7958 9.14566,5.30903 13.69033,8.01129 1.68041,0.99916 -3.39798,-1.93446 -5.09697,-2.90169 -9.76629,-6.85722 -18.99507,-14.38802 -26.27307,-23.94575 -7.64667,-9.2052 -15.53311,-18.29795 -21.79014,-28.53826 -3.88708,-6.6779 -8.76967,-13.20276 -8.94819,-21.25191 -0.005,-1.27821 -0.33308,-0.94183 0.79108,-1.16767 -5.59805,-3.40143 -11.1961,-6.80287 -16.79415,-10.2043 -1.04938,-0.62506 2.05405,1.32326 3.05631,2.0214 6.11152,4.25707 1.05474,1.15468 7.76191,5.01158 16.92476,9.75011 33.73764,20.02778 52.39556,26.19982 4.23552,1.13314 15.38963,4.83768 19.54509,3.80086 2.77684,-0.69284 2.49426,-1.48904 2.8281,-3.43259 -6.89179,-3.93091 -13.72237,-7.97114 -20.67537,-11.79275 -2.17024,-1.19284 -4.60152,-1.83474 -6.8701,-2.82792 -1.4084,-0.61659 -5.47554,-2.76881 -4.19413,-1.91923 4.88511,3.23887 22.34317,13.25143 10.04146,6.16923 -9.03852,-5.75564 -17.66058,-12.12195 -24.00122,-20.90747 -6.07266,-7.99785 -11.50392,-16.43379 -16.43885,-25.17486 -2.54889,-4.68756 -4.93617,-9.43257 -7.26038,-14.23575 -1.40779,-2.90931 -3.05535,-5.71704 -4.19632,-8.74097 -0.51281,-1.35911 -0.76209,-2.80354 -1.14313,-4.20531 -1.13525,-4.41881 -0.97523,-3.33925 -1.64218,-7.56067 -0.16728,-1.0588 -0.50033,-3.05217 -0.30052,-3.13539 0.32557,-0.13559 1.33867,0.38007 1.04053,0.19167 -5.41627,-3.4226 -10.97052,-6.62182 -16.45578,-9.93273 9.46428,7.7325 17.52214,17.20112 27.93014,23.84427 7.81972,4.7633 15.61352,9.56941 23.45916,14.2899 1.50819,0.90743 3.06777,1.72656 4.60014,2.59254 1.5365,0.86833 6.12512,3.50949 4.60644,2.61037 -33.11366,-19.60469 1.95552,1.87565 13.96794,7.87267 1.2345,0.52152 2.39692,1.26651 3.70349,1.56457 0.98693,0.22515 2.12902,0.42117 3.03672,-0.0269 4.74973,-2.34478 -7.84603,-9.11549 -8.51473,-9.57274 -9.11468,-6.99806 -17.90285,-14.71626 -24.99689,-23.79428 -6.28453,-9.13353 -11.54181,-18.9566 -12.18241,-30.26714 -0.73515,-13.78332 -0.26247,-27.59726 -0.40971,-41.3955 -0.0673,-12.66959 -0.20924,-25.34661 0.16495,-38.01191 0.22938,-4.21096 0.31592,-7.65292 0.92212,-11.81273 0.21688,-1.48832 0.46819,-2.97906 0.88171,-4.42514 0.20822,-0.72811 1.56448,-1.58344 0.97106,-2.05393 -5.43437,-4.30861 -11.68613,-7.47232 -17.58537,-11.11863 -1.01971,-0.63028 1.9616,1.37857 2.9424,2.06785 5.29654,7.67899 9.01927,15.87718 13.21874,24.20496 6.10968,12.1158 12.59756,24.03224 19.05664,35.96356 14.52888,23.95752 31.56837,43.86086 53.91178,61.03878 41.81953,29.49155 86.13957,55.62117 133.21592,75.83858 27.312,11.06752 55.17569,23.8772 84.91058,26.2017 z"
           clip-path="url(#clipPath11-9)"
           transform="matrix(0.68936656,-0.14025514,0.11393335,0.84862953,41.881132,192.98284)" /><path
           style="fill:#8f8f00;fill-opacity:1;stroke-width:6.07829;stroke-linecap:round;stroke-linejoin:round"
           d="m 359.77842,912.92115 c -6.91107,-2.69844 -14.3313,-9.12769 -18.31191,-15.86632 -2.41419,-4.08692 -2.41361,-4.14686 0.0311,-3.20043 1.37028,0.53047 5.15957,1.28386 8.42066,1.67419 4.49262,0.53775 6.35364,0.19834 7.68082,-1.40082 2.70062,-3.25404 0.29259,-5.10357 -14.63026,-11.237 -12.31426,-5.06128 -14.26542,-6.38097 -24.77073,-16.75394 -6.27195,-6.19294 -11.22967,-11.43375 -11.01717,-11.64626 0.21251,-0.2125 5.04981,1.31533 10.74957,3.3952 15.35418,5.60278 30.43723,8.55159 34.88714,6.82062 1.97826,-0.76953 3.59684,-2.1904 3.59684,-3.15749 0,-0.9671 -5.42096,-4.31928 -12.04657,-7.4493 -10.55677,-4.98715 -13.56314,-7.24045 -24.3095,-18.22016 -11.91759,-12.17638 -25.11725,-29.81598 -25.11725,-33.56588 0,-2.38316 -0.42861,-2.47111 9.30168,1.90855 19.37275,8.7198 40.40016,11.77944 40.40016,5.87853 0,-1.90243 -12.88509,-8.55598 -20.05344,-10.35512 -4.68962,-1.17702 -13.8796,-9.51305 -21.1497,-19.18442 -6.68898,-8.89831 -20.92784,-32.21772 -20.1256,-32.96028 0.28016,-0.25932 9.338,3.86363 20.12853,9.16209 10.79053,5.29847 21.59163,10.02646 24.00245,10.50665 7.25369,1.44479 4.72293,-3.05741 -5.69269,-10.12723 -16.62398,-11.28389 -26.28442,-24.19438 -29.24323,-39.08152 -1.25589,-6.31901 -9.37524,-64.27109 -9.31762,-66.50484 0.0121,-0.46983 1.28189,1.20577 2.82171,3.72356 19.93249,32.59202 36.94698,52.16991 56.66767,65.20523 13.15926,8.69822 61.16739,32.4235 78.4206,38.75489 20.72763,7.6064 46.56648,14.74972 61.82457,17.09182 7.75067,1.18972 14.85037,2.38719 15.77711,2.66105 0.92673,0.27386 3.12814,3.59777 4.89201,7.38647 6.82804,14.6663 3.53064,31.48289 -11.96173,61.00419 -20.64001,39.33032 -33.42217,55.7942 -46.27902,59.609 -8.75747,2.59846 -27.68299,5.30856 -50.10006,7.17422 -22.64645,1.88476 -27.93522,1.69913 -35.47617,-1.24525 z"
           id="path115" /></g></g></g></svg>
