<?xml version="1.0" encoding="UTF-8" standalone="no"?>
<!-- Uploaded to: SVG Repo, www.svgrepo.com, Generator: SVG Repo Mixer Tools -->

<svg
   fill="#000000"
   height="1080"
   width="800"
   version="1.1"
   id="Layer_1"
   viewBox="0 0 512 691.2"
   xml:space="preserve"
   sodipodi:docname="pipe.svg"
   inkscape:version="1.3.2 (091e20e, 2023-11-25, custom)"
   xmlns:inkscape="http://www.inkscape.org/namespaces/inkscape"
   xmlns:sodipodi="http://sodipodi.sourceforge.net/DTD/sodipodi-0.dtd"
   xmlns:xlink="http://www.w3.org/1999/xlink"
   xmlns="http://www.w3.org/2000/svg"
   xmlns:svg="http://www.w3.org/2000/svg"><defs
   id="defs6"><linearGradient
     id="linearGradient25"
     inkscape:collect="always"><stop
       style="stop-color:#008000;stop-opacity:1;"
       offset="0"
       id="stop25" /><stop
       style="stop-color:#06ff52;stop-opacity:1;"
       offset="1"
       id="stop26" /></linearGradient><linearGradient
     id="linearGradient21"
     inkscape:collect="always"><stop
       style="stop-color:#008000;stop-opacity:1;"
       offset="0"
       id="stop20" /><stop
       style="stop-color:#06ff52;stop-opacity:1;"
       offset="1"
       id="stop21" /></linearGradient><linearGradient
     id="linearGradient17"
     inkscape:collect="always"><stop
       style="stop-color:#008000;stop-opacity:1;"
       offset="0"
       id="stop17" /><stop
       style="stop-color:#06ff52;stop-opacity:1;"
       offset="1"
       id="stop18" /></linearGradient><linearGradient
     id="linearGradient6"
     inkscape:collect="always"><stop
       style="stop-color:#000000;stop-opacity:1;"
       offset="0"
       id="stop6" /><stop
       style="stop-color:#000000;stop-opacity:0;"
       offset="1"
       id="stop7" /></linearGradient><linearGradient
     inkscape:collect="always"
     xlink:href="#linearGradient6"
     id="linearGradient7"
     x1="0"
     y1="256.00049"
     x2="512"
     y2="256.00049"
     gradientUnits="userSpaceOnUse" /><linearGradient
     inkscape:collect="always"
     xlink:href="#linearGradient17"
     id="linearGradient19"
     x1="193.10345"
     y1="63.601532"
     x2="606.89655"
     y2="63.601532"
     gradientUnits="userSpaceOnUse"
     gradientTransform="matrix(0.67081485,0,0,1.1164558,-12.816348,-17.401163)" /><linearGradient
     inkscape:collect="always"
     xlink:href="#linearGradient21"
     id="linearGradient20"
     x1="193.12573"
     y1="736.35736"
     x2="606.87427"
     y2="736.35736"
     gradientUnits="userSpaceOnUse"
     gradientTransform="matrix(0.67318875,0,0,1.1792385,-13.275504,-231.70708)" /><linearGradient
     inkscape:collect="always"
     xlink:href="#linearGradient25"
     id="linearGradient26"
     x1="249.80843"
     y1="400.76627"
     x2="550.19159"
     y2="400.76627"
     gradientUnits="userSpaceOnUse"
     gradientTransform="matrix(0.68897961,0,0,0.90746521,-19.101415,-18.874124)" /></defs><sodipodi:namedview
   id="namedview6"
   pagecolor="#ffffff"
   bordercolor="#000000"
   borderopacity="0.25"
   inkscape:showpageshadow="2"
   inkscape:pageopacity="0.0"
   inkscape:pagecheckerboard="false"
   inkscape:deskcolor="#4c4c4c"
   inkscape:zoom="0.46138717"
   inkscape:cx="377.12362"
   inkscape:cy="516.91945"
   inkscape:window-width="1366"
   inkscape:window-height="745"
   inkscape:window-x="1358"
   inkscape:window-y="-8"
   inkscape:window-maximized="1"
   inkscape:current-layer="Layer_1" />
<path
   style="fill:url(#linearGradient19);stroke-width:0.882897;stroke-linecap:round;stroke-linejoin:round"
   d="m 118.32071,84.880723 c -1.28936,-3.063724 -1.60039,-9.21579 -1.60039,-31.654303 0,-25.570108 0.16842,-28.13181 2.05613,-31.273586 2.03521,-3.387256 3.42689,-3.422086 136.73314,-3.422086 133.30625,0 134.69793,0.03484 136.73314,3.422086 1.88771,3.141776 2.05614,5.703478 2.05614,31.273586 0,22.438513 -0.31105,28.590579 -1.6004,31.654303 l -1.6004,3.802803 H 255.50959 119.92111 Z"
   id="path10"
   inkscape:export-filename="pipe.png"
   inkscape:export-xdpi="96"
   inkscape:export-ydpi="96" /><path
   style="fill:url(#linearGradient20);fill-opacity:1;stroke-width:0.882897;stroke-linecap:round;stroke-linejoin:round"
   d="m 118.78298,670.11669 c -1.89556,-3.32052 -2.06213,-6.00352 -2.04761,-32.98256 0.008,-16.1524 0.36633,-30.33372 0.79477,-31.51401 0.42844,-1.1803 2.07649,-3.01015 3.66234,-4.06633 4.0386,-2.68972 265.57643,-2.68972 269.61504,0 1.58585,1.05618 3.23389,2.88603 3.66234,4.06633 0.42844,1.18029 0.78608,15.36161 0.79478,31.51401 0.0145,26.97904 -0.15206,29.66204 -2.04763,32.98256 -2.0424,3.57772 -3.43901,3.6145 -137.21701,3.6145 -133.77799,0 -135.17461,-0.0368 -137.21702,-3.6145 z"
   id="path11" /><path
   style="display:inline;fill:url(#linearGradient26);stroke-width:0.882902;stroke-linecap:round;stroke-linejoin:round"
   d="M 153.0115,344.80733 V 97.948981 H 256.49043 359.96935 V 344.80733 591.66569 H 256.49043 153.0115 Z"
   id="path25" /><path
   style="display:inline;fill:#ffffff;fill-opacity:1;stroke-width:0.882897;stroke-linecap:round;stroke-linejoin:round"
   d="m 172.17206,322.9418 -3.46708,-4.00031 v -90.21855 -90.21855 l 2.91905,-3.58329 c 3.41454,-4.19153 6.8731,-5.33852 11.27802,-3.74024 5.45163,1.97807 6.51437,4.75317 7.43929,19.42604 1.00784,15.98812 1.0744,144.41738 0.0823,158.75968 -0.64055,9.26003 -0.97506,10.45796 -3.86906,13.85594 -4.46756,5.24557 -9.68101,5.14382 -14.3825,-0.28072 z"
   id="path23" /><path
   style="display:inline;fill:#ffffff;fill-opacity:1;stroke-width:0.882899;stroke-linecap:round;stroke-linejoin:round"
   d="m 174.96109,385.28028 c -4.49548,-2.71609 -6.25611,-6.9219 -6.25611,-14.94471 0,-13.13029 4.74577,-20.27113 12.21532,-18.38009 1.88123,0.47627 4.75755,2.38427 6.39182,4.24002 2.684,3.04773 2.97141,4.12254 2.97141,11.11209 0,4.2559 -0.42168,9.2347 -0.93707,11.06402 -1.87529,6.65619 -9.07795,10.11531 -14.38537,6.90867 z"
   id="path24" /><g
   id="g2"
   transform="matrix(0,1.3494896,-1,0,512.0005,5e-4)"
   style="display:inline;fill:#000000;fill-opacity:1;stroke-width:0.860826">
	<g
   id="g1"
   style="fill:#000000;fill-opacity:1;stroke-width:0.860826">
		<path
   d="m 486.038,102.894 h -29.275 c -14.316,0 -25.962,11.646 -25.962,25.962 v 9.894 H 81.719 v -9.894 c 0,-14.316 -11.647,-25.962 -25.963,-25.962 H 25.962 C 11.646,102.894 0,114.54 0,128.856 v 254.289 c 0,14.316 11.646,25.962 25.962,25.962 h 29.794 c 14.316,0 25.963,-11.646 25.963,-25.962 v -9.894 h 349.082 v 9.894 c 0,14.316 11.646,25.962 25.962,25.962 h 29.275 c 14.316,0 25.962,-11.646 25.962,-25.962 V 128.856 c 0,-14.316 -11.646,-25.962 -25.962,-25.962 z M 61.321,383.144 c 0,3.068 -2.496,5.564 -5.565,5.564 H 25.962 c -3.068,0 -5.564,-2.496 -5.564,-5.564 V 128.856 c 0,-3.068 2.496,-5.564 5.564,-5.564 h 29.794 c 3.069,0 5.565,2.496 5.565,5.564 z m 369.48,-30.292 H 81.719 V 159.148 h 349.082 z m 60.801,30.292 c 0,3.068 -2.496,5.564 -5.564,5.564 h -29.275 c -3.068,0 -5.564,-2.496 -5.564,-5.564 V 128.856 c 0,-3.068 2.496,-5.564 5.564,-5.564 h 29.275 c 3.068,0 5.564,2.496 5.564,5.564 z"
   id="path1"
   style="fill:#000000;fill-opacity:1;stroke-width:0.860826" />
	</g>
</g>
<g
   id="g4"
   transform="matrix(0,1.3494896,-1,0,512.0005,5e-4)"
   style="display:inline;stroke-width:0.860826">
	<g
   id="g3"
   style="stroke-width:0.860826">
		<path
   d="m 277.306,319.593 h -5.196 c -5.632,0 -10.199,4.567 -10.199,10.199 0,5.632 4.567,10.199 10.199,10.199 h 5.196 c 5.632,0 10.199,-4.567 10.199,-10.199 0,-5.632 -4.567,-10.199 -10.199,-10.199 z"
   id="path2"
   style="stroke-width:0.860826" />
	</g>
</g>
<g
   id="g6"
   transform="matrix(0,1.3494896,-1,0,512.0005,5e-4)"
   style="display:inline;stroke-width:0.860826">
	<g
   id="g5"
   style="stroke-width:0.860826">
		<path
   d="m 232.615,319.593 h -123.68 c -5.632,0 -10.199,4.567 -10.199,10.199 0,5.632 4.567,10.199 10.199,10.199 h 123.681 c 5.632,0 10.199,-4.567 10.199,-10.199 0,-5.632 -4.567,-10.199 -10.2,-10.199 z"
   id="path4"
   style="stroke-width:0.860826" />
	</g>
</g>
</svg>
