<?xml version="1.0" encoding="UTF-8" standalone="no"?>
<!-- Created with Inkscape (http://www.inkscape.org/) -->

<svg
   width="662.94769"
   height="491.06161"
   viewBox="0 0 662.94769 491.06164"
   version="1.1"
   id="svg1"
   inkscape:version="1.3.2 (091e20e, 2023-11-25, custom)"
   xmlns:inkscape="http://www.inkscape.org/namespaces/inkscape"
   xmlns:sodipodi="http://sodipodi.sourceforge.net/DTD/sodipodi-0.dtd"
   xmlns="http://www.w3.org/2000/svg"
   xmlns:svg="http://www.w3.org/2000/svg">
  <sodipodi:namedview
     id="namedview1"
     pagecolor="#ffffff"
     bordercolor="#000000"
     borderopacity="0.25"
     inkscape:showpageshadow="2"
     inkscape:pageopacity="0.0"
     inkscape:pagecheckerboard="false"
     inkscape:deskcolor="#3d3d3d"
     inkscape:document-units="px" />
  <defs
     id="defs1" />
  <g
     inkscape:label="Sound"
     inkscape:groupmode="layer"
     id="g27"
     transform="translate(-220.38855,-94.826053)"
     style="display:inline">
    <path
       style="display:inline;fill:#afafaf;fill-opacity:1;stroke-width:1;stroke-linecap:round;stroke-linejoin:round"
       d="m 478.05657,550.99162 c -4.11905,-4.65531 -11.82583,-14.43621 -17.12617,-21.7353 -5.30034,-7.2991 -19.42586,-23.16157 -31.39004,-35.24994 -19.42983,-19.63164 -23.33123,-22.6114 -36.53004,-27.90064 -13.81487,-5.53613 -15.5962,-6.98548 -27.35947,-22.26078 -19.89,-25.82845 -20.4596,-27.99569 -19.30789,-73.46781 1.73944,-68.67792 11.56298,-132.49761 20.39486,-132.49761 1.20918,0 6.07657,2.25001 10.81642,5.00003 l 8.61794,5.00003 6.59841,-5.67632 c 3.62913,-3.12197 14.64841,-11.20835 24.4873,-17.96973 9.83889,-6.76139 32.09477,-24.09438 49.45751,-38.51778 17.36274,-14.42337 39.50395,-32.30603 49.20268,-39.7392 9.69871,-7.43318 23.26873,-18.04765 30.15559,-23.58771 13.7494,-11.06055 19.77158,-13.71412 23.4516,-10.33356 3.41016,3.13262 4.52185,126.85995 1.57837,175.66158 -1.26629,20.99462 -4.66978,56.01573 -7.5633,77.82467 -2.8935,21.80882 -5.26431,44.19593 -5.26844,49.74888 -0.004,5.55306 -1.44628,19.04458 -3.20483,29.9812 -1.75853,10.93673 -4.97703,36.51274 -7.15221,56.8357 -2.62911,24.56409 -5.13164,39.04223 -7.46531,43.18995 -4.69976,8.35287 -14.9766,12.02291 -36.9595,13.19882 l -17.94431,0.95987 z"
       id="path18"
       inkscape:label="COLOR - front" />
    <path
       id="path19"
       style="display:inline;fill:#000000;fill-opacity:1;stroke-linecap:round;stroke-linejoin:round"
       d="m 550.07618,94.857835 c -0.9722,-0.04716 -1.94984,-0.04279 -2.93359,0.01953 -3.23221,0.204766 -6.45488,0.923233 -9.62891,1.529297 -9.45956,2.483032 -16.4531,6.717088 -23.03125,14.369138 -9.68175,9.408 -20.40406,17.60814 -30.13477,26.97266 -15.22181,13.75432 -30.34677,27.59137 -45.32226,41.64063 -7.42026,6.68953 -9.32437,8.64732 -17.16797,14.75781 -9.01254,7.02112 -18.70134,13.04922 -27.79883,19.94726 -4.7912,3.09421 -9.51938,6.27972 -14.09961,9.68555 l -0.38867,-0.26367 c -1.02398,1.18255 -2.25233,2.15846 -3.42773,3.18555 -1.45683,1.15964 -2.90741,2.32745 -4.31641,3.55859 l 0.67383,0.43164 c -0.0341,0.0425 -0.0846,0.10412 -0.11719,0.14453 -2.82617,3.79798 -4.40156,8.1666 -5.83398,12.61719 -1.56727,4.8656 -2.64098,9.85921 -3.64453,14.86523 -1.04751,4.99294 -2.21931,9.90666 -2.72461,14.99414 -0.48915,5.43126 -0.79894,10.87317 -1.16993,16.3125 -0.33673,6.82602 -0.94962,13.64022 -1.68945,20.4336 -0.76647,6.18247 -1.53326,12.36159 -2.29883,18.54492 -0.96003,8.68829 -1.15237,17.44274 -1.42968,26.17383 0.0172,9.66029 0.0897,19.31842 -0.13282,28.97851 -0.36895,6.1167 -0.36928,12.17304 0.49805,18.24024 0.73565,3.82219 1.84234,7.56675 3.26953,11.18554 2.13559,4.5732 5.12321,8.64315 8.07031,12.71094 3.45129,4.9641 6.71895,10.05143 10.25977,14.95313 2.24726,2.69639 4.10669,5.65241 5.98633,8.60351 1.75165,2.6295 3.87109,4.97908 5.9375,7.35938 2.12107,2.28839 4.7324,4.00718 7.34375,5.67578 6.35886,3.66166 3.32188,1.91269 5.78125,3.32812 0.0202,0.0235 0.0384,0.0488 0.0586,0.0723 -1.03539,-0.58981 -2.716,-1.56022 -3.14648,-1.79883 -0.45238,-0.2507 0.85525,0.58353 1.27148,0.89063 1.00134,0.73867 1.97708,1.50154 2.96875,2.24804 0.0673,0.075 0.12379,0.15963 0.19141,0.23438 5.95973,5.83188 12.05658,11.53998 17.13086,18.26367 7.16097,7.58675 14.21532,15.37818 19.73437,24.39648 6.06976,9.13283 16.51309,24.9975 25.21289,30.92188 11.24935,7.66055 22.93729,14.59159 34.40625,21.88672 2.21513,1.23123 4.34658,2.64618 6.64649,3.69336 8.33347,3.79428 17.52225,4.09193 26.43359,3.48242 10.07227,-0.78392 20.39058,-1.97627 29.54883,-6.74219 1.23884,-0.94687 2.60364,-1.73301 3.71484,-2.83984 5.63315,-5.61097 7.01568,-14.50451 8.17188,-22.0918 0.98284,-11.31825 1.89414,-22.61454 2.41992,-33.96875 1.25662,-12.87243 2.62016,-25.7475 4.48242,-38.53906 1.9918,-11.30275 3.98526,-22.75542 4.29883,-34.25195 0.33206,-12.22936 1.02788,-24.45212 2.64844,-36.57813 1.85028,-14.10818 2.8696,-28.35282 4.2207,-42.51953 1.52094,-17.66758 3.38213,-35.29334 4.87109,-52.95703 0.81649,-13.05142 0.38468,-26.12312 0.35743,-39.19531 0.0139,-14.24823 -0.024,-28.49594 -0.0137,-42.74415 -0.0169,-16.36692 -0.0294,-32.73637 -0.38867,-49.0996 -0.33223,-16.15809 -0.0994,-32.79599 -4.71094,-48.36719 -0.77414,-1.54223 -0.93405,-3.6657 -2.32226,-4.62696 -10.90239,-7.54935 -24.15328,-20.017247 -38.73633,-20.724606 z m 13.73633,22.318355 c 2.88791,11.65397 2.81374,24.17224 3.18164,36.11524 0.18654,16.22429 -0.0609,32.44866 -0.19727,48.67187 -0.10114,14.21655 -0.17717,28.4334 -0.18554,42.65039 -0.23122,13.02578 0.0356,26.05705 -0.25391,39.08008 -0.88898,17.77182 -2.08553,35.51434 -4.01172,53.20117 -1.53455,13.98972 -3.67489,27.89251 -5.21289,41.88282 -1.71875,12.1959 -2.45087,24.48369 -2.92578,36.78906 -0.0525,11.40136 -2.59693,22.59038 -4.11133,33.84961 -1.73937,12.91564 -3.05281,25.89731 -4.30273,38.87695 -0.91019,11.21611 -1.74382,22.42551 -3.05664,33.59961 -0.99735,9.69668 -2.65909,16.56437 -10.63672,22.16797 -8.88084,4.23468 -18.74469,4.75693 -28.34766,5.19141 -4.92285,0.28688 -9.91437,0.22185 -14.75,-0.66993 -2.3099,-2.09037 -4.72639,-4.36281 -6.58594,-6.5039 -4.88505,-5.62467 -9.03802,-11.86309 -13.16601,-18.09375 -5.21383,-8.89639 -11.65627,-16.84867 -18.45508,-24.43945 -5.30033,-6.51387 -11.08716,-12.51864 -17.01172,-18.40235 -4.24598,-4.01445 -7.73269,-8.76294 -11.0332,-13.62305 L 394.1836,454.49846 c -0.14617,-0.20851 0.92716,1.36871 -1.14844,-1.99609 -1.35364,-2.1945 -3.07441,-4.1598 -4.69335,-6.1543 -3.78882,-4.8062 -7.23521,-9.86248 -10.53125,-15.01758 -2.71879,-3.97049 -5.55248,-7.86967 -7.68946,-12.20117 -1.52948,-3.5542 -2.56511,-7.323 -3.65625,-11.0293 -1.24597,-6.08549 -1.3389,-12.25247 -1.43164,-18.44726 -0.22393,-9.65129 -0.19838,-19.30053 0.12305,-28.94922 0.11772,-8.63889 0.36857,-17.29617 1.71875,-25.84766 1.00112,-6.14999 1.95114,-12.30375 2.46094,-18.51953 0.6501,-6.79951 1.05761,-13.62238 1.76562,-20.41601 0.57443,-5.3917 0.99052,-10.79511 1.30664,-16.20704 0.60578,-5.02384 1.78186,-9.91328 2.66992,-14.88671 0.98573,-4.9503 2.26013,-9.8178 3.68164,-14.66016 1.38152,-4.19797 2.87868,-8.32476 5.62305,-11.85352 l 17.92578,11.49805 c 5.31928,-7.09612 12.84246,-11.73425 19.66406,-17.04102 2.05468,-1.59889 4.09284,-3.21958 6.16407,-4.79492 4.31422,-3.28129 8.86806,-6.21264 13.13672,-9.55859 8.5121,-6.67212 16.34085,-14.38663 24.33203,-21.71094 14.98106,-14.1905 30.44216,-27.77304 46.23633,-40.95508 9.73925,-9.64244 21.65724,-16.88352 31.44921,-26.33593 6.286,-6.58929 12.26021,-10.06636 20.52149,-12.23829 z m -91.02344,424.02735 c 3.74606,2.34463 4.61159,2.84073 7.34375,4.53906 -0.45789,-0.21897 -0.92355,-0.40878 -1.375,-0.65234 -2.08282,-1.12374 -3.97935,-2.59076 -5.96875,-3.88672 z"
       inkscape:label="STROKE - front" />
    <path
       style="display:inline;fill:#afafaf;fill-opacity:1;stroke-width:1;stroke-linecap:round;stroke-linejoin:round"
       d="m 237.32782,358.70393 c 0.56591,-59.13335 2.02464,-108.42741 3.24162,-109.54235 2.13322,-1.95434 36.57281,-4.53213 115.21406,-8.62373 l 37.30111,-1.94072 2.14165,30.79973 c 1.17791,16.93985 4.84757,56.09374 8.15481,87.00868 7.76378,72.57329 7.91339,96.75992 0.62007,100.24235 -2.96619,1.41619 -35.90245,3.3963 -73.19171,4.40019 -37.28925,1.00378 -73.80883,2.57798 -81.15459,3.49811 l -13.35595,1.67297 z"
       id="path20"
       inkscape:label="COLOR - back" />
    <path
       style="display:inline;fill:#000000;stroke-linecap:round;stroke-linejoin:round"
       id="path21"
       d="m 221.50668,239.03081 c 3.08549,28.79636 3.43336,57.84157 3.84608,86.77699 -0.17357,35.16357 0.28932,70.40262 -3.16146,105.43397 -0.54812,8.19047 -3.53137,16.67402 -0.37596,24.70675 5.34946,13.6181 41.09362,26.12623 42.32345,26.77617 12.5022,1.2431 24.97379,-0.86814 37.3101,-2.69361 19.12288,-2.91319 38.45326,-3.71343 57.75404,-4.43737 19.49384,-0.5887 38.9971,-0.15471 58.48847,0.29943 1.77408,-0.21164 3.58936,-0.19981 5.32222,-0.63493 11.12601,-2.79374 9.48829,-15.88836 9.15238,-24.66397 -1.38845,-16.93647 -4.59646,-33.6367 -6.66978,-50.48742 -1.08198,-8.79368 -2.62356,-24.71157 -3.50502,-33.52375 -2.38398,-24.14949 -3.12171,-48.4153 -3.81446,-72.65923 -0.2465,-8.11257 0.0264,-16.22465 0.0953,-24.33574 0.0232,-2.72796 0.10217,-7.72438 -0.50516,-10.55067 -0.30077,-1.39971 -0.95148,-2.7006 -1.42722,-4.0509 -17.04277,-23.1664 -39.63146,-24.17149 -63.63459,-24.80274 -14.30715,-0.32097 -28.5981,0.0675 -42.87275,1.01476 -13.74061,0.58456 -27.38356,2.29742 -41.09281,3.32836 -10.77074,0.67683 -21.56976,0.82378 -32.35945,0.8259 -3.79663,-0.0153 -7.593,-0.0636 -11.38936,-0.10805 0,0 29.3984,21.35508 29.3984,21.35508 v 0 c 3.67955,-0.0513 7.35905,-0.10681 11.03794,-0.19523 10.58841,-0.2494 21.1648,-0.6866 31.72257,-1.5732 13.61607,-1.10408 27.18803,-2.72133 40.83539,-3.45486 14.28564,-0.89706 28.57287,-0.93919 42.88321,-0.59021 6.60279,0.25813 13.35318,0.37519 19.85459,1.71152 2.04318,0.41997 7.7345,2.86005 6.03675,1.64817 -7.37188,-5.26219 -37.16516,-23.31844 -23.27053,-14.02855 0.7273,1.06553 1.69482,2.00199 2.18191,3.19659 0.90036,2.20817 1.53139,8.5082 1.67144,10.5472 0.56899,8.28388 0.31423,16.619 0.84623,24.90537 0.90403,24.84164 3.91767,49.48779 6.42958,74.20782 2.67612,27.2979 5.23736,54.6263 6.83004,82.00999 -0.0977,5.04105 1.10209,15.16234 -4.29153,18.45323 -2.41581,1.47399 -5.14504,1.47895 -7.84766,1.83663 -18.8455,0.48877 -37.68963,1.08342 -56.54236,1.21328 -19.8274,0.25904 -39.69829,0.77922 -59.34501,3.71738 -12.38101,1.32588 -25.09657,3.12439 -37.45411,0.79487 8.572,5.30645 17.21322,10.50268 25.716,15.91935 1.39719,0.89007 -3.06558,-1.33542 -4.3884,-2.33267 -9.41155,-7.09525 -6.66529,-18.29505 -6.39014,-28.50023 0.76963,-35.78256 -0.147,-71.55832 -0.16643,-107.34378 0.39982,-27.62386 0.63433,-55.39141 3.84608,-82.85764 z"
       inkscape:label="STROKE - back" />
    <g
       id="g24"
       inkscape:label="waves">
      <path
         style="fill:#000000;stroke-linecap:round;stroke-linejoin:round"
         id="path22"
         d="m 654.34064,256.88275 c 12.71536,-0.71949 5.64763,-0.0577 -28.59779,-16.36145 -1.6135,-0.76816 2.75035,2.33149 3.81419,3.76734 5.68653,7.67502 8.68781,17.57443 12.07757,26.34256 7.40357,20.48074 10.65623,41.99076 12.17515,63.61508 1.05889,21.39624 -5.8986,41.71861 -12.74187,61.64525 -3.51538,9.13698 -1.52344,4.86821 -5.85316,12.86284 0,0 30.30218,17.27306 30.30218,17.27306 v 0 c 4.13049,-8.71537 2.32597,-4.12157 5.31227,-13.82074 2.78752,-9.91692 5.58947,-19.80816 8.06993,-29.8084 1.93416,-7.79772 3.88875,-14.88495 4.64033,-22.90864 0.31977,-3.41384 0.1364,-6.85621 0.2046,-10.28431 -1.88912,-21.9511 -4.94061,-43.70791 -12.25695,-64.62403 -7.85089,-24.36087 -12.11457,-48.13819 -47.39775,-49.67742 z" />
      <path
         style="fill:#000000;stroke-width:1;stroke-linecap:round;stroke-linejoin:round"
         id="path23"
         d="m 708.40221,184.74332 c 10.72736,28.22952 18.02867,58.51119 24.80317,88.83758 6.44251,27.15274 8.69898,55.41705 10.20626,83.72101 0.51184,27.76776 -3.1246,56.41316 -12.05105,81.58795 -1.32018,3.72321 -2.98073,7.20341 -4.4711,10.80512 -4.02119,9.29031 -9.01628,16.93272 -15.85211,22.27702 0,0 30.21866,26.40879 30.21866,26.40879 v 0 c 6.653,-6.80108 11.31945,-15.60948 15.0048,-25.81392 3.52383,-10.27758 5.32773,-14.72323 7.90087,-25.92976 5.11014,-22.25563 8.26526,-45.7647 8.80899,-69.04643 -0.60246,-29.24395 -3.37643,-57.44891 -10.52234,-85.22618 -7.11557,-28.64563 -14.22504,-57.34711 -20.3979,-86.39389 z" />
      <path
         style="fill:#000000;stroke-width:1;stroke-linecap:round;stroke-linejoin:round"
         id="path24"
         d="m 790.34701,122.87102 c 17.86295,40.81087 30.63945,87.60461 42.58888,134.32235 10.39606,40.78206 16.52256,83.88375 19.43033,128.09434 1.42704,24.42333 1.54916,49.07334 -1.01126,73.28148 -1.48762,14.06506 -3.09153,22.97763 -5.27468,36.67808 -3.05758,21.29963 -7.64115,41.51156 -12.94431,61.34111 0,0 29.68048,29.2993 29.68048,29.2993 v 0 c 4.90627,-20.49737 9.93249,-40.91994 12.43766,-62.85169 5.55888,-36.57444 10.01123,-73.57427 7.23049,-111.65663 -3.36778,-45.95989 -11.38265,-90.09622 -22.27295,-132.31152 -2.81837,-11.0658 -11.91242,-47.02244 -14.95712,-57.97991 -6.81279,-24.51832 -14.50345,-48.30891 -21.08649,-73.03452 z" />
    </g>
  </g>
</svg>
