<?xml version="1.0" encoding="UTF-8" standalone="no"?>
<!-- Created with Inkscape (http://www.inkscape.org/) -->

<svg
   width="89.070496"
   height="155.34801"
   viewBox="0 0 89.070496 155.34802"
   version="1.1"
   id="svg1"
   inkscape:version="1.3.2 (091e20e, 2023-11-25, custom)"
   xml:space="preserve"
   sodipodi:docname="drawing.svg"
   inkscape:export-filename="drawing.png"
   inkscape:export-xdpi="96"
   inkscape:export-ydpi="96"
   xmlns:inkscape="http://www.inkscape.org/namespaces/inkscape"
   xmlns:sodipodi="http://sodipodi.sourceforge.net/DTD/sodipodi-0.dtd"
   xmlns="http://www.w3.org/2000/svg"
   xmlns:svg="http://www.w3.org/2000/svg"><sodipodi:namedview
     id="namedview1"
     pagecolor="#ffffff"
     bordercolor="#000000"
     borderopacity="0.25"
     inkscape:showpageshadow="2"
     inkscape:pageopacity="0.0"
     inkscape:pagecheckerboard="false"
     inkscape:deskcolor="#3d3d3d"
     inkscape:document-units="px"
     inkscape:zoom="0.2859375"
     inkscape:cx="695.95628"
     inkscape:cy="977.48634"
     inkscape:window-width="1366"
     inkscape:window-height="745"
     inkscape:window-x="1358"
     inkscape:window-y="-8"
     inkscape:window-maximized="1"
     inkscape:current-layer="g774" /><defs
     id="defs1" /><g
     id="g776"
     inkscape:label="Flappy Dolly"
     inkscape:export-filename="flappyDolly1.png"
     inkscape:export-xdpi="96"
     inkscape:export-ydpi="96"
     transform="translate(-790.76123,-876.37746)"><g
       id="g56"
       inkscape:label="bird"
       inkscape:export-filename="start_screen\bird_raw.png"
       inkscape:export-xdpi="96"
       inkscape:export-ydpi="96"><g
         id="g61"
         inkscape:label="colors"
         style="display:inline"><path
           id="path58"
           style="display:inline;opacity:1;fill:#bdc253;fill-opacity:1;stroke-width:1.37953;stroke-linecap:round;stroke-linejoin:round"
           inkscape:label="color"
           d="m 849.30078,879.03711 c -0.22228,0.01 -0.43895,0.0549 -0.64062,0.16016 -0.10937,0.0571 -0.19935,0.1458 -0.29883,0.21875 -0.0512,0.0909 -0.10857,0.17884 -0.15625,0.27148 -0.21863,-0.0394 -0.43384,-0.0908 -0.65625,-0.11523 -1.48999,-0.11545 -2.98421,-0.0637 -4.47656,-0.0527 -2.36406,-0.007 -4.72007,0.28192 -7.01954,0.81836 -1.80575,0.34144 -3.51407,1.00311 -5.22265,1.6543 -1.44177,0.57826 -2.71929,1.49186 -3.99414,2.36523 -1.09895,0.64265 -2.04302,1.50492 -3.02149,2.31055 -0.49329,0.39789 -0.90061,0.88469 -1.31836,1.35742 l 0.77539,0.46875 c -1.01566,1.01604 -2.00139,2.07733 -2.56836,3.41797 -0.23813,0.50282 -0.46664,1.01135 -0.69531,1.51953 -0.26226,0.25916 -0.50784,0.53499 -0.76172,0.80274 -1.08792,1.33906 -1.95884,2.84276 -2.33007,4.53515 -0.20968,1.05384 -0.10713,2.12847 -0.082,3.19336 -0.0187,0.44012 0.007,0.87578 0.0547,1.30859 -0.34778,-0.12781 -0.79076,-0.31915 -1.19531,-0.48437 -1.3862,-0.87157 -1.7408,-1.07123 -1.25391,-0.11133 -10e-4,0.009 -2.4e-4,0.025 -0.002,0.0332 -0.1017,0.48515 -0.1334,0.94788 -0.0449,1.43946 0.0768,0.51264 0.18439,1.0212 0.33008,1.51562 -0.23141,0.44063 -0.005,1.19787 0.61914,2.26172 0.0223,0.24606 0.0345,0.49335 0.0644,0.73828 0.18961,1.56355 0.81434,2.57563 1.72266,3.82227 0.77223,1.07955 1.6216,2.09834 2.51562,3.07812 0.22609,0.2494 0.47709,0.47224 0.7207,0.70313 l -0.57031,-0.27344 c 0.13219,0.1816 0.12031,0.41152 0.16406,0.62109 0.0157,0.0752 0.0393,0.15022 0.0586,0.22461 0.10976,0.38178 0.21634,0.76746 0.36914,1.13477 0.0511,0.14412 0.15681,0.26009 0.22851,0.39258 0.0348,0.0643 0.061,0.13091 0.0918,0.19726 l 1.91602,0.90625 c 0.22854,0.43821 0.46451,0.87255 0.72461,1.29297 0.92302,1.47754 1.97848,2.86533 3.02343,4.25781 v 0.002 c -0.0152,0.24328 -0.0221,0.48809 -0.043,0.73047 -0.0621,0.72029 -0.0971,1.44412 -0.18164,2.16211 -0.25462,2.1606 -0.68729,4.30289 -1.11718,6.43359 -0.50442,2.23878 -1.08243,4.46507 -1.89258,6.61328 -0.46447,1.063 -0.66098,2.1873 -0.76367,3.32617 -0.8688,-0.58816 -0.80385,-0.33124 -0.56641,1.20899 0.14712,1.68504 0.0566,3.37651 0.0273,5.06445 -0.003,0.33362 0.0327,0.662 0.0762,0.98828 -0.007,0.17244 -0.008,0.34508 -0.0176,0.51758 -0.0174,0.32288 -0.0364,0.64483 -0.0664,0.9668 -0.0211,0.22647 -0.27433,0.55021 -0.0859,0.67773 0.065,0.044 0.13381,0.0816 0.19922,0.125 -0.0161,0.1148 -0.054,0.1504 -0.24218,0.16992 0.31437,0.14477 0.62196,0.30547 0.93359,0.45703 0.0674,0.22353 0.13487,0.44809 0.19726,0.67188 0.38926,1.43647 0.75779,2.87858 1.13477,4.31836 0.45288,1.46185 1.10338,2.84944 1.70313,4.2539 0.39406,1.1795 0.98321,2.24375 1.61914,3.30469 0.78628,1.17849 1.27908,2.50408 1.85156,3.78906 0.45058,0.82729 0.92565,1.63724 1.31055,2.49805 0.33384,0.72842 0.60853,1.4817 1,2.18164 0.55331,0.71956 1.15094,1.39947 1.69335,2.12891 0.28424,0.42725 0.628,0.80245 0.98047,1.16992 l -0.58007,-0.27148 c 0.27354,0.44714 0.47533,0.93051 0.63671,1.42773 0.0913,0.25647 0.1595,0.52603 0.29297,0.76562 0.0661,0.11862 0.10163,0.15399 0.1836,0.25782 0.14059,0.15673 0.2606,0.33557 0.41406,0.48047 0.0771,0.0728 0.15764,0.14174 0.23633,0.21289 0.38856,0.34297 0.68925,0.76632 1.03711,1.14648 0.20237,0.21597 0.43188,0.40503 0.66406,0.58789 0.1886,0.14075 0.37356,0.28276 0.55273,0.43555 0.27457,0.26661 0.51794,0.56114 0.75196,0.86328 0.25207,0.3051 0.42494,0.66167 0.63476,0.99414 0.21336,0.3231 0.45525,0.62584 0.6875,0.93555 0.42576,0.59098 0.84646,1.18714 1.25391,1.79101 0.16072,0.22863 0.32719,0.45624 0.52344,0.65625 0.0917,0.0935 0.19004,0.17949 0.2832,0.27149 0.2578,0.23511 0.50901,0.47614 0.75586,0.72265 0.18565,0.17064 0.34364,0.36885 0.51953,0.54883 0.0658,0.0568 0.13713,0.10418 0.20508,0.1582 l 1.41211,0.54688 c 2.0357,2.1709 4.70953,2.97185 7.63476,4.55664 0.13605,-0.0856 0.28344,-0.15646 0.40821,-0.25781 0.1957,-0.15895 0.53749,-0.57696 0.69921,-0.76172 0.37392,-0.42717 0.75891,-0.84516 1.14454,-1.26172 0.69045,-0.76356 1.18298,-1.67635 1.72656,-2.54492 0.70428,-1.23128 1.4731,-2.4204 2.23047,-3.61914 0.52366,-0.91747 1.30593,-1.63542 1.96484,-2.44727 0.22951,-0.28278 0.59306,-0.79509 0.81055,-1.09765 0.57063,-0.81897 1.20263,-1.59107 1.8164,-2.37696 0.61449,-0.76212 1.29456,-1.45877 1.86719,-2.2539 0.67714,-0.81953 1.37245,-1.62534 2.03516,-2.45703 0.7058,-1.08395 1.53758,-2.07082 2.23828,-3.15821 0.72943,-0.95543 1.10438,-2.07792 1.54883,-3.17773 0.30608,-0.9649 0.69174,-1.91766 0.92773,-2.9043 0.0526,-0.21994 0.2812,-1.47059 0.32031,-1.68164 0.0919,-0.48994 0.15404,-0.98408 0.22852,-1.47656 0.89512,0.8066 1.04723,0.71165 1.95117,-0.63672 0.27908,-1.28141 0.0968,-2.61153 0.21289,-3.91406 0.0162,-1.13292 -0.0719,-2.26527 -0.0664,-3.39844 0.0115,-1.46897 -0.0134,-2.93764 0.0312,-4.40625 0.0283,-1.1237 0.021,-2.2504 -0.0703,-3.37109 -0.13543,-1.53821 -0.27348,-3.07737 -0.35937,-4.61914 -0.10205,-2.04689 -0.2596,-4.09063 -0.375,-6.13672 -0.0482,-2.32847 0.0546,-1.64183 -2.79883,-2.46485 -0.23755,-0.80051 -0.60211,-1.57301 -1.01758,-2.29492 -0.22353,-0.30916 -0.49105,-0.57749 -0.7832,-0.81836 -0.0855,-0.16869 -0.17193,-0.33711 -0.27539,-0.50391 -1.74157,-2.22173 -4.47172,-3.19226 -6.96289,-4.52539 0.16447,-0.32326 0.33579,-0.64383 0.48828,-0.97265 0.92476,-1.86855 1.83583,-3.74265 2.74414,-5.61914 0.83477,-0.72612 1.62702,-1.49438 2.37695,-2.31055 1.04875,-1.20628 1.80736,-2.61728 2.61719,-3.98633 0.74334,-1.33651 1.4171,-2.71466 1.82031,-4.19336 0.22371,-1.64479 0.12148,-1.8378 -1.13281,-2.26367 0.0451,-1.05567 0.0431,-2.1134 0.043,-3.16992 0.0276,-0.95047 0.007,-1.90102 0.0156,-2.85156 0.002,-0.93333 -0.0139,-1.86553 -0.002,-2.79883 0.0891,-0.8939 -0.17324,-1.71711 -0.50586,-2.53125 -0.31592,-0.81424 -0.88482,-1.48053 -1.38867,-2.18164 -0.62908,-0.95629 -1.45924,-1.73496 -2.27734,-2.52344 -0.85072,-0.89589 -1.7016,-1.79143 -2.59375,-2.64648 -0.77991,-0.73559 -1.63758,-1.38268 -2.52149,-1.99219 -0.20467,-0.26631 -0.41022,-0.53133 -0.62304,-0.79102 -0.002,-0.0477 -10e-4,-0.0956 -0.01,-0.14258 -0.12255,-0.69787 -0.74322,-1.65033 -1.13672,-2.25 -0.0786,-0.098 -0.1577,-0.19692 -0.23633,-0.29492 l -1.27344,-0.5332 c -0.099,-0.15944 -0.19226,-0.32209 -0.27148,-0.49414 -0.45734,-0.82385 0.17224,0.29089 -0.30078,-0.48828 -0.0494,-0.0814 -0.0903,-0.16773 -0.13477,-0.25196 -0.0444,-0.0841 -0.0536,-0.20134 -0.13281,-0.2539 -2.81182,-1.86415 -2.10628,-1.60269 -3.48242,-2.08399 -0.48821,-0.10641 -0.98176,-0.0683 -1.47266,0.0117 -0.0239,0.005 -0.0591,0.0125 -0.0859,0.0176 -0.57425,-0.24027 -1.16787,-0.4303 -1.78711,-0.55078 -0.35241,-0.055 -0.73891,-0.13532 -1.10938,-0.11914 z m 7.07617,2.78906 c 0.0892,0.0267 0.17989,0.0572 0.27344,0.10156 0.60176,0.46116 0.40794,0.32238 -0.27344,-0.10156 z m -2.60742,1.34766 c 0.29203,0.16649 0.31714,0.1874 0.58985,0.34375 -0.0455,-0.0195 -0.0928,-0.0356 -0.13672,-0.0586 -0.15804,-0.0828 -0.60812,-0.37352 -0.45313,-0.28515 z m 8.81836,48.19531 c 0.039,0.006 0.11741,0.049 0.17578,0.0723 -0.01,0.0477 -0.0264,0.0937 -0.0391,0.14062 -0.11637,-0.0667 -0.23317,-0.13262 -0.34961,-0.19922 0.0711,-0.005 0.14241,-0.0237 0.21289,-0.0137 z m -10.66211,63.27734 c 0.16298,0.0945 0.32739,0.18651 0.49024,0.28125 0.10774,0.0627 -0.23332,-0.0935 -0.33985,-0.1582 -0.0556,-0.0338 -0.0977,-0.0854 -0.15039,-0.12305 z" /><path
           id="path64"
           style="display:inline;opacity:1;fill:#262626;fill-opacity:1;stroke-width:1.37953;stroke-linecap:round;stroke-linejoin:round"
           d="m 816.94727,897.19922 c -0.0219,1.01397 -0.0311,2.02729 -0.0664,3.04101 -0.0254,1.02062 -0.0424,2.04172 -0.0586,3.0625 l -2.4043,-1.22461 c 0.0408,0.15099 0.0692,0.3038 0.0937,0.45704 -0.69666,-0.5022 -0.63915,-0.49045 -0.54883,0.10742 h -0.002 c 9.9e-4,0.002 9.8e-4,0.004 0.002,0.006 0.0202,0.13438 0.0412,0.29352 0.0547,0.48633 0.009,0.12923 0.016,0.25932 0.0234,0.38867 -0.58901,-0.31613 -1.1802,-0.62933 -1.77735,-0.92969 -0.0215,-0.0108 2.4e-4,0.0196 0.0195,0.0527 -0.0194,-0.01 -0.0392,-0.0193 -0.0586,-0.0293 0.0123,0.0437 0.031,0.0859 0.0371,0.13086 0.007,0.0508 0.01,0.10129 0.0117,0.15234 -9.8e-4,0.005 -0.003,0.009 -0.004,0.0137 -0.0395,0.20365 -0.10375,0.40567 -0.0625,0.61524 0.004,0.0145 0.009,0.0284 0.0117,0.043 -0.0307,0.24715 -0.033,0.26709 -0.0664,0.50976 -0.66204,-0.39058 -1.32917,-0.77383 -1.99023,-1.16601 -0.0701,0.0754 -0.14682,0.146 -0.21094,0.22656 -0.16753,0.21045 -0.19385,0.31709 -0.32226,0.56445 -0.17492,0.33697 -0.35335,0.67279 -0.53907,1.00391 -0.0743,0.13414 -0.15141,0.26666 -0.22656,0.40039 -0.52249,-0.19421 -1.14158,-0.40245 -1.82617,-0.77735 -0.0692,0.0353 -0.1848,0.0866 -0.24414,0.14063 -0.17319,0.15775 -0.28251,0.39147 -0.40235,0.58789 -0.207,0.33518 -0.43724,0.65714 -0.71679,0.93555 -0.0468,0.0446 -0.0956,0.0884 -0.14063,0.13476 -0.063,0.0652 -0.0928,0.098 -0.11328,0.1211 l -1.96289,-1.14258 c -0.0815,0.1466 -0.0468,0.0713 -0.10742,0.23047 -0.0188,0.0973 -0.0379,0.1672 -0.0352,0.26758 0.006,0.20781 0.0804,0.41173 0.1211,0.61328 0.0661,0.19083 0.13377,0.37683 0.22265,0.55859 0.14477,0.2961 0.0237,0.0401 0.17383,0.30664 0.0262,0.0465 0.0483,0.095 0.0723,0.14258 0.35017,0.20697 2.39691,2.38974 3.52539,1.81836 0.13586,-0.0688 0.24489,-0.17716 0.35351,-0.28125 0.19569,-0.19845 0.39462,-0.39329 0.59571,-0.58594 0.46821,0.22488 1.08668,0.54825 1.92578,1.04883 0.14113,-0.14238 0.24972,-0.29873 0.37304,-0.45703 0.0628,-0.0806 0.12428,-0.16264 0.18555,-0.24414 -0.38924,1.2074 -0.0293,0.18158 3.32422,1.77929 0.0293,0.014 0.0114,-0.0633 0.0137,-0.0957 0.003,-0.0401 0.005,-0.0809 0.008,-0.12109 -0.0111,-0.004 -0.006,-10e-4 -0.0176,-0.006 -0.005,-0.0169 -0.0101,-0.034 -0.0156,-0.0508 0.008,0.004 0.0271,0.0138 0.0352,0.0176 0.005,-0.0832 0.0116,-0.16696 0.0195,-0.25 l 1.38086,0.70313 c 0.0101,0.0481 0.0221,0.0959 0.0293,0.14453 0.0155,0.10442 -0.0731,0.26234 0.0176,0.31641 0.47516,0.28332 0.87337,0.53142 1.23242,0.75976 0.0142,1.08665 0.0815,2.20113 -0.16796,3.26563 l 3.29492,1.84765 c -0.14072,-1.24695 -0.26993,-2.49498 -0.36524,-3.74609 -0.23954,-2.14554 -0.21047,-4.30425 -0.13281,-6.45703 0.0339,-1.5897 0.16206,-3.17465 0.28125,-4.75977 0.0655,-0.98163 0.16349,-1.96117 0.2461,-2.9414 z m -2.73633,12.85351 c -7.9e-4,0.013 -0.001,0.0261 -0.002,0.0391 0.57995,0.23204 0.56515,0.22561 0.002,-0.0391 z m -7.32227,-5.27148 c 0.0186,-0.002 0.0858,0.009 0.11328,0.0156 0.0891,0.0209 0.13675,0.0833 0.16993,0.15624 -0.0942,-0.0548 -0.18927,-0.10876 -0.28321,-0.16406 -0.008,-0.005 -0.006,-0.007 0,-0.008 z m -2.65039,2.08203 c 0.002,-0.002 0.006,-0.002 0.0137,0.002 0.083,0.0454 0.1653,0.0928 0.24805,0.13868 -0.0409,0.0169 -0.08,0.0297 -0.11133,0.0254 -0.0614,-0.009 -0.16655,-0.15281 -0.15039,-0.16602 z"
           inkscape:label="beak" /><path
           id="path67"
           style="display:inline;opacity:1;fill:#c2a353;fill-opacity:1;stroke-width:1.37953;stroke-linecap:round;stroke-linejoin:round"
           d="m 846.92383,997.85938 c -0.12544,0.3499 -0.0692,0.21136 -0.27344,0.66796 -0.0993,0.22196 -0.18738,0.45002 -0.30273,0.66407 -0.37182,0.69 -0.56749,0.88119 -1.03711,1.52539 -0.21585,0.296 -0.42539,0.5947 -0.63867,0.8926 -0.24006,0.3397 -0.47929,0.6808 -0.72071,1.0195 -0.25915,0.3636 -0.52909,0.7195 -0.78125,1.0879 -0.70591,1.0315 -0.88976,1.3842 -1.55273,2.457 -0.50672,0.8199 -1.01911,1.6361 -1.52735,2.4551 -0.23303,0.362 -0.46148,0.727 -0.69922,1.0859 -1.14137,1.7229 -0.14682,0.1473 -1.16992,1.754 -0.41759,0.6557 -0.80952,1.325 -1.23632,1.9746 l -0.1504,-0.088 c -0.8543,0.9553 -0.45141,0.4857 -1.21289,1.4023 -0.0226,0.026 -0.0458,0.051 -0.0684,0.076 -0.12658,0.029 -0.25239,0.059 -0.3789,0.088 -0.18862,0.044 -0.37929,0.083 -0.56641,0.1328 -0.52279,0.1392 -1.028,0.3399 -1.54297,0.5039 -0.32677,0.085 -0.16678,0.041 -0.47656,0.1348 l 2.15039,1.4511 c -0.006,0.01 -0.0115,0.017 -0.0176,0.025 -0.15186,0.2049 -0.31648,0.3995 -0.47461,0.5996 -0.73163,0.78 -1.25471,1.7051 -1.76171,2.6367 -0.0574,0.1171 -0.12185,0.2312 -0.17188,0.3516 -0.10687,0.2573 -0.1795,0.527 -0.2793,0.7871 -0.13796,0.3595 -0.28141,0.7169 -0.42968,1.0723 -0.17687,0.4998 -0.43051,0.9694 -0.59766,1.4726 -0.0434,0.238 -0.18371,0.4378 -0.3125,0.6368 -1.49215,2.3055 -0.0788,0.2438 6.30078,4.0332 0.42404,-0.5684 0.99083,-1.0026 1.51367,-1.4746 0.11807,-0.085 0.23854,-0.1676 0.35547,-0.254 0.44867,-0.3313 0.46052,-0.3796 0.98633,-0.6601 0.20232,-0.108 0.41336,-0.1959 0.62109,-0.293 0.77805,-0.3636 0.45019,-0.2169 1.22266,-0.541 0.52219,-0.1931 1.04213,-0.4014 1.57812,-0.5547 0.151,-0.043 0.30744,-0.073 0.45899,-0.1133 0.92121,-0.2507 -0.0545,-0.018 0.83984,-0.2226 0.77096,-0.1767 1.56132,-0.1847 2.34766,-0.1817 0.76708,-0.1291 1.53445,-0.2516 2.30664,-0.3457 0.9057,-0.2463 1.84739,-0.3187 2.7793,-0.3984 0.18629,-0.022 0.3729,-0.037 0.55859,-0.064 0.40813,-0.058 0.81344,-0.1358 1.2207,-0.1992 0.57494,-0.09 1.14421,-0.1691 1.71289,-0.2929 0.3988,-0.1 0.80762,-0.1706 1.20508,-0.2754 0.51198,-0.1351 0.22082,-0.113 0.8086,-0.1992 0.1653,-0.024 0.33184,-0.034 0.49804,-0.051 0.46282,-0.05 0.92735,-0.078 1.39063,-0.1231 0.17683,-0.017 0.58626,-0.047 0.76562,-0.082 0.12162,-0.024 0.23969,-0.066 0.35938,-0.098 0.663,-0.1599 1.32963,-0.3035 1.98633,-0.4882 0.75278,-0.3065 1.46924,-0.6826 2.15429,-1.1192 0.33221,-0.2311 0.86118,-0.5151 1.07032,-0.8789 0.13194,-0.2296 0.12471,-0.3383 0.15624,-0.582 0.009,-0.3907 -0.14491,-0.7305 -0.39257,-1.0235 -0.29535,-0.2042 -0.53552,-0.4786 -0.76367,-0.7539 -0.32638,-0.4758 -0.52946,-1.022 -0.78907,-1.5351 -0.3454,-0.6284 -0.76745,-1.209 -1.15625,-1.8106 -0.34389,-0.528 -0.78796,-0.9782 -1.20703,-1.4453 -0.10868,-0.1317 -0.2243,-0.2575 -0.33594,-0.3867 0.31793,-0.016 0.63671,-0.029 0.95508,-0.031 l -2.41015,-1.6621 c -0.4357,-0.5453 -0.85424,-1.1034 -1.24805,-1.6796 -0.63886,-0.824 -1.15274,-1.7313 -1.64649,-2.6465 -0.47584,-0.9639 -0.97048,-1.9174 -1.48437,-2.8614 -0.16315,-0.3018 -0.35124,-0.5916 -0.47266,-0.914 -0.0205,-0.054 -0.002,-0.135 -0.0508,-0.166 -6.1978,-3.91041 -4.71897,-5.52997 -6.49414,-3.60551 z m 7.5957,4.98442 c 0.0203,-0.01 -9.5e-4,0.045 -0.002,0.068 -0.0872,0.1357 -0.13825,0.2071 -0.20703,0.3125 0.0157,-0.032 0.0267,-0.066 0.043,-0.098 0.003,-0.01 0.11524,-0.2602 0.16601,-0.2832 z m -17.42383,25.3535 c 0.0388,0.025 0.0785,0.048 0.11719,0.072 0.0441,0.028 -0.10518,0.087 -0.14648,0.055 -0.0352,-0.027 0.009,-0.082 0.0293,-0.1269 z"
           inkscape:label="tail" /></g><g
         id="g862"
         inkscape:label="stroke"
         style="display:inline"><path
           style="display:inline;fill:#000000;fill-opacity:1;stroke-width:1.37953;stroke-linecap:round;stroke-linejoin:round"
           id="path41"
           d="m 796.81413,907.91376 c 3.83047,-0.0748 7.54394,-1.27399 11.20448,-2.29724 3.84162,-1.07031 7.75232,-1.83531 11.70751,-2.32243 0,0 -5.95489,-4.20923 -5.95489,-4.20923 v 0 c -3.95175,0.54708 -7.84474,1.40598 -11.69627,2.44682 -3.70203,0.95112 -7.44744,2.14585 -11.31373,1.98439 z" /><path
           style="display:inline;fill:#000000;fill-opacity:1;stroke-width:1.37953;stroke-linecap:round;stroke-linejoin:round"
           id="path42"
           d="m 819.70378,903.32088 c 0.8496,-3.21588 2.09107,-6.31329 3.50407,-9.29067 1.34454,-2.60328 2.97552,-5.0098 5.16879,-6.87724 1.53166,-1.30411 2.33313,-1.72438 4.0224,-2.79144 4.48957,-2.39016 9.45804,-3.03025 14.3968,-3.38379 2.46169,-0.0191 5.00024,-0.35531 7.45049,0.0872 1.14262,0.20637 1.74163,0.56452 2.79556,1.05096 2.15152,1.40108 7.77316,4.09754 -2.4074,-1.47591 -0.38084,-0.2085 0.68784,0.54371 1.02251,0.82819 0.81716,0.69462 1.39123,1.25192 2.17952,1.99138 2.12155,1.92796 3.8878,4.2211 5.64066,6.51511 1.40604,1.81868 2.40415,3.91495 3.10423,6.13761 0.6342,1.74613 0.92553,3.57527 1.085,5.42965 0.16671,2.44788 0.19212,4.9031 0.18468,7.35638 -0.0429,2.41235 -0.62741,4.72453 -1.72481,6.82493 -1.0746,1.59702 -2.2134,3.11385 -3.1494,4.8106 -0.91272,1.81887 -2.53193,3.00164 -3.88711,4.41312 -0.72035,0.79631 -1.44603,1.58207 -2.20075,2.34131 0,0 6.24749,4.10141 6.24749,4.10141 v 0 c 0.7546,-0.76259 1.47855,-1.5526 2.20482,-2.34574 1.4274,-1.43641 3.07896,-2.69404 4.02992,-4.57232 0.93722,-1.69867 2.07674,-3.22944 3.11716,-4.8554 1.1413,-2.22637 1.79589,-4.65933 1.82571,-7.21152 -0.007,-2.44943 0.085,-4.90256 -0.0247,-7.34928 -0.15933,-1.90141 -0.37439,-3.82043 -1.04553,-5.60649 -0.6893,-2.30125 -1.65595,-4.52754 -3.0652,-6.43523 -1.78519,-2.30692 -3.52673,-4.67103 -5.64842,-6.64758 -0.84767,-0.82251 -2.18623,-2.28982 -3.13582,-2.9183 -3.23219,-2.13925 -6.54862,-4.3533 -10.02655,-6.07815 -0.48496,-0.18465 -0.95798,-0.40967 -1.45487,-0.55395 -2.85202,-0.82808 -5.93094,-0.23851 -8.82755,-0.18412 -5.0016,0.46858 -10.00739,1.22637 -14.53706,3.69713 -1.59823,1.02168 -2.6855,1.64112 -4.1497,2.87674 -2.26708,1.91317 -3.94371,4.41629 -5.34333,7.08553 -1.45932,2.98316 -2.70057,6.07735 -3.91274,9.18225 z" /><path
           style="display:inline;fill:#000000;fill-opacity:1;stroke-width:1.37954;stroke-linecap:round;stroke-linejoin:round"
           id="path44"
           d="m 798.70988,909.31751 c 4.4101,1.03403 8.93952,1.54042 13.40507,2.32405 2.53159,0.53718 5.06543,1.06434 7.60226,1.57933 0,0 -7.40884,-5.26278 -7.40884,-5.26278 v 0 c -2.4945,-0.47479 -4.98301,-0.97494 -7.4746,-1.46292 -4.62601,-0.79266 -9.34223,-1.35685 -13.81218,-2.7701 z" /><path
           style="display:inline;fill:#000000;fill-opacity:1;stroke-width:1.37953;stroke-linecap:round;stroke-linejoin:round"
           id="path45"
           d="m 812.83866,909.22701 c 0.14598,0.22203 0.30626,0.42769 0.43794,0.66609 0.86232,1.56121 1.58131,3.2708 2.4408,4.83882 1.01506,1.85185 1.10765,1.91875 2.22827,3.62985 3.96592,5.23472 9.01834,8.6346 14.25302,10.71202 0,0 -5.57745,-5.9351 -5.57745,-5.9351 v 0 c -1.32039,-0.56612 -1.66299,-0.67609 -2.95103,-1.37616 -0.43758,-0.23784 -1.69089,-1.11939 -1.2981,-0.76269 9.24197,8.39277 3.86148,3.17566 2.03914,1.09287 -1.868,-2.70086 -3.55099,-5.61632 -4.76078,-8.97628 z" /><path
           style="display:inline;fill:#000000;fill-opacity:1;stroke-width:1.37953;stroke-linecap:round;stroke-linejoin:round"
           id="path50"
           d="m 825.8927,924.39196 c -1.8443,1.82765 -3.33481,3.9793 -4.64266,6.22556 -0.49956,0.85801 -1.04438,1.69742 -1.42965,2.61426 -0.49804,1.18521 -0.80619,2.4438 -1.20928,3.66571 -0.30255,1.46027 -0.78149,2.89404 -0.90764,4.38079 -0.58856,6.93651 1.69571,16.65104 4.36981,23.03171 0.76118,1.81625 1.74109,3.52961 2.61164,5.29442 4.43892,7.70036 9.44216,15.17416 15.79471,21.38149 0,0 6.33651,2.63629 6.33651,2.63629 v 0 c -0.70047,-0.63081 -1.42681,-1.23315 -2.10142,-1.89241 -5.81818,-5.68578 -10.37425,-12.61348 -14.5216,-19.59675 -0.87608,-1.73974 -1.85631,-3.42927 -2.62826,-5.21921 -2.81022,-6.51616 -5.03741,-15.40456 -4.20351,-22.54352 0.16828,-1.44062 0.67281,-2.81977 1.00921,-4.22966 0.44562,-1.15296 0.81334,-2.34021 1.33684,-3.45886 0.41502,-0.88681 0.95223,-1.71003 1.47011,-2.5391 1.31666,-2.10788 2.84755,-4.23065 4.95779,-5.57743 z" /><path
           style="display:inline;fill:#000000;fill-opacity:1;stroke-width:1.37953;stroke-linecap:round;stroke-linejoin:round"
           id="path51"
           d="m 865.24543,928.63643 c -0.17278,-0.2736 3.08108,1.60091 2.30645,1.20915 -1.37821,-0.69703 -2.57434,-1.88056 -4.09008,-2.17694 -0.91378,-0.17867 1.46536,1.15351 2.13965,1.79557 2.24388,2.1366 2.3828,2.59393 4.22295,5.15911 2.80833,4.64579 4.35847,9.90142 4.28017,15.35294 -0.0582,4.04994 -0.53616,5.28498 -1.39698,9.21353 -1.39397,4.61862 -3.61038,8.88744 -6.43963,12.78714 -2.98636,4.11625 -6.62186,7.74642 -10.09181,11.44424 -4.1069,4.10822 -7.50658,8.83389 -10.97037,13.47571 0,0 5.70818,3.36812 5.70818,3.36812 v 0 c 3.22533,-4.76047 6.51059,-9.51297 10.57894,-13.60972 3.48771,-3.73299 7.1553,-7.3835 10.1843,-11.51397 2.89544,-3.94835 5.17604,-8.26394 6.60602,-12.95564 0.86424,-3.85518 1.39043,-5.36386 1.53046,-9.33539 0.19281,-5.46851 -1.16433,-10.84089 -3.88968,-15.57096 -1.72427,-2.58182 -1.86886,-3.0656 -3.9856,-5.24078 -3.47991,-3.57597 -8.09576,-5.77876 -12.5081,-7.9979 z" /><path
           style="display:inline;fill:#000000;fill-opacity:1;stroke-width:1.37953;stroke-linecap:round;stroke-linejoin:round"
           id="path53"
           d="m 845.21431,995.18324 c -5.02524,2.79589 -8.24764,7.54736 -11.28464,12.26596 -3.16396,5.3073 -5.45912,11.0189 -6.892,17.0156 -0.0801,0.4955 -0.21222,0.9854 -0.2404,1.4865 -0.21095,3.7519 4.9082,4.7063 7.65701,5.7447 0.42821,0.1617 0.8306,-0.3851 1.24472,-0.5801 0.53444,-0.2517 1.0673,-0.5068 1.60094,-0.7602 5.91017,-3.1155 12.48147,-4.2663 19.03088,-5.1174 2.88176,-0.3624 5.78403,-0.4464 8.67998,-0.6064 1.02724,-0.057 2.38432,0.015 3.27694,-0.7054 0.36676,-0.2959 0.51219,-0.7912 0.76829,-1.1869 -0.0126,-0.5972 0.0901,-1.2082 -0.0379,-1.7916 -0.29073,-1.3249 -1.46912,-3.5353 -2.10186,-4.6543 -1.56933,-2.7751 -3.41711,-5.3744 -5.2371,-7.9865 -3.44745,-4.5606 -7.29366,-8.81068 -11.25365,-12.92938 -1.06049,-1.13489 -2.2086,-2.18131 -3.33025,-3.25414 0,0 -6.66793,-2.74024 -6.66793,-2.74024 v 0 c 1.1794,1.10371 2.40809,2.15266 3.53583,3.31095 4.09531,4.08136 8.04735,8.31861 11.54587,12.93041 1.808,2.5626 3.61407,5.1065 5.14614,7.8486 0.63262,1.1322 1.60609,2.9624 1.97448,4.2693 0.12328,0.4373 0.10513,0.9026 0.1577,1.354 -0.15708,0.2753 -0.2196,0.6332 -0.47125,0.826 -0.71382,0.5467 -2.18813,0.5876 -2.95173,0.6617 -2.80479,0.2721 -5.61859,0.4629 -8.41134,0.8539 -6.69666,0.9047 -13.34842,2.1993 -19.55393,4.9835 -0.56307,0.2144 -1.11484,0.4612 -1.68923,0.6431 -0.36787,0.1165 -1.41966,-0.01 -1.13036,0.2499 1.6197,1.4296 3.5888,2.408 5.4272,3.5428 0.22894,0.1413 -0.45748,-0.3186 -0.58625,-0.5548 -0.16911,-0.3103 -0.2503,-0.6715 -0.27429,-1.024 -0.0338,-0.496 0.0689,-0.992 0.10337,-1.4879 1.0505,-6.0308 3.10693,-11.8012 6.30017,-17.0504 3.067,-4.4888 6.41733,-9.3719 11.72937,-11.35038 z" /></g><path
         style="display:inline;fill:#000000;fill-opacity:1;stroke-width:1.37953;stroke-linecap:round;stroke-linejoin:round"
         id="path55"
         d="m 831.71479,981.82275 c 0.28657,3.76698 0.47462,7.53845 0.59467,11.31528 0.0196,0.95178 0.0393,1.90356 0.0589,2.85534 0,0 3.03832,1.54032 3.03832,1.54032 v 0 c -0.0191,-0.95231 -0.0383,-1.90461 -0.0574,-2.85692 -0.079,-3.71884 -0.22235,-7.43969 -0.30137,-11.15569 z" /><path
         style="display:inline;fill:#000000;fill-opacity:1;stroke-width:1.37953;stroke-linecap:round;stroke-linejoin:round"
         id="path56"
         d="m 860.21591,984.40502 c 0.54615,3.83537 0.5552,7.7321 0.61046,11.59974 0,0 3.08503,1.56517 3.08503,1.56517 v 0 c -0.0783,-3.84602 -0.071,-7.69852 -0.339,-11.53733 z" /><circle
         style="display:inline;opacity:1;fill:#000000;fill-opacity:1;stroke-width:1.37953;stroke-linecap:round;stroke-linejoin:round"
         id="path57"
         cx="830.16394"
         cy="894.42621"
         r="3.9344263" /></g></g></svg>
