<?xml version="1.0" encoding="UTF-8" standalone="no"?>
<!-- Created with Inkscape (http://www.inkscape.org/) -->

<svg
   width="1080"
   height="1920"
   viewBox="0 0 1080 1920.0001"
   version="1.1"
   id="svg1"
   inkscape:version="1.3.2 (091e20e, 2023-11-25, custom)"
   sodipodi:docname="drawing.svg"
   inkscape:export-filename="drawing.png"
   inkscape:export-xdpi="96"
   inkscape:export-ydpi="96"
   xmlns:inkscape="http://www.inkscape.org/namespaces/inkscape"
   xmlns:sodipodi="http://sodipodi.sourceforge.net/DTD/sodipodi-0.dtd"
   xmlns:xlink="http://www.w3.org/1999/xlink"
   xmlns="http://www.w3.org/2000/svg"
   xmlns:svg="http://www.w3.org/2000/svg">
  <sodipodi:namedview
     id="namedview1"
     pagecolor="#ffffff"
     bordercolor="#000000"
     borderopacity="0.25"
     inkscape:showpageshadow="2"
     inkscape:pageopacity="0.0"
     inkscape:pagecheckerboard="false"
     inkscape:deskcolor="#3d3d3d"
     inkscape:document-units="px"
     inkscape:zoom="0.571875"
     inkscape:cx="473.87978"
     inkscape:cy="920.65574"
     inkscape:window-width="1366"
     inkscape:window-height="745"
     inkscape:window-x="1358"
     inkscape:window-y="-8"
     inkscape:window-maximized="1"
     inkscape:current-layer="layer1" />
  <defs
     id="defs1">
    <linearGradient
       id="linearGradient18"
       inkscape:collect="always">
      <stop
         style="stop-color:#e0ce14;stop-opacity:1;"
         offset="0"
         id="stop17" />
      <stop
         style="stop-color:#857620;stop-opacity:1;"
         offset="1"
         id="stop18" />
    </linearGradient>
    <linearGradient
       id="linearGradient16"
       inkscape:collect="always">
      <stop
         style="stop-color:#e0ce14;stop-opacity:1;"
         offset="0"
         id="stop15" />
      <stop
         style="stop-color:#857620;stop-opacity:1;"
         offset="1"
         id="stop16" />
    </linearGradient>
    <linearGradient
       id="linearGradient14"
       inkscape:collect="always">
      <stop
         style="stop-color:#e0ce14;stop-opacity:1;"
         offset="0"
         id="stop13" />
      <stop
         style="stop-color:#857620;stop-opacity:1;"
         offset="1"
         id="stop14" />
    </linearGradient>
    <linearGradient
       id="linearGradient12"
       inkscape:collect="always">
      <stop
         style="stop-color:#e0ce14;stop-opacity:1;"
         offset="0"
         id="stop11" />
      <stop
         style="stop-color:#857620;stop-opacity:1;"
         offset="1"
         id="stop12" />
    </linearGradient>
    <linearGradient
       id="linearGradient10"
       inkscape:collect="always">
      <stop
         style="stop-color:#e0ce14;stop-opacity:1;"
         offset="0"
         id="stop9" />
      <stop
         style="stop-color:#857620;stop-opacity:1;"
         offset="1"
         id="stop10" />
    </linearGradient>
    <linearGradient
       id="linearGradient8"
       inkscape:collect="always">
      <stop
         style="stop-color:#e0ce14;stop-opacity:1;"
         offset="0"
         id="stop7" />
      <stop
         style="stop-color:#857620;stop-opacity:1;"
         offset="1"
         id="stop8" />
    </linearGradient>
    <linearGradient
       id="linearGradient6"
       inkscape:collect="always">
      <stop
         style="stop-color:#e0ce14;stop-opacity:1;"
         offset="0"
         id="stop5" />
      <stop
         style="stop-color:#857620;stop-opacity:1;"
         offset="1"
         id="stop6" />
    </linearGradient>
    <linearGradient
       id="linearGradient3"
       inkscape:collect="always">
      <stop
         style="stop-color:#e0ce14;stop-opacity:1;"
         offset="0"
         id="stop3" />
      <stop
         style="stop-color:#857620;stop-opacity:1;"
         offset="1"
         id="stop4" />
    </linearGradient>
    <linearGradient
       inkscape:collect="always"
       xlink:href="#linearGradient6"
       id="linearGradient48"
       x1="362.22844"
       y1="792.44985"
       x2="615.00951"
       y2="792.44985"
       gradientUnits="userSpaceOnUse"
       gradientTransform="translate(10.491803,22.73224)" />
    <linearGradient
       inkscape:collect="always"
       xlink:href="#linearGradient8"
       id="linearGradient49"
       x1="524.13285"
       y1="770.5291"
       x2="759.6217"
       y2="770.5291"
       gradientUnits="userSpaceOnUse"
       gradientTransform="translate(-9.891767,-9.891767)" />
    <linearGradient
       inkscape:collect="always"
       xlink:href="#linearGradient10"
       id="linearGradient50"
       x1="738.17448"
       y1="790.51921"
       x2="858.40537"
       y2="790.51921"
       gradientUnits="userSpaceOnUse"
       gradientTransform="translate(-2.4729418)" />
    <linearGradient
       inkscape:collect="always"
       xlink:href="#linearGradient18"
       id="linearGradient51"
       x1="185.11665"
       y1="1025.5357"
       x2="351.8993"
       y2="1025.5357"
       gradientUnits="userSpaceOnUse" />
    <linearGradient
       inkscape:collect="always"
       xlink:href="#linearGradient16"
       id="linearGradient52"
       x1="340.1546"
       y1="1060.1586"
       x2="435.1704"
       y2="1060.1586"
       gradientUnits="userSpaceOnUse"
       gradientTransform="translate(14.83765)" />
    <linearGradient
       inkscape:collect="always"
       xlink:href="#linearGradient14"
       id="linearGradient53"
       x1="434.55387"
       y1="1055.7185"
       x2="547.83998"
       y2="1055.7185"
       gradientUnits="userSpaceOnUse"
       gradientTransform="translate(21.832186,7.4188252)" />
    <linearGradient
       inkscape:collect="always"
       xlink:href="#linearGradient12"
       id="linearGradient54"
       x1="529.00022"
       y1="1056.6428"
       x2="633.3806"
       y2="1056.6428"
       gradientUnits="userSpaceOnUse"
       gradientTransform="translate(19.783534)" />
    <linearGradient
       inkscape:collect="always"
       xlink:href="#linearGradient3"
       id="linearGradient4"
       x1="154.0968"
       y1="753.64834"
       x2="379.24392"
       y2="753.64834"
       gradientUnits="userSpaceOnUse" />
  </defs>
  <g
     inkscape:label="Layer 1"
     inkscape:groupmode="layer"
     id="layer1">
    <path
       style="fill:#000000;stroke:url(#linearGradient4);stroke-width:15;stroke-linecap:round;stroke-linejoin:round;stroke-opacity:1;fill-opacity:1;stroke-dasharray:none;paint-order:stroke fill markers"
       id="path20"
       d="m 353.59028,627.53748 c -16.08423,-10.26359 -32.91819,-21.18186 -51.57091,-26.29378 -14.76411,-3.24665 -30.05668,-3.6793 -45.08519,-2.54211 -16.71655,3.20962 -31.83154,11.66372 -44.2127,23.30831 -3.89971,3.66772 -7.32067,7.81329 -10.98101,11.71994 -14.84245,16.87816 -26.16614,36.30106 -32.66113,57.85968 -3.99302,13.2539 -4.31154,18.30483 -6.42636,31.84813 -2.96996,24.50143 0.13471,48.98659 11.43139,71.10646 2.02068,3.95666 4.50277,7.66016 6.75416,11.49024 7.62826,10.95412 15.91222,22.25363 27.65203,29.17568 29.74978,17.54113 20.03121,14.11355 37.56194,19.2888 10.71201,2.01946 23.67002,2.57905 33.61252,-2.85702 7.83474,-4.28365 10.72874,-8.92784 16.44373,-15.58181 12.76765,-18.08624 17.16696,-39.49449 19.85743,-61.02291 0.62839,-10.30438 1.62282,-21.58215 -5.61567,-29.84813 -20.20263,-16.11132 -27.92112,-18.48904 -48.5129,-19.13793 -8.55098,-0.51988 -17.15998,0.23908 -25.70064,-0.41616 8.68614,5.84481 17.06834,12.16888 26.05843,17.53444 0.90685,0.54123 2.11101,-0.0729 3.16692,-0.0919 1.27001,-0.0228 2.54029,-0.0275 3.81048,-0.0332 4.05689,-0.0184 8.11428,-0.0113 12.17117,-3.2e-4 4.78895,0.39135 9.83276,-0.78675 14.48481,0.79771 1.21045,0.41227 2.31257,1.09209 3.46885,1.63814 -7.07763,-3.92491 -14.15526,-7.84983 -21.2329,-11.77474 10.91028,8.64491 17.52488,21.25153 23.76425,33.41449 7.07959,15.00172 12.75041,30.60497 19.21856,45.87347 5.92141,13.37259 9.12003,27.66158 13.18291,41.64816 4.46893,13.94001 8.36233,28.06356 11.89126,42.26953 0,0 25.6226,12.25533 25.6226,12.25533 v 0 c -3.74364,-14.16465 -7.30085,-28.41718 -11.80639,-42.35253 -4.31193,-14.05426 -7.28635,-28.55561 -13.26967,-42.04807 -6.62974,-15.26527 -12.42324,-30.87424 -19.25553,-46.04801 -5.7994,-12.37588 -12.42578,-24.77302 -22.28968,-34.42177 -27.01154,-15.78794 -24.0971,-18.96541 -47.39407,-18.41152 -5.37415,0.007 -10.75572,0.0459 -16.12863,-0.0912 -12.62307,-0.32218 -5.99578,-2.15436 18.69469,17.35341 8.18741,-1.05934 16.60285,0.17289 24.82042,-0.0182 4.04513,0.24587 6.17339,0.28108 10.13316,0.87501 1.29251,0.19387 2.5811,0.43076 3.84858,0.74959 1.15939,0.29165 4.42572,1.72591 3.42041,1.07891 -13.44625,-8.65389 -30.95739,-17.73652 -19.42564,-11.71379 0.86567,0.55841 1.85224,0.96353 2.59702,1.67523 6.38916,6.10538 5.42567,18.44036 5.52415,26.29343 -1.93871,21.14725 -5.796,42.2101 -18.43905,59.87264 -6.04124,6.6476 -7.93288,10.09288 -16.14199,13.99553 -10.3353,4.91345 -22.33354,3.69239 -33.02426,1.13582 -12.42971,-4.41349 -10.45335,-4.215 11.03224,8.37037 2.42655,1.42138 -4.84776,-2.872 -7.10453,-4.54993 -8.85268,-6.58207 -15.81683,-15.10034 -22.18753,-24.02114 -2.3211,-3.74639 -4.8705,-7.36062 -6.96331,-11.23916 -11.66378,-21.61602 -15.37998,-45.72754 -12.63723,-70.00895 0.7522,-5.22359 1.2514,-10.48992 2.25659,-15.67079 5.27764,-27.20148 17.22753,-52.15945 36.01876,-72.61997 3.77293,-3.69146 7.31314,-7.63684 11.31879,-11.07438 12.69011,-10.89033 28.04843,-18.46202 44.55327,-21.13028 15.00748,-0.90543 30.20785,-0.31111 44.803,3.61183 5.53536,1.82392 10.6868,3.89355 15.89778,6.51129 1.48825,0.74762 5.86019,3.16435 4.42923,2.31219 -14.50788,-8.63968 -29.80489,-17.07361 -19.0413,-11.12284 z" />
    <path
       style="fill:#000000;stroke:url(#linearGradient48);stroke-width:15;stroke-linecap:round;stroke-linejoin:round;stroke-dasharray:none;stroke-opacity:1;paint-order:stroke fill markers"
       id="path7"
       d="m 504.15452,827.53374 c -0.88193,0.0413 -1.77808,-0.039 -2.64579,0.12405 -10.86479,2.04134 -24.41454,11.06 -33.90345,16.66389 -11.83562,6.69583 -17.82911,11.373 -31.75467,6.36188 -3.19193,-1.14862 -12.17614,-5.98283 -9.18411,-4.38426 4.5255,2.41786 9.19174,4.56253 13.7876,6.84379 -14.99107,-12.18778 -29.56656,-27.3496 -34.34304,-46.76368 -0.89545,-3.63957 -0.97199,-7.43293 -1.45798,-11.1494 0.46903,-11.26742 2.14024,-25.51866 12.03832,-32.97931 6.45141,-4.86273 9.90196,-4.23944 17.77098,-5.33571 1.90222,-11.11815 22.96303,14.20329 23.38013,6.15517 0.22749,-4.38965 -9.46313,-9.98458 -11.65247,-6.17308 -2.24446,3.90746 6.97076,5.7753 9.92787,9.17549 7.0142,8.06516 9.43527,14.32267 14.18202,23.7357 7.82679,14.83616 11.33497,32.84747 21.59951,46.38083 1.9816,2.61266 4.36658,4.89326 6.54987,7.33989 19.51803,16.05851 41.59378,30.38162 65.3202,39.27351 9.98643,3.74259 13.10084,4.07754 23.29431,6.34796 12.98927,0.70609 20.33908,-1.10243 30.93811,-8.14915 0,0 -24.2223,-15.48748 -24.2223,-15.48748 v 0 c -9.36084,6.44435 -16.86397,8.22237 -28.41587,7.11389 -10.23178,-2.39526 -12.69406,-2.59157 -22.73946,-6.57706 -3.89209,-1.54418 -12.43671,-9.26091 -11.43725,-5.19471 1.10349,4.48943 7.3244,6.50757 11.90804,7.11005 7.75742,1.01964 -25.77782,-13.06019 -19.05049,-13.71257 -2.16098,-2.26732 -4.50663,-4.37199 -6.48294,-6.80197 -3.94212,-4.84706 -6.16127,-9.48972 -8.90055,-15.07374 -5.08284,-10.3614 -9.20557,-21.13035 -14.10416,-31.5769 -4.39979,-9.15168 -7.30434,-16.52802 -13.73319,-24.5477 -11.58481,-14.4515 -27.48485,-21.09943 -44.19239,-29.7733 -3.84146,-1.99432 -8.04627,-3.31196 -12.27525,-4.23384 -4.0593,-0.88489 -8.27396,-0.76502 -12.41094,-1.14753 -8.55645,1.55087 -12.4093,1.07771 -19.3439,6.6382 -10.24622,8.21591 -11.77917,23.42834 -12.38104,35.3923 0.38397,3.898 0.32112,7.86625 1.15191,11.69398 4.30662,19.84198 18.94936,35.57689 33.77097,48.36547 10.86817,6.63757 34.87994,25.72375 52.4654,25.80683 8.99501,0.0425 15.86774,-5.43419 23.36352,-9.50822 11.41108,-6.52243 23.73374,-14.92424 37.39671,-14.3606 z" />
    <path
       style="fill:#000000;stroke:url(#linearGradient49);stroke-width:15;stroke-linecap:round;stroke-linejoin:round;stroke-dasharray:none;stroke-opacity:1;paint-order:stroke fill markers"
       id="path8"
       d="m 545.76748,743.19263 c -0.0711,-1.52817 13.42038,5.54061 10.15122,3.95842 -5.19586,-2.51468 -10.3443,-9.95253 -15.58895,-7.54125 -4.34967,1.99981 7.15606,6.38929 10.36264,9.9441 10.38791,11.51601 12.62946,16.43275 21.04522,29.80927 8.16864,14.40672 14.11085,29.85175 20.00352,45.27247 1.08171,2.83076 2.17121,5.65869 3.22318,8.50064 0.4635,1.25215 0.0912,3.2654 1.32291,3.78079 7.97139,3.33556 16.60342,4.79607 24.90513,7.1941 -7.41455,-22.08358 -9.81225,-45.33645 -11.56844,-68.43302 0.34606,-10.49197 -4.25973,-32.47189 3.37564,-41.29621 0.82637,-0.95505 2.10099,-1.40208 3.15149,-2.10312 1.34278,0.1986 2.76209,0.10683 4.02835,0.59579 1.87911,0.72562 7.08159,3.83207 5.25259,2.98805 -5.92131,-2.73248 -11.05643,-7.98893 -17.54322,-8.65974 -3.45391,-0.35718 4.88667,4.94313 7.14114,7.58404 5.69927,6.67618 7.7915,10.34332 12.65673,17.70192 8.90652,14.84129 13.9905,31.25867 16.3505,48.3034 -3.30628,-9.83071 1.97273,6.82104 23.931,8.87432 2.80706,0.26248 -1.98216,-5.28659 -2.735,-8.00352 -4.03395,-14.55823 -5.44494,-29.54998 -7.07057,-44.5093 -1.03783,-15.51849 -2.46077,-31.08354 -2.41958,-46.65503 0.0147,-5.56694 0.25905,-13.12819 1.81691,-18.71244 0.48188,-1.72734 1.48334,-3.26548 2.22502,-4.89821 1.00002,-0.64039 1.81541,-1.83902 3.00006,-1.92116 1.20477,-0.0835 4.3681,2.05711 3.3051,1.48399 -6.84231,-3.68902 -13.35238,-8.15794 -20.65009,-10.83553 -2.25996,-0.8292 3.51138,3.30608 5.08763,5.12554 4.21346,4.86361 5.50756,7.43763 8.86357,12.86533 8.12868,15.6253 12.77013,32.7938 17.82681,49.59092 4.87739,16.6894 8.83779,33.60475 12.42071,50.61056 2.17113,12.28975 5.73404,24.82115 12.83523,35.27119 1.30446,1.91963 2.88681,3.63493 4.33022,5.45239 5.67581,5.5746 2.78404,3.06264 8.61173,7.60842 0,0 26.81944,10.61457 26.81944,10.61457 v 0 c -6.24565,-4.2036 -3.14822,-1.85666 -9.23603,-7.11447 -1.52534,-1.69588 -3.19362,-3.27335 -4.57603,-5.08762 -7.56092,-9.92294 -11.12465,-22.41029 -13.38239,-34.46619 -3.7014,-17.17725 -7.86066,-34.22631 -12.89785,-51.06878 -4.78871,-16.91251 -9.24523,-34.11103 -16.95776,-49.98043 -2.19159,-3.75372 -9.53252,-16.55341 -12.94084,-18.83345 -9.47857,-6.34081 -19.32285,-12.20153 -29.56912,-17.20785 -1.39019,-0.67924 -3.22289,-0.17116 -4.61411,0.50597 -1.4373,0.69956 -2.26093,2.26032 -3.3914,3.39047 -0.64944,1.9353 -1.54907,3.80395 -1.94833,5.80589 -1.23968,6.21579 -1.05698,13.61031 -0.80904,19.79789 0.63111,15.74985 2.29637,31.46125 3.21564,47.193 1.17277,14.67963 2.09751,29.3882 4.72134,43.9014 0.47655,2.63597 -0.29948,6.07417 1.70275,7.85365 8.21874,7.30443 17.96761,12.74868 27.54867,18.14363 0.67253,0.37869 0.56278,-1.43738 0.84417,-2.15606 -3.67799,-17.48512 -7.89306,-34.38869 -17.21073,-49.93983 -5.5281,-8.76451 -5.95274,-9.95449 -12.29299,-18.00524 -2.10572,-2.67382 -3.82003,-5.80854 -6.56637,-7.81876 -9.82406,-7.19084 -20.33304,-13.41745 -30.84256,-19.56319 -5.54248,-3.24113 -6.11863,-2.27705 -11.54967,-1.31111 -1.18085,1.09393 -2.60866,1.9707 -3.54255,3.28178 -7.61014,10.68386 -2.13632,31.54891 -2.28231,43.61397 1.64559,22.85798 3.77498,45.72425 9.45074,68.00271 9.22373,5.74737 18.02902,12.22834 27.67119,17.24212 1.45255,0.7553 -1.81545,-2.73296 -2.56614,-4.18789 -1.50565,-2.91811 -2.83986,-5.92213 -4.19379,-8.91365 -6.98904,-15.44228 -13.08957,-31.29189 -21.1504,-46.23678 -7.8044,-13.21309 -10.04691,-18.26284 -19.59047,-29.84702 -2.89557,-3.5147 -5.69044,-7.26085 -9.37457,-9.93754 -10.25675,-7.45197 -21.26909,-13.81874 -32.18886,-20.26013 -5.01073,-2.95574 -6.93848,-2.93658 -11.97674,-3.81605 z" />
    <path
       style="fill:#000000;stroke:url(#linearGradient50);stroke-width:15;stroke-linecap:round;stroke-linejoin:round;stroke-dasharray:none;stroke-opacity:1;paint-order:stroke fill markers"
       id="path9"
       d="m 822.356,827.65566 c -8.9617,3.49328 -17.61842,4.83789 -27.23093,5.41821 -2.37437,-0.072 -4.75406,-0.0417 -7.12312,-0.21601 -5.33624,-0.3927 -8.87505,-0.84712 -13.83976,-3.07606 -2.20472,-0.98983 -8.4248,-4.72991 -6.25388,-3.66798 20.15798,9.86051 23.06903,15.46468 12.46533,2.2924 -7.14263,-14.22088 -12.06906,-29.86299 -12.63422,-45.86919 -0.27514,-7.79234 0.41225,-10.18365 1.54062,-17.53773 5.11575,-13.44751 11.74795,-15.50765 25.03355,-17.10978 7.51555,-0.29523 14.57555,1.77043 21.4304,4.66986 2.50741,1.06057 9.71713,4.89685 7.37642,3.50651 -24.01122,-14.26217 -21.12596,-12.48606 -11.90281,-4.90782 4.61467,5.51763 11.61362,12.48405 11.26149,20.43817 -0.19663,4.44165 -2.43344,6.01887 -5.07521,9.32355 -10.09559,9.83878 -23.43379,13.61234 -36.96802,15.79307 -5.09319,0.67405 -10.22543,0.96136 -15.35849,1.06877 -1.56836,0.0328 -6.0148,-0.0904 -7.71034,0.39096 -0.89439,0.25393 -1.6299,0.89503 -2.44485,1.34255 0,0 24.75946,16.32064 24.75946,16.32064 v 0 c 2.88824,-1.15068 5.88827,-0.93746 8.96532,-1.10299 5.10736,-0.27474 10.21366,-0.70621 15.25512,-1.59856 13.98805,-2.7589 27.53941,-7.39143 37.99622,-17.54976 3.42728,-4.16279 5.80486,-5.71096 6.42703,-11.26764 0.96747,-8.64064 -6.15395,-16.24939 -10.8646,-22.52335 -13.86847,-12.38903 -6.456,-6.41982 -36.35114,-23.20877 -9.09647,-5.10852 -19.74223,-7.58652 -30.10505,-7.18143 -15.21559,2.04841 -21.25289,5.37327 -26.5919,20.50012 -0.97444,8.19565 -1.47481,9.7991 -1.09175,18.47383 0.71769,16.25315 5.64041,31.92125 11.51697,46.97788 1.70185,2.60723 2.62002,5.94658 5.10556,7.8217 9.42219,7.10821 19.92953,12.6558 30.06183,18.70898 8.6264,5.15353 18.35027,6.1039 28.18941,5.71513 9.80286,-0.71587 19.33482,-2.26672 28.79151,-4.95635 z" />
    <path
       style="fill:#000000;stroke:url(#linearGradient51);stroke-width:15;stroke-linecap:round;stroke-linejoin:round;stroke-opacity:1;paint-order:stroke fill markers"
       id="path10"
       d="m 245.83878,928.49352 c -4.08889,3.2328 -8.96738,5.31993 -13.105,8.47242 -9.65707,7.3578 -18.66094,16.60014 -25.31314,26.76864 -2.4292,3.7132 -4.3339,7.7443 -6.50085,11.6165 -9.91605,24.88972 -10.27936,49.99142 -4.73607,75.96762 1.0434,4.8894 2.54908,9.6686 3.82363,14.503 4.69772,13.3631 9.90654,28.9751 22.69462,36.9998 29.8068,18.7043 20.56478,16.0282 39.89896,19.617 2.91727,-0.017 5.85568,0.3 8.75181,-0.051 14.85454,-1.8003 28.41581,-9.2619 39.03651,-19.5399 3.29179,-3.1856 6.14543,-6.7948 9.21814,-10.1922 17.12316,-25.1911 22.03285,-55.3859 24.79026,-85.0918 0.0549,-14.61772 -1.51902,-31.68262 -13.08645,-42.25472 -1.83682,-1.6788 -3.99015,-2.9744 -5.98522,-4.4617 -27.17595,-17.46833 -38.23739,-23.30839 -67.58342,-26.3099 -7.19714,-1.04464 -14.09642,-0.93398 -21.17747,0.53842 0,0 23.98954,16.71598 23.98954,16.71598 v 0 c 6.64738,-1.2724 13.22243,-1.179 19.95219,-0.3396 9.93418,1.1219 19.71555,2.5734 29.08304,6.2619 2.3599,0.9292 9.02985,4.5615 6.93318,3.1344 -5.62542,-3.8289 -11.71907,-6.9201 -17.57861,-10.3802 2.00311,1.2871 4.12742,2.4028 6.00933,3.8614 12.45622,9.6545 15.32857,26.0988 15.67614,40.8908 -1.8304,29.27762 -6.55503,59.06682 -23.87195,83.56182 -3.0525,3.2533 -5.85845,6.757 -9.15752,9.76 -10.56888,9.6206 -24.43707,16.4419 -38.8716,17.3307 -2.82215,0.1738 -5.64752,-0.2904 -8.47128,-0.4357 -9.55595,-2.5507 -20.50028,-6.2713 8.27474,7.7719 2.786,1.3596 -5.17765,-3.4668 -7.41822,-5.6093 -8.67121,-8.2917 -13.26804,-19.4095 -17.2994,-30.4422 -1.37252,-4.7861 -3.00163,-9.5059 -4.11756,-14.3581 -5.7171,-24.8592 -5.53274,-50.3132 4.48637,-74.04992 2.12545,-3.747 3.98324,-7.6591 6.37633,-11.2412 9.39996,-14.0702 23.07048,-26.3953 39.36952,-31.5121 z" />
    <path
       style="fill:#000000;stroke:url(#linearGradient52);stroke-width:15;stroke-linecap:round;stroke-linejoin:round;stroke-opacity:1;paint-order:stroke fill markers"
       id="path11"
       d="m 386.70456,1040.0131 c 8.78359,6.6914 -3.09819,-2.454 -22.56452,-12.3606 -0.89618,-0.4561 1.4655,1.3991 2.031,2.2305 2.59778,3.8196 3.8288,8.5628 5.18314,12.8993 3.62388,10.1674 6.26325,20.6273 9.14391,31.0152 1.6853,3.9928 2.73867,10.5086 6.94176,12.9626 28.45666,16.6147 18.38535,19.1424 32.13885,14.2787 1.23954,-1.2188 2.63324,-2.2984 3.71861,-3.6562 9.25081,-11.5729 12.35112,-28.7735 15.31277,-42.8822 1.47056,-8.0027 2.51494,-16.0639 3.89805,-24.0803 0,0 -25.19787,-13.3003 -25.19787,-13.3003 v 0 c -0.96637,8.1216 -1.64171,16.2786 -3.05387,24.342 -2.67957,13.2676 -5.69061,30.4667 -15.62075,40.5462 -0.9133,0.927 -2.12256,1.5063 -3.18384,2.2594 -11.35226,0.2445 -3.67492,-0.4165 19.29519,13.5057 0.85595,0.5188 -1.78483,-0.9481 -2.53191,-1.6141 -2.8854,-2.5726 -4.2001,-6.4733 -5.53316,-9.9467 -3.18436,-10.3188 -5.50805,-20.8974 -9.26246,-31.0456 -4.57143,-17.8071 -9.67269,-30.2056 -34.92914,-32.7463 z" />
    <path
       style="fill:#000000;stroke:url(#linearGradient53);stroke-width:15;stroke-linecap:round;stroke-linejoin:round;stroke-dasharray:none;stroke-opacity:1;paint-order:stroke fill markers"
       id="path12"
       d="m 537.54344,1097.2063 c -7.30301,0.7114 -15.0919,2.5649 -22.45514,1.4698 -2.0376,-0.3031 -3.97506,-1.0833 -5.96259,-1.625 -2.08874,-1.0964 -8.35565,-4.3844 -6.26623,-3.2893 5.66183,2.9676 10.7749,7.3846 16.98347,8.9066 3.09017,0.7575 -4.83374,-4.1555 -7.0225,-6.4647 -7.88747,-8.3214 -12.12219,-16.7057 -16.78852,-27.01 -2.62667,-9.189 -9.00316,-21.9272 -5.78077,-31.7849 1.23247,-3.7702 3.66191,-5.15 6.48584,-7.531 6.29997,-3.6806 13.85136,-3.9251 20.53774,-0.8585 2.02606,0.9292 7.71399,4.4583 5.71617,3.4699 -6.30976,-3.1218 -12.44477,-6.585 -18.66715,-9.8775 7.05009,6.2086 13.94123,13.7935 13.67236,23.8376 -0.048,1.7922 -0.54553,3.5439 -0.81829,5.3159 -0.65741,1.5143 -1.03031,3.1872 -1.97222,4.5431 -5.9189,8.5198 -27.37223,10.72 -36.92452,12.6629 -2.73219,0.5373 -5.46437,1.0745 -8.19656,1.6118 0,0 23.0847,16.0447 23.0847,16.0447 v 0 c 2.62578,-0.6009 5.25156,-1.2018 7.87734,-1.8027 11.15156,-2.2568 32.55488,-4.2535 39.32748,-14.3788 1.04524,-1.5627 1.47209,-3.4599 2.20814,-5.1899 0.3675,-1.9704 0.94561,-3.913 1.1025,-5.9112 0.85431,-10.8817 -5.372,-19.1817 -12.97771,-26.2044 -9.964,-6.1697 -19.8219,-12.5141 -29.89199,-18.5091 -9.16883,-5.4584 -19.63774,-6.014 -28.60098,0.047 -3.27017,3.1357 -5.85981,4.8588 -7.28775,9.4903 -3.27102,10.6094 3.40823,23.6988 6.19043,33.5995 1.43666,3.3884 2.67986,6.8655 4.30997,10.1652 11.42359,23.1239 32.43234,37.1746 56.4456,46.4393 2.1484,0.4061 4.26959,1.0009 6.44521,1.2183 7.88326,0.7875 16.02177,-0.8183 23.85614,-1.3965 z" />
    <path
       style="fill:#000000;stroke:url(#linearGradient54);stroke-width:15;stroke-linecap:round;stroke-linejoin:round;stroke-opacity:1;paint-order:stroke fill markers"
       id="path13"
       d="m 556.28247,999.64988 c 10.77314,15.98272 19.05709,33.54122 27.19133,50.97222 6.02458,13.0443 10.81227,26.5982 16.6339,39.721 0.59328,1.2711 1.15863,2.5555 1.77983,3.8132 1.01949,2.064 2.42206,3.9338 3.33831,6.0457 0.10436,0.2405 -0.30734,0.6879 -0.0634,0.784 28.54512,11.2398 30.03886,18.698 25.64033,6.0247 -3.85049,-9.28 -6.54566,-18.9685 -9.54664,-28.5402 -2.99667,-9.6627 -4.00407,-19.757 -4.62532,-29.8067 -0.73092,-11.6925 4.10047,-18.1152 12.98888,-24.9244 4.88277,-3.3343 10.41278,-5.2264 16.04545,-6.8156 0,0 -24.089,-16.4242 -24.089,-16.4242 v 0 c -5.79366,1.9358 -11.56713,4.0761 -16.46819,7.8399 -9.1815,7.617 -14.75002,14.8198 -14.35875,27.3194 0.51899,10.2569 1.69325,20.4745 4.26226,30.4447 3.08135,9.4929 5.82201,19.1029 9.30184,28.4617 4.19371,13.3499 -0.2895,1.8811 28.93041,17.2324 0.31108,0.1635 -0.75597,0.4277 -1.03282,0.2113 -2.861,-2.2366 -3.7348,-6.7596 -5.70202,-9.5985 -6.21874,-13.4678 -12.21939,-27.0335 -18.3634,-40.5461 -7.92127,-16.9626 -16.11477,-33.7969 -24.50826,-50.5275 z" />
    <path
       style="fill:#a91f12;fill-opacity:1;stroke:#000000;stroke-width:8;stroke-linecap:round;stroke-linejoin:round;stroke-dasharray:none;stroke-opacity:1;paint-order:stroke fill markers"
       id="path19"
       d="m 731.03666,1149.0414 c -0.72135,-7.1542 -3.03376,-14.6515 -1.18427,-21.822 0.38199,-1.481 1.11933,-2.8467 1.679,-4.2701 0.8227,-1.4117 1.44091,-2.9644 2.46811,-4.2352 7.58846,-9.387 24.09102,-11.7413 35.10576,-13.6679 17.43532,-2.3367 35.03349,-0.8586 51.9206,4.0666 3.39367,0.9898 6.67771,2.3227 10.01657,3.4841 3.06736,1.3539 12.32435,5.2838 9.20208,4.0618 -5.61016,-2.1957 -10.89162,-5.2784 -16.66956,-6.9845 -2.85786,-0.8438 5.24927,2.827 7.80097,4.3658 7.42655,4.4789 14.08851,9.7328 20.75767,15.2394 6.38857,5.9076 3.37164,2.9372 9.07949,8.8815 0,0 27.33843,8.5719 27.33843,8.5719 v 0 c -5.89228,-6.272 -2.75784,-3.1436 -9.44038,-9.348 -6.73014,-5.5873 -13.42861,-11.1394 -20.8672,-15.7862 -15.77257,-9.853 -33.23847,-16.6958 -50.36642,-23.819 -21.10098,-6.7333 -40.61092,-9.9304 -62.75129,-6.4455 -12.6036,2.2309 -28.78424,4.4689 -37.37253,15.2579 -1.11308,1.3984 -1.80681,3.0842 -2.71021,4.6264 -1.68424,4.3659 -2.44607,5.3955 -2.79421,10.1682 -0.4103,5.6248 1.13436,11.2712 1.02106,16.8969 z" />
    <path
       style="fill:#000000;fill-opacity:1;stroke:#000000;stroke-width:8;stroke-linecap:round;stroke-linejoin:round;stroke-dasharray:none;stroke-opacity:1;paint-order:stroke markers fill"
       id="path23"
       d="m 719.35221,1005.9089 c 9.49709,6.6224 -7.92689,-5.6445 -16.4932,-8.75627 -3.16596,-1.15005 5.29423,4.16927 7.84801,6.36567 9.55395,8.2169 18.36269,17.1924 27.15183,26.2042 9.1024,8.6539 17.07151,18.3289 24.96115,28.0641 0,0 24.61696,10.4429 24.61696,10.4429 v 0 c -8.6945,-9.9492 -17.19532,-20.1047 -26.91531,-29.0947 -5.92977,-6.007 -11.79899,-12.0742 -17.7787,-18.0316 -2.65155,-2.6416 -5.3414,-5.2448 -8.03987,-7.8385 -2.12496,-2.0424 -3.98162,-4.4286 -6.42998,-6.0695 -22.68174,-15.2018 -19.48189,-13.63514 -32.63746,-19.24316 z" />
    <path
       style="fill:#000000;fill-opacity:1;stroke:#000000;stroke-width:8;stroke-linecap:round;stroke-linejoin:round;stroke-dasharray:none;stroke-opacity:1;paint-order:stroke markers fill"
       id="path24"
       d="m 721.9181,1054.8845 c 8.41103,-12.4873 20.48055,-21.9642 32.15284,-31.2368 9.66205,-7.8539 19.9736,-14.9014 30.93958,-20.7877 0,0 -22.49427,-14.68928 -22.49427,-14.68928 v 0 c -10.99746,6.05984 -21.31732,13.06618 -30.59981,21.58018 -11.97587,9.8939 -24.03982,19.7187 -35.34943,30.3786 z" />
    <path
       style="fill:#000000;fill-opacity:1;stroke:#000000;stroke-width:8;stroke-linecap:round;stroke-linejoin:round;stroke-dasharray:none;stroke-opacity:1;paint-order:stroke markers fill"
       id="path25"
       d="m 829.30125,1002.4964 c -7.78805,-4.3048 -15.22772,-9.31113 -23.36416,-12.91434 -2.14732,-0.95094 3.5453,3.09694 5.12321,4.83633 2.26225,2.49376 4.31923,5.16865 6.3732,7.83661 7.79684,10.1274 14.50204,20.8697 21.20749,31.7306 8.9282,15.7529 17.44833,31.7504 22.46232,49.21 0.36671,1.727 0.73342,3.4539 1.10013,5.1809 0,0 24.97914,12.0281 24.97914,12.0281 v 0 c -0.44822,-1.8371 -0.89644,-3.6742 -1.34466,-5.5114 -5.80328,-18.1767 -15.70925,-34.5154 -24.98461,-51.087 -6.40543,-10.5426 -12.87326,-20.996 -19.66589,-31.2937 -1.64624,-2.4957 -3.26098,-5.0125 -4.94052,-7.486 -1.06882,-1.574 -1.72568,-3.5914 -3.30343,-4.6547 -8.75834,-5.90249 -18.23157,-10.66782 -27.34735,-16.00175 z" />
    <path
       style="fill:#000000;fill-opacity:1;stroke:#000000;stroke-width:8;stroke-linecap:round;stroke-linejoin:round;stroke-dasharray:none;stroke-opacity:1;paint-order:stroke markers fill"
       id="path26"
       d="m 840.27538,1077.1596 c 1.18951,-10.9857 11.15954,-17.987 19.25436,-24.1857 11.90862,-7.8007 24.5609,-14.4577 38.03388,-19.0856 5.67262,-2.2567 2.8005,-1.0671 8.61255,-3.5781 0,0 -23.26538,-15.5572 -23.26538,-15.5572 v 0 c -5.98304,2.3286 -3.12923,1.1313 -8.57426,3.5613 -12.90711,5.8236 -25.20249,12.9036 -37.1407,20.5034 -9.96806,7.0412 -18.94891,13.0061 -23.26356,24.9195 z" />
    <path
       style="fill:#000000;fill-opacity:1;stroke:none;stroke-width:8;stroke-linecap:round;stroke-linejoin:round;stroke-dasharray:none;stroke-opacity:1;paint-order:stroke markers fill"
       id="path27"
       d="m 765.68624,1188.3552 c -9.90287,1.2011 -19.78845,0.4283 -29.60277,-1.2203 -14.05392,-2.8298 -27.80737,-7.3564 -41.35471,-12.4166 -1.46257,-0.645 -2.96072,-1.1938 -4.38773,-1.935 -1.33511,-0.6935 -5.1608,-3.1841 -3.88348,-2.3614 6.45635,4.1586 12.75595,8.6639 19.42147,12.3697 1.39598,0.776 -2.40972,-2.2458 -3.49286,-3.5142 -3.50649,-4.1062 -4.37248,-6.1032 -7.25438,-11.0026 -8.93244,-17.2836 -14.33198,-36.4788 -17.40149,-56.1589 -0.73583,-4.7178 -1.22881,-9.4807 -1.84323,-14.2209 -1.61331,-14.6358 -2.48376,-29.3817 -2.66108,-44.1308 -0.10575,-8.7965 -0.12256,-16.2607 1.19849,-24.9488 0.60705,-3.9923 1.68247,-7.8736 2.5237,-11.8103 5.60437,-15.5742 14.45643,-29.67197 26.79645,-39.27611 10.68027,-8.31239 15.13235,-9.20883 27.51571,-14.5694 28.59666,-10.07169 58.4989,-12.49664 88.21814,-13.86554 25.41647,-0.31754 50.75733,5.43325 74.32897,16.23616 4.59611,2.1064 9.04358,4.61146 13.56536,6.91719 3.94087,2.5151 8.40804,4.17633 11.82259,7.54526 2.92054,2.88158 -6.4791,-6.66855 -10.304,-6.04696 -3.05463,0.49642 4.97082,4.18515 7.26034,6.54163 3.76607,3.87613 6.94639,8.16402 9.30946,13.30003 1.14494,2.48852 1.87435,5.1977 2.81152,7.79654 4.49879,17.7042 2.1901,35.7238 -1.33438,53.3194 -4.36015,20.4604 -10.1264,40.4493 -16.53099,60.1829 -5.42231,14.7607 -12.87805,28.6328 -23.26382,39.5508 -1.59847,1.6804 -3.33892,3.1764 -5.00839,4.7648 -9.25322,8.6236 -20.12142,14.2486 -31.02228,19.5625 -9.0858,4.1319 -17.48891,9.7996 -26.70295,13.573 -8.03573,3.6573 -16.5786,4.8873 -25.14204,5.5425 -7.23399,0.3656 -14.4806,0.3715 -21.72034,0.299 -6.45233,-0.1062 -12.90684,-0.1197 -19.35979,-0.087 -4.05934,-0.017 -8.11829,-0.046 -12.17734,-0.104 0,0 22.50015,18.6245 22.50015,18.6245 v 0 c 3.98156,-0.056 7.96297,-0.08 11.94485,-0.083 6.43479,0.057 12.8708,0.092 19.30559,0.041 7.22603,-0.047 14.4635,0.05 21.67081,-0.6655 8.63683,-0.9826 17.24368,-2.5761 25.2871,-6.4786 9.0541,-4.139 17.6393,-9.3585 26.53651,-13.8944 10.89978,-5.6774 21.82019,-11.7338 30.98985,-20.6738 1.63226,-1.7224 3.33962,-3.3568 4.89679,-5.1673 10.12512,-11.7718 17.26997,-26.0893 22.4429,-41.403 7.23763,-21.7602 0.40278,-0.7862 7.05915,-22.4734 3.79542,-12.3659 8.61059,-24.3482 11.09764,-37.1957 3.01042,-18.1328 5.19186,-36.6554 1.74009,-54.9475 -2.27116,-7.4232 -2.30652,-9.466 -6.59852,-15.79123 -3.38347,-4.98634 -9.28475,-11.01251 -13.83912,-14.31641 -20.72129,-15.03198 -24.30453,-16.91579 -41.18032,-27.10336 -4.44822,-2.16063 -8.82766,-4.51518 -13.34466,-6.4819 -24.14172,-10.51135 -49.9999,-16.21155 -75.83893,-16.29994 -10.70192,0.57928 -15.02669,0.62867 -25.68905,1.94554 -20.76995,2.56522 -41.33072,7.28194 -61.43575,13.71608 -11.40213,4.38724 -19.65506,6.63976 -29.84036,13.90654 -3.40616,2.43016 -6.42611,5.53252 -9.34177,8.68372 -8.27465,8.94308 -14.35081,19.84203 -18.62075,31.82936 -0.88332,4.0565 -2.03004,8.0502 -2.64996,12.1694 -1.50097,9.9736 -1.11934,15.5565 -0.73643,25.6587 0.56171,14.8195 1.52566,29.6254 2.64108,44.4019 2.87043,24.6265 6.40742,47.5989 16.25135,70.0689 1.86029,3.7673 6.14393,12.8606 9.47876,15.3087 11.33159,8.3183 22.24696,17.0851 35.03548,21.6889 13.41436,4.3964 26.90563,8.5797 40.67876,11.2689 2.672,0.4612 5.33245,1.0197 8.016,1.3835 8.08593,1.0963 16.24276,0.9219 24.3526,1.594 z" />
  </g>
</svg>
