<?xml version="1.0" encoding="UTF-8" standalone="no"?>
<!-- Uploaded to: SVG Repo, www.svgrepo.com, Generator: SVG Repo Mixer Tools -->

<svg
   fill="#000000"
   height="800px"
   width="800px"
   version="1.1"
   id="Layer_1"
   viewBox="0 0 512 512"
   xml:space="preserve"
   sodipodi:docname="pipe.svg"
   inkscape:version="1.3.2 (091e20e, 2023-11-25, custom)"
   xmlns:inkscape="http://www.inkscape.org/namespaces/inkscape"
   xmlns:sodipodi="http://sodipodi.sourceforge.net/DTD/sodipodi-0.dtd"
   xmlns:xlink="http://www.w3.org/1999/xlink"
   xmlns="http://www.w3.org/2000/svg"
   xmlns:svg="http://www.w3.org/2000/svg"><defs
   id="defs6"><linearGradient
     id="linearGradient25"
     inkscape:collect="always"><stop
       style="stop-color:#008000;stop-opacity:1;"
       offset="0"
       id="stop25" /><stop
       style="stop-color:#06ff52;stop-opacity:0.62352943;"
       offset="1"
       id="stop26" /></linearGradient><linearGradient
     id="linearGradient21"
     inkscape:collect="always"><stop
       style="stop-color:#008000;stop-opacity:1;"
       offset="0"
       id="stop20" /><stop
       style="stop-color:#06ff52;stop-opacity:0.62352943;"
       offset="1"
       id="stop21" /></linearGradient><linearGradient
     id="linearGradient17"
     inkscape:collect="always"><stop
       style="stop-color:#008000;stop-opacity:1;"
       offset="0"
       id="stop17" /><stop
       style="stop-color:#06ff52;stop-opacity:0.62352943;"
       offset="1"
       id="stop18" /></linearGradient><linearGradient
     id="linearGradient6"
     inkscape:collect="always"><stop
       style="stop-color:#000000;stop-opacity:1;"
       offset="0"
       id="stop6" /><stop
       style="stop-color:#000000;stop-opacity:0;"
       offset="1"
       id="stop7" /></linearGradient><linearGradient
     inkscape:collect="always"
     xlink:href="#linearGradient6"
     id="linearGradient7"
     x1="0"
     y1="256.0005"
     x2="512"
     y2="256.0005"
     gradientUnits="userSpaceOnUse" /><linearGradient
     inkscape:collect="always"
     xlink:href="#linearGradient17"
     id="linearGradient19"
     x1="193.10345"
     y1="63.601532"
     x2="606.89655"
     y2="63.601532"
     gradientUnits="userSpaceOnUse"
     gradientTransform="matrix(0.67081485,0,0,0.8273171,-12.816348,-12.894496)" /><linearGradient
     inkscape:collect="always"
     xlink:href="#linearGradient21"
     id="linearGradient20"
     x1="193.12574"
     y1="736.35736"
     x2="606.87426"
     y2="736.35736"
     gradientUnits="userSpaceOnUse"
     gradientTransform="matrix(0.67318875,0,0,0.87384036,-13.275504,-171.69966)" /><linearGradient
     inkscape:collect="always"
     xlink:href="#linearGradient25"
     id="linearGradient26"
     x1="249.80843"
     y1="400.76628"
     x2="550.19157"
     y2="400.76628"
     gradientUnits="userSpaceOnUse"
     gradientTransform="matrix(0.68897961,0,0,0.67245069,-19.101415,-13.985991)" /></defs><sodipodi:namedview
   id="namedview6"
   pagecolor="#ffffff"
   bordercolor="#000000"
   borderopacity="0.25"
   inkscape:showpageshadow="2"
   inkscape:pageopacity="0.0"
   inkscape:pagecheckerboard="0"
   inkscape:deskcolor="#d1d1d1"
   inkscape:zoom="0.6525"
   inkscape:cx="400"
   inkscape:cy="399.23372"
   inkscape:window-width="1304"
   inkscape:window-height="745"
   inkscape:window-x="1358"
   inkscape:window-y="-8"
   inkscape:window-maximized="1"
   inkscape:current-layer="Layer_1" />
<path
   style="fill:url(#linearGradient19);stroke-width:0.882896;stroke-linecap:round;stroke-linejoin:round"
   d="m 118.32071,62.898519 c -1.28936,-2.270283 -1.60039,-6.829093 -1.60039,-23.4565 0,-18.947984 0.16842,-20.846259 2.05613,-23.174381 2.03521,-2.510027 3.42689,-2.535837 136.73314,-2.535837 133.30625,0 134.69793,0.02582 136.73314,2.535837 1.88771,2.328122 2.05614,4.226397 2.05614,23.174381 0,16.627407 -0.31105,21.186217 -1.6004,23.4565 l -1.6004,2.817957 H 255.50959 119.92111 Z"
   id="path10" /><path
   style="fill:url(#linearGradient20);fill-opacity:1;stroke-width:0.882897;stroke-linecap:round;stroke-linejoin:round"
   d="m 118.78298,496.5706 c -1.89556,-2.46057 -2.06213,-4.44873 -2.04761,-24.44076 0.008,-11.96927 0.36633,-22.47792 0.79477,-23.35254 0.42844,-0.87463 2.07649,-2.23059 3.66234,-3.01324 4.0386,-1.99314 265.57643,-1.99314 269.61504,0 1.58585,0.78265 3.23389,2.13861 3.66234,3.01324 0.42844,0.87462 0.78608,11.38327 0.79478,23.35254 0.0145,19.99203 -0.15206,21.98019 -2.04763,24.44076 -2.0424,2.65117 -3.43901,2.67842 -137.21701,2.67842 -133.77799,0 -135.17461,-0.0273 -137.21702,-2.67842 z"
   id="path11" /><path
   style="display:inline;fill:url(#linearGradient26);stroke-width:0.882902;stroke-linecap:round;stroke-linejoin:round"
   d="M 153.0115,255.50957 V 72.582372 H 256.49043 359.96935 V 255.50957 438.43677 H 256.49043 153.0115 Z"
   id="path25" /><path
   style="display:inline;fill:#ffffff;fill-opacity:1;stroke-width:0.882897;stroke-linecap:round;stroke-linejoin:round"
   d="m 172.17206,239.30675 -3.46708,-2.96431 v -66.85383 -66.85383 l 2.91905,-2.655295 c 3.41454,-3.106009 6.8731,-3.955957 11.27802,-2.771597 5.45163,1.465791 6.51437,3.522202 7.43929,14.395102 1.00784,11.84753 1.0744,107.0163 0.0823,117.64424 -0.64055,6.86188 -0.97506,7.74957 -3.86906,10.26754 -4.46756,3.88708 -9.68101,3.81168 -14.3825,-0.20802 z"
   id="path23" /><path
   style="display:inline;fill:#ffffff;fill-opacity:1;stroke-width:0.882899;stroke-linecap:round;stroke-linejoin:round"
   d="m 174.96109,285.50087 c -4.49548,-2.01268 -6.25611,-5.12927 -6.25611,-11.07434 0,-9.72982 4.74577,-15.02133 12.21532,-13.62003 1.88123,0.35292 4.75755,1.76679 6.39182,3.14194 2.684,2.25843 2.97141,3.05489 2.97141,8.23429 0,3.15371 -0.42168,6.84311 -0.93707,8.19867 -1.87529,4.93238 -9.07795,7.49566 -14.38537,5.11947 z"
   id="path24" /><g
   id="g2"
   transform="rotate(90,256,256.0005)"
   style="display:inline;fill:#000000;fill-opacity:1">
	<g
   id="g1"
   style="fill:#000000;fill-opacity:1">
		<path
   d="m 486.038,102.894 h -29.275 c -14.316,0 -25.962,11.646 -25.962,25.962 v 9.894 H 81.719 v -9.894 c 0,-14.316 -11.647,-25.962 -25.963,-25.962 H 25.962 C 11.646,102.894 0,114.54 0,128.856 v 254.289 c 0,14.316 11.646,25.962 25.962,25.962 h 29.794 c 14.316,0 25.963,-11.646 25.963,-25.962 v -9.894 h 349.082 v 9.894 c 0,14.316 11.646,25.962 25.962,25.962 h 29.275 c 14.316,0 25.962,-11.646 25.962,-25.962 V 128.856 c 0,-14.316 -11.646,-25.962 -25.962,-25.962 z M 61.321,383.144 c 0,3.068 -2.496,5.564 -5.565,5.564 H 25.962 c -3.068,0 -5.564,-2.496 -5.564,-5.564 V 128.856 c 0,-3.068 2.496,-5.564 5.564,-5.564 h 29.794 c 3.069,0 5.565,2.496 5.565,5.564 z m 369.48,-30.292 H 81.719 V 159.148 h 349.082 z m 60.801,30.292 c 0,3.068 -2.496,5.564 -5.564,5.564 h -29.275 c -3.068,0 -5.564,-2.496 -5.564,-5.564 V 128.856 c 0,-3.068 2.496,-5.564 5.564,-5.564 h 29.275 c 3.068,0 5.564,2.496 5.564,5.564 z"
   id="path1"
   style="fill:#000000;fill-opacity:1" />
	</g>
</g>
<g
   id="g4"
   transform="rotate(90,256,256.0005)"
   style="display:inline">
	<g
   id="g3">
		<path
   d="m 277.306,319.593 h -5.196 c -5.632,0 -10.199,4.567 -10.199,10.199 0,5.632 4.567,10.199 10.199,10.199 h 5.196 c 5.632,0 10.199,-4.567 10.199,-10.199 0,-5.632 -4.567,-10.199 -10.199,-10.199 z"
   id="path2" />
	</g>
</g>
<g
   id="g6"
   transform="rotate(90,256,256.0005)"
   style="display:inline">
	<g
   id="g5">
		<path
   d="m 232.615,319.593 h -123.68 c -5.632,0 -10.199,4.567 -10.199,10.199 0,5.632 4.567,10.199 10.199,10.199 h 123.681 c 5.632,0 10.199,-4.567 10.199,-10.199 0,-5.632 -4.567,-10.199 -10.2,-10.199 z"
   id="path4" />
	</g>
</g>
</svg>
