<?xml version="1.0" encoding="UTF-8" standalone="no"?>
<!-- Created with Inkscape (http://www.inkscape.org/) -->

<svg
   width="126.0271"
   height="148.20447"
   viewBox="0 0 126.0271 148.20448"
   version="1.1"
   id="svg1"
   inkscape:version="1.3.2 (091e20e, 2023-11-25, custom)"
   xml:space="preserve"
   sodipodi:docname="dolly.svg"
   xmlns:inkscape="http://www.inkscape.org/namespaces/inkscape"
   xmlns:sodipodi="http://sodipodi.sourceforge.net/DTD/sodipodi-0.dtd"
   xmlns:xlink="http://www.w3.org/1999/xlink"
   xmlns="http://www.w3.org/2000/svg"
   xmlns:svg="http://www.w3.org/2000/svg"><sodipodi:namedview
     id="namedview1"
     pagecolor="#ffffff"
     bordercolor="#000000"
     borderopacity="0.25"
     inkscape:showpageshadow="2"
     inkscape:pageopacity="0.0"
     inkscape:pagecheckerboard="false"
     inkscape:deskcolor="#3d3d3d"
     inkscape:document-units="px"
     inkscape:zoom="0.3822796"
     inkscape:cx="592.49826"
     inkscape:cy="1073.8213"
     inkscape:window-width="1366"
     inkscape:window-height="715"
     inkscape:window-x="1358"
     inkscape:window-y="-8"
     inkscape:window-maximized="1"
     inkscape:current-layer="layer2" /><defs
     id="defs1"><linearGradient
       id="linearGradient21"
       inkscape:collect="always"><stop
         style="stop-color:#71b5c9;stop-opacity:1;"
         offset="0"
         id="stop21" /><stop
         style="stop-color:#dedede;stop-opacity:0;"
         offset="1"
         id="stop22" /></linearGradient><linearGradient
       inkscape:collect="always"
       xlink:href="#linearGradient21"
       id="linearGradient22"
       x1="-3.6994219"
       y1="960"
       x2="1083.9305"
       y2="960"
       gradientUnits="userSpaceOnUse"
       gradientTransform="matrix(1.7755264,0,0,0.55797081,-1168.3688,-525.91439)" /><clipPath
       clipPathUnits="userSpaceOnUse"
       id="clipPath337"><path
         id="path337"
         style="fill:#ff0000;fill-opacity:1;fill-rule:nonzero;stroke:none;stroke-width:1.15565"
         d="m 310.44816,954.19406 v 407.21254 h 63.30822 c 0.18751,-0.5385 0.35313,-1.092 0.55526,-1.6161 3.28813,-8.5265 9.77283,-10.9653 16.83824,-15.4275 18.74172,-7.5182 39.09135,-9.3051 59.03546,-11.0149 18.24166,-1.4574 36.54367,-1.6795 54.82589,-2.2142 20.04449,-0.2743 40.03999,-1.6228 60.03085,-3.0065 16.39233,-1.3673 32.70522,-3.6887 48.81965,-6.9791 12.93776,-2.823 25.18085,-7.7046 36.45729,-14.5991 2.95064,-1.7381 5.57766,-3.8374 8.01058,-6.1643 0.4229,-2.0975 0.80955,-4.2048 1.13986,-6.3245 1.30283,-7.6921 1.64815,-15.5088 2.31808,-23.2733 0.37271,-7.9696 0.66754,-15.9305 0.48303,-23.9121 -0.007,-10.7274 -0.0158,-21.455 -0.0474,-32.1824 -0.0344,-9.3119 -0.0603,-18.6243 -0.26409,-27.9343 -0.21538,-8.4295 -0.50213,-16.8606 -1.13083,-25.271 -0.68647,-8.2872 -1.37158,-16.5747 -2.21877,-24.8465 -1.06543,-9.4587 -2.03667,-18.9287 -2.89591,-28.4084 -1.24014,-12.1042 -3.15681,-24.1331 -3.92515,-36.2857 -0.58644,-10.6642 -1.24391,-21.3292 -2.59346,-31.9294 -2.65747,-20.8739 7.86927,-31.9587 18.48822,-31.0651 8.25917,0.695 16.57425,8.6373 18.78616,24.8534 1.63169,11.9622 2.3835,24.0133 3.0494,36.06 0.4463,6.3247 1.1757,12.6185 1.94565,18.908 V 954.19406 Z M 691.4644,1323.3649 c -0.80635,2.8712 -1.57518,5.7521 -2.48286,8.5973 -3.07184,9.9619 -6.21904,19.8815 -10.38283,29.4444 h 12.86569 z" /></clipPath></defs><rect
     style="display:none;fill:url(#linearGradient22);stroke:none;stroke-width:0.999995;stroke-linecap:round;stroke-linejoin:round;stroke-dasharray:none;stroke-opacity:1;paint-order:normal"
     id="rect21"
     width="1931.1158"
     height="1075.4323"
     x="-1174.9373"
     y="-527.97858"
     ry="25.283537"
     transform="matrix(0.0042756,0.99999086,-1,0,0,0)"
     sodipodi:insensitive="true" /><g
     inkscape:groupmode="layer"
     id="layer2"
     inkscape:label="BODY"
     transform="matrix(0.91709181,0,0,0.91709181,-527.90852,-936.72695)"
     style="display:inline;stroke-width:1.0904"
     inkscape:export-filename="..\..\FlapDolly\assets\obstacles\dolly\dolly.svg"
     inkscape:export-xdpi="96"
     inkscape:export-ydpi="96"><g
       id="g1"
       inkscape:label="STROKE"
       style="display:none"><path
         style="display:inline;fill:#f7f7f7;fill-opacity:1;stroke:none;stroke-width:1.0904;stroke-linecap:round;stroke-linejoin:round;stroke-dasharray:none;stroke-opacity:1;paint-order:normal"
         d="m 330.29794,1281.3962 c -6.41557,-40.1623 -9.39386,-125.8745 -5.44284,-156.6391 4.67669,-36.4152 15.52225,-68.001 34.02513,-99.0924 14.52079,-24.4 28.06018,-40.78573 50.50344,-61.12055 39.41435,-35.71155 77.17477,-51.06403 132.67442,-53.94224 22.06353,-1.14422 43.7079,1.98651 61.43305,8.88592 12.9585,5.04402 34.04756,25.59906 49.28312,48.0352 32.23206,47.46537 65.0957,106.49797 76.49691,137.41057 16.8956,45.8097 21.55478,110.7638 11.7615,163.9681 l -3.575,19.422 -202.95127,0.4713 -202.95128,0.4714 z"
         id="path134" /><path
         style="display:inline;opacity:1;fill:#000000;fill-opacity:1;stroke:none;stroke-width:1.0904;stroke-linecap:round;stroke-linejoin:round;stroke-dasharray:none;stroke-opacity:1;paint-order:normal"
         id="path335"
         d="m 418.30438,954.2011 c -4.64269,-0.0566 -9.49028,0.1797 -13.51598,2.81725 -0.90214,0.59112 -1.64812,1.39164 -2.47218,2.08746 -3.63442,4.14765 -5.48789,9.20699 -5.77303,14.65694 -0.47953,1.43532 1.98886,5.06801 1.11821,6.02246 -0.5299,0.58084 -2.60075,0.89899 -3.02729,0.99872 -4.4016,1.21032 -9.28865,-0.21691 -13.59368,1.37431 -1.0798,0.39904 -2.04724,1.05349 -3.07086,1.58012 -6.09027,5.5082 -9.26618,13.03255 -10.92509,20.91234 -1.02798,3.2033 0.1486,10.1829 -2.86122,12.359 -0.5736,0.4146 -1.27779,0.6092 -1.91669,0.9139 -6.45738,1.8748 -11.85133,4.9046 -16.22468,10.0367 -3.45489,7.2076 -1.5275,11.5225 2.71421,17.5516 3.77527,4.9057 1.50607,6.4566 -2.15045,10.4272 -4.89864,4.8072 -8.41456,10.4414 -10.75241,16.8534 -1.72231,5.0062 -2.6837,10.2807 -2.72662,15.5731 0.0147,2.5545 1.44998,5.0974 0.97483,7.6778 -0.28297,1.5367 -1.31408,2.9043 -2.08238,4.1853 -5.36774,6.6722 -10.54717,13.4432 -14.84668,20.8669 -2.74768,5.1742 -2.85495,9.6089 1.23291,13.8905 3.98762,2.9869 1.73025,1.3927 10.27118,6.04 0.96884,0.5271 3.92136,2.0216 2.94404,1.5104 -6.4951,-3.3976 -7.7008,-5.4246 -5.85557,-2.6919 -3.32504,2.9116 -6.55924,5.7722 -9.07537,9.4737 -2.41395,4.7917 -4.13013,10.1068 -3.86769,15.5358 0.0652,1.3485 0.33616,2.6791 0.50424,4.0187 0.82723,3.8075 2.38895,7.3535 4.66566,10.5163 1.49695,2.0796 3.40539,3.8472 5.02075,5.8332 0.28879,0.6191 0.86426,1.4027 0.53784,2.1733 -0.45979,1.0856 -1.58972,1.7421 -2.34994,2.6431 -0.60369,0.7156 -1.16591,1.465 -1.74887,2.1975 -0.70896,0.8288 -1.41791,1.6575 -2.12687,2.4864 -3.58636,4.8689 -7.04276,10.4957 -6.86926,16.7837 0.0335,1.2125 0.33973,2.402 0.50959,3.6031 3.40556,10.8652 13.22769,15.3643 22.47228,20.6186 0.87739,0.4615 3.50411,1.8568 2.6322,1.3848 -1.82064,-0.9854 -3.53053,-2.2245 -5.4785,-2.9254 -0.46454,-0.1671 0.65371,0.7734 0.80433,1.2437 0.15441,0.482 0.14682,1.0148 0.0799,1.5164 -0.20212,1.5139 -1.0586,2.7246 -1.76512,4.0341 -3.50944,5.4175 -6.7133,11.015 -8.96229,17.075 -1.74391,5.4963 2.59703,8.7067 6.54494,11.5687 3.58392,2.9106 4.05105,3.7348 2.28244,7.7971 -1.7828,3.0525 -3.32404,6.1682 -3.67846,9.7121 0.11302,1.2471 0.0957,2.3921 0.66153,3.5506 2.17893,4.4606 9.65556,7.2988 13.85295,9.1629 3.83426,1.6732 7.97323,2.1432 12.10176,2.4274 2.91701,0.4573 9.88631,3.0629 -2.8933,-2.6254 -0.41209,-0.1835 0.67024,0.6487 0.82567,1.0721 0.53209,1.4495 -0.0916,2.2531 -0.5916,3.6232 -3.50179,5.519 -8.28483,10.1249 -12.55009,15.0647 -2.23822,3.0803 -5.8149,7.282 -3.21403,11.2519 0.54561,0.8328 1.36288,1.4517 2.04432,2.1776 10.37066,7.679 22.40546,9.6449 34.59762,12.3675 -2.50294,-1.994 7.56782,3.022 5.68026,2.2556 -1.86764,-0.7584 -3.51426,-2.143 -5.49245,-2.5302 -0.76193,-0.1492 0.96645,1.2224 1.53162,1.7548 0.78938,0.7436 1.58471,1.5079 2.51816,2.0599 3.78879,2.2406 7.73905,4.1962 11.60857,6.2943 2.70965,0.6153 5.39325,1.3596 8.12898,1.8461 15.50969,2.7584 32.26466,3.9095 47.98375,2.6762 3.21295,-0.2522 6.38997,-0.8455 9.58495,-1.2683 6.43037,-1.2711 12.57587,-3.1505 16.92956,-8.3531 3.01712,-3.6055 4.16768,-7.9967 5.26981,-12.4275 0.17106,-0.9736 0.41592,-3.8685 1.33195,-4.9224 0.97267,-1.1191 2.55107,0.6332 2.39721,0.5588 -4.50922,-2.1809 -7.60731,-4.4403 -1.7584,-0.4814 3.78121,2.1025 7.46874,4.3831 11.34362,6.3076 5.69401,2.8279 16.46496,5.1629 22.81236,5.4424 1.94829,0.086 3.89809,-0.1332 5.84714,-0.1999 7.44226,-1.3536 14.128,-4.6598 19.77859,-9.6725 2.28496,-2.027 4.3318,-4.3076 6.49776,-6.4613 -0.74355,-2.4214 6.98176,0.8979 5.21945,1.1672 -1.52113,0.2325 -3.53884,-2.7304 -4.38446,-1.4447 -0.85564,1.3008 1.97806,2.405 2.9558,3.6167 5.89443,7.3049 1.71869,2.3851 8.42941,10.0266 6.77818,7.0991 14.97423,11.8591 23.72539,16.2709 2.95462,1.4897 9.21937,3.5308 12.59663,3.6718 2.43589,0.1017 4.85152,-0.4882 7.27727,-0.7323 5.45143,-1.1768 8.98885,-1.6434 14.12232,-3.9265 9.18343,-4.0842 17.0089,-10.644 24.39345,-17.3036 2.93333,-3.0391 4.26351,-4.205 6.70336,-7.4601 0.67077,-0.895 1.26205,-1.8478 1.84796,-2.8004 0.34974,-0.5686 0.58537,-1.2047 0.95661,-1.7595 0.0633,-0.095 0.41519,-0.088 0.31292,-0.1378 -2.47959,-1.2192 -5.03368,-2.2805 -7.55051,-3.4208 0.66342,2.9503 2.93208,4.9844 5.43459,6.532 6.66215,4.1197 11.47613,6.7996 18.56031,8.9246 1.23374,0.1052 2.46552,0.395 3.70122,0.316 6.96218,-0.4453 8.34939,-7.9233 9.19049,-13.433 0.68922,-7.5625 -2.38363,-13.7626 -4.49499,-20.6927 0.0461,-0.4345 -0.0189,-0.896 0.13846,-1.3036 0.17657,-0.4573 0.56327,-0.8027 0.83288,-1.212 1.47306,-2.2371 1.79116,-2.6178 2.77194,-5.4428 1.30225,-3.7508 1.54021,-5.7911 2.31995,-9.7804 1.60907,-10.1446 1.98617,-20.4135 2.69238,-30.6421 0.15563,-1.4328 0.26017,-2.8721 0.46691,-4.2985 0.4939,-3.4075 1.25132,-6.7722 1.80679,-10.1703 0.99206,-6.0688 1.68112,-12.145 2.26668,-18.2639 0.43022,-6.6432 1.00507,-13.3011 0.80035,-19.9668 -0.005,-4.0264 -0.76549,-8.0088 -0.89203,-12.0266 -0.0492,-1.562 0.084,-3.1245 0.1261,-4.6867 0.19157,-1.3485 0.32222,-2.7071 0.57473,-4.0456 0.5804,-3.0763 1.14294,-4.3681 1.88413,-7.375 1.06149,-4.3061 1.64903,-8.6412 2.19593,-13.0356 0.25875,-5.6285 1.64614,-11.4212 0.60026,-17.0479 -0.54208,-2.9163 -1.10499,-3.6843 -2.33513,-6.2428 -4.11708,-6.4553 -4.55616,-8.0515 -1.62519,-15.166 3.43,-7.3724 4.94615,-15.4468 5.11767,-23.5323 -0.56276,-5.8796 -3.80664,-9.9929 -8.4998,-13.2354 0,0 -7.85253,-3.0631 -7.85253,-3.0631 v 0 c 4.76044,2.9224 8.16906,6.7944 8.97274,12.5258 -0.0484,7.992 -1.61494,15.9463 -5.04959,23.2054 -3.05606,7.1357 -3.19689,9.2752 1.27828,15.8076 1.31369,2.4356 1.92117,3.1809 2.53721,6.003 1.21312,5.5574 -0.20799,11.338 -0.43335,16.9163 -0.54971,4.354 -1.17212,8.6215 -2.22903,12.8863 -0.61513,2.4821 -1.4299,4.9703 -1.89494,7.4893 -0.25405,1.3762 -0.37384,2.7737 -0.56077,4.1606 -0.0266,1.6031 -0.14866,3.2075 -0.0797,4.8094 0.80101,18.6311 0.29783,-8.5174 1.03337,12.0149 0.23766,6.6345 -0.38221,13.2676 -0.81211,19.8783 -0.59471,6.088 -1.27092,12.1303 -2.31414,18.1611 -0.58791,3.3986 -1.40567,6.7564 -1.94041,10.1638 -0.22473,1.4321 -0.33594,2.8796 -0.50391,4.3193 -0.7119,10.2121 -0.70503,20.4999 -2.5205,30.6119 -0.90819,4.3606 -1.68188,8.738 -3.86092,12.6901 -0.70236,1.2739 -1.92512,2.2506 -2.46438,3.6016 -0.20736,0.5195 -0.15888,1.1074 -0.23832,1.6611 2.17623,6.9162 5.48126,12.8113 4.85822,20.4512 -0.77028,5.125 -1.98001,12.1734 -8.56363,12.335 -1.19195,0.029 -2.36868,-0.2754 -3.55301,-0.4131 -1.32834,-0.4263 -2.67989,-0.7862 -3.985,-1.2791 -1.28895,-0.4867 -3.10908,-2.8553 -3.78716,-1.6559 -0.67498,1.1939 2.13498,2.106 3.50562,2.1539 0.18056,0.012 -3.04365,-1.5343 -4.88482,-4.1901 -0.3047,-0.4395 -0.39034,-0.9958 -0.58551,-1.4937 -2.51848,-1.6851 -4.93584,-3.5322 -7.55546,-5.0554 -0.18141,-0.1051 -0.5718,1.2478 -1.10891,2.23 -2.11235,3.8631 -5.05769,7.1402 -8.13419,10.2571 -11.43829,10.5692 -22.34497,18.4973 -38.16647,20.8336 -2.4028,0.1636 -4.80537,0.6512 -7.20837,0.4908 -2.13468,-0.1425 -4.22153,-0.7596 -6.26589,-1.3903 -2.11161,-0.6514 -4.05942,-1.7656 -6.16257,-2.4438 -0.36838,-0.1187 1.21267,0.9601 0.89155,0.744 -6.99953,-4.7104 -4.83808,-3.1522 -11.02469,-8.8876 -5.80019,-6.6182 -3.19594,-3.445 -8.21478,-9.8939 -0.94989,-1.2205 -1.66289,-2.6686 -2.84687,-3.6638 -3.08153,-2.5898 -6.44956,-4.8305 -9.84059,-6.9994 -0.91582,-0.5858 -1.93545,-1.1819 -3.02163,-1.2274 -0.96764,-0.041 -1.82206,0.6572 -2.73309,0.9859 -1.3838,1.4469 -5.0023,5.2757 -6.32525,6.4471 -5.54079,4.9064 -12.13577,8.065 -19.44421,9.2665 -1.9228,0.035 -3.84834,0.2132 -5.76843,0.1052 -3.44855,-0.1943 -8.39895,-1.1976 -11.71857,-2.0321 -1.94739,-0.4896 -3.88576,-1.026 -5.78863,-1.6672 -1.77061,-0.5965 -3.35595,-1.9152 -5.22007,-2.042 -1.12521,-0.076 1.87609,1.2524 2.81414,1.8785 -3.69265,-2.5602 -11.36008,-8.7464 -14.5357,-8.1722 -2.40346,0.4345 -2.1602,4.5466 -2.48588,6.0348 -0.9883,4.3068 -2.02556,8.558 -4.92226,12.0734 -4.1521,5.0389 -10.10641,6.8875 -16.26859,8.2032 -3.12516,0.4413 -6.23044,1.0591 -9.3755,1.3238 -15.54734,1.3081 -32.84015,0.095 -48.11502,-3.0379 -2.81087,-0.5764 -5.54681,-1.4717 -8.32021,-2.2075 0.86339,0.6447 1.71374,1.3074 2.59019,1.9342 0.84607,0.6052 -1.73303,-1.1653 -2.49904,-1.8691 -0.5811,-0.5339 -0.88299,-1.3466 -1.51519,-1.819 -5.05616,-3.7769 -8.78517,-6.6425 -14.60779,-7.9786 -6.51174,-1.3783 -13.05664,-2.5372 -19.35388,-4.7616 -1.57861,-0.5576 -3.30511,-2.8209 -4.66934,-1.8505 -1.23169,0.8762 2.53774,1.6428 3.80662,2.4642 -0.70443,-0.6135 -1.52344,-1.1162 -2.11329,-1.8406 -2.88947,-3.5485 0.63218,-7.6035 2.69,-10.4651 4.30183,-5.0426 9.10291,-9.7387 12.76573,-15.2681 0.31817,-0.7686 0.76182,-1.4967 0.95451,-2.3061 1.40197,-5.888 -7.76923,-8.3455 -12.5715,-8.9606 -4.07775,-0.3247 -8.13857,-0.9015 -11.88852,-2.6447 -2.19147,-1.0312 -7.4964,-3.6139 3.34445,2.3019 0.57601,0.3144 -1.08744,-0.7422 -1.57317,-1.1833 -1.43317,-1.3019 -1.93772,-2.6972 -2.0502,-4.6039 0.23503,-3.465 1.81411,-6.4954 3.55171,-9.4565 1.94211,-4.2976 2.03374,-5.6121 -1.87973,-8.8913 -3.69089,-2.6214 -8.41964,-5.2964 -7.00352,-10.5755 2.12409,-6.0675 5.25004,-11.6611 8.87715,-16.9626 1.06341,-1.8263 2.56418,-3.9594 2.17658,-6.25 -0.88332,-5.2204 -8.3555,-5.8142 -12.28632,-8.4647 1.3895,0.8485 2.68929,1.8653 4.1685,2.5455 1.09946,0.5055 -2.03716,-1.3089 -3.01855,-2.0168 -4.35937,-3.1447 -7.98995,-6.9796 -9.60114,-12.2246 -0.20361,-1.1475 -0.54531,-2.2788 -0.61085,-3.4422 -0.34335,-6.0943 3.16171,-11.6182 6.64723,-16.2895 1.33666,-1.5161 2.60093,-3.0953 3.94559,-4.6042 1.70145,-1.9095 3.77191,-3.1316 2.39128,-5.88 -1.61165,-2.0594 -3.5924,-3.7617 -5.19455,-5.822 -2.35461,-3.028 -3.98056,-6.4709 -4.86767,-10.2008 -0.1858,-1.2982 -0.48145,-2.5853 -0.55741,-3.8945 -0.30512,-5.2588 1.4572,-10.4101 3.75436,-15.0548 1.56731,-2.3047 3.1922,-4.2516 5.34021,-6.0538 0.62952,-0.5282 2.86856,-2.0898 3.52515,-2.8359 0.33862,-0.3849 0.53062,-0.8773 0.79593,-1.3159 -1.63509,-4.0017 -0.17452,-0.9802 -8.67511,-6.2341 -0.93821,-0.58 -3.89007,-2.0682 -2.9673,-1.4641 1.88528,1.2342 3.85202,2.3395 5.79091,3.4876 0.50376,0.2984 -0.99002,-0.6252 -1.48502,-0.9378 -4.45339,-3.99 -4.56081,-7.6255 -1.91263,-12.9881 4.18154,-7.5101 9.38645,-14.2313 14.91657,-20.7887 0.92621,-1.4458 2.02257,-2.8043 2.40314,-4.5294 0.57059,-2.5863 -0.77709,-5.1962 -1.02215,-7.7225 -0.0797,-5.2085 0.88487,-10.4048 2.55273,-15.3354 2.19643,-6.3633 5.64866,-11.8916 10.54104,-16.5749 3.82567,-4.0028 6.73177,-6.224 2.72649,-11.43 -4.11515,-5.6841 -6.65016,-9.5017 -3.25317,-16.5732 4.3877,-5.1461 9.69009,-7.8054 16.11624,-9.7183 0.708,-0.3923 1.49713,-0.6649 2.12402,-1.1771 3.21072,-2.6229 1.89852,-9.1875 2.91009,-12.8124 1.57408,-7.6397 4.4261,-15.08306 10.55942,-20.24375 0.99509,-0.45845 1.94209,-1.04033 2.98527,-1.37512 4.37393,-1.40366 9.2781,-0.0612 13.69649,-1.37049 6.34451,-1.8717 3.23154,-3.22948 2.45561,-7.95437 0.1159,-5.22125 1.85065,-10.13116 5.33824,-14.08709 0.78614,-0.63873 1.49894,-1.3802 2.35843,-1.91619 4.05694,-2.52984 8.90305,-2.53527 13.49937,-2.36551 z"
         clip-path="url(#clipPath337)" /><path
         style="display:inline;fill:#dedede;fill-opacity:1;stroke-width:1.18898;stroke-linecap:round;stroke-linejoin:round"
         id="path1"
         d="m 608.89502,932.08454 c 0.16954,3.84616 -0.8906,7.59861 -1.72693,11.31312 -0.44045,2.45913 -0.99102,4.92349 -0.81814,7.43347 0.2541,1.21721 0.65391,2.54838 1.49035,3.50139 0.4122,0.46965 0.92717,0.83358 1.38313,1.25905 10.83485,7.53374 15.73444,12.67803 26.16754,13.18163 1.93524,-0.0612 3.87215,-0.0245 5.80796,-0.0111 2.449,-0.0924 4.89877,-0.16304 7.35034,-0.14468 2.2195,0.0634 4.43934,0.0779 6.65932,0.11018 1.76917,0 3.07873,-0.24529 4.40507,1.12985 -6.60888,-3.87756 -13.20937,-7.77024 -19.82667,-11.63288 -0.32904,-0.19209 0.67772,0.36348 0.96098,0.62057 1.29988,1.17981 2.01733,3.03206 2.74305,4.59217 0.87798,2.60146 1.22708,5.35684 1.54728,8.07929 0.17792,2.67214 0.56244,5.24389 1.47988,7.75955 1.10976,2.73736 2.13703,5.50832 3.109,8.29933 0.76928,2.54426 1.39455,5.1346 2.28625,7.63821 0.88089,2.18706 2.03113,4.24185 2.75604,6.49251 0.53464,2.1751 1.31259,4.2949 1.75771,6.489 0.10752,0.726 0.20376,1.6344 0.46902,2.3225 0.14235,0.3693 0.23114,0.8341 0.5614,1.0435 8.05273,5.1065 14.46868,14.1332 23.64236,12.6726 2.26898,-0.4237 4.1988,-1.9722 6.08122,-3.2701 1.17798,-0.8503 2.30044,-1.7433 3.0651,-3.0128 1.07522,-1.7852 0.0164,-0.3171 0.88145,-1.4704 -0.46621,8.8021 0.149,0.4218 -21.31279,-11.1573 -0.17405,-0.094 0.30959,0.2729 0.38196,0.4598 0.30176,0.7791 0.34286,2.3107 0.52723,3.2063 0.43574,1.7872 0.78961,3.5873 0.93627,5.4235 0.0872,2.1371 0.25269,4.2706 0.27561,6.4095 0.0961,2.8426 -0.20197,5.6552 -0.60545,8.4618 -0.37746,2.1335 -0.72826,4.2695 -0.91912,6.4294 -0.0721,2.3563 0.0661,4.7125 0.12055,7.0677 -0.0494,2.4365 -0.12139,4.8639 -0.0687,7.3001 -0.0526,3.0281 0.17468,6.0448 0.21579,9.0713 -0.28879,14.1023 -2.30417,5.4483 21.17994,19.201 1.86306,-1.9287 3.54641,-4.0581 5.04918,-6.2924 1.52293,-2.0465 1.92146,-4.5815 2.45253,-7.0242 0.0768,-0.33 0.13865,-0.6638 0.23018,-0.9898 0.13718,-0.4887 0.33666,-1.0493 0.51536,-0.9937 0.12778,0.04 0.22369,0.4556 0.10391,0.3951 -21.98239,-11.0839 -29.13587,-9.3699 -20.80847,-11.2243 1.08153,1.3916 0.88281,3.4849 1.00143,5.1792 0.0186,2.3683 0.0481,4.7367 0.0784,7.105 -0.0269,2.3552 -0.0265,4.7102 -0.0879,7.0648 -0.0464,2.4166 0.0923,4.8289 0.11531,7.2433 -0.0335,2.6753 -0.1484,5.3441 0.10686,8.0095 0.32833,3.7145 0.59454,7.4398 1.30959,11.0998 1.03385,5.8903 2.7919,11.5742 4.56006,17.266 1.58388,5.1834 3.50578,10.2531 4.90489,15.4939 0.76096,2.6192 1.07807,5.3412 1.72809,7.9852 0.0936,0.3722 0.1971,0.742 0.28078,1.1165 0.24713,1.1066 0.21695,1.3871 0.5746,2.4886 0.3739,1.1517 0.97882,2.2117 1.50891,3.2917 0.80813,1.6082 1.64752,3.195 2.24154,4.9003 0.12148,0.6949 0.74711,3.4255 0.19262,3.869 29.77206,15.7436 22.453,18.7776 21.61296,9.1035 -0.13417,-1.5452 -0.17165,-3.104 -0.23245,-4.6532 -0.0686,-2.8299 0.14602,-5.654 0.18594,-8.4814 0.11199,-2.6602 -0.0598,-5.283 -0.62135,-7.8838 -0.21007,-1.1852 -0.887,-2.2233 -1.20408,-3.3684 -0.0315,-0.1136 0.10512,-0.3 0.002,-0.3543 -22.18772,-11.739 -20.29181,-19.3706 -22.12045,-9.9509 0.45754,2.5705 0.98918,5.1304 1.46256,7.7006 0.43171,2.1741 0.93126,4.3329 1.42739,6.4923 0.7371,2.8141 1.08009,5.7074 1.45192,8.5906 0.45847,2.9777 0.4457,5.9833 0.49184,8.986 -0.15659,2.2706 0.48245,4.4433 1.08264,6.6 0.56581,1.9281 0.88113,3.9029 0.99219,5.9089 0.19236,2.2116 0.0841,4.4348 0.0179,6.6498 0.16815,1.8419 -0.70267,3.1806 -1.65556,4.645 -1.11464,1.6934 -2.41408,3.2452 -3.78219,4.7281 -1.64735,1.7274 -2.87763,3.7668 -4.06031,5.8348 -1.00581,1.9761 -2.28172,3.7785 -2.84488,5.9514 -0.0122,0.3662 -0.0986,0.7378 -0.0367,1.099 0.066,0.3848 0.0819,0.897 0.4125,1.0939 7.13212,4.2457 14.40225,8.2534 21.7491,12.0989 0.22642,0.1185 3.1445,-0.1792 3.58593,-0.2003 2.03414,-0.1542 4.0898,-0.015 6.10256,-0.3671 1.82077,-0.3446 3.66606,-0.4672 5.51376,-0.5163 0.27624,0 0.5633,-0.088 0.82875,-0.011 0.22423,0.065 0.77026,0.5357 0.56605,0.4204 -6.78274,-3.829 -13.55332,-7.6807 -20.30617,-11.5643 -0.17686,-0.101 0.39973,0.1046 0.57159,0.2146 0.40483,0.2598 0.49913,0.571 0.714,0.9792 0.64781,1.855 0.57651,3.8425 0.54448,5.781 -0.0465,2.0886 0.009,4.1775 -0.0131,6.2666 0.0743,2.465 -0.21671,4.9219 -0.56051,7.3568 -0.42039,2.9757 -1.51163,5.739 -2.57753,8.5156 -0.73738,1.8152 -1.16354,3.725 -1.65562,5.6172 0,0 20.9666,11.5733 20.9666,11.5733 v 0 c 0.42585,-1.8515 0.90407,-3.6966 1.49769,-5.4997 0.78928,-2.973 1.87796,-5.86 2.54838,-8.8605 0.63273,-2.4904 1.00257,-5.0529 1.06254,-7.6267 -0.01,-2.0865 0.0692,-4.1717 0.0449,-6.2577 -0.0323,-2.1054 0.048,-4.2147 -0.0434,-6.3133 -1.41528,-10.111 -13.8852,-16.2501 -23.71801,-14.9001 -1.83902,0.1675 -3.66632,0.4208 -5.49478,0.6772 -1.9715,0.07 -3.9419,0.1488 -5.91106,0.2714 -0.73011,0.011 -1.4956,0.039 -2.22195,-0.069 -0.36872,-0.054 -1.40961,-0.449 -1.08991,-0.2536 6.52514,3.9877 13.27466,7.5887 19.75124,11.658 0.24848,0.1562 -0.55824,0.1914 -0.84882,0.2186 -0.18374,0.016 -0.36454,-0.059 -0.5468,-0.088 -0.58906,-1.8319 1.58229,-3.4029 2.09161,-5.1059 1.03844,-1.9422 2.19571,-3.7621 3.71752,-5.3572 1.47617,-1.5946 3.01695,-3.1446 4.13903,-5.0341 1.09152,-1.7861 2.47001,-3.6426 2.34157,-5.8534 -0.059,-2.2726 -0.16033,-4.5464 -0.0993,-6.82 -0.0728,-2.155 -0.0226,-4.334 -0.7028,-6.4077 -0.38826,-1.3383 -0.7363,-2.69 -1.1326,-4.025 -0.0902,-0.3038 -0.24355,-0.5902 -0.29551,-0.9029 -0.0648,-0.3902 -0.0344,-0.7906 -0.0515,-1.1859 -0.1309,-3.1184 -0.46485,-6.2281 -0.70639,-9.3381 -0.30206,-2.8318 -0.41324,-5.6942 -0.89418,-8.4968 -0.33991,-2.2865 -1.17356,-4.4525 -1.65722,-6.7081 -0.61059,-2.2597 -0.82937,-4.5671 -1.09941,-6.8866 -6.14366,5.9643 -0.0939,0.2391 -21.93934,-11.2321 -0.1714,-0.09 0.34463,0.188 0.48201,0.3262 0.82225,0.8261 1.26366,1.9505 1.72815,3.0002 0.1643,0.3881 0.37377,0.7594 0.49291,1.1644 0.56574,1.923 0.14068,4.0104 0.2792,5.9771 0.0415,2.8952 0.25565,5.787 0.19801,8.6844 -0.5177,13.7316 -3.74839,4.4795 21.40772,17.6988 -0.637,-1.0041 -0.0902,-3.329 -0.46893,-4.538 -0.26921,-2.0569 -1.17465,-3.8029 -2.17795,-5.5858 -0.75676,-1.3458 -0.39728,-0.6554 -1.07622,-2.0726 -0.76015,-1.378 -1.53003,-2.5669 -1.47216,-4.2454 -0.69074,-2.8489 -1.67057,-5.624 -2.36404,-8.4757 -1.91803,-5.2876 -3.98826,-10.519 -5.75441,-15.863 -1.57934,-5.4551 -3.32932,-10.9029 -3.92287,-16.5883 -0.37528,-3.5533 -0.88653,-7.0972 -0.98584,-10.6741 -0.0215,-2.612 -0.008,-5.2239 -0.0639,-7.8355 0.0229,-2.3737 0.16273,-4.7453 0.11661,-7.1214 -0.0583,-2.3812 -0.0555,-4.7627 -0.0726,-7.1444 0.0395,-2.3645 0.0934,-4.7284 0.0578,-7.0932 0.0637,-2.015 -0.0814,-4.028 -0.0628,-6.043 0.56657,-10.5529 -22.52624,-20.601 -23.2911,-8.8283 -0.40937,2.1904 -0.5839,4.4162 -1.92478,6.2858 -0.56382,0.946 -2.64951,3.9398 -3.76922,4.0687 -0.13913,0.015 -0.22091,-0.1756 -0.33135,-0.2634 6.75261,4.1354 13.50523,8.2709 20.25785,12.4065 -0.65792,-0.4292 -0.78128,-0.349 -0.95985,-1.303 -0.29065,-1.5526 0.0342,-3.2264 -0.15699,-4.7878 0.0406,-2.9527 0.2716,-5.895 0.21319,-8.8496 0.0516,-2.4624 -0.0316,-4.916 -0.0824,-7.3783 0.0517,-2.2486 0.15638,-4.4956 0.23143,-6.7436 0.0223,-2.1538 0.11369,-4.3082 0.40281,-6.4443 0.41487,-2.8897 0.79574,-5.8114 0.85057,-8.7285 0.0222,-2.1397 0.23468,-4.2773 0.089,-6.4176 -0.12276,-1.9729 -0.27267,-3.94 -0.87073,-5.8362 -0.2649,-0.9889 -0.58259,-1.7749 -0.4317,-2.8141 0.0493,-0.3394 0.5112,-0.8242 0.2246,-1.0036 -21.34121,-13.3539 -17.64196,-19.6946 -21.9682,-11.5259 -0.5634,1.736 -1.55242,2.6265 -3.05344,3.6049 -1.62738,1.1063 -3.19656,2.2703 -5.26046,2.0054 -6.87351,-2.073 -24.77625,-20.60964 17.819,11.0463 0.63637,0.3916 -1.12706,-0.266 -1.51995,-0.9517 -0.18119,-0.3163 -0.19813,-0.7042 -0.2972,-1.0562 -0.10369,-0.8306 -0.12789,-1.6744 -0.29911,-2.4933 -0.30005,-1.4351 -1.08266,-2.7682 -1.28127,-4.2396 -0.61868,-2.3754 -1.55769,-4.5913 -2.66955,-6.7718 -1.19624,-2.3893 -1.82474,-5.0305 -2.65168,-7.56615 -0.81668,-2.83028 -1.80749,-5.60645 -2.8954,-8.33869 -0.30757,-0.78862 -0.72227,-1.53428 -0.98539,-2.33959 -0.5147,-1.57535 -0.44001,-3.27435 -0.66786,-4.8961 -0.45481,-2.87593 -0.80933,-5.77888 -1.49892,-8.6075 -0.52771,-2.05068 -1.24856,-3.39977 -2.17261,-5.26181 -0.19398,-0.39086 -0.16744,-0.96591 -0.53218,-1.19695 -7.00261,-4.4368 -14.25103,-8.45592 -21.37653,-12.68393 -1.64137,-0.26454 -3.28857,-0.1301 -4.94464,-0.11819 -2.12049,0.0311 -4.24078,0.0456 -6.36064,0.11452 -2.56977,0.0245 -5.1381,-0.0467 -7.70634,-0.11018 -1.89256,0.0289 -3.79799,0.0935 -5.67838,-0.1696 -0.85126,-0.11497 -1.6931,-0.23929 -2.51228,-0.51607 -0.59524,-0.20111 -2.2387,-1.15066 -1.69683,-0.82858 6.5708,3.9046 13.1437,7.80563 19.71555,11.70844 -1.93949,-0.91761 0.28659,0.23005 -1.39972,-0.93096 -0.21045,-0.1449 -0.4713,-0.19888 -0.68666,-0.3361 -0.67378,-0.42903 -1.11064,-1.0752 -1.5074,-1.75888 -0.87156,-2.18378 -0.28762,-4.6547 -0.18026,-6.93721 0.40598,-3.68579 0.92978,-7.41276 2.60297,-10.75733 z" /><path
         style="display:inline;opacity:1;fill:#000000;fill-opacity:1;stroke:none;stroke-width:0.967975;stroke-linecap:round;stroke-linejoin:round;stroke-dasharray:none;stroke-opacity:1;paint-order:normal"
         id="path338"
         d="m 418.30438,954.2011 c -4.64269,-0.0566 -9.49028,0.1797 -13.51598,2.81725 -0.90214,0.59112 -1.64812,1.39164 -2.47218,2.08746 -3.63442,4.14765 -5.48789,9.20699 -5.77303,14.65694 -0.47953,1.43532 1.98886,5.06801 1.11821,6.02246 -0.5299,0.58084 -2.60075,0.89899 -3.02729,0.99872 -4.4016,1.21032 -9.28865,-0.21691 -13.59368,1.37431 -1.0798,0.39904 -2.04724,1.05349 -3.07086,1.58012 -6.09027,5.5082 -9.26618,13.03255 -10.92509,20.91234 -1.02798,3.2033 0.1486,10.1829 -2.86122,12.359 -0.5736,0.4146 -1.27779,0.6092 -1.91669,0.9139 -6.45738,1.8748 -11.85133,4.9046 -16.22468,10.0367 -3.45489,7.2076 -1.5275,11.5225 2.71421,17.5516 3.77527,4.9057 1.50607,6.4566 -2.15045,10.4272 -4.89864,4.8072 -8.41456,10.4414 -10.75241,16.8534 -1.72231,5.0062 -2.6837,10.2807 -2.72662,15.5731 0.0147,2.5545 1.44998,5.0974 0.97483,7.6778 -0.28297,1.5367 -1.31408,2.9043 -2.08238,4.1853 -5.36774,6.6722 -10.54717,13.4432 -14.84668,20.8669 -2.74768,5.1742 -2.85495,9.6089 1.23291,13.8905 3.98762,2.9869 1.73025,1.3927 10.27118,6.04 0.96884,0.5271 3.92136,2.0216 2.94404,1.5104 -6.4951,-3.3976 -7.7008,-5.4246 -5.85557,-2.6919 -3.32504,2.9116 -6.55924,5.7722 -9.07537,9.4737 -2.41395,4.7917 -4.13013,10.1068 -3.86769,15.5358 0.0652,1.3485 0.33616,2.6791 0.50424,4.0187 0.82723,3.8075 2.38895,7.3535 4.66566,10.5163 1.49695,2.0796 3.40539,3.8472 5.02075,5.8332 0.28879,0.6191 0.86426,1.4027 0.53784,2.1733 -0.45979,1.0856 -1.58972,1.7421 -2.34994,2.6431 -0.60369,0.7156 -1.16591,1.465 -1.74887,2.1975 -0.70896,0.8288 -1.41791,1.6575 -2.12687,2.4864 -3.58636,4.8689 -7.04276,10.4957 -6.86926,16.7837 0.0335,1.2125 0.33973,2.402 0.50959,3.6031 3.40556,10.8652 13.22769,15.3643 22.47228,20.6186 0.87739,0.4615 3.50411,1.8568 2.6322,1.3848 -1.82064,-0.9854 -3.53053,-2.2245 -5.4785,-2.9254 -0.46454,-0.1671 0.65371,0.7734 0.80433,1.2437 0.15441,0.482 0.14682,1.0148 0.0799,1.5164 -0.20212,1.5139 -1.0586,2.7246 -1.76512,4.0341 -3.50944,5.4175 -6.7133,11.015 -8.96229,17.075 -1.74391,5.4963 2.59703,8.7067 6.54494,11.5687 3.58392,2.9106 4.05105,3.7348 2.28244,7.7971 -1.7828,3.0525 -3.32404,6.1682 -3.67846,9.7121 0.11302,1.2471 0.0957,2.3921 0.66153,3.5506 2.17893,4.4606 9.65556,7.2988 13.85295,9.1629 3.83426,1.6732 7.97323,2.1432 12.10176,2.4274 2.91701,0.4573 9.88631,3.0629 -2.8933,-2.6254 -0.41209,-0.1835 0.67024,0.6487 0.82567,1.0721 0.53209,1.4495 -0.0916,2.2531 -0.5916,3.6232 -3.50179,5.519 -8.28483,10.1249 -12.55009,15.0647 -2.23822,3.0803 -5.8149,7.282 -3.21403,11.2519 0.54561,0.8328 1.36288,1.4517 2.04432,2.1776 10.37066,7.679 22.40546,9.6449 34.59762,12.3675 -2.50294,-1.994 7.56782,3.022 5.68026,2.2556 -1.86764,-0.7584 -3.51426,-2.143 -5.49245,-2.5302 -0.76193,-0.1492 0.96645,1.2224 1.53162,1.7548 0.78938,0.7436 1.58471,1.5079 2.51816,2.0599 3.78879,2.2406 7.73905,4.1962 11.60857,6.2943 2.70965,0.6153 5.39325,1.3596 8.12898,1.8461 15.50969,2.7584 32.26466,3.9095 47.98375,2.6762 3.21295,-0.2522 6.38997,-0.8455 9.58495,-1.2683 6.43037,-1.2711 12.57587,-3.1505 16.92956,-8.3531 3.01712,-3.6055 4.16768,-7.9967 5.26981,-12.4275 0.17106,-0.9736 0.41592,-3.8685 1.33195,-4.9224 0.97267,-1.1191 2.55107,0.6332 2.39721,0.5588 -4.50922,-2.1809 -7.60731,-4.4403 -1.7584,-0.4814 3.78121,2.1025 7.46874,4.3831 11.34362,6.3076 5.69401,2.8279 16.46496,5.1629 22.81236,5.4424 1.94829,0.086 3.89809,-0.1332 5.84714,-0.1999 7.44226,-1.3536 14.128,-4.6598 19.77859,-9.6725 2.28496,-2.027 4.3318,-4.3076 6.49776,-6.4613 -0.74355,-2.4214 6.98176,0.8979 5.21945,1.1672 -1.52113,0.2325 -3.53884,-2.7304 -4.38446,-1.4447 -0.85564,1.3008 1.97806,2.405 2.9558,3.6167 5.89443,7.3049 1.71869,2.3851 8.42941,10.0266 6.77818,7.0991 14.97423,11.8591 23.72539,16.2709 2.95462,1.4897 9.21937,3.5308 12.59663,3.6718 2.43589,0.1017 4.85152,-0.4882 7.27727,-0.7323 5.45143,-1.1768 8.98885,-1.6434 14.12232,-3.9265 9.18343,-4.0842 17.0089,-10.644 24.39345,-17.3036 2.93333,-3.0391 4.26351,-4.205 6.70336,-7.4601 0.67077,-0.895 1.26205,-1.8478 1.84796,-2.8004 0.34974,-0.5686 0.58537,-1.2047 0.95661,-1.7595 0.0633,-0.095 0.41519,-0.088 0.31292,-0.1378 -2.47959,-1.2192 -5.03368,-2.2805 -7.55051,-3.4208 0.66342,2.9503 2.93208,4.9844 5.43459,6.532 6.66215,4.1197 11.47613,6.7996 18.56031,8.9246 1.23374,0.1052 2.46552,0.395 3.70122,0.316 6.96218,-0.4453 8.34939,-7.9233 9.19049,-13.433 0.68922,-7.5625 -2.38363,-13.7626 -4.49499,-20.6927 0.0461,-0.4345 -0.0189,-0.896 0.13846,-1.3036 0.17657,-0.4573 0.56327,-0.8027 0.83288,-1.212 1.47306,-2.2371 1.79116,-2.6178 2.77194,-5.4428 1.30225,-3.7508 1.54021,-5.7911 2.31995,-9.7804 1.60907,-10.1446 1.98617,-20.4135 2.69238,-30.6421 0.15563,-1.4328 0.26017,-2.8721 0.46691,-4.2985 0.4939,-3.4075 1.25132,-6.7722 1.80679,-10.1703 0.99206,-6.0688 1.68112,-12.145 2.26668,-18.2639 0.43022,-6.6432 1.00507,-13.3011 0.80035,-19.9668 -0.005,-4.0264 -0.76549,-8.0088 -0.89203,-12.0266 -0.0492,-1.562 0.084,-3.1245 0.1261,-4.6867 0.19157,-1.3485 0.32222,-2.7071 0.57473,-4.0456 0.5804,-3.0763 1.14294,-4.3681 1.88413,-7.375 1.06149,-4.3061 1.64903,-8.6412 2.19593,-13.0356 0.25875,-5.6285 1.64614,-11.4212 0.60026,-17.0479 -0.54208,-2.9163 -1.10499,-3.6843 -2.33513,-6.2428 -4.11708,-6.4553 -4.55616,-8.0515 -1.62519,-15.166 3.43,-7.3724 4.94615,-15.4468 5.11767,-23.5323 -0.56276,-5.8796 -3.80664,-9.9929 -8.4998,-13.2354 0,0 -7.85253,-3.0631 -7.85253,-3.0631 v 0 c 4.76044,2.9224 8.16906,6.7944 8.97274,12.5258 -0.0484,7.992 -1.61494,15.9463 -5.04959,23.2054 -3.05606,7.1357 -3.19689,9.2752 1.27828,15.8076 1.31369,2.4356 1.92117,3.1809 2.53721,6.003 1.21312,5.5574 -0.20799,11.338 -0.43335,16.9163 -0.54971,4.354 -1.17212,8.6215 -2.22903,12.8863 -0.61513,2.4821 -1.4299,4.9703 -1.89494,7.4893 -0.25405,1.3762 -0.37384,2.7737 -0.56077,4.1606 -0.0266,1.6031 -0.14866,3.2075 -0.0797,4.8094 0.80101,18.6311 0.29783,-8.5174 1.03337,12.0149 0.23766,6.6345 -0.38221,13.2676 -0.81211,19.8783 -0.59471,6.088 -1.27092,12.1303 -2.31414,18.1611 -0.58791,3.3986 -1.40567,6.7564 -1.94041,10.1638 -0.22473,1.4321 -0.33594,2.8796 -0.50391,4.3193 -0.7119,10.2121 -0.70503,20.4999 -2.5205,30.6119 -0.90819,4.3606 -1.68188,8.738 -3.86092,12.6901 -0.70236,1.2739 -1.92512,2.2506 -2.46438,3.6016 -0.20736,0.5195 -0.15888,1.1074 -0.23832,1.6611 2.17623,6.9162 5.48126,12.8113 4.85822,20.4512 -0.77028,5.125 -1.98001,12.1734 -8.56363,12.335 -1.19195,0.029 -2.36868,-0.2754 -3.55301,-0.4131 -1.32834,-0.4263 -2.67989,-0.7862 -3.985,-1.2791 -1.28895,-0.4867 -3.10908,-2.8553 -3.78716,-1.6559 -0.67498,1.1939 2.13498,2.106 3.50562,2.1539 0.18056,0.012 -3.04365,-1.5343 -4.88482,-4.1901 -0.3047,-0.4395 -0.39034,-0.9958 -0.58551,-1.4937 -2.51848,-1.6851 -4.93584,-3.5322 -7.55546,-5.0554 -0.18141,-0.1051 -0.5718,1.2478 -1.10891,2.23 -2.11235,3.8631 -5.05769,7.1402 -8.13419,10.2571 -11.43829,10.5692 -22.34497,18.4973 -38.16647,20.8336 -2.4028,0.1636 -4.80537,0.6512 -7.20837,0.4908 -2.13468,-0.1425 -4.22153,-0.7596 -6.26589,-1.3903 -2.11161,-0.6514 -4.05942,-1.7656 -6.16257,-2.4438 -0.36838,-0.1187 1.21267,0.9601 0.89155,0.744 -6.99953,-4.7104 -4.83808,-3.1522 -11.02469,-8.8876 -5.80019,-6.6182 -3.19594,-3.445 -8.21478,-9.8939 -0.94989,-1.2205 -1.66289,-2.6686 -2.84687,-3.6638 -3.08153,-2.5898 -6.44956,-4.8305 -9.84059,-6.9994 -0.91582,-0.5858 -1.93545,-1.1819 -3.02163,-1.2274 -0.96764,-0.041 -1.82206,0.6572 -2.73309,0.9859 -1.3838,1.4469 -5.0023,5.2757 -6.32525,6.4471 -5.54079,4.9064 -12.13577,8.065 -19.44421,9.2665 -1.9228,0.035 -3.84834,0.2132 -5.76843,0.1052 -3.44855,-0.1943 -8.39895,-1.1976 -11.71857,-2.0321 -1.94739,-0.4896 -3.88576,-1.026 -5.78863,-1.6672 -1.77061,-0.5965 -3.35595,-1.9152 -5.22007,-2.042 -1.12521,-0.076 1.87609,1.2524 2.81414,1.8785 -3.69265,-2.5602 -11.36008,-8.7464 -14.5357,-8.1722 -2.40346,0.4345 -2.1602,4.5466 -2.48588,6.0348 -0.9883,4.3068 -2.02556,8.558 -4.92226,12.0734 -4.1521,5.0389 -10.10641,6.8875 -16.26859,8.2032 -3.12516,0.4413 -6.23044,1.0591 -9.3755,1.3238 -15.54734,1.3081 -32.84015,0.095 -48.11502,-3.0379 -2.81087,-0.5764 -5.54681,-1.4717 -8.32021,-2.2075 0.86339,0.6447 1.71374,1.3074 2.59019,1.9342 0.84607,0.6052 -1.73303,-1.1653 -2.49904,-1.8691 -0.5811,-0.5339 -0.88299,-1.3466 -1.51519,-1.819 -5.05616,-3.7769 -8.78517,-6.6425 -14.60779,-7.9786 -6.51174,-1.3783 -13.05664,-2.5372 -19.35388,-4.7616 -1.57861,-0.5576 -3.30511,-2.8209 -4.66934,-1.8505 -1.23169,0.8762 2.53774,1.6428 3.80662,2.4642 -0.70443,-0.6135 -1.52344,-1.1162 -2.11329,-1.8406 -2.88947,-3.5485 0.63218,-7.6035 2.69,-10.4651 4.30183,-5.0426 9.10291,-9.7387 12.76573,-15.2681 0.31817,-0.7686 0.76182,-1.4967 0.95451,-2.3061 1.40197,-5.888 -7.76923,-8.3455 -12.5715,-8.9606 -4.07775,-0.3247 -8.13857,-0.9015 -11.88852,-2.6447 -2.19147,-1.0312 -7.4964,-3.6139 3.34445,2.3019 0.57601,0.3144 -1.08744,-0.7422 -1.57317,-1.1833 -1.43317,-1.3019 -1.93772,-2.6972 -2.0502,-4.6039 0.23503,-3.465 1.81411,-6.4954 3.55171,-9.4565 1.94211,-4.2976 2.03374,-5.6121 -1.87973,-8.8913 -3.69089,-2.6214 -8.41964,-5.2964 -7.00352,-10.5755 2.12409,-6.0675 5.25004,-11.6611 8.87715,-16.9626 1.06341,-1.8263 2.56418,-3.9594 2.17658,-6.25 -0.88332,-5.2204 -8.3555,-5.8142 -12.28632,-8.4647 1.3895,0.8485 2.68929,1.8653 4.1685,2.5455 1.09946,0.5055 -2.03716,-1.3089 -3.01855,-2.0168 -4.35937,-3.1447 -7.98995,-6.9796 -9.60114,-12.2246 -0.20361,-1.1475 -0.54531,-2.2788 -0.61085,-3.4422 -0.34335,-6.0943 3.16171,-11.6182 6.64723,-16.2895 1.33666,-1.5161 2.60093,-3.0953 3.94559,-4.6042 1.70145,-1.9095 3.77191,-3.1316 2.39128,-5.88 -1.61165,-2.0594 -3.5924,-3.7617 -5.19455,-5.822 -2.35461,-3.028 -3.98056,-6.4709 -4.86767,-10.2008 -0.1858,-1.2982 -0.48145,-2.5853 -0.55741,-3.8945 -0.30512,-5.2588 1.4572,-10.4101 3.75436,-15.0548 1.56731,-2.3047 3.1922,-4.2516 5.34021,-6.0538 0.62952,-0.5282 2.86856,-2.0898 3.52515,-2.8359 0.33862,-0.3849 0.53062,-0.8773 0.79593,-1.3159 -1.63509,-4.0017 -0.17452,-0.9802 -8.67511,-6.2341 -0.93821,-0.58 -3.89007,-2.0682 -2.9673,-1.4641 1.88528,1.2342 3.85202,2.3395 5.79091,3.4876 0.50376,0.2984 -0.99002,-0.6252 -1.48502,-0.9378 -4.45339,-3.99 -4.56081,-7.6255 -1.91263,-12.9881 4.18154,-7.5101 9.38645,-14.2313 14.91657,-20.7887 0.92621,-1.4458 2.02257,-2.8043 2.40314,-4.5294 0.57059,-2.5863 -0.77709,-5.1962 -1.02215,-7.7225 -0.0797,-5.2085 0.88487,-10.4048 2.55273,-15.3354 2.19643,-6.3633 5.64866,-11.8916 10.54104,-16.5749 3.82567,-4.0028 6.73177,-6.224 2.72649,-11.43 -4.11515,-5.6841 -6.65016,-9.5017 -3.25317,-16.5732 4.3877,-5.1461 9.69009,-7.8054 16.11624,-9.7183 0.708,-0.3923 1.49713,-0.6649 2.12402,-1.1771 3.21072,-2.6229 1.89852,-9.1875 2.91009,-12.8124 1.57408,-7.6397 4.4261,-15.08306 10.55942,-20.24375 0.99509,-0.45845 1.94209,-1.04033 2.98527,-1.37512 4.37393,-1.40366 9.2781,-0.0612 13.69649,-1.37049 6.34451,-1.8717 3.23154,-3.22948 2.45561,-7.95437 0.1159,-5.22125 1.85065,-10.13116 5.33824,-14.08709 0.78614,-0.63873 1.49894,-1.3802 2.35843,-1.91619 4.05694,-2.52984 8.90305,-2.53527 13.49937,-2.36551 z"
         clip-path="url(#clipPath337)"
         transform="matrix(-1.1234276,0,0,1.1295434,1081.7005,-147.90153)" /><path
         style="display:inline;opacity:1;fill:#dedede;fill-opacity:1;stroke:none;stroke-width:1.0904;stroke-linecap:round;stroke-linejoin:round;stroke-dasharray:none;stroke-opacity:1;paint-order:normal"
         id="path339"
         d="m 405.57623,952.23067 c 0.27418,2.05826 0.87278,4.03541 1.46676,6.00668 0.53561,1.70707 1.52976,3.13411 2.51939,4.558 0.93251,1.24605 2.26135,2.02877 3.47317,2.92011 1.46975,1.26549 3.01491,2.42305 4.54719,3.59839 5.29889,3.88603 1.70621,1.28552 15.09523,9.42469 1.0043,0.6105 2.19008,0.7463 3.31199,0.87262 0.21991,0.0152 1.39417,0.1077 1.61172,0.0691 1.34892,-0.24115 2.61209,-1.27859 3.69206,-2.10462 0.87023,-0.79407 1.71169,-1.66 2.28832,-2.73035 0.36257,-0.7786 0.17995,-0.4253 0.53645,-1.06635 0.0565,-0.0421 0.16796,-0.19867 0.16961,-0.12515 0.005,0.19562 0.002,0.65101 -0.15985,0.56133 -4.79944,-2.65203 -9.40245,-5.69458 -14.14336,-8.46486 -0.11795,-0.0691 0.18785,0.21283 0.24461,0.34325 0.1267,0.29137 0.25869,1.08309 0.3116,1.35761 0.27699,1.76713 1.05606,3.35608 1.93811,4.85477 0.43756,0.68483 0.818,1.4467 1.34462,2.06306 0.2346,0.27463 0.50953,0.50619 0.76268,0.76105 0.87333,0.85845 1.68144,1.78316 2.52256,2.67685 1.17987,1.21222 2.37169,2.41988 3.66043,3.49912 3.54104,1.33901 10.37154,8.79896 16.43932,9.1004 0.50835,0.0257 1.01779,0 1.52669,0 2.28812,-0.24056 4.58558,-0.10886 6.87838,-0.0737 2.26417,0.0491 4.52663,-0.0725 6.78863,-0.1646 3.67712,-0.0773 7.36474,-0.2085 11.00241,-0.81689 2.85755,-0.59131 5.69259,-1.35341 8.23145,-2.93217 0.53113,-0.33024 1.02701,-0.72171 1.5405,-1.08252 1.84746,-1.306 3.61103,-2.82024 4.90504,-4.76566 0.67154,-1.00959 0.76611,-1.3136 1.26478,-2.38816 0.66691,-1.46029 0.95766,-3.03518 1.08988,-4.64041 0.0328,-0.36279 -0.0205,-1.97409 0.22577,-2.17778 0.0657,-0.0539 0.081,0.15792 0.14014,0.22031 0.10358,0.10888 0.22833,0.19292 0.34249,0.28951 0.19691,0.10535 0.40113,0.19597 0.59076,0.31561 0.24384,0.15371 0.46663,0.34335 0.70723,0.50292 0.27814,0.18437 1.13206,0.70286 0.84832,0.52856 -21.99329,-13.51546 -15.4116,-9.66714 -10.86388,-6.61848 2.28475,1.70753 4.59271,3.37865 6.87907,5.08444 0.63924,0.43829 1.26142,0.90644 1.91769,1.31477 4.84234,3.01248 9.68255,6.03033 14.57604,8.94647 0.72761,0.43361 1.51698,0.73576 2.27813,1.09715 2.04406,0.97071 4.10222,1.83384 6.20333,2.64992 1.44438,0.52211 2.90002,1.02983 4.41506,1.25729 1.33269,0.20007 2.68565,0.19035 4.02755,0.20662 2.3323,0.0118 4.66225,0.11239 6.99344,0.17198 1.55063,0.11589 3.04771,-0.1495 4.54112,-0.56579 1.53553,-0.3684 3.12159,-0.46498 4.64133,-0.90984 0.80143,-0.23448 1.58783,-0.52516 2.38761,-0.76608 3.09361,-1.18039 6.12783,-2.52525 9.20455,-3.7541 0.60777,-0.25778 1.21265,-0.52364 1.82333,-0.77357 1.6972,-0.69445 2.03519,-0.75919 3.72299,-1.52117 0.65769,-0.29699 1.2994,-0.63322 1.95452,-0.93665 1.40161,-0.64913 2.36198,-1.04774 3.7684,-1.649 1.44235,-0.64971 2.94965,-1.13883 4.32066,-1.96215 1.26729,-0.76105 2.3857,-1.74184 3.50245,-2.72636 1.63767,-1.45293 2.94489,-3.28654 4.21126,-5.10505 0.86436,-1.1956 1.3969,-2.60122 1.84155,-4.02288 0.49315,-0.97481 0.61677,-2.3267 1.15592,-3.25059 0.0266,-0.0164 0.22015,-0.20112 0.22935,0.0164 0.008,0.177 -0.0945,0.34968 -0.0738,0.52551 0.012,0.10302 0.24941,0.30437 0.16517,0.25415 -8.99465,-5.35146 -18.01917,-11.03645 -12.75662,-7.72417 5.59417,3.77259 10.84085,8.73106 17.38,10.12169 2.10261,0.32382 4.23531,0.42554 6.3566,0.53711 1.3946,0.0118 2.81194,0.13615 4.19906,-0.0913 0.99292,-0.16272 1.66968,-0.41617 2.63135,-0.72114 2.20361,-0.76244 4.11147,-2.09654 5.82932,-3.73044 1.66672,-1.87833 3.28849,-3.81075 4.7301,-5.89336 1.51494,-2.38606 2.72675,-4.95216 3.74513,-7.61789 0.53804,-1.69114 0.95945,-3.42197 1.18428,-5.19272 0.0157,-0.17069 0.0315,-0.34136 0.0472,-0.51193 0,0 -14.3353,-7.87976 -14.3353,-7.87976 v 0 c 0.007,0.16611 0.014,0.33236 0.021,0.49859 0.047,1.69816 -0.0255,3.40395 -0.46623,5.04814 -0.29758,1.04131 -0.37668,1.43255 -0.80613,2.44635 -0.71584,1.68974 -1.71233,3.21325 -2.66707,4.7522 -1.43316,1.95747 -2.95527,3.86098 -4.74287,5.46057 -1.58563,1.3636 -3.19183,2.71572 -5.20603,3.26593 -0.4101,0.0913 -0.81537,0.21271 -1.23033,0.27393 -1.83993,0.27125 -3.70811,-0.0468 -5.55408,-0.0211 -2.11443,-0.0855 -4.24767,-0.22406 -6.26636,-0.96661 -0.27454,-0.11005 -1.10634,-0.43046 -1.41304,-0.59775 -0.1823,-0.0995 -0.70084,-0.45235 -0.52382,-0.34254 22.98256,14.2579 16.43807,10.61057 11.93743,7.33575 -5.02354,-3.61607 -2.57207,-1.87201 -14.91002,-9.1463 -0.54765,-0.32299 -1.35811,0.92109 -1.58667,1.33398 -0.44621,1.13613 -0.4667,2.40174 -0.96065,3.52815 -0.52111,1.26022 -0.91809,2.58109 -1.63372,3.74216 -0.95773,1.82928 -2.13559,3.51457 -3.56971,4.95016 -0.90358,0.83585 -1.03014,1.01532 -2.06501,1.70987 -1.62817,1.0927 -3.42315,1.88501 -5.10274,2.8768 -1.42965,0.73272 -2.08263,1.09258 -3.57866,1.74991 -2.51241,1.10394 -5.0991,2.00746 -7.63612,3.04198 -3.17492,1.18273 -6.34285,2.40022 -9.59864,3.30971 -2.33627,0.65896 -4.70005,1.17675 -7.11253,1.39227 -1.51649,0.11883 -3.03068,0.26738 -4.55324,0.2483 -2.169,0.0995 -4.33766,0.23917 -6.50945,0.10302 -2.6697,-0.20792 -5.31063,-0.62338 -7.84626,-1.58801 -1.92972,-0.72031 -3.83022,-1.47633 -5.68155,-2.41076 -0.77184,-0.38959 -3.01964,-1.69886 -2.29004,-1.22498 3.40282,2.21022 6.87698,4.29178 10.31547,6.43762 -0.57801,-0.38352 -1.15603,-0.76714 -1.73405,-1.15066 -0.48296,-0.36887 -0.96591,-0.73775 -1.44887,-1.10663 -0.39387,-0.34125 -0.77494,-0.70029 -1.18165,-1.02386 -1.14821,-0.91335 -2.38577,-1.70438 -3.49382,-2.67977 -4.94618,-3.76487 -11.28425,-7.15804 -15.92481,-9.98649 -0.57001,-0.34746 -1.32878,-0.68613 -1.98438,-0.79476 -0.32099,-0.0527 -0.64938,-0.02 -0.97406,-0.0293 -0.3011,0.13018 -0.63903,0.18825 -0.90328,0.39031 -1.0196,0.77966 -0.95791,2.20155 -1.11967,3.38814 0.0757,1.45631 0.0583,2.91823 -0.33167,4.331 -0.30835,0.93103 -0.38597,1.30541 -0.87664,2.17768 -1.0451,1.85784 -2.62898,3.26451 -4.31046,4.42523 -1.19989,0.71153 -1.76651,1.10136 -3.03014,1.64478 -2.05492,0.88386 -4.23485,1.41172 -6.40654,1.8321 -3.66559,0.49811 -7.34464,0.75485 -11.04074,0.50912 -2.39378,-0.0855 -4.78877,-0.20463 -7.18416,-0.13615 -2.32683,0.0573 -4.66242,0.21154 -6.97979,-0.12256 -0.91773,-0.0984 -1.84243,-0.23472 -2.70351,-0.61273 -0.2155,-0.0948 -0.83162,-0.44837 -0.63058,-0.3224 4.2928,2.69066 8.60528,5.34503 12.90793,8.01754 -0.23774,-0.12386 -0.48446,-0.22969 -0.7132,-0.37169 -1.13119,-0.7024 -2.00985,-1.82706 -2.98445,-2.74064 -0.82485,-0.86349 -1.59638,-1.75811 -2.39509,-2.64478 -0.0232,-0.0246 -0.72325,-0.75941 -0.74963,-0.78212 -0.59442,-0.51158 -0.29297,-0.0714 -0.83451,-0.7072 -0.1402,-0.16471 -0.25191,-0.35518 -0.38627,-0.52539 -0.14661,-0.18567 -0.30409,-0.36115 -0.45613,-0.54179 -0.84384,-1.30518 -1.8584,-2.59993 -2.15846,-4.18957 -0.0714,-0.56111 -0.12281,-0.74479 -0.0884,-1.30296 0.0111,-0.18145 0.21874,-0.44427 0.0742,-0.53956 -0.98912,-0.65148 -12.72916,-14.51275 -14.75729,-7.80519 -0.3912,1.28411 -0.97499,2.43452 -2.01635,3.25211 -0.24287,0.17491 -0.47058,0.37672 -0.72859,0.52458 -1.32196,0.7573 -2.59503,0.63064 -4.01002,0.33481 -0.74968,-0.19656 -1.4418,-0.43408 -2.13857,-0.79629 -0.24623,-0.12795 -0.96423,-0.55477 -0.728,-0.40668 19.22693,12.04955 16.25379,10.16618 11.66971,7.25708 -1.50788,-1.10886 -2.99551,-2.24687 -4.42781,-3.46507 -1.06293,-0.98406 -2.24271,-1.77905 -3.44289,-2.55661 -1.1726,-1.21117 -2.20902,-2.61293 -3.03845,-4.11419 -0.46074,-1.20274 -1.26856,-3.35583 -1.23274,-4.65703 0.005,-0.17256 0.0687,-0.33738 0.10315,-0.50608 z" /></g><g
       id="g129"
       inkscape:label="R"
       style="display:inline;stroke-width:1.0904"
       transform="translate(-20.927091,-7.8476591)"
       inkscape:export-filename="..\..\FlapDolly\assets\obstacles\dolly\dolly-arm.svg"
       inkscape:export-xdpi="96"
       inkscape:export-ydpi="96"><path
         id="path131"
         style="display:none;fill:#f7f7f7;fill-opacity:1;stroke:none;stroke-width:1.0904;stroke-linecap:round;stroke-linejoin:round;stroke-dasharray:none;stroke-opacity:1;paint-order:normal"
         inkscape:label="COLOR"
         d="m 964.41342,992.99219 c -4.79439,0.23017 -6.60256,3.88559 -11.71094,19.87301 -0.75384,2.3593 -1.58229,4.7559 -2.44726,7.1661 l -9.23829,-4.7071 c 0.51651,3.1636 -0.0409,6.3236 -0.75976,9.4043 -0.98891,3.3228 -2.47711,6.4972 -4.34766,9.4121 -1.84231,2.6586 -4.0076,5.0691 -6.04297,7.5782 -1.62015,2.4683 -3.41358,4.8229 -4.99414,7.3164 -0.20397,0.3298 -0.40428,0.6636 -0.61328,0.9902 -0.69569,1.0872 -0.48886,0.6677 -1.11719,1.7773 -0.42692,0.7539 -0.76919,1.5425 -1.1875,2.3008 -0.82912,1.6003 -1.56603,3.244 -2.48242,4.8028 -0.94622,1.6808 -2.15892,3.1491 -3.40234,4.6093 -1.27568,1.2115 -2.11312,2.7554 -3.14453,4.1563 -0.98813,1.1337 -1.58418,2.5076 -2.23242,3.8476 -0.61772,1.5761 -1.25799,3.1405 -1.91407,4.7012 -0.83822,2.0648 -1.73876,4.1078 -2.5625,6.1797 -0.79712,1.6788 -1.78311,3.2695 -2.75781,4.8516 -1.1642,2.0177 -2.75084,3.7123 -4.24609,5.4804 -1.32575,1.4676 -2.61426,2.9625 -3.88086,4.4805 -1.36786,1.5834 -2.8455,3.0984 -4.44727,4.4473 -2.54573,2.3867 -5.48991,4.2777 -8.39062,6.1953 -0.47036,0.3034 -0.93487,0.6175 -1.41211,0.9101 -0.46576,0.2854 -0.95202,0.5358 -1.41602,0.8242 -1.80245,1.12 -3.51496,2.3982 -5.23047,3.6446 -2.54533,1.9584 -5.34879,3.5296 -8.10351,5.166 -2.88283,2.1648 -5.8726,4.1794 -8.78516,6.3027 -1.37272,0.9411 -2.76648,1.8481 -4.07617,2.875 -1.53574,1.4073 -3.06398,2.8091 -4.77148,4.0078 -0.80682,0.5854 -1.69252,0.9593 -2.61524,1.2325 -3.96818,-3.6322 -2.92809,-4.0767 -5.84961,-3.834 -0.0136,-0.01 -0.0235,-0.017 -0.0371,-0.027 -0.0303,-0.022 -0.0683,0.016 -0.10547,0.039 -0.2778,0.024 -0.48638,0.038 -0.84179,0.07 -1.99283,0.1202 -3.9791,0.084 -5.9668,-0.084 -1.82988,-0.173 -3.66235,-0.2927 -5.4668,-0.6543 -2.25213,-0.4858 -4.51113,-0.9321 -6.76953,-1.3867 -0.898,-0.1935 -1.77254,-0.4638 -2.64453,-0.7422 -18.94011,-9.1754 -41.18065,-19.2639 -53.20508,-23.7363 -20.46538,-7.612 -54.67959,-10.8494 -67.5664,-6.3926 l -9.65235,3.3379 16,13.252 c 2.73565,2.2658 5.43359,4.4117 8.11524,6.5 -0.93233,1.6858 -1.4191,3.3352 -0.69727,5.2636 2.93739,5.777 10.82798,7.261 16.66211,9.5078 1.31083,0.5382 2.56525,1.2197 3.97461,1.4805 1.8287,0.4523 3.64021,0.9862 5.49414,1.3301 23.65368,14.1587 47.75139,22.3401 78.68945,27.4512 60.84908,10.0525 87.40086,-5.2685 121.25586,-71.086 1.74087,-2.8231 3.54887,-5.6053 5.19727,-8.4844 1.6408,-2.7962 3.28524,-5.6279 4.53906,-8.6191 0.87466,-2.4904 1.66825,-5.0051 2.43359,-7.5293 0.36076,-0.6783 0.74056,-1.3465 1.08204,-2.0351 1.08827,-2.5767 2.19453,-5.1375 3.36328,-7.6797 1.18552,-2.7028 2.32646,-5.4273 3.48633,-8.1426 1.48848,-3.3991 3.04218,-6.7642 4.48437,-10.1836 1.27469,-2.7689 2.42715,-5.5931 3.58984,-8.4102 0.91254,-2.2865 1.9405,-4.5187 2.69922,-6.8632 0.5391,-1.983 0.32359,-3.1607 -0.51562,-4.0176 5.0741,-13.9705 8.39341,-24.57846 7.56054,-25.65041 -0.72071,-0.92767 -4.64617,-2.01411 -8.72265,-2.41406 -0.82511,-0.081 -1.57095,-0.11882 -2.25586,-0.0859 z M 713.46029,1123.6328 c 0.4002,0.2284 0.42028,0.2479 0.80274,0.4668 -0.0355,-0.017 -0.0789,-0.027 -0.11328,-0.045 -0.23873,-0.1236 -0.92295,-0.5551 -0.68946,-0.4219 z" /><path
         id="path137"
         style="display:none;fill:#dedede;fill-opacity:1;stroke:none;stroke-width:1.0904;stroke-linecap:round;stroke-linejoin:round;stroke-dasharray:none;stroke-opacity:1;paint-order:normal"
         d="m 956.60678,1024.0859 c -2.26822,5.0483 -4.80116,9.9762 -7.3086,14.9102 -2.15555,4.0289 -3.83549,8.2974 -5.97656,12.332 -0.51621,0.9728 -2.7537,4.815 -3.3125,5.7793 -2.84356,5.0933 -5.94379,10.0329 -8.98828,15.0059 -2.65071,4.4774 -5.10502,9.0599 -7.52539,13.664 -1.61211,3.2742 -3.58427,6.323 -5.5,9.418 -1.84093,3.1975 -3.92302,6.2276 -6.15234,9.1641 -2.88795,4.1515 -6.06129,8.0707 -9.26172,11.9824 -2.40263,3.0551 -5.2383,5.7253 -8.04102,8.4043 -2.05081,2.4614 -4.45324,4.5025 -7.13867,6.2324 -3.80368,2.1168 -7.63733,4.1894 -11.56641,6.0684 -3.93358,1.5676 -7.63778,3.6163 -11.4707,5.4023 -3.95877,1.5304 -7.64427,3.6168 -11.32226,5.7129 -3.29683,1.6317 -5.82626,4.156 -8.36915,6.7324 -1.06979,1.2128 -0.95859,1.0954 -1.55664,1.8125 -2.50981,-1.3865 -5.05556,-2.6693 -7.81054,-3.6308 -2.51672,-1.1921 -5.03447,-2.3844 -7.56055,-3.5567 -3.91336,-1.764 -7.9921,-3.0744 -12.0293,-4.5234 -5.35839,-2.1495 -10.753,-4.2123 -16.15234,-6.2559 -5.15106,-1.6902 -10.32564,-3.4781 -15.75781,-3.9922 -7.78715,-1.0896 -15.53629,-2.3627 -23.15821,-4.3417 -9.53016,-2.3692 -19.08668,-4.6866 -28.77929,-6.2989 -7.42193,-1.2861 -14.85912,-2.973 -22.42774,-2.9258 l 6.03321,4.3848 c 0.63892,-0.03 1.27652,-0.027 1.91406,-0.027 0.41513,0.928 1.85077,1.691 9.55273,5.7754 15.15658,8.0372 25.63759,11.9871 43.11133,16.248 16.38378,3.9951 29.46399,6.1542 47.41211,7.8262 12.33587,1.1496 15.85938,1.3847 15.85938,1.0605 0,-0.1539 0.47802,-0.1711 1.0625,-0.039 0.58448,0.1322 1.94634,0.3433 3.02539,0.4707 0.75878,0.089 1.59745,0.1519 2.42382,0.1992 0.41637,0.1963 0.82961,0.3999 1.24805,0.5918 2.6701,0.6913 9.25755,4.4013 2.44141,0.5371 l 6.15039,2.4258 -1.10938,-0.8203 c -0.75245,-0.432 -1.49353,-0.8625 -2.23633,-1.293 0.49682,-0.5999 0.46239,-0.5687 1.4668,-1.7168 0.003,0 0.007,-0.01 0.01,-0.01 2.43054,0.085 9.67944,-1.072 15.02539,-2.5 13.49997,-3.606 25.17949,-9.3016 33.92773,-16.5469 9.29503,-7.6982 21.18238,-22.3767 31.82422,-39.2949 7.67788,-12.2062 17.09291,-29.3745 22.47266,-40.9804 4.34218,-9.3676 12.08008,-28.1771 12.08008,-29.3633 0,-0.2375 -2.46099,-1.037 -3.7461,-1.2735 0.15839,-0.3185 0.32292,-0.6341 0.48047,-0.9531 z" /><g
         id="g131"
         inkscape:label="UPPERARM"
         inkscape:transform-center-x="-77.173607"
         inkscape:transform-center-y="26.163757"
         transform="rotate(30,621.37436,1116.7951)"
         style="display:none;stroke-width:1.0904"><path
           style="fill:#000000;fill-opacity:1;stroke:none;stroke-width:1.0904;stroke-linecap:round;stroke-linejoin:round;stroke-dasharray:none;stroke-opacity:1;paint-order:normal"
           id="path125"
           d="m 673.20494,1071.6532 c 10.96459,-12.1835 25.4205,-19.7503 40.22934,-26.1943 17.28631,-6.8492 35.53112,-10.6465 53.73602,-14.1014 12.86399,-2.3538 25.78039,-4.4092 38.68566,-6.5216 8.04793,-1.3119 16.10272,-2.5805 24.15008,-3.8958 0,0 -13.14016,-6.5146 -13.14016,-6.5146 v 0 c -7.91834,1.3699 -15.83386,2.7567 -23.75929,4.0853 -12.82519,2.1423 -25.65623,4.2563 -38.42958,6.6943 -18.14351,3.6612 -36.34061,7.5972 -53.57352,14.5135 -15.30688,6.7297 -29.45513,14.3426 -41.4165,26.2636 z" /><path
           style="fill:#000000;fill-opacity:1;stroke:none;stroke-width:1.0904;stroke-linecap:round;stroke-linejoin:round;stroke-dasharray:none;stroke-opacity:1;paint-order:normal"
           id="path126"
           d="m 685.90819,1084.0387 c 7.59435,0.8879 15.24447,1.0065 22.88048,1.1101 13.11867,0.4661 26.1595,0.054 39.21205,-1.2393 11.65113,-1.536 23.08992,-4.5747 34.31034,-8.0258 10.23262,-3.1472 20.24441,-6.9796 30.16485,-10.9935 7.94796,-3.7709 16.108,-7.1167 23.98811,-11.0196 3.98503,-1.9604 2.05406,-0.9607 5.79787,-2.9895 0,0 -12.26419,-8.0075 -12.26419,-8.0075 v 0 c -3.66588,2.0091 -1.77351,1.008 -5.68154,2.9952 -7.84219,3.8575 -15.8356,7.4168 -23.79844,11.0209 -9.85331,4.0391 -19.7978,7.8965 -30.00811,10.9476 -11.12514,3.4365 -22.47577,6.4105 -34.04506,7.8613 -13.04333,1.2584 -26.08251,1.6618 -39.18554,1.0486 -7.77293,-0.2403 -15.61013,-0.3736 -23.28676,-1.7306 z" /></g><g
         id="g130"
         inkscape:label="FOREARM"
         style="display:none;stroke-width:1.0904"
         inkscape:transform-center-x="-216.46811"
         inkscape:transform-center-y="-13.901986"
         transform="rotate(30,621.37436,1116.7951)"><path
           style="fill:#000000;fill-opacity:1;stroke:none;stroke-width:1.0904;stroke-linecap:round;stroke-linejoin:round;stroke-dasharray:none;stroke-opacity:1;paint-order:normal"
           id="path127"
           d="m 826.34631,1023.8069 c 7.47737,-8.0454 12.28985,-18.1022 16.87907,-27.95753 7.30777,-17.45801 12.38719,-35.76096 14.58774,-54.57921 0.45816,-3.91808 0.63966,-7.86358 0.95949,-11.79538 0.98806,-19.22929 -0.0634,-38.62833 -4.6519,-57.35903 0,0 -11.02906,-8.6867 -11.02906,-8.6867 v 0 c 5.11022,18.66663 6.43905,38.16201 5.49669,57.45826 -0.30925,3.90111 -0.49364,7.81415 -0.92778,11.70334 -2.08262,18.65737 -7.00851,36.83728 -14.66247,53.98011 -4.59021,9.50652 -9.48332,19.35664 -17.26421,26.70694 z" /><path
           style="fill:#000000;fill-opacity:1;stroke:none;stroke-width:1.0904;stroke-linecap:round;stroke-linejoin:round;stroke-dasharray:none;stroke-opacity:1;paint-order:normal"
           id="path128"
           d="m 837.08984,1053.4526 c 8.3005,-3.0869 15.23229,-9.0102 21.86685,-14.7123 9.25831,-9.3876 17.63122,-20.0108 22.6638,-32.311 1.1919,-2.9131 2.05516,-5.9501 3.08274,-8.92517 0.75462,-3.42528 1.69218,-6.81533 2.26386,-10.27585 1.2611,-7.63375 2.11156,-19.04953 2.55253,-26.63671 0.87518,-15.05784 0.6536,-29.94106 0.0949,-45.00106 -0.94479,-17.4055 -2.97957,-34.72921 -5.85283,-51.91496 0,0 -12.63607,-6.15011 -12.63607,-6.15011 v 0 c 3.48894,17.24843 5.92042,34.68629 6.98969,52.26447 1.18966,27.07586 1.20292,54.63047 -5.39673,81.09389 -1.02054,2.91866 -1.87741,5.8998 -3.06161,8.75593 -5.02387,12.11707 -13.40855,22.54257 -22.80057,31.55147 -6.63098,5.5909 -13.62774,11.4218 -22.1004,13.893 z" /></g><g
         id="g134"
         inkscape:label="PAW"
         style="display:none;stroke-width:1.0904"><path
           id="path132"
           style="fill:#484559;fill-opacity:1;stroke:none;stroke-width:1.0904;stroke-linecap:round;stroke-linejoin:round;stroke-dasharray:none;stroke-opacity:1;paint-order:normal"
           d="m 977.28906,923.01172 -2.75586,3.04687 -2.68164,-1.28515 c 0.47196,0.819 0.949,1.64128 1.32227,2.51172 0.0271,0.0631 0.0499,0.12795 0.0762,0.1914 l -3.63086,4.01367 c -4.21866,4.66398 -9.71578,14.71489 -12.21484,22.33399 -5.07778,15.48096 -6.04446,50.38088 -1.72266,62.18948 2.52823,6.9077 3.94954,7.5218 13.69922,5.9121 16.0376,-2.6477 29.58457,-10.943 44.53511,-27.2676 19.5184,-21.31227 26.9524,-33.48383 25.3848,-42.93164 0.2678,-0.0984 0.5361,-0.19477 0.8105,-0.27539 0.3957,-0.29529 0.8809,-0.40441 1.3047,-0.63672 l -2.8555,-1.875 c -0.3696,-0.98687 -0.8413,-1.94952 -1.4179,-2.89453 -1.0295,-1.68728 -2.3321,-2.11008 -4.5469,-1.02148 l -3.5312,-2.31836 c -0.3878,0.17996 -0.718,0.45361 -1.1075,0.625 -0.6152,0.34283 -1.2604,0.62734 -1.9082,0.90234 -0.9499,0.40672 -1.8897,0.83403 -2.8633,1.1836 -1.1522,0.54326 -2.2413,1.2128 -3.3964,1.75195 -0.6877,0.33736 -1.3719,0.69037 -2.084,0.97461 -0.2303,0.0919 -0.4723,0.15388 -0.6992,0.2539 -0.3599,0.15863 -0.6709,0.41719 -1.043,0.55274 -1.1117,0.5288 -2.1801,1.15497 -3.1817,1.87109 -0.8278,0.59789 -1.6825,1.13529 -2.6113,1.56641 -0.2198,0.10202 -0.4528,0.1721 -0.6738,0.27148 -0.1787,0.0803 -0.3489,0.17849 -0.5234,0.26758 -1.5661,0.75148 -3.1899,1.38598 -4.8379,1.9336 -0.4085,0.10697 -0.8132,0.22735 -1.2246,0.32226 -1.8086,0.41728 -3.67555,0.66935 -5.53322,0.61719 l 6.63672,4.57617 c -3.6942,-0.14334 -7.5145,-1.1751 -11.60937,-3.11328 -0.42572,-0.2015 -0.83343,-0.43017 -1.23242,-0.67383 l 1.12304,0.53906 c -0.25503,-0.87421 -0.57491,-1.72865 -0.8164,-2.60742 -0.15632,-0.54039 -0.23262,-0.83975 -0.42774,-1.37305 -0.41795,-1.14235 -0.91654,-2.25843 -1.19336,-3.44921 -0.15119,-0.57769 -0.38319,-1.4187 -0.49219,-2.00977 -0.18095,-0.98131 -0.15543,-1.98506 -0.33789,-2.9668 -0.0792,-1.0505 -0.22218,-2.1068 -0.70898,-3.05664 -0.34665,-0.6862 -0.16059,-0.33255 -0.56641,-1.05859 -0.65071,-1.24735 -1.23259,-2.53779 -1.71875,-3.85742 -0.56111,-1.77002 -1.23669,-3.69105 -0.79687,-5.56446 l -6.64258,-3.18164 z"
           inkscape:label="COLOR" /><path
           id="path140"
           style="display:inline;fill:#423b49;fill-opacity:1;stroke:none;stroke-width:1.0904;stroke-linecap:round;stroke-linejoin:round;stroke-dasharray:none;stroke-opacity:1;paint-order:normal"
           d="m 1011.3125,937.7832 -2.0195,0.68555 c -3.3838,1.15092 -4.6304,2.00661 -9.0039,6.17578 l -3.22269,3.07227 c 0.41374,-1.01543 0.82187,-2.03256 1.24804,-3.04297 0.62093,-1.49873 0.33056,-0.77348 0.87305,-2.17578 l -3.16016,-1.75391 c -0.50322,1.41076 -0.23232,0.67936 -0.82226,2.1875 -1.02424,2.49062 -2.03341,4.98874 -3.17969,7.42578 -1.27413,2.75612 -2.36525,5.60555 -3.91797,8.22656 -0.77639,1.21554 -1.13367,1.83622 -2.01758,2.97657 -1.51253,1.95135 -3.32488,3.62869 -5.15234,5.27734 -3.27839,2.68735 -6.69469,5.17019 -10.40039,7.24805 -5.08931,3.41584 -9.97748,7.13669 -14.20313,11.60547 -2.16785,2.2922 -3.00978,3.10044 -5.01171,5.53906 -2.76475,3.36782 -5.21614,7.00083 -7.45118,10.73633 -1.16312,2.0239 -1.63715,2.7771 -2.66406,4.8242 -0.8632,1.7208 -1.75268,3.5746 -1.79883,5.5371 l 3.32227,1.6934 c -0.0522,-0.7911 0.0521,-1.566 0.24414,-2.3223 0.24389,-0.07 2.94134,-0.7054 6.04297,-1.4219 10.34039,-2.3888 13.68654,-3.5085 20.69336,-6.9199 5.97438,-2.9088 10.0618,-5.80425 16.99414,-12.04099 5.18663,-4.6662 7.45174,-7.16735 13.17773,-14.55274 1.57749,-2.03468 3.61179,-4.58509 4.51949,-5.66601 3.5692,-4.25033 6.6051,-8.62191 8.2305,-11.85157 2.0775,-4.12774 2.7255,-7.0929 2.3067,-10.54882 -0.4564,-3.76584 -2.0309,-8.84446 -3.2188,-10.38477 z"
           transform="translate(20.927091,7.8476591)" /><path
           style="fill:#000000;fill-opacity:1;stroke:none;stroke-width:1.0904;stroke-linecap:round;stroke-linejoin:round;stroke-dasharray:none;stroke-opacity:1;paint-order:normal"
           id="path118"
           d="m 961.8431,1022.0923 c -4.40894,-7.2605 -6.14973,-15.8818 -7.5619,-24.14473 -1.0589,-9.58595 -0.96603,-19.39657 0.79976,-28.90459 0.98658,-5.31226 2.03182,-8.08043 3.65006,-13.20153 2.29997,-6.48987 5.08657,-12.86533 9.56765,-18.16865 0.3105,-0.3674 4.57367,-4.79842 5.04548,-5.28993 3.12094,-2.5389 6.56494,-5.67409 10.62864,-6.64118 0.59335,-0.14147 1.21618,-0.0958 1.82427,-0.14373 0.54277,0.0983 1.1014,0.13188 1.62833,0.29506 0.57248,0.17736 2.22545,0.87964 1.64784,0.71955 -5.24318,-1.4535 -10.36952,-3.33355 -15.66009,-4.60387 -0.63112,-0.15156 1.05357,0.7645 1.52562,1.20996 1.22881,1.15952 1.76716,2.01859 2.75951,3.36833 3.218,5.22741 4.64957,11.31345 6.11097,17.21319 1.14016,3.84424 1.11545,8.15515 3.35736,11.58398 5.26215,4.90206 16.0118,8.64303 23.3837,5.53486 1.4512,-0.61187 2.9297,-1.65689 4.2355,-2.50289 3.4602,-2.99414 6.4945,-6.43097 9.943,-9.44396 3.1463,-2.48498 7.177,-3.34839 10.9744,-4.35279 0.9053,-0.0205 1.8131,-0.1312 2.7159,-0.0616 0.9203,0.0709 1.8181,0.32071 2.7271,0.48108 -4.8881,-1.44233 -9.7372,-3.02383 -14.6643,-4.32702 -0.7583,-0.20055 1.4453,0.61912 2.1251,1.01035 1.6856,0.96975 1.8233,1.32059 3.1464,2.71954 2.9981,4.37718 4.2394,9.53617 4.4348,14.76851 -0.7814,7.00942 -5.1295,12.66425 -9.2994,18.08546 -5.0601,5.71825 -9.2134,12.19874 -14.5366,17.675 -4.0716,3.93521 -8.3157,7.7123 -12.83464,11.1292 -4.32612,3.3355 -9.36618,5.6463 -14.36762,7.787 -3.75176,1.5603 -7.69162,2.5655 -11.62935,3.5239 -4.63849,1.1037 -9.28646,2.1661 -13.92983,3.2492 -2.76377,0.5948 -5.47125,0.7833 -8.25782,0.2923 -0.83232,-0.1467 -3.27954,-0.8106 -2.47401,-0.5549 19.40045,6.1595 19.43688,6.2281 13.06429,3.7878 0,0 -18.09828,-2.814 -18.09828,-2.814 v 0 c 7.9089,3.7411 3.29726,1.6777 21.46077,6.8836 1.29539,0.3712 3.84251,0.4819 5.16731,0.4135 1.96588,-0.1014 3.8181,-0.5137 5.74724,-0.8709 4.75689,-1.0282 9.51999,-2.0355 14.25535,-3.1581 3.94356,-1.0142 7.85151,-2.2129 11.56829,-3.8938 5.0321,-2.3273 10.1185,-4.7474 14.4789,-8.2126 4.4819,-3.5544 8.8377,-7.2706 12.7434,-11.4624 5.1799,-5.65239 9.3795,-12.12185 14.4393,-17.88788 4.5316,-5.73579 8.9442,-11.73791 9.9642,-19.17862 -0.1245,-5.6403 -1.1898,-10.90285 -3.9724,-15.87704 -1.2996,-1.84914 -2.9382,-3.99479 -5.2131,-4.76265 -9.6698,-3.26371 -16.2993,-7.18128 -25.4913,-5.85808 -4.0858,1.08803 -8.3458,2.09786 -11.515,5.08462 -3.2082,3.06134 -6.0699,6.51455 -9.63772,9.16693 -1.59619,0.87729 -2.39676,1.4556 -4.14622,1.91286 -0.6181,0.16154 -1.25818,0.24278 -1.89591,0.28096 -0.54898,0.0328 -2.16617,-0.25443 -1.64843,-0.069 13.15008,4.71073 22.03718,6.47315 15.27458,5.10235 -3.1755,-2.13504 -2.8514,-7.49202 -4.1038,-10.79186 -1.55721,-6.01544 -2.93445,-12.19879 -5.7051,-17.7913 -0.64225,-0.97082 -3.05004,-4.91833 -4.06251,-5.32511 -4.49808,-1.80727 -15.10997,-7.31126 -22.59379,-6.80494 -4.89351,1.36329 -8.92886,4.48111 -12.50164,8.0243 -1.2571,1.40788 -3.74384,4.14743 -4.8419,5.57945 -4.33911,5.65876 -7.07154,12.11986 -9.14943,18.90748 -1.67079,5.40364 -2.62017,7.90062 -3.63114,13.5082 -1.73877,9.6442 -1.84998,19.57767 -1.09156,29.31765 0.2713,2.19445 0.44649,4.40294 0.81394,6.58338 1.03367,6.1338 2.91685,12.1684 5.04753,17.9977 z"
           inkscape:label="STROKE"
           inkscape:transform-center-x="-307.6656"
           inkscape:transform-center-y="-129.73935" /></g><g
         id="g136"
         inkscape:label="LINE"
         style="display:inline;stroke-width:1.0904"
         inkscape:export-filename="arm-line.svg"
         inkscape:export-xdpi="96"
         inkscape:export-ydpi="96"><path
           style="display:inline;fill:#f7f7f7;fill-opacity:1;stroke:none;stroke-width:1.0904;stroke-linecap:round;stroke-linejoin:round;stroke-dasharray:none;stroke-opacity:1;paint-order:normal"
           id="path135"
           d="m 679.51328,1060.2822 c -9.63235,0.7348 -19.26759,1.4402 -28.89326,2.2663 -9.22585,0.8129 -18.54578,2.0991 -27.32348,5.1954 -4.64774,1.6395 -6.04559,2.5655 -10.33997,4.8203 -5.54081,3.7998 -10.20619,8.6355 -13.05914,14.7707 -1.43612,3.0883 -1.64796,4.435 -2.50936,7.6694 -1.04651,5.1157 -1.11918,10.3658 -0.11266,15.4945 0.58126,2.9618 1.16657,4.524 2.07494,7.3782 2.10951,5.5447 4.86851,10.8516 8.67305,15.4323 0.74553,0.8977 1.55986,1.7358 2.33979,2.6037 8.04364,8.3147 18.50867,13.2518 28.47922,18.8411 5.81742,2.7139 11.9181,4.768 18.00236,6.7921 4.91672,1.3805 9.78336,2.9166 14.59309,4.6316 0.86788,0.2734 1.7408,0.5313 2.60365,0.8202 2.87583,0.9628 5.71252,1.943 8.65638,2.6938 2.17674,0.5551 3.92397,0.8934 6.12235,1.351 4.69322,0.9089 9.43788,1.552 14.21287,1.791 2.49733,0.114 4.99783,0.1439 7.49744,0.1645 1.78235,-0.034 3.56518,-0.016 5.34769,-0.01 1.55961,-0.014 3.11932,-9e-4 4.67894,0.01 1.75515,0.1517 2.97834,-0.1303 4.6245,-0.6622 1.2292,-0.4494 2.5017,-0.7685 3.73624,-1.2039 0,0 -12.21318,-8.2997 -12.21318,-8.2997 v 0 c -1.24936,0.3702 -2.48476,0.7806 -3.73124,1.1597 -1.44723,0.3867 -2.9071,0.3286 -4.39619,0.3023 -1.55357,0.01 -3.10717,0.02 -4.66075,0.011 -1.7703,0.018 -3.54067,0.05 -5.31112,0.037 -2.38167,0.046 -4.76428,0.083 -7.14559,-0.01 -4.56621,-0.2332 -9.12614,-0.6607 -13.60521,-1.6186 -5.94099,-1.3063 -11.74831,-3.021 -17.45244,-5.1427 -4.82284,-1.677 -9.69956,-3.18 -14.60283,-4.6045 -5.96317,-1.9548 -11.95461,-3.8919 -17.57555,-6.7228 2.84891,1.7037 5.7148,3.3792 8.54673,5.1109 0.97722,0.5975 -2.00892,-1.1034 -2.98185,-1.708 -3.90225,-2.4248 -7.54886,-5.2826 -10.85694,-8.466 -1.91516,-2.0517 -2.74579,-2.8357 -4.43849,-5.0653 -2.90015,-3.82 -5.13489,-8.0594 -6.92302,-12.5011 -0.97285,-2.8102 -1.57189,-4.2714 -2.20602,-7.194 -1.07513,-4.9552 -1.11313,-10.0471 -0.14309,-15.0215 0.7209,-3.1152 0.90433,-4.5058 2.17151,-7.4957 2.54112,-5.9958 6.81072,-10.7996 12.2401,-14.3557 4.07274,-2.1919 5.55033,-3.1628 9.94354,-4.7988 8.54984,-3.184 17.63591,-4.5589 26.68539,-5.311 10.41785,-0.713 20.89172,-1.3316 31.31872,-0.3915 z" /><path
           style="fill:#f7f7f7;fill-opacity:1;stroke:none;stroke-width:1.0904;stroke-linecap:round;stroke-linejoin:round;stroke-dasharray:none;stroke-opacity:1;paint-order:normal"
           d="m 662.91548,1155.5192 c -2.27454,-0.2952 -6.46643,-1.1261 -9.31531,-1.8465 -7.60106,-1.9222 -38.45946,-12.1065 -42.55951,-14.0462 -3.67548,-1.7387 -11.56116,-9.0994 -14.66992,-13.6932 -2.54726,-3.7641 -5.9965,-11.4119 -7.12168,-15.7904 -1.27406,-4.958 -1.28661,-14.0255 -0.0261,-18.8649 2.94667,-11.313 11.13419,-19.487 24.2162,-24.1763 9.45248,-3.3883 19.52609,-4.8922 40.28744,-6.0148 l 6.94869,-0.3757 0.7052,2.8006 c 0.9596,3.8109 3.561,6.1215 12.69645,11.2771 4.22394,2.3838 8.00482,4.9414 8.40198,5.6834 1.02918,1.9231 1.04141,6.92 0.0382,15.6033 -0.75875,6.5673 -0.73991,8.2966 0.14612,13.4064 1.69556,9.7785 3.44417,14.3333 8.77988,22.8698 2.34816,3.7568 3.38927,8.9988 3.39678,17.1028 l 0.005,5.3313 -2.0595,0.7179 c -2.37779,0.8289 -23.51733,0.8398 -29.86984,0.015 z"
           id="path136"
           transform="translate(20.927091,7.8476591)" /><path
           style="display:inline;fill:#dedede;fill-opacity:1;stroke:none;stroke-width:1.0904;stroke-linecap:round;stroke-linejoin:round;stroke-dasharray:none;stroke-opacity:1;paint-order:normal"
           id="path141"
           d="m 675.91677,1029.2578 c -0.35662,2.7966 -0.92734,5.5566 -1.30322,8.353 -0.0372,0.4739 -0.10602,0.9461 -0.11165,1.4215 -0.008,0.7179 0.0462,1.4349 0.0694,2.1524 -10e-4,0.7563 0.007,1.5128 -0.004,2.2691 -0.0267,1.8848 -0.13147,3.7676 -0.18763,5.6513 -0.0366,2.7229 -0.0578,5.4438 -0.16581,8.1646 -0.11011,2.1616 0.89515,4.0931 1.53786,6.0759 0.53071,2.3121 1.41484,4.4333 2.61844,6.4108 1.03861,1.5857 2.23338,3.0483 3.5301,4.3848 0.4796,0.4704 0.53975,0.557 1.07257,0.967 4.35775,3.3526 12.10712,7.7173 14.42608,9.2029 3.92362,2.5137 -7.87555,-4.9737 -11.81333,-7.4606 1.90772,1.5097 3.94517,2.7913 5.83372,4.3322 2.1136,1.6719 3.81482,3.8272 5.1682,6.2522 0.86773,1.8735 1.22061,3.9451 1.50828,6.0021 0.38362,2.3609 0.69514,4.7345 0.90041,7.122 0.17721,2.7973 0.29865,5.5996 0.35218,8.4028 0.0555,2.7693 -0.091,5.5347 -0.12738,8.3028 -0.036,2.1152 -0.0151,4.2293 -0.0328,6.3449 1.6e-4,2.1868 0.13279,4.3697 0.48895,6.5212 0.50938,2.2775 1.30092,4.4726 2.23274,6.5797 0.79798,1.8298 1.82384,3.5169 2.63048,5.3422 0.83981,1.9402 1.35117,3.9934 1.73384,6.0896 0.35773,2.3496 0.64107,4.7128 0.90444,7.0771 0.27939,2.9677 0.97194,5.8605 1.48916,8.7832 0.41577,2.7102 0.774,5.4302 1.21493,8.1358 0.41239,2.064 0.96588,4.0923 1.48453,6.1271 0.24163,0.9989 0.11594,0.4954 0.37752,1.5101 0,0 13.26765,6.8803 13.26765,6.8803 v 0 c -0.29318,-1.0091 -0.14942,-0.494 -0.43016,-1.5453 -0.60449,-2.0083 -1.22247,-4.0213 -1.64418,-6.0858 -0.68957,-2.6859 -1.03884,-5.464 -1.4733,-8.2089 -0.48916,-2.8448 -1.14004,-5.679 -1.31007,-8.5725 -0.27346,-2.3766 -0.57878,-4.7478 -0.88503,-7.1192 -0.22494,-2.2114 -0.72269,-4.3836 -1.51951,-6.4348 -0.68864,-1.9047 -1.61583,-3.646 -2.59474,-5.3844 -0.88452,-2.0421 -1.95029,-4.0112 -2.44795,-6.228 -0.3579,-2.0497 -0.5892,-4.1401 -0.55472,-6.2297 -0.0168,-2.1261 0.005,-4.2507 -0.0262,-6.3764 -0.0314,-2.8208 -0.16868,-5.6387 -0.13368,-8.4604 0.0245,-2.803 0.14396,-5.6125 -0.0959,-8.4093 -0.18968,-2.4003 -0.44474,-4.7967 -0.73202,-7.1812 -0.40189,-2.1936 -0.54262,-4.4657 -1.42948,-6.5221 -0.67291,-1.5378 -1.13354,-2.1846 -2.0982,-3.5092 -0.89914,-1.2346 -1.77135,-2.4893 -2.96792,-3.4098 -1.01029,-0.8847 -1.99271,-1.7911 -3.08996,-2.546 -0.55993,-0.3853 -1.17202,-0.68 -1.71064,-1.1001 -0.24242,-0.1891 -0.449,-0.4281 -0.67349,-0.6422 -16.25758,-10.4433 -18.35957,-11.7545 -1.32325,-0.9548 0.20582,0.1305 -0.4146,-0.2554 -0.61931,-0.3878 -0.19759,-0.128 -0.39165,-0.2624 -0.58747,-0.3935 -0.20025,-0.1195 -0.40432,-0.2315 -0.60075,-0.3583 -0.2018,-0.1303 -0.39551,-0.2751 -0.59327,-0.4126 -1.38749,-1.2366 -2.66261,-2.5957 -3.79524,-4.1187 -1.30508,-1.8025 -2.41029,-3.7164 -2.84549,-6.0049 -0.22664,-0.7506 -0.42013,-1.5131 -0.65471,-2.2608 -0.25536,-0.8139 -0.68895,-1.6099 -0.88583,-2.4434 -0.0658,-0.2787 -0.0769,-0.5696 -0.11527,-0.8544 -0.11532,-2.7801 -0.15331,-5.5604 -0.17604,-8.3431 -0.0533,-2.6507 -0.1892,-5.315 0.009,-7.9627 0.048,-0.64 0.15386,-1.2732 0.21634,-1.9116 0.0443,-0.4527 0.0693,-0.9073 0.10393,-1.3609 0.23924,-2.7184 0.53805,-5.4959 1.63161,-7.986 z" /><path
           style="display:inline;fill:#000000;fill-opacity:1;stroke:none;stroke-width:1.0904;stroke-linecap:round;stroke-linejoin:round;stroke-dasharray:none;stroke-opacity:1;paint-order:normal"
           id="path122"
           d="m 687.02836,1043.0804 c -2.37171,4.2952 -3.32609,9.0571 -4.0565,13.8523 -0.45765,4.9122 -1.33584,9.9247 -0.32808,14.8076 1.02489,3.0591 3.23836,5.2807 6.00038,6.8586 4.76083,2.7197 9.55652,5.378 14.33477,8.067 0.58566,0.2055 1.1822,0.3824 1.75698,0.6167 2.02211,0.8242 4.51564,2.3519 3.54233,1.7915 -5.82246,-3.3526 -27.45903,-15.6551 3.53486,2.0314 3.65203,2.084 -7.29795,-4.1787 -10.94692,-6.268 3.51265,2.2878 3.94308,6.2635 3.97737,10.1096 -0.57893,3.9107 -1.12441,7.8143 -1.46479,11.7557 -0.72993,6.4311 0.73256,12.7013 2.38757,18.8699 0.92531,3.112 1.93394,6.2135 3.56101,9.042 1.17041,2.0346 2.69985,3.8447 3.94576,5.8349 2.30643,4.2876 2.58516,9.1394 2.82148,13.8987 0.57258,6.3684 -0.3502,12.8422 0.67332,19.1733 0.22099,1.367 0.60316,2.7029 0.90475,4.0544 1.9745,5.1945 0.8708,2.7225 3.27114,7.4336 0,0 13.03692,5.8508 13.03692,5.8508 v 0 c -2.56765,-4.5171 -1.39878,-2.1488 -3.47531,-7.1204 -0.90365,-3.5416 -1.27172,-4.28 -1.48501,-7.9659 -0.2861,-4.9441 0.29113,-9.9336 0.0546,-14.8823 -0.18083,-4.9189 -0.29294,-9.9546 -2.44617,-14.4891 -0.364,-0.6968 -0.661,-1.4329 -1.092,-2.0904 -0.88038,-1.3429 -2.10588,-2.4358 -2.99675,-3.7718 -1.79693,-2.6948 -2.86805,-5.7454 -3.84803,-8.8079 -1.64404,-5.9814 -3.12911,-12.0208 -2.31249,-18.2717 0.30549,-3.9795 0.90495,-7.9041 1.58003,-11.835 0.0144,-4.0596 -0.16473,-8.5731 -3.3721,-11.4917 -43.95791,-25.4734 0.90336,0.5077 -3.45049,-1.9636 -6.56457,-3.7262 -12.64403,-7.9694 -19.65191,-10.6749 3.62493,2.1305 7.26079,4.2424 10.87478,6.3914 0.54887,0.3263 -1.13069,-0.5952 -1.67857,-0.9232 -2.02948,-1.215 -3.71393,-2.752 -4.78524,-4.8932 -1.50008,-4.6183 -0.41656,-9.6194 -0.10544,-14.3647 0.67863,-4.6136 1.51239,-9.3163 4.24447,-13.2198 z"
           inkscape:label="LINE" /></g></g></g></svg>
