<?xml version="1.0" encoding="UTF-8" standalone="no"?>
<!-- Uploaded to: SVG Repo, www.svgrepo.com, Generator: SVG Repo Mixer Tools -->

<svg
   fill="#000000"
   width="652.75"
   height="659.36078"
   viewBox="0 0 17.950625 18.132421"
   id="memory-arrow-up-circle"
   version="1.1"
   sodipodi:docname="arrow-up-circle.svg"
   inkscape:version="1.3.2 (091e20e, 2023-11-25, custom)"
   xmlns:inkscape="http://www.inkscape.org/namespaces/inkscape"
   xmlns:sodipodi="http://sodipodi.sourceforge.net/DTD/sodipodi-0.dtd"
   xmlns="http://www.w3.org/2000/svg"
   xmlns:svg="http://www.w3.org/2000/svg">
  <defs
     id="defs1" />
  <sodipodi:namedview
     id="namedview1"
     pagecolor="#ffffff"
     bordercolor="#000000"
     borderopacity="0.25"
     inkscape:showpageshadow="2"
     inkscape:pageopacity="0.0"
     inkscape:pagecheckerboard="0"
     inkscape:deskcolor="#d1d1d1"
     inkscape:zoom="0.5475"
     inkscape:cx="400"
     inkscape:cy="399.08676"
     inkscape:window-width="1304"
     inkscape:window-height="745"
     inkscape:window-x="54"
     inkscape:window-y="-8"
     inkscape:window-maximized="1"
     inkscape:current-layer="memory-arrow-up-circle" />
  <rect
     style="display:none;fill:#000000;stroke-width:0.1595;stroke-linecap:round;stroke-linejoin:bevel;paint-order:stroke fill markers"
     id="rect1"
     width="23.356165"
     height="23.607307"
     x="-2.4863014"
     y="-2.410959"
     ry="0.68670529" />
  <path
     style="fill:#ffffff;stroke-width:0.1595;stroke-linecap:round;stroke-linejoin:bevel;paint-order:stroke fill markers"
     d="M 7.9863012,11.125571 V 8.1369862 H 7.458904 6.9315068 V 8.6392693 9.1415524 H 6.4292237 5.9269406 V 9.6187214 10.09589 H 4.9474885 3.9680364 V 9.1415524 8.1872144 H 4.4703195 4.9726026 V 7.6849313 7.1826482 H 5.4748857 5.9771688 V 6.6803651 6.178082 H 6.4794519 6.981735 V 5.6757989 5.1735158 H 7.4840181 7.9863012 V 4.6712327 4.1689496 h 0.9794521 0.9794521 v 0.5022831 0.5022831 h 0.5022836 0.502283 V 5.6757989 6.178082 h 0.502283 0.502283 v 0.5022831 0.5022831 h 0.502283 0.502283 v 0.5022831 0.5022831 h 0.502283 0.502283 V 9.1415524 10.09589 H 12.984018 12.004566 V 9.6187214 9.1415524 H 11.502283 11 V 8.6392693 8.1369862 H 10.472603 9.9452054 v 2.9885848 2.988584 H 8.9657533 7.9863012 Z"
     id="path3"
     inkscape:export-filename="arrow-up-circle.svg"
     inkscape:export-xdpi="22.060513"
     inkscape:export-ydpi="22.060513" />
  <path
     style="display:inline;mix-blend-mode:exclusion;fill:#ffffff;fill-opacity:1;stroke-width:0.1595;stroke-linecap:round;stroke-linejoin:bevel;paint-order:stroke fill markers"
     d="M 5.3806658,17.676832 V 17.221244 H 4.4989601 3.6172541 V 16.765655 16.310067 H 3.1650974 2.7129404 V 15.854478 15.398889 H 2.2607838 1.8086269 V 14.943301 14.487712 H 1.3564703 0.90431342 V 13.576535 12.665359 H 0.45215662 -1.8312073e-7 V 9.0662094 5.4670614 H 0.45215662 0.90431342 V 4.5558847 3.6447077 H 1.3564703 1.8086269 V 3.189119 2.7335306 H 2.2607838 2.7129404 V 2.2779422 1.8223538 h 0.452157 0.4521567 V 1.3667653 0.91117675 h 0.881706 0.8817057 V 0.45558835 -5.1727295e-8 H 8.9753113 12.569958 V 0.45558835 0.91117675 h 0.881706 0.881704 V 1.3667653 1.8223538 h 0.452158 0.452158 v 0.4555884 0.4555884 h 0.452156 0.452157 V 3.189119 3.6447077 h 0.452157 0.452158 v 0.911177 0.9111767 h 0.452156 0.452157 v 3.599148 3.5991496 h -0.452157 -0.452156 v 0.911176 0.911177 h -0.452158 -0.452157 v 0.455589 0.455588 H 15.68984 15.237684 v 0.455589 0.455589 h -0.452158 -0.452158 v 0.455588 0.455589 h -0.881704 -0.881706 v 0.455588 0.455589 H 8.9753113 5.3806658 Z m 6.3301932,-1.776796 v -0.455587 h 0.904314 0.904314 V 14.98886 14.533271 h 0.429549 0.429549 v -0.455588 -0.455588 h 0.452158 0.452156 v -0.911179 -0.911175 h 0.452157 0.452157 V 9.0662094 6.3326801 H 15.735056 15.282899 V 5.4215032 4.510326 H 14.830743 14.378585 V 4.0547373 3.5991489 H 13.949036 13.519487 V 3.1435604 2.687972 H 12.615173 11.710859 V 2.2323835 1.7767949 H 8.9753113 6.2397638 V 2.2323835 2.687972 H 5.3354502 4.4311367 V 3.1435604 3.5991489 H 4.0015875 3.5720386 V 4.0547373 4.510326 H 3.1198818 2.6677249 V 5.4215032 6.3326801 H 2.215568 1.7634114 V 9.0662094 11.799741 H 2.215568 2.6677249 v 0.911175 0.911179 h 0.4521569 0.4521568 v 0.455588 0.455588 h 0.4295489 0.4295492 v 0.455589 0.455589 h 0.9043135 0.9043136 v 0.455587 0.45559 h 2.7355475 2.7355477 z"
     id="path2" />
  <path
     style="display:inline;mix-blend-mode:difference;fill:#ffffff;fill-opacity:0.109804;stroke-width:0.1595;stroke-linecap:round;stroke-linejoin:bevel;paint-order:stroke fill markers"
     d="M 5.5530709,17.258841 V 16.825369 H 4.7136532 3.8742354 V 16.391895 15.958422 H 3.4437647 3.0132941 V 15.524951 15.091479 H 2.5828235 2.1523528 V 14.658006 14.224533 H 1.7218824 1.2914116 V 13.357586 12.490643 H 0.86094102 0.43047032 V 9.0662094 5.6417772 H 0.86094102 1.2914116 V 4.7748324 3.9078875 H 1.7218824 2.1523528 V 3.474415 3.0409422 H 2.5828235 3.0132941 V 2.6074697 2.1739972 H 3.4437647 3.8742354 V 1.7405248 1.3070522 H 4.7136532 5.5530709 V 0.87357965 0.44010715 h 3.4222404 3.4222427 v 0.4334725 0.43347255 h 0.839417 0.839417 v 0.4334726 0.4334724 h 0.430471 0.43047 v 0.4334725 0.4334725 h 0.430473 0.430468 V 3.474415 3.9078875 h 0.430472 0.430471 v 0.8669449 0.8669448 h 0.43047 0.43047 v 3.4244322 3.4244336 h -0.43047 -0.43047 v 0.866943 0.866947 H 16.228742 15.79827 v 0.433473 0.433473 h -0.430468 -0.430473 v 0.433472 0.433471 h -0.43047 -0.430471 v 0.433473 0.433474 h -0.839417 -0.839417 v 0.433472 0.433471 H 8.9753113 5.5530709 Z m 6.0265871,-1.690543 v -0.433472 h 0.860941 0.860941 v -0.433472 -0.433475 h 0.408949 0.408947 v -0.433472 -0.433473 h 0.43047 0.43047 V 12.53399 11.667044 h 0.430471 0.430471 V 9.0662094 6.4653754 H 15.410847 14.980376 V 5.5984299 4.7314854 h -0.43047 -0.43047 V 4.2980128 3.8645403 H 13.710489 13.30154 V 3.4310677 2.9975951 H 12.440599 11.579658 V 2.5641226 2.1306501 H 8.9753113 6.370965 V 2.5641226 2.9975951 H 5.5100238 4.6490827 V 3.4310677 3.8645403 H 4.2401355 3.8311884 V 4.2980128 4.7314854 H 3.4007178 2.970247 V 5.5984299 6.4653754 H 2.5397764 2.1093058 v 2.600834 2.6008346 H 2.5397764 2.970247 v 0.866946 0.866944 h 0.4304708 0.4304706 v 0.433473 0.433472 h 0.4089471 0.4089472 v 0.433475 0.433472 H 5.5100238 6.370965 v 0.433472 0.433472 h 2.6043463 2.6043467 z"
     id="path1" />
</svg>
