<?xml version="1.0" encoding="UTF-8" standalone="no"?>
<!-- Uploaded to: SVG Repo, www.svgrepo.com, Generator: SVG Repo Mixer Tools -->

<svg
   fill="#000000"
   width="652.75"
   height="659.36078"
   viewBox="0 0 17.950625 18.132421"
   id="memory-arrow-up-circle"
   version="1.1"
   sodipodi:docname="arrow-up-circle.svg"
   inkscape:version="1.3.2 (091e20e, 2023-11-25, custom)"
   xmlns:inkscape="http://www.inkscape.org/namespaces/inkscape"
   xmlns:sodipodi="http://sodipodi.sourceforge.net/DTD/sodipodi-0.dtd"
   xmlns="http://www.w3.org/2000/svg"
   xmlns:svg="http://www.w3.org/2000/svg">
  <defs
     id="defs1" />
  <sodipodi:namedview
     id="namedview1"
     pagecolor="#ffffff"
     bordercolor="#000000"
     borderopacity="0.25"
     inkscape:showpageshadow="2"
     inkscape:pageopacity="0.0"
     inkscape:pagecheckerboard="0"
     inkscape:deskcolor="#d1d1d1"
     inkscape:zoom="0.5475"
     inkscape:cx="400"
     inkscape:cy="399.08676"
     inkscape:window-width="1304"
     inkscape:window-height="745"
     inkscape:window-x="54"
     inkscape:window-y="-8"
     inkscape:window-maximized="1"
     inkscape:current-layer="memory-arrow-up-circle" />
  <rect
     style="display:none;fill:#000000;stroke-width:0.1595;stroke-linecap:round;stroke-linejoin:bevel;paint-order:stroke fill markers"
     id="rect1"
     width="23.356165"
     height="23.607307"
     x="-2.4863014"
     y="-2.410959"
     ry="0.68670529" />
  <path
     style="fill:#ffffff;stroke-width:0.1595;stroke-linecap:round;stroke-linejoin:bevel;paint-order:stroke fill markers"
     d="m 9.9643243,7.0068506 v 2.9885848 h 0.5273967 0.527397 v -0.502283 -0.502284 h 0.502283 0.502283 V 8.5136994 8.0365309 h 0.979452 0.979452 v 0.9543375 0.954338 h -0.502283 -0.502283 v 0.5022836 0.502283 h -0.502283 -0.502283 v 0.502283 0.502283 H 11.471173 10.96889 v 0.502283 0.502283 H 10.466607 9.9643243 v 0.502283 0.502283 H 8.9848713 8.0054193 V 13.461188 12.958905 H 7.5031368 7.0008538 V 12.456622 11.954339 H 6.4985708 5.9962878 V 11.452056 10.949773 H 5.4940038 4.9917208 V 10.44749 9.9452064 H 4.4894378 3.9871548 V 8.9908684 8.0365309 h 0.979452 0.979452 v 0.4771685 0.477169 h 0.502283 0.502284 v 0.502284 0.502283 h 0.527397 0.5273965 V 7.0068506 4.0182661 h 0.979452 0.979453 z"
     id="path3"
     inkscape:export-filename="arrow-down-circle.svg"
     inkscape:export-xdpi="7.3535042"
     inkscape:export-ydpi="7.3535042" />
  <path
     style="display:inline;mix-blend-mode:exclusion;fill:#ffffff;fill-opacity:1;stroke-width:0.1595;stroke-linecap:round;stroke-linejoin:bevel;paint-order:stroke fill markers"
     d="m 12.569959,0.45558895 v 0.455588 h 0.881706 0.881706 v 0.45558895 0.455588 h 0.452156 0.452157 v 0.455589 0.455589 h 0.452157 0.452157 v 0.455588 0.455589 h 0.452156 0.452157 v 0.911177 0.911176 h 0.452157 0.452157 v 3.5991495 3.5991476 h -0.452157 -0.452157 v 0.911177 0.911177 h -0.452157 -0.452156 v 0.455589 0.455588 h -0.452157 -0.452157 v 0.455589 0.455588 h -0.452157 -0.452156 v 0.455589 0.455588 h -0.881706 -0.881706 v 0.455589 0.455588 H 8.9753133 5.3806668 V 17.676833 17.221244 H 4.4989608 3.6172568 V 16.765656 16.310067 H 3.1650988 2.7129408 V 15.854479 15.39889 H 2.2607848 1.8086278 V 14.943302 14.487713 H 1.3564708 0.90431282 V 13.576536 12.665359 H 0.45215682 -1.8312073e-7 V 9.0662114 5.4670619 H 0.45215682 h 0.452156 v -0.911176 -0.911177 h 0.45215798 0.452157 v -0.455589 -0.455588 h 0.452157 0.452156 v -0.455589 -0.455589 h 0.452158 0.452158 V 1.3667659 0.91117695 h 0.881704 0.881706 V 0.45558895 -5.1727295e-8 H 8.9753133 12.569959 Z M 6.2397658,2.2323849 v 0.455587 h -0.904314 -0.904314 v 0.455589 0.455589 h -0.429549 -0.429549 v 0.455588 0.455588 h -0.452158 -0.452156 v 0.911179 0.911175 h -0.452157 -0.452157 v 2.7335315 2.7335296 h 0.452157 0.452157 v 0.911177 0.911177 h 0.452156 0.452158 v 0.455589 0.455588 h 0.429549 0.429549 v 0.455588 0.455589 h 0.904314 0.904314 v 0.455588 0.455589 h 2.7355475 2.7355477 v -0.455589 -0.455588 h 0.904314 0.904313 V 14.98886 14.533272 h 0.429549 0.429549 v -0.455588 -0.455589 h 0.452157 0.452157 v -0.911177 -0.911177 h 0.452157 0.452156 V 9.0662114 6.3326799 H 15.735057 15.2829 v -0.911175 -0.911179 h -0.452157 -0.452157 v -0.455588 -0.455588 h -0.429549 -0.429549 v -0.455589 -0.455589 h -0.904313 -0.904314 v -0.455587 -0.45559 H 8.9753133 6.2397658 Z"
     id="path2" />
  <path
     style="display:inline;mix-blend-mode:difference;fill:#ffffff;fill-opacity:0.109804;stroke-width:0.1595;stroke-linecap:round;stroke-linejoin:bevel;paint-order:stroke fill markers"
     d="M 12.397554,0.87357995 V 1.3070519 h 0.839418 0.839417 v 0.433474 0.433473 h 0.430471 0.430471 v 0.433471 0.433472 h 0.43047 0.430471 v 0.433473 0.433473 h 0.43047 0.430471 v 0.866947 0.866943 h 0.430471 0.43047 v 3.4244335 3.4244326 h -0.43047 -0.430471 v 0.866944 0.866945 h -0.430471 -0.43047 v 0.433473 0.433473 h -0.430471 -0.43047 v 0.433472 0.433473 H 14.50686 14.076389 v 0.433472 0.433473 h -0.839417 -0.839418 v 0.433472 0.433473 H 8.9753133 5.5530708 v -0.433473 -0.433472 h -0.839417 -0.839417 v -0.433473 -0.433472 h -0.430471 -0.43047 v -0.433473 -0.433472 h -0.430473 -0.430468 v -0.433473 -0.433473 h -0.430472 -0.430471 v -0.866945 -0.866944 h -0.43046998 -0.43047 V 9.0662114 5.6417779 h 0.43047 0.43046998 v -0.866943 -0.866947 h 0.430471 0.430472 v -0.433473 -0.433473 h 0.430468 0.430473 v -0.433472 -0.433471 h 0.43047 0.430471 v -0.433473 -0.433474 h 0.839417 0.839417 V 0.87357995 0.44010895 H 8.9753133 12.397554 Z M 6.3709668,2.5641229 v 0.433472 h -0.860941 -0.860941 v 0.433472 0.433475 h -0.408949 -0.408947 v 0.433472 0.433473 h -0.43047 -0.43047 v 0.866944 0.866946 h -0.430471 -0.430471 v 2.6008345 2.6008336 h 0.430471 0.430471 v 0.866946 0.866944 h 0.43047 0.43047 v 0.433473 0.433473 h 0.408947 0.408949 v 0.433472 0.433473 h 0.860941 0.860941 v 0.433472 0.433473 H 8.9753133 11.57966 v -0.433473 -0.433472 h 0.860941 0.860941 v -0.433473 -0.433472 h 0.408947 0.408947 v -0.433473 -0.433473 h 0.430471 0.430471 v -0.866944 -0.866946 h 0.43047 0.430471 V 9.0662114 6.4653769 h -0.430471 -0.43047 V 5.5984309 4.7314869 H 14.549907 14.119436 V 4.2980139 3.8645419 H 13.710489 13.301542 V 3.4310669 2.9975949 H 12.440601 11.57966 V 2.5641229 2.1306509 H 8.9753133 6.3709668 Z"
     id="path1" />
</svg>
