<?xml version="1.0" encoding="UTF-8" standalone="no"?>
<!-- Uploaded to: SVG Repo, www.svgrepo.com, Generator: SVG Repo Mixer Tools -->

<svg
   width="543.61072"
   height="410.15781"
   viewBox="0 0 271.80536 205.0789"
   fill="none"
   version="1.1"
   id="svg1"
   sodipodi:docname="bird_placeholder.svg"
   xmlns:inkscape="http://www.inkscape.org/namespaces/inkscape"
   xmlns:sodipodi="http://sodipodi.sourceforge.net/DTD/sodipodi-0.dtd"
   xmlns="http://www.w3.org/2000/svg"
   xmlns:svg="http://www.w3.org/2000/svg">
  <defs
     id="defs1" />
  <sodipodi:namedview
     id="namedview1"
     pagecolor="#ffffff"
     bordercolor="#000000"
     borderopacity="0.25"
     inkscape:showpageshadow="2"
     inkscape:pageopacity="0.0"
     inkscape:pagecheckerboard="0"
     inkscape:deskcolor="#d1d1d1"
     inkscape:zoom="0.92277435"
     inkscape:cx="404.21583"
     inkscape:cy="474.11374"
     inkscape:window-width="1304"
     inkscape:window-height="745"
     inkscape:window-x="1358"
     inkscape:window-y="-8"
     inkscape:window-maximized="1"
     inkscape:current-layer="svg1" />
  <path
     d="m 110.35107,175.59568 c 49.056,23.687 114.337,8.899 136.669,-38.754 15.805,-33.725 -33.706,-60.592005 -58.979,-54.473005 -19.074,4.618 -30.426,29.827005 -42.73,20.468005 -9.462,-35.460005 -26.239,-81.555005 -90.947004,-93.6950049 -21.101,-3.958 -51.6609003,3.2699999 -32.856,28.4449999 14.16,18.951 35.024,28.168 56.106,37.95 6.35,2.949 11.338,10.077 18.139,11.955 1.618,0.446 5.136004,-0.713 4.944004,0.951 -0.42,3.567 -67.626004,-30.694 -73.400004,-7.173 -4.17,16.986 44.301,26.710005 54.568,28.679005 0.645,0.123 5.003,0.406 4.938,0.949 -0.34,2.918 -38.635,-3.76 -45.083,10 -8.623,18.393 23.621,19.973 33.549,18.927 8.297,-0.877 16.712,-1.106 24.792004,-2.615 0.267,-0.049 13.264,-1.441 -11.659004,3.331 -22.07,4.226 -78.7521003,14.987 -80.2659003,23.718 -1.5138,8.731 6.0821003,11.195 10.3109003,19.069 4.229,7.873 7.245,9.445 11.664,13.495 4.418,4.049 31.814,-35.911 61.112,-26.136 m 151.367004,-68.941 c 24.708,9.753 29.171,-0.57 6.559,13.336 m -37.98,-3.303 c -0.216,-0.596 -0.434,-1.194 -0.652,-1.792"
     stroke="#000000"
     stroke-opacity="0.9"
     stroke-width="16"
     stroke-linecap="round"
     stroke-linejoin="round"
     id="path1"
     style="fill:#c2a353;fill-opacity:1" />
</svg>
