<?xml version="1.0" encoding="UTF-8" standalone="no"?>
<!-- Uploaded to: SVG Repo, www.svgrepo.com, Generator: SVG Repo Mixer Tools -->

<svg
   width="800px"
   height="800px"
   viewBox="0 0 400 400"
   fill="none"
   version="1.1"
   id="svg11"
   sodipodi:docname="dead.svg"
   inkscape:version="1.3.2 (091e20e, 2023-11-25, custom)"
   xmlns:inkscape="http://www.inkscape.org/namespaces/inkscape"
   xmlns:sodipodi="http://sodipodi.sourceforge.net/DTD/sodipodi-0.dtd"
   xmlns="http://www.w3.org/2000/svg"
   xmlns:svg="http://www.w3.org/2000/svg">
  <defs
     id="defs11" />
  <sodipodi:namedview
     id="namedview11"
     pagecolor="#ffffff"
     bordercolor="#000000"
     borderopacity="0.25"
     inkscape:showpageshadow="2"
     inkscape:pageopacity="0.0"
     inkscape:pagecheckerboard="0"
     inkscape:deskcolor="#d1d1d1"
     inkscape:zoom="0.46138718"
     inkscape:cx="338.11083"
     inkscape:cy="330.52501"
     inkscape:window-width="1366"
     inkscape:window-height="715"
     inkscape:window-x="1358"
     inkscape:window-y="-8"
     inkscape:window-maximized="1"
     inkscape:current-layer="svg11" />
  <path
     d="M188.382 161.748C195.683 145.172 214.004 119.593 235.844 126.146C246.764 129.422 250.412 142.084 260.07 146.914C266.363 150.061 272.565 153.656 278.857 156.803C279.323 157.036 280.34 156.776 280.34 157.297C280.34 157.468 269.252 157.086 267.981 157.297C259.309 158.743 252.089 164.856 248.205 172.626C239.571 189.897 247.318 211.776 242.766 229.984C234.079 264.738 209.104 283.173 174.045 285.365C168.453 285.714 160.734 287.19 155.258 285.365"
     stroke="#000000"
     stroke-opacity="0.9"
     stroke-width="16"
     stroke-linecap="round"
     stroke-linejoin="round"
     id="path1" />
  <path
     d="M182.921 167.098C152.765 141.295 120.563 115.972 84.3387 99.0768C74.0432 94.2748 55.9107 85.6365 46.6897 97.1053C26.3203 122.44 65.6613 164.682 85.8251 177.449C95.8069 183.769 106.942 188.946 118.521 191.25C125.525 192.644 131.717 194.386 131.4 194.701C129.276 196.814 115.062 193.55 112.081 193.715C102.988 194.217 94.5102 197.347 86.3201 201.108C84.4681 201.958 76.9579 205.659 78.3944 208.994C83.9378 221.865 103.89 220.801 115.053 221.81C119.995 222.258 125.55 221.99 130.41 222.796C130.925 222.882 132.129 222.824 131.896 223.289C131.714 223.65 104.154 233.387 104.154 244.977C104.154 255.285 144.802 267.067 148.042 257.394"
     stroke="#000000"
     stroke-opacity="0.9"
     stroke-width="16"
     stroke-linecap="round"
     stroke-linejoin="round"
     id="path2" />
  <path
     d="M148.041 257.394C141.666 262.688 135.027 267.852 127.905 272.124C124.481 274.178 90.0673 289.505 91.5609 293.238C91.8169 293.878 110.935 307.249 113.662 308.46C115.241 309.162 123.794 316.652 124.466 316.316C127.888 314.606 137.195 294.248 146.076 288.328"
     stroke="#000000"
     stroke-opacity="0.9"
     stroke-width="16"
     stroke-linecap="round"
     stroke-linejoin="round"
     id="path3" />
  <path
     d="M234.035 149.15C234.035 148.348 234.035 147.546 234.035 146.744"
     stroke="#000000"
     stroke-opacity="0.9"
     stroke-width="16"
     stroke-linecap="round"
     stroke-linejoin="round"
     id="path11" />
  <path
     style="fill:#ffffff;stroke-width:1.37953;stroke-linecap:round;stroke-linejoin:round"
     d="m 228.84869,597.99257 c -8.57767,-5.63921 -16.06564,-10.72958 -16.63994,-11.31194 -0.5743,-0.58236 11.27138,-7.24555 26.32373,-14.8071 15.05235,-7.56153 32.64659,-17.42988 39.09829,-21.92967 6.45171,-4.49977 15.92767,-11.13352 21.05766,-14.74164 15.40636,-10.83591 18.43696,-22.21476 8.54987,-32.10185 -4.96428,-4.96428 -5.97257,-5.34144 -12.35596,-4.62195 -4.19851,0.47324 -8.36688,2.11398 -10.52755,4.14382 -3.06881,2.883 -4.63376,3.21402 -11.01569,2.3301 -16.9658,-2.34983 -42.79424,-11.27625 -45.55558,-15.7442 -1.78887,-2.89445 11.01054,-11.96658 30.21809,-21.41838 20.83744,-10.25385 23.72047,-13.44027 21.96245,-24.27367 -1.95062,-12.02024 -7.0725,-14.12096 -38.9776,-15.98645 -32.2833,-1.8876 -49.9651,-4.07778 -56.96795,-7.05637 l -5.47445,-2.3285 12.26054,-5.14862 c 17.7029,-7.43404 29.51172,-9.24043 46.31753,-7.08516 19.04363,2.44225 24.56311,2.21103 31.8901,-1.33591 10.48546,-5.07591 13.31301,-17.1598 6.03831,-25.80529 -4.30173,-5.11233 -11.35206,-7.80901 -32.13866,-12.2927 -37.90036,-8.17516 -67.75627,-25.66605 -98.98494,-57.98969 -36.80105,-38.0914 -52.345095,-74.69458 -41.18949,-96.99315 4.45161,-8.89817 8.42523,-11.50758 17.35002,-11.3935 11.3747,0.14541 25.83001,5.49931 55.39146,20.51567 50.25795,25.52957 97.95948,58.34903 159.05396,109.4318 23.70006,19.81627 25.32026,20.91085 30.94222,20.90391 5.57059,-0.007 13.98221,-4.82407 15.21698,-8.7145 0.48903,-1.54079 2.43921,-3.48493 4.3337,-4.3203 1.8945,-0.83538 6.07306,-6.34645 9.28567,-12.24683 13.95165,-25.62403 27.40575,-42.11687 41.80759,-51.25025 9.65356,-6.12211 17.85569,-8.28121 26.52211,-6.9816 6.36899,0.95509 8.45358,2.60134 26.16261,20.66126 l 19.24221,19.62349 -5.69565,4.0551 c -12.36392,8.80266 -23.60921,27.25286 -28.26901,46.38112 -2.0071,8.239 -2.58656,19.09249 -2.7657,51.80207 -0.22432,40.95833 -0.27046,41.51183 -4.53465,54.40613 -14.70171,44.45575 -41.56356,71.06682 -84.21205,83.42587 -15.46661,4.48205 -53.4252,8.62377 -67.99862,7.41943 -7.49836,-0.61966 -10.45369,-0.2101 -13.66448,1.89368 -2.25325,1.4764 -6.77636,2.8842 -10.05134,3.12846 -10.13722,0.75607 -21.95609,12.542 -38.7472,38.63921 -3.37165,5.24032 -6.4751,9.4926 -6.89655,9.44951 -0.42146,-0.0431 -7.78438,-4.69221 -16.36204,-10.33141 z M 474.17844,313.57185 c 7.53741,-3.14933 10.11275,-7.79574 10.11275,-18.2453 0,-7.87332 -0.54871,-9.521 -4.47982,-13.4521 -5.64944,-5.64944 -15.82804,-6.26325 -22.09649,-1.33251 -10.83407,8.52209 -6.95672,30.96282 5.88665,34.06981 5.00265,1.21022 5.24977,1.18592 10.57691,-1.0399 z"
     id="path12"
     transform="scale(0.5)" />
  <g
     id="g1"
     style="display:none">
    <path
       d="m 258.691,205.677 c 3.553,-33.034 14.372,-53.743 43.885,-70.69 6.802,-3.906 14.597,-6.266 21.443,-10.309 6.733,-3.976 10.205,-11.115 16.457,-15.218"
       stroke="#000000"
       stroke-opacity="0.9"
       stroke-width="16"
       stroke-linecap="round"
       stroke-linejoin="round"
       id="path4" />
    <path
       d="m 340.477,102.974 c 1.177,-3.6514 3.033,-7.0211 4.509,-10.5524 11.408,-27.3065 25.633,13.4304 -4.509,13.4304"
       stroke="#000000"
       stroke-opacity="0.9"
       stroke-width="16"
       stroke-linecap="round"
       stroke-linejoin="round"
       id="path5" />
    <path
       d="m 320.074,121.716 c 5.529,-5.458 0.787,-32.2977 -8.975,-27.2671 -12.941,6.6691 7.058,23.8301 11.337,28.2401"
       stroke="#000000"
       stroke-opacity="0.9"
       stroke-width="16"
       stroke-linecap="round"
       stroke-linejoin="round"
       id="path6" />
    <path
       d="m 327.935,125.284 c 4.574,-0.849 8.455,1.395 12.842,2.118 4.109,0.677 6.938,1.168 7.903,5.822 3.125,15.07 -28.649,9.164 -28.649,-6.881"
       stroke="#000000"
       stroke-opacity="0.9"
       stroke-width="16"
       stroke-linecap="round"
       stroke-linejoin="round"
       id="path7" />
    <path
       d="m 292.767,139.528 c 8.09,-27.848 -28.866,-29.221 -24.013,-15.779 1.042,2.886 4.707,3.412 6.861,5.089 3.271,2.548 5.352,6.5 9.311,8.144 4.293,1.784 8.049,-0.365 12.252,2.546"
       stroke="#000000"
       stroke-opacity="0.9"
       stroke-width="16"
       stroke-linecap="round"
       stroke-linejoin="round"
       id="path8" />
    <path
       d="m 301.908,146.912 c 26.604,-2.321 17.586,33.423 1.912,19.421 -7.785,-6.954 -7.186,-17.448 -13.857,-24.4"
       stroke="#000000"
       stroke-opacity="0.9"
       stroke-width="16"
       stroke-linecap="round"
       stroke-linejoin="round"
       id="path9" />
    <path
       d="m 274.328,176.655 c 26.718,-3.735 23.502,30.531 11.53,23.172 -11.425,-7.023 -12.338,-21.501 -17.546,-26.623"
       stroke="#000000"
       stroke-opacity="0.9"
       stroke-width="16"
       stroke-linecap="round"
       stroke-linejoin="round"
       id="path10" />
    <path
       style="display:inline;fill:#008000;stroke-width:1.37952;stroke-linecap:round;stroke-linejoin:round"
       d="m 619.73149,321.77441 c -2.12203,-1.58153 -4.42487,-4.16032 -6.09684,-6.82742 -0.39699,-0.63328 -1.17126,-2.03531 -1.72059,-3.11561 l -0.99878,-1.96418 0.3683,-0.0451 c 0.59147,-0.0723 2.98445,0.37602 4.29808,0.8053 2.60704,0.85194 4.19873,2.09145 5.09641,3.96878 0.28819,0.60269 0.60161,1.46154 0.6965,1.90856 0.35073,1.65225 0.11337,4.60583 -0.45773,5.69582 l -0.17229,0.32882 z"
       id="path13"
       transform="scale(0.5)" />
    <path
       style="fill:#008000;stroke-width:1.37953;stroke-linecap:round;stroke-linejoin:round"
       d="m 572.53827,379.37068 c -1.58678,-1.8999 -3.17977,-4.22855 -4.60794,-6.73595 -0.53568,-0.94048 -0.7312,-1.30207 -0.70406,-1.30207 0.0385,0 0.6268,0.4116 0.97564,0.68265 1.7846,1.38667 3.21426,3.34318 4.12445,5.64439 0.32294,0.81646 0.73578,2.1401 0.7005,2.24592 -0.007,0.0197 -0.22643,-0.22104 -0.48859,-0.53494 z"
       id="path14"
       transform="scale(0.5)" />
    <path
       style="display:inline;fill:#008000;stroke-width:0.68976;stroke-linecap:round;stroke-linejoin:round"
       d="m 278.44812,125.25502 c -1.06101,-0.79076 -2.21243,-2.08016 -3.04842,-3.41371 -0.19849,-0.31664 -0.58563,-1.01765 -0.86029,-1.5578 l -0.49939,-0.98209 0.18415,-0.0226 c 0.29573,-0.0361 1.49222,0.18801 2.14904,0.40265 1.30352,0.42597 2.09936,1.04572 2.5482,1.98439 0.1441,0.30134 0.30081,0.73077 0.34825,0.95428 0.17537,0.82612 0.0567,2.30291 -0.22886,2.84791 l -0.0862,0.16441 z"
       id="path15" />
    <path
       style="display:inline;fill:#008000;stroke-width:0.68976;stroke-linecap:round;stroke-linejoin:round"
       d="m 314.46345,106.48107 c -1.06101,-0.79076 -2.21243,-2.08016 -3.04842,-3.41371 -0.19849,-0.31664 -0.58563,-1.01765 -0.86029,-1.5578 l -0.49939,-0.98209 0.18415,-0.0226 c 0.29573,-0.0361 1.49222,0.18801 2.14904,0.40265 1.30352,0.42597 2.09936,1.04572 2.5482,1.98439 0.1441,0.30134 0.30081,0.73077 0.34825,0.95428 0.17537,0.82612 0.0567,2.30291 -0.22886,2.84791 l -0.0862,0.16441 z"
       id="path16" />
    <path
       style="display:inline;fill:#008000;stroke-width:0.68976;stroke-linecap:round;stroke-linejoin:round"
       d="m 342.70645,136.77756 c -1.31778,0.12042 -3.03596,-0.0698 -4.54892,-0.50361 -0.35924,-0.103 -1.11563,-0.36599 -1.68086,-0.58443 l -1.0277,-0.39715 0.12193,-0.13984 c 0.19594,-0.22443 1.23597,-0.857 1.8681,-1.13609 1.25453,-0.55387 2.26075,-0.62438 3.22183,-0.22577 0.30854,0.12796 0.71203,0.3428 0.89665,0.47742 0.6824,0.49756 1.58069,1.67572 1.7323,2.27203 l 0.0457,0.17993 z"
       id="path17" />
    <path
       style="display:inline;fill:#008000;stroke-width:0.68976;stroke-linecap:round;stroke-linejoin:round"
       d="m 353.4951,91.198768 c -0.32244,1.283385 -1.07052,2.841817 -1.98055,4.125983 -0.21607,0.304916 -0.71455,0.931664 -1.10772,1.392764 l -0.71486,0.838377 -0.0916,-0.161336 c -0.14695,-0.259168 -0.39972,-1.44993 -0.4539,-2.138802 -0.10753,-1.367134 0.15891,-2.339997 0.8531,-3.115024 0.22285,-0.248813 0.55911,-0.558477 0.74724,-0.688147 0.69534,-0.479304 2.10438,-0.937113 2.71727,-0.882853 l 0.18491,0.01642 z"
       id="path18" />
  </g>
  <path
     style="fill:#18a314;fill-opacity:1;stroke:#000000;stroke-width:4;stroke-dasharray:none;stroke-opacity:1;opacity:0.8"
     d="m 324.34961,91.552784 c 0.66291,3.165211 2.06278,6.141929 3.65485,8.996676 1.78176,3.17078 3.79644,6.24657 3.92089,9.9136 0.0123,0.14003 0.0482,0.25378 0.10847,0.34029 -3.34726,4.04825 -6.80083,8.01101 -10.35377,11.90344 -0.10042,0.0239 -0.20405,0.0403 -0.31515,0.0598 -0.40412,0.0878 -0.55605,0.46583 -0.48145,0.79429 -1.36487,1.48787 -2.75271,2.96773 -4.15806,4.43 2.48801,-4.51806 3.56319,-9.63114 2.93122,-14.69794 -0.55581,-4.4653 -2.91913,-10.53588 -8.90327,-10.37002 -5.927,0.16807 -6.99432,6.85909 -5.95034,11.00561 1.57941,6.2191 6.77226,10.88848 9.4082,16.67661 -3.94029,4.03305 -7.9904,7.97432 -12.14202,11.82032 -0.33747,0.0521 -0.55556,0.29456 -0.61095,0.56478 -2.175,2.00641 -4.38323,3.98277 -6.62047,5.93754 1.83164,-4.18194 2.92203,-8.37831 2.41978,-13.07956 -0.42515,-4.04039 -2.30204,-10.24045 -8.0773,-9.29648 -5.39947,0.87615 -6.8661,6.73817 -6.25415,10.99325 0.8106,5.60949 4.55397,10.18546 8.3483,14.44198 -6.57629,5.58589 -13.39233,10.94494 -20.43529,16.04606 -0.73068,0.52857 0.0341,1.66966 0.76912,1.13054 7.11377,-5.14682 13.98935,-10.55616 20.63266,-16.19543 0.47225,0.22631 1.12828,0.0444 1.09445,-0.56572 -0.01,-0.11569 -0.0188,-0.2314 -0.0282,-0.34711 3.09398,-2.64561 6.14555,-5.34231 9.13402,-8.09026 5.03522,2.3575 11.10236,4.85023 16.7944,4.81202 4.37517,-0.0312 9.41762,-2.8984 8.55115,-7.46804 -0.81512,-4.30838 -5.80461,-6.28277 -10.10431,-5.92349 -3.16813,0.25755 -6.25062,1.30853 -9.0909,2.7657 4.68477,-4.53328 9.22776,-9.18803 13.61663,-13.9678 3.8221,0.59574 7.64399,1.19209 11.46943,1.79472 3.09692,0.48095 6.45936,1.35848 9.62568,0.90533 4.72323,-0.67721 8.85349,-5.60856 6.83935,-9.99252 -2.11651,-4.61543 -9.60747,-3.85296 -13.73033,-2.54825 -3.82094,1.1983 -7.1866,3.26227 -10.33918,5.55583 4.05562,-4.58464 7.99058,-9.26487 11.77124,-14.05313 0.0965,-0.0309 0.18313,-0.0833 0.27014,-0.15311 0.0593,-0.0497 0.11133,-0.0969 0.17136,-0.14645 5.1908,0.54213 10.68968,0.7964 15.69604,-0.81698 3.80334,-1.23428 9.29774,-4.37958 8.60409,-8.745834 -1.2615,-7.989114 -14.25467,0.23809 -21.35091,5.497724 2.6488,-3.472201 5.21973,-6.990096 7.71259,-10.553067 0.0613,-0.08452 0.0882,-0.16414 0.1071,-0.240031 l 0.124,-0.05059 c 4.40897,-2.446259 9.36799,-5.775837 11.51418,-10.231286 1.40197,-2.895732 1.531,-7.058987 -1.45906,-9.207915 -3.21826,-2.311984 -6.1589,0.38225 -7.29996,3.180628 -2.16906,5.294084 -3.5201,10.972389 -5.23564,16.397997 -0.0807,0.237889 0.0264,0.459589 0.2019,0.609893 -3.73659,5.283842 -7.6404,10.472321 -11.70517,15.539011 2.03814,-4.94998 3.62946,-10.110988 2.92634,-15.439568 -0.54796,-4.160907 -2.95447,-10.359005 -8.31444,-10.943217 -6.26259,-0.677827 -6.22724,7.332903 -5.45727,11.01008 z"
     id="path101" />
</svg>
