<?xml version="1.0" encoding="UTF-8" standalone="no"?>
<!-- Uploaded to: SVG Repo, www.svgrepo.com, Generator: SVG Repo Mixer Tools -->

<svg
   width="800px"
   height="800px"
   viewBox="0 0 400 400"
   fill="none"
   version="1.1"
   id="svg11"
   sodipodi:docname="dead.svg"
   inkscape:version="1.3.2 (091e20e, 2023-11-25, custom)"
   xmlns:inkscape="http://www.inkscape.org/namespaces/inkscape"
   xmlns:sodipodi="http://sodipodi.sourceforge.net/DTD/sodipodi-0.dtd"
   xmlns="http://www.w3.org/2000/svg"
   xmlns:svg="http://www.w3.org/2000/svg">
  <defs
     id="defs11" />
  <sodipodi:namedview
     id="namedview11"
     pagecolor="#ffffff"
     bordercolor="#000000"
     borderopacity="0.25"
     inkscape:showpageshadow="2"
     inkscape:pageopacity="0.0"
     inkscape:pagecheckerboard="0"
     inkscape:deskcolor="#d1d1d1"
     inkscape:zoom="1.305"
     inkscape:cx="524.90421"
     inkscape:cy="359.77012"
     inkscape:window-width="1304"
     inkscape:window-height="745"
     inkscape:window-x="54"
     inkscape:window-y="-8"
     inkscape:window-maximized="1"
     inkscape:current-layer="svg11" />
  <path
     d="M188.382 161.748C195.683 145.172 214.004 119.593 235.844 126.146C246.764 129.422 250.412 142.084 260.07 146.914C266.363 150.061 272.565 153.656 278.857 156.803C279.323 157.036 280.34 156.776 280.34 157.297C280.34 157.468 269.252 157.086 267.981 157.297C259.309 158.743 252.089 164.856 248.205 172.626C239.571 189.897 247.318 211.776 242.766 229.984C234.079 264.738 209.104 283.173 174.045 285.365C168.453 285.714 160.734 287.19 155.258 285.365"
     stroke="#000000"
     stroke-opacity="0.9"
     stroke-width="16"
     stroke-linecap="round"
     stroke-linejoin="round"
     id="path1" />
  <path
     d="M182.921 167.098C152.765 141.295 120.563 115.972 84.3387 99.0768C74.0432 94.2748 55.9107 85.6365 46.6897 97.1053C26.3203 122.44 65.6613 164.682 85.8251 177.449C95.8069 183.769 106.942 188.946 118.521 191.25C125.525 192.644 131.717 194.386 131.4 194.701C129.276 196.814 115.062 193.55 112.081 193.715C102.988 194.217 94.5102 197.347 86.3201 201.108C84.4681 201.958 76.9579 205.659 78.3944 208.994C83.9378 221.865 103.89 220.801 115.053 221.81C119.995 222.258 125.55 221.99 130.41 222.796C130.925 222.882 132.129 222.824 131.896 223.289C131.714 223.65 104.154 233.387 104.154 244.977C104.154 255.285 144.802 267.067 148.042 257.394"
     stroke="#000000"
     stroke-opacity="0.9"
     stroke-width="16"
     stroke-linecap="round"
     stroke-linejoin="round"
     id="path2" />
  <path
     d="M148.041 257.394C141.666 262.688 135.027 267.852 127.905 272.124C124.481 274.178 90.0673 289.505 91.5609 293.238C91.8169 293.878 110.935 307.249 113.662 308.46C115.241 309.162 123.794 316.652 124.466 316.316C127.888 314.606 137.195 294.248 146.076 288.328"
     stroke="#000000"
     stroke-opacity="0.9"
     stroke-width="16"
     stroke-linecap="round"
     stroke-linejoin="round"
     id="path3" />
  <path
     d="M258.691 205.677C262.244 172.643 273.063 151.934 302.576 134.987C309.378 131.081 317.173 128.721 324.019 124.678C330.752 120.702 334.224 113.563 340.476 109.46"
     stroke="#000000"
     stroke-opacity="0.9"
     stroke-width="16"
     stroke-linecap="round"
     stroke-linejoin="round"
     id="path4" />
  <path
     d="M340.477 102.974C341.654 99.3226 343.51 95.9529 344.986 92.4216C356.394 65.1151 370.619 105.852 340.477 105.852"
     stroke="#000000"
     stroke-opacity="0.9"
     stroke-width="16"
     stroke-linecap="round"
     stroke-linejoin="round"
     id="path5" />
  <path
     d="M320.074 121.716C325.603 116.258 320.861 89.4183 311.099 94.4489C298.158 101.118 318.157 118.279 322.436 122.689"
     stroke="#000000"
     stroke-opacity="0.9"
     stroke-width="16"
     stroke-linecap="round"
     stroke-linejoin="round"
     id="path6" />
  <path
     d="M327.935 125.284C332.509 124.435 336.39 126.679 340.777 127.402C344.886 128.079 347.715 128.57 348.68 133.224C351.805 148.294 320.031 142.388 320.031 126.343"
     stroke="#000000"
     stroke-opacity="0.9"
     stroke-width="16"
     stroke-linecap="round"
     stroke-linejoin="round"
     id="path7" />
  <path
     d="M292.767 139.528C300.857 111.68 263.901 110.307 268.754 123.749C269.796 126.635 273.461 127.161 275.615 128.838C278.886 131.386 280.967 135.338 284.926 136.982C289.219 138.766 292.975 136.617 297.178 139.528"
     stroke="#000000"
     stroke-opacity="0.9"
     stroke-width="16"
     stroke-linecap="round"
     stroke-linejoin="round"
     id="path8" />
  <path
     d="M301.908 146.912C328.512 144.591 319.494 180.335 303.82 166.333C296.035 159.379 296.634 148.885 289.963 141.933"
     stroke="#000000"
     stroke-opacity="0.9"
     stroke-width="16"
     stroke-linecap="round"
     stroke-linejoin="round"
     id="path9" />
  <path
     d="M274.328 176.655C301.046 172.92 297.83 207.186 285.858 199.827C274.433 192.804 273.52 178.326 268.312 173.204"
     stroke="#000000"
     stroke-opacity="0.9"
     stroke-width="16"
     stroke-linecap="round"
     stroke-linejoin="round"
     id="path10" />
  <path
     d="M234.035 149.15C234.035 148.348 234.035 147.546 234.035 146.744"
     stroke="#000000"
     stroke-opacity="0.9"
     stroke-width="16"
     stroke-linecap="round"
     stroke-linejoin="round"
     id="path11" />
  <path
     style="fill:#ffffff;stroke-width:1.37953;stroke-linecap:round;stroke-linejoin:round"
     d="m 228.84869,597.99257 c -8.57767,-5.63921 -16.06564,-10.72958 -16.63994,-11.31194 -0.5743,-0.58236 11.27138,-7.24555 26.32373,-14.8071 15.05235,-7.56153 32.64659,-17.42988 39.09829,-21.92967 6.45171,-4.49977 15.92767,-11.13352 21.05766,-14.74164 15.40636,-10.83591 18.43696,-22.21476 8.54987,-32.10185 -4.96428,-4.96428 -5.97257,-5.34144 -12.35596,-4.62195 -4.19851,0.47324 -8.36688,2.11398 -10.52755,4.14382 -3.06881,2.883 -4.63376,3.21402 -11.01569,2.3301 -16.9658,-2.34983 -42.79424,-11.27625 -45.55558,-15.7442 -1.78887,-2.89445 11.01054,-11.96658 30.21809,-21.41838 20.83744,-10.25385 23.72047,-13.44027 21.96245,-24.27367 -1.95062,-12.02024 -7.0725,-14.12096 -38.9776,-15.98645 -32.2833,-1.8876 -49.9651,-4.07778 -56.96795,-7.05637 l -5.47445,-2.3285 12.26054,-5.14862 c 17.7029,-7.43404 29.51172,-9.24043 46.31753,-7.08516 19.04363,2.44225 24.56311,2.21103 31.8901,-1.33591 10.48546,-5.07591 13.31301,-17.1598 6.03831,-25.80529 -4.30173,-5.11233 -11.35206,-7.80901 -32.13866,-12.2927 -37.90036,-8.17516 -67.75627,-25.66605 -98.98494,-57.98969 -36.80105,-38.0914 -52.345095,-74.69458 -41.18949,-96.99315 4.45161,-8.89817 8.42523,-11.50758 17.35002,-11.3935 11.3747,0.14541 25.83001,5.49931 55.39146,20.51567 50.25795,25.52957 97.95948,58.34903 159.05396,109.4318 23.70006,19.81627 25.32026,20.91085 30.94222,20.90391 5.57059,-0.007 13.98221,-4.82407 15.21698,-8.7145 0.48903,-1.54079 2.43921,-3.48493 4.3337,-4.3203 1.8945,-0.83538 6.07306,-6.34645 9.28567,-12.24683 13.95165,-25.62403 27.40575,-42.11687 41.80759,-51.25025 9.65356,-6.12211 17.85569,-8.28121 26.52211,-6.9816 6.36899,0.95509 8.45358,2.60134 26.16261,20.66126 l 19.24221,19.62349 -5.69565,4.0551 c -12.36392,8.80266 -23.60921,27.25286 -28.26901,46.38112 -2.0071,8.239 -2.58656,19.09249 -2.7657,51.80207 -0.22432,40.95833 -0.27046,41.51183 -4.53465,54.40613 -14.70171,44.45575 -41.56356,71.06682 -84.21205,83.42587 -15.46661,4.48205 -53.4252,8.62377 -67.99862,7.41943 -7.49836,-0.61966 -10.45369,-0.2101 -13.66448,1.89368 -2.25325,1.4764 -6.77636,2.8842 -10.05134,3.12846 -10.13722,0.75607 -21.95609,12.542 -38.7472,38.63921 -3.37165,5.24032 -6.4751,9.4926 -6.89655,9.44951 -0.42146,-0.0431 -7.78438,-4.69221 -16.36204,-10.33141 z M 474.17844,313.57185 c 7.53741,-3.14933 10.11275,-7.79574 10.11275,-18.2453 0,-7.87332 -0.54871,-9.521 -4.47982,-13.4521 -5.64944,-5.64944 -15.82804,-6.26325 -22.09649,-1.33251 -10.83407,8.52209 -6.95672,30.96282 5.88665,34.06981 5.00265,1.21022 5.24977,1.18592 10.57691,-1.0399 z"
     id="path12"
     transform="scale(0.5)" />
  <path
     style="display:inline;fill:#008000;stroke-width:1.37952;stroke-linecap:round;stroke-linejoin:round"
     d="m 619.73149,321.77441 c -2.12203,-1.58153 -4.42487,-4.16032 -6.09684,-6.82742 -0.39699,-0.63328 -1.17126,-2.03531 -1.72059,-3.11561 l -0.99878,-1.96418 0.3683,-0.0451 c 0.59147,-0.0723 2.98445,0.37602 4.29808,0.8053 2.60704,0.85194 4.19873,2.09145 5.09641,3.96878 0.28819,0.60269 0.60161,1.46154 0.6965,1.90856 0.35073,1.65225 0.11337,4.60583 -0.45773,5.69582 l -0.17229,0.32882 z"
     id="path13"
     transform="scale(0.5)" />
  <path
     style="fill:#008000;stroke-width:1.37953;stroke-linecap:round;stroke-linejoin:round"
     d="m 572.53827,379.37068 c -1.58678,-1.8999 -3.17977,-4.22855 -4.60794,-6.73595 -0.53568,-0.94048 -0.7312,-1.30207 -0.70406,-1.30207 0.0385,0 0.6268,0.4116 0.97564,0.68265 1.7846,1.38667 3.21426,3.34318 4.12445,5.64439 0.32294,0.81646 0.73578,2.1401 0.7005,2.24592 -0.007,0.0197 -0.22643,-0.22104 -0.48859,-0.53494 z"
     id="path14"
     transform="scale(0.5)" />
  <path
     style="display:inline;fill:#008000;stroke-width:0.68976;stroke-linecap:round;stroke-linejoin:round"
     d="m 278.44812,125.25502 c -1.06101,-0.79076 -2.21243,-2.08016 -3.04842,-3.41371 -0.19849,-0.31664 -0.58563,-1.01765 -0.86029,-1.5578 l -0.49939,-0.98209 0.18415,-0.0226 c 0.29573,-0.0361 1.49222,0.18801 2.14904,0.40265 1.30352,0.42597 2.09936,1.04572 2.5482,1.98439 0.1441,0.30134 0.30081,0.73077 0.34825,0.95428 0.17537,0.82612 0.0567,2.30291 -0.22886,2.84791 l -0.0862,0.16441 z"
     id="path15" />
  <path
     style="display:inline;fill:#008000;stroke-width:0.68976;stroke-linecap:round;stroke-linejoin:round"
     d="m 314.46345,106.48107 c -1.06101,-0.79076 -2.21243,-2.08016 -3.04842,-3.41371 -0.19849,-0.31664 -0.58563,-1.01765 -0.86029,-1.5578 l -0.49939,-0.98209 0.18415,-0.0226 c 0.29573,-0.0361 1.49222,0.18801 2.14904,0.40265 1.30352,0.42597 2.09936,1.04572 2.5482,1.98439 0.1441,0.30134 0.30081,0.73077 0.34825,0.95428 0.17537,0.82612 0.0567,2.30291 -0.22886,2.84791 l -0.0862,0.16441 z"
     id="path16" />
  <path
     style="display:inline;fill:#008000;stroke-width:0.68976;stroke-linecap:round;stroke-linejoin:round"
     d="m 342.70645,136.77756 c -1.31778,0.12042 -3.03596,-0.0698 -4.54892,-0.50361 -0.35924,-0.103 -1.11563,-0.36599 -1.68086,-0.58443 l -1.0277,-0.39715 0.12193,-0.13984 c 0.19594,-0.22443 1.23597,-0.857 1.8681,-1.13609 1.25453,-0.55387 2.26075,-0.62438 3.22183,-0.22577 0.30854,0.12796 0.71203,0.3428 0.89665,0.47742 0.6824,0.49756 1.58069,1.67572 1.7323,2.27203 l 0.0457,0.17993 z"
     id="path17" />
  <path
     style="display:inline;fill:#008000;stroke-width:0.68976;stroke-linecap:round;stroke-linejoin:round"
     d="m 353.4951,91.198768 c -0.32244,1.283385 -1.07052,2.841817 -1.98055,4.125983 -0.21607,0.304916 -0.71455,0.931664 -1.10772,1.392764 l -0.71486,0.838377 -0.0916,-0.161336 c -0.14695,-0.259168 -0.39972,-1.44993 -0.4539,-2.138802 -0.10753,-1.367134 0.15891,-2.339997 0.8531,-3.115024 0.22285,-0.248813 0.55911,-0.558477 0.74724,-0.688147 0.69534,-0.479304 2.10438,-0.937113 2.71727,-0.882853 l 0.18491,0.01642 z"
     id="path18" />
</svg>
